<svg width="418" height="454" viewBox="0 0 418 454" fill="none" xmlns="http://www.w3.org/2000/svg">
<path d="M607.171 227C607.171 352.092 505.54 453.5 380.171 453.5C254.803 453.5 153.171 352.092 153.171 227C153.171 101.908 254.803 0.5 380.171 0.5C505.54 0.5 607.171 101.908 607.171 227Z" fill="url(#paint0_radial_10421_90469)"/>
<path d="M644.053 379.004C645.435 375.774 644.775 371.66 642.047 366.697C639.323 361.744 634.587 356.04 628.003 349.706C614.839 337.041 594.378 321.943 568.155 305.391C515.716 272.291 440.314 233.429 354.382 196.655C268.449 159.881 188.277 132.168 128.127 117.086C98.0484 109.544 72.9991 105.167 54.7487 104.389C45.6206 103.999 38.2246 104.512 32.761 105.961C27.2867 107.414 23.8553 109.777 22.4731 113.007C21.091 116.237 21.7503 120.351 24.4792 125.314C27.2027 130.267 31.9385 135.971 38.5226 142.306C51.6866 154.97 72.1477 170.069 98.3707 186.621C150.81 219.72 226.211 258.582 312.144 295.356C398.076 332.13 478.249 359.844 538.399 374.925C568.477 382.467 593.527 386.844 611.777 387.623C620.905 388.012 628.301 387.5 633.765 386.05C639.239 384.598 642.67 382.234 644.053 379.004Z" stroke="url(#paint1_linear_10421_90469)"/>
<circle opacity="0.6" cx="280" cy="112" r="1" fill="white"/>
<circle opacity="0.6" cx="352" cy="245" r="1" fill="white"/>
<path d="M343 179C343 179.552 342.552 180 342 180C341.448 180 341 179.552 341 179C341 178.448 341.448 178 342 178C342.552 178 343 178.448 343 179Z" fill="white"/>
<defs>
<radialGradient id="paint0_radial_10421_90469" cx="0" cy="0" r="1" gradientUnits="userSpaceOnUse" gradientTransform="translate(447.671 258.5) rotate(-143.645) scale(289.312 289.95)">
<stop offset="0.307284" stop-opacity="0"/>
<stop offset="0.584068" stop-color="#141F47" stop-opacity="0.525791"/>
<stop offset="0.833699" stop-color="#E92E01"/>
<stop offset="1" stop-color="white"/>
</radialGradient>
<linearGradient id="paint1_linear_10421_90469" x1="311.947" y1="295.816" x2="349.34" y2="208.283" gradientUnits="userSpaceOnUse">
<stop stop-color="white"/>
<stop offset="1" stop-color="white" stop-opacity="0"/>
</linearGradient>
</defs>
</svg>
