<svg width="142" height="142" viewBox="0 0 142 142" fill="none" xmlns="http://www.w3.org/2000/svg">
<rect width="142" height="142" rx="71" fill="black"/>
<g clip-path="url(#clip0_10481_91030)">
<path d="M50.2057 79.3244C49.5875 76.9881 49.5159 74.5408 49.9964 72.1723C50.477 69.8038 51.4967 67.5779 52.9766 65.6673C54.4564 63.7566 56.3566 62.2126 58.5296 61.155C60.7026 60.0974 63.0901 59.5547 65.5067 59.569C66.8427 59.5716 68.1727 59.7481 69.4632 60.0938L73.9176 55.6394C71.2614 54.4956 68.3987 53.9094 65.5067 53.9169C61.957 53.9123 58.4615 54.7887 55.3338 56.4675C52.2062 58.1463 49.544 60.5751 47.586 63.536C45.6281 66.497 44.4355 69.8976 44.1153 73.4329C43.7951 76.9682 44.3572 80.5277 45.7513 83.7923L50.2057 79.3244Z" fill="url(#paint0_linear_10481_91030)"/>
<path d="M50.2057 79.3244C49.5875 76.9881 49.5159 74.5408 49.9964 72.1723C50.477 69.8038 51.4967 67.5779 52.9766 65.6673C54.4564 63.7566 56.3566 62.2126 58.5296 61.155C60.7026 60.0974 63.0901 59.5547 65.5067 59.569C66.8427 59.5716 68.1727 59.7481 69.4632 60.0938L73.9176 55.6394C71.2614 54.4956 68.3987 53.9094 65.5067 53.9169C61.957 53.9123 58.4615 54.7887 55.3338 56.4675C52.2062 58.1463 49.544 60.5751 47.586 63.536C45.6281 66.497 44.4355 69.8976 44.1153 73.4329C43.7951 76.9682 44.3572 80.5277 45.7513 83.7923L50.2057 79.3244Z" fill="white"/>
<path d="M80.3906 70.0792C81.0022 71.7755 81.3164 73.5647 81.3192 75.3679C81.3156 79.5618 79.6489 83.5831 76.6847 86.5498C73.7204 89.5166 69.7006 91.1867 65.5067 91.1938C63.7027 91.1867 61.9135 90.868 60.218 90.2518L55.952 94.5582C59.9763 96.5711 64.5323 97.2658 68.9737 96.5439C73.4151 95.8219 77.5164 93.7198 80.6959 90.5358C83.8754 87.3518 85.9717 83.2476 86.6875 78.8052C87.4032 74.3628 86.7021 69.8078 84.6835 65.7863L80.3906 70.0792Z" fill="url(#paint1_linear_10481_91030)"/>
<path d="M80.3906 70.0792C81.0022 71.7755 81.3164 73.5647 81.3192 75.3679C81.3156 79.5618 79.6489 83.5831 76.6847 86.5498C73.7204 89.5166 69.7006 91.1867 65.5067 91.1938C63.7027 91.1867 61.9135 90.868 60.218 90.2518L55.952 94.5582C59.9763 96.5711 64.5323 97.2658 68.9737 96.5439C73.4151 95.8219 77.5164 93.7198 80.6959 90.5358C83.8754 87.3518 85.9717 83.2476 86.6875 78.8052C87.4032 74.3628 86.7021 69.8078 84.6835 65.7863L80.3906 70.0792Z" fill="white"/>
<path d="M49.8289 79.755C47.4055 75.1313 46.521 69.8548 47.3042 64.6936C48.0875 59.5324 50.4975 54.7559 54.1836 51.0593C57.8696 47.3628 62.6393 44.9391 67.7982 44.1412C72.9572 43.3433 78.2362 44.2127 82.8668 46.623L87.0251 42.4646C81.2539 39.0484 74.5098 37.6504 67.8562 38.4912C61.2026 39.3321 55.0182 42.3638 50.2784 47.1083C45.5385 51.8528 42.5128 58.0401 41.6785 64.6945C40.8442 71.3489 42.2487 78.0917 45.6705 83.8595L49.8289 79.755Z" fill="url(#paint2_linear_10481_91030)"/>
<path d="M49.8289 79.755C47.4055 75.1313 46.521 69.8548 47.3042 64.6936C48.0875 59.5324 50.4975 54.7559 54.1836 51.0593C57.8696 47.3628 62.6393 44.9391 67.7982 44.1412C72.9572 43.3433 78.2362 44.2127 82.8668 46.623L87.0251 42.4646C81.2539 39.0484 74.5098 37.6504 67.8562 38.4912C61.2026 39.3321 55.0182 42.3638 50.2784 47.1083C45.5385 51.8528 42.5128 58.0401 41.6785 64.6945C40.8442 71.3489 42.2487 78.0917 45.6705 83.8595L49.8289 79.755Z" fill="white"/>
<path d="M93.377 57.0928C95.2107 60.5784 96.1669 64.4585 96.1627 68.397C96.169 72.6157 95.0868 76.7647 93.0206 80.4428C90.9545 84.1208 87.9742 87.2036 84.3681 89.393C80.762 91.5824 76.652 92.8043 72.4355 92.9406C68.219 93.0769 64.0387 92.123 60.2987 90.1711L56.1404 94.3294C61.9119 97.7709 68.6664 99.1891 75.3347 98.3595C82.003 97.5298 88.2041 94.4998 92.9565 89.7491C97.7088 84.9983 100.741 78.7982 101.573 72.1301C102.404 65.4621 100.988 58.7071 97.5488 52.9345L93.377 57.0928Z" fill="url(#paint3_linear_10481_91030)"/>
<path d="M93.377 57.0928C95.2107 60.5784 96.1669 64.4585 96.1627 68.397C96.169 72.6157 95.0868 76.7647 93.0206 80.4428C90.9545 84.1208 87.9742 87.2036 84.3681 89.393C80.762 91.5824 76.652 92.8043 72.4355 92.9406C68.219 93.0769 64.0387 92.123 60.2987 90.1711L56.1404 94.3294C61.9119 97.7709 68.6664 99.1891 75.3347 98.3595C82.003 97.5298 88.2041 94.4998 92.9565 89.7491C97.7088 84.9983 100.741 78.7982 101.573 72.1301C102.404 65.4621 100.988 58.7071 97.5488 52.9345L93.377 57.0928Z" fill="white"/>
<path d="M102.006 34.0076L24.995 111.019L28.9917 115.016L106.003 38.0042L102.006 34.0076Z" fill="url(#paint4_linear_10481_91030)"/>
</g>
<defs>
<linearGradient id="paint0_linear_10481_91030" x1="92.8034" y1="46.2864" x2="19.8927" y2="61.8129" gradientUnits="userSpaceOnUse">
<stop stop-color="#CAB7FF"/>
<stop offset="0.162438" stop-color="#FFCEF4"/>
<stop offset="0.298373" stop-color="#F0FFC5"/>
<stop offset="0.601047" stop-color="#59FF9C"/>
<stop offset="1" stop-color="#B659FF"/>
</linearGradient>
<linearGradient id="paint1_linear_10481_91030" x1="92.8034" y1="46.2864" x2="19.8927" y2="61.8129" gradientUnits="userSpaceOnUse">
<stop stop-color="#CAB7FF"/>
<stop offset="0.162438" stop-color="#FFCEF4"/>
<stop offset="0.298373" stop-color="#F0FFC5"/>
<stop offset="0.601047" stop-color="#59FF9C"/>
<stop offset="1" stop-color="#B659FF"/>
</linearGradient>
<linearGradient id="paint2_linear_10481_91030" x1="92.8034" y1="46.2864" x2="19.8927" y2="61.8129" gradientUnits="userSpaceOnUse">
<stop stop-color="#CAB7FF"/>
<stop offset="0.162438" stop-color="#FFCEF4"/>
<stop offset="0.298373" stop-color="#F0FFC5"/>
<stop offset="0.601047" stop-color="#59FF9C"/>
<stop offset="1" stop-color="#B659FF"/>
</linearGradient>
<linearGradient id="paint3_linear_10481_91030" x1="92.8034" y1="46.2864" x2="19.8927" y2="61.8129" gradientUnits="userSpaceOnUse">
<stop stop-color="#CAB7FF"/>
<stop offset="0.162438" stop-color="#FFCEF4"/>
<stop offset="0.298373" stop-color="#F0FFC5"/>
<stop offset="0.601047" stop-color="#59FF9C"/>
<stop offset="1" stop-color="#B659FF"/>
</linearGradient>
<linearGradient id="paint4_linear_10481_91030" x1="26.9933" y1="113.017" x2="104.005" y2="36.0059" gradientUnits="userSpaceOnUse">
<stop stop-color="white" stop-opacity="0"/>
<stop offset="0.643466" stop-color="white"/>
</linearGradient>
<clipPath id="clip0_10481_91030">
<rect width="81" height="81" fill="white" transform="translate(25 34)"/>
</clipPath>
</defs>
</svg>
