<svg width="116" height="111" viewBox="0 0 116 111" fill="none" xmlns="http://www.w3.org/2000/svg">
<path d="M35.7583 54.2585L8.82501 53.1846L46.0215 18.4057L71.7351 18.5554L35.7583 54.2585Z" fill="#FFEEEE"/>
<path d="M35.7583 54.2587L8.82502 53.1848L44.6492 91.8726L70.3628 92.0223L35.7583 54.2587Z" fill="#E92E01"/>
<path d="M35.7584 54.2586L70.4652 92.0775L107.662 57.2987L71.7351 18.5555L35.7584 54.2586Z" fill="url(#paint0_linear_10439_90455)"/>
<path fill-rule="evenodd" clip-rule="evenodd" d="M60.884 53.1714L70.6113 43.8299C70.9652 43.4766 71.3939 43.2072 71.8658 43.0418C72.3674 42.8894 72.9015 42.8791 73.4086 43.0123C73.4397 43.0142 73.4702 43.021 73.4992 43.0323C74.0036 43.1833 74.4602 43.4624 74.8246 43.8423C75.2003 44.234 75.4724 44.7132 75.6161 45.2366L79.5823 61.6612C79.6255 61.8402 79.6212 62.0274 79.5697 62.2043C79.5182 62.3811 79.4213 62.5414 79.2887 62.6692C79.156 62.7862 78.9954 62.867 78.8224 62.9039C78.6494 62.9408 78.4698 62.9326 78.3009 62.8799L62.1601 58.2183C61.6467 58.1178 61.1656 57.8934 60.7587 57.5646C60.3258 57.1743 60.0208 56.6623 59.8838 56.0958C59.7401 55.5326 59.7777 54.9385 59.991 54.3979C60.1935 53.9276 60.4986 53.5085 60.884 53.1714ZM66.4031 50.7634L62.3289 54.676C62.1647 54.803 62.0325 54.9666 61.9428 55.1539C61.8836 55.2959 61.8719 55.4533 61.9095 55.6025C61.9464 55.7541 62.0309 55.8898 62.1506 55.9899C62.32 56.0998 62.5111 56.172 62.7109 56.2016L62.699 56.1892L75.0902 59.8217L66.4031 50.7634ZM67.9077 49.3185L76.6664 58.439L73.578 45.7418C73.5228 45.5689 73.4283 45.4111 73.302 45.2808C73.1951 45.1689 73.0639 45.0831 72.9185 45.0302C72.8283 45.0134 72.7374 45.0014 72.646 44.9943C72.605 45.0002 72.5656 45.0139 72.5298 45.0345C72.3446 45.0968 72.1776 45.204 72.0438 45.3464L67.9077 49.3185Z" fill="#E92E01"/>
<defs>
<linearGradient id="paint0_linear_10439_90455" x1="11.9388" y1="46.1473" x2="123.931" y2="56.7899" gradientUnits="userSpaceOnUse">
<stop offset="0.307284"/>
<stop offset="0.584068" stop-color="#162131"/>
<stop offset="0.833699" stop-color="#E92E01"/>
<stop offset="1" stop-color="white"/>
</linearGradient>
</defs>
</svg>
