<svg width="114" height="18" viewBox="0 0 114 18" fill="none" xmlns="http://www.w3.org/2000/svg">
<g opacity="0.5" clip-path="url(#clip0_10481_91040)">
<path fill-rule="evenodd" clip-rule="evenodd" d="M94.5928 12.963C94.8432 14.328 96.1467 15.5705 98.7171 15.5705C101.368 15.5705 102.797 14.0741 102.797 12.6608C102.797 10.5285 100.556 10.2129 99.3519 10.0436C99.174 10.0189 99.0023 9.99429 98.8489 9.96812C97.1009 9.66483 96.2683 9.39233 96.2683 8.66874C96.2683 8.17454 97.1285 7.46173 98.6849 7.46173C100.186 7.46173 100.942 8.19202 101.042 8.7549L102.598 8.22597C102.248 6.97036 100.9 5.8252 98.6879 5.8252C96.3802 5.8252 94.6398 7.0476 94.6398 8.66874C94.6398 10.8974 97.0028 11.3083 98.5699 11.5808L98.5745 11.5816C98.7327 11.6085 98.9039 11.6328 99.0821 11.6582L99.0822 11.6582L99.128 11.6647C100.71 11.8879 101.17 12.1343 101.17 12.6654C101.17 13.1965 100.315 13.934 98.7171 13.934C97.1745 13.934 96.1793 13.3582 96.1793 12.4668H96.0489L94.5928 12.963Z" fill="white"/>
<path d="M27.4182 7.62903C27.9391 7.6281 28.4518 7.75893 28.909 8.00944C29.3662 8.25994 29.7531 8.62206 30.0342 9.06235L31.6442 8.28026C31.1108 7.35495 30.2883 6.63212 29.3041 6.2238C28.32 5.81547 27.2292 5.74444 26.2008 6.02172C25.1724 6.299 24.2638 6.9091 23.6158 7.75748C22.9678 8.60586 22.6166 9.64515 22.6166 10.7143C22.6166 11.7834 22.9678 12.8227 23.6158 13.6711C24.2638 14.5195 25.1724 15.1296 26.2008 15.4068C27.2292 15.6841 28.32 15.6131 29.3041 15.2048C30.2883 14.7964 31.1108 14.0736 31.6442 13.1483L30.0342 12.3585C29.7517 12.796 29.3639 13.1549 28.9067 13.4019C28.4494 13.649 27.9375 13.7762 27.4182 13.7718C27.0113 13.781 26.6066 13.7084 26.2279 13.5584C25.8492 13.4083 25.5043 13.1838 25.2132 12.8981C24.9221 12.6123 24.6909 12.2711 24.533 11.8943C24.3751 11.5176 24.2938 11.113 24.2938 10.7043C24.2938 10.2956 24.3751 9.89095 24.533 9.51422C24.6909 9.1375 24.9221 8.79624 25.2132 8.51048C25.5043 8.22473 25.8492 8.00024 26.2279 7.85019C26.6066 7.70015 27.0113 7.62757 27.4182 7.63673V7.62903Z" fill="white"/>
<path d="M57.2295 4.36099C57.5031 4.36183 57.766 4.25434 57.9612 4.06181C58.1564 3.86929 58.2682 3.60727 58.2722 3.33258C58.2722 3.05737 58.1633 2.79344 57.9695 2.59884C57.7757 2.40425 57.5128 2.29492 57.2387 2.29492C56.9646 2.29492 56.7017 2.40425 56.5079 2.59884C56.3141 2.79344 56.2052 3.05737 56.2052 3.33258C56.208 3.60446 56.3168 3.86442 56.5083 4.05668C56.6998 4.24894 56.9587 4.35819 57.2295 4.36099Z" fill="white"/>
<path d="M37.9832 5.82867C37.4034 5.8168 36.8293 5.94601 36.3099 6.20525C35.7906 6.46449 35.3414 6.84607 35.0008 7.31741V2.27539H33.2083V15.3615H35.0008V10.8969C35.0008 9.1156 36.0435 7.62686 37.8176 7.62686C39.2084 7.62686 40.2879 8.70454 40.2879 10.3642V15.3615H42.0804V10.3657C42.0804 7.85009 40.4888 5.82867 37.9832 5.82867Z" fill="white"/>
<path d="M108.704 5.8291C106.014 5.8291 103.966 7.99678 103.966 10.6972C103.966 13.3975 106.161 15.5652 108.906 15.5652C110.662 15.5652 112.28 14.72 113.132 13.3051L111.559 12.5354C110.936 13.3436 109.967 13.767 108.906 13.767C108.218 13.777 107.546 13.5568 106.996 13.1413C106.446 12.7257 106.05 12.1383 105.869 11.4715H113.424C113.716 7.869 111.338 5.8291 108.704 5.8291ZM105.887 9.83192C106.037 9.19764 106.398 8.63359 106.91 8.2328C107.422 7.83202 108.055 7.61844 108.704 7.62729C110.131 7.62729 111.229 8.41708 111.541 9.83192H105.887Z" fill="white"/>
<path d="M76.8433 5.82867C76.2118 5.82866 75.5871 5.9592 75.0081 6.21215C74.429 6.4651 73.908 6.83504 73.4776 7.29893V2.27539H71.6835V15.3615H73.4776V14.0945C73.9056 14.5614 74.4262 14.9334 75.0058 15.1866C75.5854 15.4398 76.2113 15.5686 76.8433 15.5648C79.5329 15.5648 81.6183 13.3971 81.6183 10.6967C81.6183 7.99635 79.5329 5.82867 76.8433 5.82867ZM76.6793 13.7635C74.9772 13.7635 73.5496 12.4056 73.5496 10.6967C73.5496 8.98782 74.9772 7.6284 76.6793 7.6284C78.3813 7.6284 79.8257 8.98782 79.8257 10.6967C79.8257 12.4056 78.3798 13.7635 76.6793 13.7635Z" fill="white"/>
<path d="M58.1253 6.04883H56.3512V15.3615H57.3602H58.1253V6.04883Z" fill="white"/>
<path d="M65.5792 5.82887C64.9994 5.81701 64.4253 5.94622 63.9059 6.20546C63.3866 6.4647 62.9374 6.84628 62.5968 7.31762V6.04903H60.8043V15.3618H62.5968V10.8971C62.5968 9.11581 63.6395 7.62707 65.4136 7.62707C66.8044 7.62707 67.8839 8.70475 67.8839 10.3644V15.3618H69.6764V10.3659C69.6764 7.8503 68.0848 5.82887 65.5792 5.82887Z" fill="white"/>
<path fill-rule="evenodd" clip-rule="evenodd" d="M50.201 6.2107C50.7832 6.46365 51.3074 6.83423 51.7407 7.29938V6.04927H53.5332V13.915H54.3004V15.3622H52.9878V15.362H51.7407V14.0949C51.3099 14.5634 50.7863 14.9361 50.2035 15.1893C49.6207 15.4425 48.9916 15.5706 48.3566 15.5652C45.6671 15.5652 43.5817 13.3975 43.5817 10.6972C43.5817 7.99679 45.6671 5.82911 48.3566 5.82911C48.991 5.82786 49.6188 5.95775 50.201 6.2107ZM45.3926 10.6987C45.3926 12.4076 46.8186 13.7655 48.5207 13.7655V13.7639C50.2227 13.7639 51.6671 12.4076 51.6671 10.6987C51.6671 8.9898 50.2227 7.63038 48.5207 7.63038C46.8186 7.63038 45.3926 8.9898 45.3926 10.6987Z" fill="white"/>
<path fill-rule="evenodd" clip-rule="evenodd" d="M89.514 6.21271C90.0943 6.46562 90.6166 6.83548 91.0487 7.29937V6.04926H92.8412V13.915H93.625V15.3622H92.3124V15.362H91.0487V14.0949C90.6193 14.5622 90.0974 14.9342 89.5165 15.1874C88.9356 15.4406 88.3085 15.5693 87.6753 15.5652C84.9812 15.5652 82.9004 13.3975 82.9004 10.6972C82.9004 7.99678 84.9858 5.8291 87.6753 5.8291C88.3079 5.82924 88.9337 5.9598 89.514 6.21271ZM84.7006 10.6987C84.7006 12.4076 86.1281 13.7655 87.8287 13.7655V13.7639C89.5368 13.7639 90.9751 12.406 90.9751 10.6972C90.9751 8.98825 89.5154 7.62883 87.8287 7.62883C86.1419 7.62883 84.7006 8.98979 84.7006 10.6987Z" fill="white"/>
<path fill-rule="evenodd" clip-rule="evenodd" d="M18.0371 0H0V18H18.0371V0ZM15.2194 13.7812H8.87823V15.1875H15.2194V13.7812Z" fill="white"/>
</g>
<defs>
<clipPath id="clip0_10481_91040">
<rect width="114" height="18" fill="white"/>
</clipPath>
</defs>
</svg>
