<svg width="33" height="33" viewBox="0 0 33 33" fill="none" xmlns="http://www.w3.org/2000/svg">
<circle cx="16.5" cy="16.5" r="16.5" fill="url(#paint0_radial_10469_90515)"/>
<g filter="url(#filter0_d_10469_90515)">
<path d="M12.2901 18.5125C12.1603 18.0222 12.1453 17.5085 12.2462 17.0115C12.347 16.5144 12.561 16.0472 12.8716 15.6462C13.1822 15.2452 13.581 14.9212 14.0371 14.6992C14.4931 14.4772 14.9942 14.3633 15.5014 14.3663C15.7818 14.3669 16.0609 14.4039 16.3318 14.4765L17.2667 13.5416C16.7092 13.3015 16.1084 13.1785 15.5014 13.1801C14.7564 13.1791 14.0228 13.363 13.3664 13.7154C12.7099 14.0677 12.1512 14.5775 11.7403 15.1989C11.3293 15.8203 11.0791 16.534 11.0119 17.276C10.9446 18.018 11.0626 18.7651 11.3552 19.4502L12.2901 18.5125Z" fill="url(#paint1_linear_10469_90515)"/>
<path d="M12.2901 18.5125C12.1603 18.0222 12.1453 17.5085 12.2462 17.0115C12.347 16.5144 12.561 16.0472 12.8716 15.6462C13.1822 15.2452 13.581 14.9212 14.0371 14.6992C14.4931 14.4772 14.9942 14.3633 15.5014 14.3663C15.7818 14.3669 16.0609 14.4039 16.3318 14.4765L17.2667 13.5416C16.7092 13.3015 16.1084 13.1785 15.5014 13.1801C14.7564 13.1791 14.0228 13.363 13.3664 13.7154C12.7099 14.0677 12.1512 14.5775 11.7403 15.1989C11.3293 15.8203 11.0791 16.534 11.0119 17.276C10.9446 18.018 11.0626 18.7651 11.3552 19.4502L12.2901 18.5125Z" fill="white"/>
<path d="M18.6252 16.5722C18.7536 16.9282 18.8195 17.3037 18.8201 17.6821C18.8193 18.5623 18.4695 19.4063 17.8474 20.029C17.2253 20.6516 16.3816 21.0021 15.5014 21.0036C15.1228 21.0021 14.7473 20.9352 14.3914 20.8059L13.4961 21.7097C14.3407 22.1322 15.2969 22.278 16.229 22.1265C17.1612 21.9749 18.022 21.5338 18.6893 20.8655C19.3566 20.1973 19.7965 19.3359 19.9468 18.4035C20.097 17.4712 19.9498 16.5152 19.5262 15.6712L18.6252 16.5722Z" fill="url(#paint2_linear_10469_90515)"/>
<path d="M18.6252 16.5722C18.7536 16.9282 18.8195 17.3037 18.8201 17.6821C18.8193 18.5623 18.4695 19.4063 17.8474 20.029C17.2253 20.6516 16.3816 21.0021 15.5014 21.0036C15.1228 21.0021 14.7473 20.9352 14.3914 20.8059L13.4961 21.7097C14.3407 22.1322 15.2969 22.278 16.229 22.1265C17.1612 21.9749 18.022 21.5338 18.6893 20.8655C19.3566 20.1973 19.7965 19.3359 19.9468 18.4035C20.097 17.4712 19.9498 16.5152 19.5262 15.6712L18.6252 16.5722Z" fill="white"/>
<path d="M12.211 18.6029C11.7024 17.6325 11.5168 16.5251 11.6811 15.4419C11.8455 14.3586 12.3513 13.3562 13.1249 12.5803C13.8986 11.8045 14.8996 11.2959 15.9823 11.1284C17.0651 10.9609 18.173 11.1434 19.1449 11.6492L20.0176 10.7765C18.8064 10.0595 17.3909 9.76613 15.9945 9.9426C14.5981 10.1191 13.3001 10.7553 12.3053 11.7511C11.3105 12.7469 10.6755 14.0455 10.5004 15.4421C10.3253 16.8387 10.6201 18.2538 11.3383 19.4643L12.211 18.6029Z" fill="url(#paint3_linear_10469_90515)"/>
<path d="M12.211 18.6029C11.7024 17.6325 11.5168 16.5251 11.6811 15.4419C11.8455 14.3586 12.3513 13.3562 13.1249 12.5803C13.8986 11.8045 14.8996 11.2959 15.9823 11.1284C17.0651 10.9609 18.173 11.1434 19.1449 11.6492L20.0176 10.7765C18.8064 10.0595 17.3909 9.76613 15.9945 9.9426C14.5981 10.1191 13.3001 10.7553 12.3053 11.7511C11.3105 12.7469 10.6755 14.0455 10.5004 15.4421C10.3253 16.8387 10.6201 18.2538 11.3383 19.4643L12.211 18.6029Z" fill="white"/>
<path d="M21.3507 13.8466C21.7356 14.5782 21.9363 15.3925 21.9354 16.2191C21.9367 17.1045 21.7096 17.9753 21.2759 18.7472C20.8423 19.5192 20.2168 20.1662 19.46 20.6257C18.7031 21.0852 17.8405 21.3416 16.9556 21.3702C16.0707 21.3988 15.1933 21.1986 14.4084 20.789L13.5356 21.6617C14.7469 22.384 16.1646 22.6816 17.5641 22.5075C18.9636 22.3334 20.2651 21.6975 21.2625 20.7004C22.2599 19.7033 22.8962 18.4021 23.0708 17.0026C23.2454 15.6031 22.9482 14.1854 22.2263 12.9739L21.3507 13.8466Z" fill="url(#paint4_linear_10469_90515)"/>
<path d="M21.3507 13.8466C21.7356 14.5782 21.9363 15.3925 21.9354 16.2191C21.9367 17.1045 21.7096 17.9753 21.2759 18.7472C20.8423 19.5192 20.2168 20.1662 19.46 20.6257C18.7031 21.0852 17.8405 21.3416 16.9556 21.3702C16.0707 21.3988 15.1933 21.1986 14.4084 20.789L13.5356 21.6617C14.7469 22.384 16.1646 22.6816 17.5641 22.5075C18.9636 22.3334 20.2651 21.6975 21.2625 20.7004C22.2599 19.7033 22.8962 18.4021 23.0708 17.0026C23.2454 15.6031 22.9482 14.1854 22.2263 12.9739L21.3507 13.8466Z" fill="white"/>
</g>
<path d="M23.1618 9.00117L6.99895 25.1641L7.83775 26.0029L24.0007 9.83997L23.1618 9.00117Z" fill="url(#paint5_linear_10469_90515)"/>
<defs>
<filter id="filter0_d_10469_90515" x="7.45117" y="6.89258" width="18.6684" height="18.6631" filterUnits="userSpaceOnUse" color-interpolation-filters="sRGB">
<feFlood flood-opacity="0" result="BackgroundImageFix"/>
<feColorMatrix in="SourceAlpha" type="matrix" values="0 0 0 0 0 0 0 0 0 0 0 0 0 0 0 0 0 0 127 0" result="hardAlpha"/>
<feOffset/>
<feGaussianBlur stdDeviation="1.5"/>
<feComposite in2="hardAlpha" operator="out"/>
<feColorMatrix type="matrix" values="0 0 0 0 1 0 0 0 0 1 0 0 0 0 1 0 0 0 0.95 0"/>
<feBlend mode="normal" in2="BackgroundImageFix" result="effect1_dropShadow_10469_90515"/>
<feBlend mode="normal" in="SourceGraphic" in2="effect1_dropShadow_10469_90515" result="shape"/>
</filter>
<radialGradient id="paint0_radial_10469_90515" cx="0" cy="0" r="1" gradientUnits="userSpaceOnUse" gradientTransform="translate(16.5 21.7593) rotate(-90) scale(21.7593)">
<stop offset="0.307284"/>
<stop offset="0.584068" stop-color="#52242F"/>
<stop offset="0.833699" stop-color="#E92E01"/>
<stop offset="1" stop-color="white"/>
</radialGradient>
<linearGradient id="paint1_linear_10469_90515" x1="21.2303" y1="11.5786" x2="5.92809" y2="14.8373" gradientUnits="userSpaceOnUse">
<stop stop-color="#CAB7FF"/>
<stop offset="0.162438" stop-color="#FFCEF4"/>
<stop offset="0.298373" stop-color="#F0FFC5"/>
<stop offset="0.601047" stop-color="#59FF9C"/>
<stop offset="1" stop-color="#B659FF"/>
</linearGradient>
<linearGradient id="paint2_linear_10469_90515" x1="21.2303" y1="11.5786" x2="5.92809" y2="14.8373" gradientUnits="userSpaceOnUse">
<stop stop-color="#CAB7FF"/>
<stop offset="0.162438" stop-color="#FFCEF4"/>
<stop offset="0.298373" stop-color="#F0FFC5"/>
<stop offset="0.601047" stop-color="#59FF9C"/>
<stop offset="1" stop-color="#B659FF"/>
</linearGradient>
<linearGradient id="paint3_linear_10469_90515" x1="21.2303" y1="11.5786" x2="5.92809" y2="14.8373" gradientUnits="userSpaceOnUse">
<stop stop-color="#CAB7FF"/>
<stop offset="0.162438" stop-color="#FFCEF4"/>
<stop offset="0.298373" stop-color="#F0FFC5"/>
<stop offset="0.601047" stop-color="#59FF9C"/>
<stop offset="1" stop-color="#B659FF"/>
</linearGradient>
<linearGradient id="paint4_linear_10469_90515" x1="21.2303" y1="11.5786" x2="5.92809" y2="14.8373" gradientUnits="userSpaceOnUse">
<stop stop-color="#CAB7FF"/>
<stop offset="0.162438" stop-color="#FFCEF4"/>
<stop offset="0.298373" stop-color="#F0FFC5"/>
<stop offset="0.601047" stop-color="#59FF9C"/>
<stop offset="1" stop-color="#B659FF"/>
</linearGradient>
<linearGradient id="paint5_linear_10469_90515" x1="7.41835" y1="25.5835" x2="23.5812" y2="9.42057" gradientUnits="userSpaceOnUse">
<stop stop-color="white" stop-opacity="0"/>
<stop offset="0.643466" stop-color="white"/>
</linearGradient>
</defs>
</svg>
