<svg width="1440" height="1409" viewBox="0 0 1440 1409" fill="none" xmlns="http://www.w3.org/2000/svg">
<g clip-path="url(#clip0_10469_90463)">
<g filter="url(#filter0_f_10469_90463)">
<ellipse cx="721.731" cy="1240.55" rx="897.438" ry="909.872" fill="url(#paint0_linear_10469_90463)" fill-opacity="0.7"/>
</g>
<g style="mix-blend-mode:screen" filter="url(#filter1_f_10469_90463)">
<path d="M652.248 335.062C603.243 362.855 518.4 381.872 388.209 460.864C375.044 512.063 689.988 496.264 709.298 497.434C733.434 498.897 1075 478.417 1028.19 439.653C981.381 400.888 875.327 357.004 801.455 339.45C742.357 325.407 740.748 260.458 718.805 242.904C702.715 242.904 701.252 307.269 652.248 335.062Z" fill="#FDD1A9"/>
</g>
<g style="mix-blend-mode:screen" filter="url(#filter2_f_10469_90463)">
<path d="M692.354 350.689C676.789 356.725 649.841 360.855 608.491 378.011C604.309 389.13 704.341 385.699 710.474 385.953C718.14 386.271 826.628 381.823 811.76 373.404C796.892 364.985 763.208 355.454 739.745 351.642C720.974 348.592 720.463 334.486 713.494 330.674C708.383 330.674 707.919 344.653 692.354 350.689Z" fill="white"/>
</g>
<g filter="url(#filter3_f_10469_90463)">
<path d="M602.512 359.199L717.343 314.583L832.174 359.199L717.343 403.815L602.512 359.199Z" fill="#FFF0DF"/>
</g>
<g style="mix-blend-mode:overlay" filter="url(#filter4_f_10469_90463)">
<path d="M602.425 303.964C510.815 355.906 273.378 435.996 158.547 607.422C133.936 703.108 672.977 605.235 709.074 607.422C754.195 610.156 1393.63 706.656 1306.13 634.208C1218.62 561.761 1019.45 344.971 881.353 312.165C770.875 285.92 767.868 164.537 726.848 131.73C696.768 131.73 694.034 252.021 602.425 303.964Z" fill="#F97146" fill-opacity="0.4"/>
</g>
<circle cx="720.269" cy="1258.83" r="898.901" fill="url(#paint1_radial_10469_90463)"/>
<rect x="-332.228" y="538.621" width="2106.46" height="993.026" fill="url(#paint2_linear_10469_90463)"/>
<g style="mix-blend-mode:lighten" opacity="0.36" filter="url(#filter5_f_10469_90463)">
<ellipse cx="716.612" cy="338.719" rx="146.282" ry="149.939" fill="white"/>
</g>
<g style="mix-blend-mode:overlay" filter="url(#filter6_f_10469_90463)">
<circle cx="863.625" cy="341.644" r="2.19423" fill="white"/>
</g>
<g style="mix-blend-mode:overlay" filter="url(#filter7_f_10469_90463)">
<circle cx="731.971" cy="261.189" r="2.19423" fill="white"/>
</g>
<g style="mix-blend-mode:overlay" filter="url(#filter8_f_10469_90463)">
<circle cx="672.727" cy="311.657" r="1.46282" fill="white"/>
</g>
<g filter="url(#filter9_f_10469_90463)">
<circle cx="738.554" cy="168.301" r="1.46282" fill="white"/>
</g>
<g filter="url(#filter10_f_10469_90463)">
<path d="M567.404 359.198L721.731 299.954L876.059 359.198L721.731 418.442L567.404 359.198Z" fill="#FCE5C9" fill-opacity="0.2"/>
</g>
<g filter="url(#filter11_f_10469_90463)">
<path d="M675.653 359.198L721.731 340.913L767.81 359.198L721.731 377.484L675.653 359.198Z" fill="#FFF0DF" fill-opacity="0.79"/>
</g>
<g style="mix-blend-mode:overlay">
<circle cx="629.574" cy="202.677" r="0.731409" fill="white"/>
</g>
<g style="mix-blend-mode:overlay">
<circle cx="620.797" cy="315.314" r="0.731409" fill="white"/>
</g>
<g style="mix-blend-mode:overlay">
<circle cx="859.236" cy="287.52" r="0.731409" fill="white"/>
</g>
<g style="mix-blend-mode:overlay">
<circle cx="936.766" cy="359.198" r="0.731409" fill="white"/>
</g>
<g style="mix-blend-mode:overlay">
<circle cx="519.863" cy="357.735" r="0.731409" fill="white"/>
</g>
<g style="mix-blend-mode:overlay">
<circle cx="155.621" cy="523.034" r="0.731409" fill="white"/>
</g>
<circle cx="448.185" cy="258.265" r="0.731409" fill="white"/>
<g style="mix-blend-mode:overlay">
<circle cx="832.905" cy="316.777" r="0.731409" fill="white"/>
</g>
<g style="mix-blend-mode:overlay">
<circle cx="557.896" cy="338.719" r="0.731409" fill="white"/>
</g>
<g style="mix-blend-mode:overlay">
<circle cx="563.747" cy="315.314" r="0.731409" fill="white"/>
</g>
<g style="mix-blend-mode:overlay">
<circle cx="437.945" cy="385.529" r="0.731409" fill="white"/>
</g>
<g style="mix-blend-mode:overlay">
<circle cx="506.697" cy="264.115" r="0.731409" fill="white"/>
</g>
<g style="mix-blend-mode:overlay">
<circle cx="249.241" cy="442.579" r="0.731409" fill="white"/>
</g>
<g style="mix-blend-mode:overlay">
<circle cx="332.622" cy="435.265" r="0.731409" fill="white"/>
</g>
<g style="mix-blend-mode:overlay">
<circle cx="1014.29" cy="395.769" r="0.731409" fill="white"/>
</g>
<g style="mix-blend-mode:overlay">
<circle cx="1087.44" cy="344.57" r="0.731409" fill="white"/>
</g>
<g style="mix-blend-mode:overlay">
<circle cx="1216.16" cy="499.629" r="0.731409" fill="white"/>
</g>
<g style="mix-blend-mode:overlay">
<circle cx="1046.48" cy="272.893" r="0.731409" fill="white"/>
</g>
<g style="mix-blend-mode:overlay">
<circle cx="552.045" cy="130.999" r="0.731409" fill="white"/>
</g>
<g style="mix-blend-mode:overlay">
<circle cx="831.443" cy="291.909" r="0.731409" fill="white"/>
</g>
<circle opacity="0.5" cx="450.379" cy="359.93" r="1.46282" fill="white"/>
<g filter="url(#filter12_f_10469_90463)">
<circle cx="948.468" cy="170.495" r="0.731409" fill="white"/>
</g>
<circle opacity="0.5" cx="783.5" cy="315.5" r="2.5" fill="white"/>
</g>
<defs>
<filter id="filter0_f_10469_90463" x="-215.707" y="290.674" width="1874.88" height="1899.74" filterUnits="userSpaceOnUse" color-interpolation-filters="sRGB">
<feFlood flood-opacity="0" result="BackgroundImageFix"/>
<feBlend mode="normal" in="SourceGraphic" in2="BackgroundImageFix" result="shape"/>
<feGaussianBlur stdDeviation="20" result="effect1_foregroundBlur_10469_90463"/>
</filter>
<filter id="filter1_f_10469_90463" x="325.808" y="180.904" width="768.784" height="379.948" filterUnits="userSpaceOnUse" color-interpolation-filters="sRGB">
<feFlood flood-opacity="0" result="BackgroundImageFix"/>
<feBlend mode="normal" in="SourceGraphic" in2="BackgroundImageFix" result="shape"/>
<feGaussianBlur stdDeviation="31" result="effect1_foregroundBlur_10469_90463"/>
</filter>
<filter id="filter2_f_10469_90463" x="591.363" y="313.674" width="238.794" height="89.5869" filterUnits="userSpaceOnUse" color-interpolation-filters="sRGB">
<feFlood flood-opacity="0" result="BackgroundImageFix"/>
<feBlend mode="normal" in="SourceGraphic" in2="BackgroundImageFix" result="shape"/>
<feGaussianBlur stdDeviation="8.5" result="effect1_foregroundBlur_10469_90463"/>
</filter>
<filter id="filter3_f_10469_90463" x="557.512" y="269.583" width="319.662" height="179.231" filterUnits="userSpaceOnUse" color-interpolation-filters="sRGB">
<feFlood flood-opacity="0" result="BackgroundImageFix"/>
<feBlend mode="normal" in="SourceGraphic" in2="BackgroundImageFix" result="shape"/>
<feGaussianBlur stdDeviation="22.5" result="effect1_foregroundBlur_10469_90463"/>
</filter>
<filter id="filter4_f_10469_90463" x="95.7294" y="69.7305" width="1280.61" height="653.384" filterUnits="userSpaceOnUse" color-interpolation-filters="sRGB">
<feFlood flood-opacity="0" result="BackgroundImageFix"/>
<feBlend mode="normal" in="SourceGraphic" in2="BackgroundImageFix" result="shape"/>
<feGaussianBlur stdDeviation="31" result="effect1_foregroundBlur_10469_90463"/>
</filter>
<filter id="filter5_f_10469_90463" x="394.33" y="12.7803" width="644.563" height="651.878" filterUnits="userSpaceOnUse" color-interpolation-filters="sRGB">
<feFlood flood-opacity="0" result="BackgroundImageFix"/>
<feBlend mode="normal" in="SourceGraphic" in2="BackgroundImageFix" result="shape"/>
<feGaussianBlur stdDeviation="88" result="effect1_foregroundBlur_10469_90463"/>
</filter>
<filter id="filter6_f_10469_90463" x="860.43" y="338.45" width="6.38846" height="6.38867" filterUnits="userSpaceOnUse" color-interpolation-filters="sRGB">
<feFlood flood-opacity="0" result="BackgroundImageFix"/>
<feBlend mode="normal" in="SourceGraphic" in2="BackgroundImageFix" result="shape"/>
<feGaussianBlur stdDeviation="0.5" result="effect1_foregroundBlur_10469_90463"/>
</filter>
<filter id="filter7_f_10469_90463" x="728.777" y="257.995" width="6.38845" height="6.38867" filterUnits="userSpaceOnUse" color-interpolation-filters="sRGB">
<feFlood flood-opacity="0" result="BackgroundImageFix"/>
<feBlend mode="normal" in="SourceGraphic" in2="BackgroundImageFix" result="shape"/>
<feGaussianBlur stdDeviation="0.5" result="effect1_foregroundBlur_10469_90463"/>
</filter>
<filter id="filter8_f_10469_90463" x="670.264" y="309.194" width="4.92564" height="4.92578" filterUnits="userSpaceOnUse" color-interpolation-filters="sRGB">
<feFlood flood-opacity="0" result="BackgroundImageFix"/>
<feBlend mode="normal" in="SourceGraphic" in2="BackgroundImageFix" result="shape"/>
<feGaussianBlur stdDeviation="0.5" result="effect1_foregroundBlur_10469_90463"/>
</filter>
<filter id="filter9_f_10469_90463" x="736.091" y="165.838" width="4.92563" height="4.92578" filterUnits="userSpaceOnUse" color-interpolation-filters="sRGB">
<feFlood flood-opacity="0" result="BackgroundImageFix"/>
<feBlend mode="normal" in="SourceGraphic" in2="BackgroundImageFix" result="shape"/>
<feGaussianBlur stdDeviation="0.5" result="effect1_foregroundBlur_10469_90463"/>
</filter>
<filter id="filter10_f_10469_90463" x="527.404" y="259.954" width="388.654" height="198.488" filterUnits="userSpaceOnUse" color-interpolation-filters="sRGB">
<feFlood flood-opacity="0" result="BackgroundImageFix"/>
<feBlend mode="normal" in="SourceGraphic" in2="BackgroundImageFix" result="shape"/>
<feGaussianBlur stdDeviation="20" result="effect1_foregroundBlur_10469_90463"/>
</filter>
<filter id="filter11_f_10469_90463" x="639.653" y="304.913" width="164.157" height="108.57" filterUnits="userSpaceOnUse" color-interpolation-filters="sRGB">
<feFlood flood-opacity="0" result="BackgroundImageFix"/>
<feBlend mode="normal" in="SourceGraphic" in2="BackgroundImageFix" result="shape"/>
<feGaussianBlur stdDeviation="18" result="effect1_foregroundBlur_10469_90463"/>
</filter>
<filter id="filter12_f_10469_90463" x="946.737" y="168.764" width="3.46281" height="3.46289" filterUnits="userSpaceOnUse" color-interpolation-filters="sRGB">
<feFlood flood-opacity="0" result="BackgroundImageFix"/>
<feBlend mode="normal" in="SourceGraphic" in2="BackgroundImageFix" result="shape"/>
<feGaussianBlur stdDeviation="0.5" result="effect1_foregroundBlur_10469_90463"/>
</filter>
<linearGradient id="paint0_linear_10469_90463" x1="-114.311" y1="765.991" x2="1619.17" y2="765.991" gradientUnits="userSpaceOnUse">
<stop stop-color="#FF3D00" stop-opacity="0"/>
<stop offset="0.478923" stop-color="#C72600"/>
<stop offset="1" stop-color="#FF440A" stop-opacity="0"/>
</linearGradient>
<radialGradient id="paint1_radial_10469_90463" cx="0" cy="0" r="1" gradientUnits="userSpaceOnUse" gradientTransform="translate(719.537 1259.56) rotate(-90) scale(907.678 1025.54)">
<stop offset="0.718812"/>
<stop offset="0.925955" stop-color="#080807"/>
<stop offset="1" stop-color="#302F2D"/>
</radialGradient>
<linearGradient id="paint2_linear_10469_90463" x1="721" y1="538.621" x2="721" y2="1531.65" gradientUnits="userSpaceOnUse">
<stop stop-opacity="0"/>
<stop offset="0.165638"/>
</linearGradient>
<clipPath id="clip0_10469_90463">
<rect width="1440" height="1409" fill="white"/>
</clipPath>
</defs>
</svg>
