<svg width="90" height="90" viewBox="0 0 90 90" fill="none" xmlns="http://www.w3.org/2000/svg">
<g clip-path="url(#clip0_10481_90978)">
<circle cx="44.9532" cy="45" r="44.5" fill="#202732" stroke="#686666"/>
<path d="M66.1156 28.129C64.2785 26.8349 60.907 26.1878 55.2877 30.4585C47.6586 36.1528 41.6935 46.161 39.4891 50.216C39.4458 50.3023 39.4026 50.3885 39.381 50.4101C39.381 50.4317 39.3594 50.4533 39.3594 50.4533C39.0784 50.9925 39.2945 51.6611 39.8132 51.9631L39.8997 52.0062C40.0726 52.1141 40.2671 52.1572 40.4616 52.1572C40.8506 52.1572 41.218 51.9631 41.4342 51.618L41.4558 51.5749C41.4774 51.5533 41.4774 51.5317 41.499 51.5101C41.6503 51.2082 43.1199 48.5552 45.3676 45.1688C49.1714 46.7433 52.5862 46.808 55.5471 45.3198C58.6809 43.6589 60.345 40.5745 61.1879 38.245C61.2744 38.0293 61.4473 37.8568 61.685 37.7921C64.6675 36.9724 66.4181 34.341 67.0665 32.1625C67.4772 30.3722 67.1314 28.8408 66.1156 28.129ZM60.1505 35.6998H60.1289C59.6318 35.7646 59.2212 36.1744 59.1564 36.6705V36.7136C59.1131 36.9077 57.9893 41.502 54.4016 43.357C52.4349 44.3276 50.1224 44.4138 47.5073 43.5726C47.2911 43.5079 47.1182 43.3354 47.0534 43.1197C46.9886 42.904 47.0102 42.6667 47.1615 42.4726C50.2737 38.245 53.5371 34.7508 56.5629 32.335C57.8596 31.3429 60.6476 29.4448 62.8953 29.4448C63.5437 29.4448 64.1488 29.5957 64.6675 30.0056C64.8404 30.1134 64.9917 30.6742 64.6891 31.688C64.1704 33.4998 62.5711 35.4194 60.1505 35.6998Z" fill="#E92E01"/>
<path d="M51.7498 27.1572H35.7212C31.0347 27.1572 27.2355 30.7625 27.2355 35.2099V53.1046C27.2355 57.5519 31.0347 61.1572 35.7212 61.1572H51.7498C56.4363 61.1572 60.2355 57.5519 60.2355 53.1046V47.2659" stroke="white" stroke-width="3"/>
</g>
<defs>
<clipPath id="clip0_10481_90978">
<rect width="90" height="90" fill="white"/>
</clipPath>
</defs>
</svg>
