<svg width="416" height="128" viewBox="0 0 416 128" fill="none" xmlns="http://www.w3.org/2000/svg">
<path d="M150.616 36.9494C150.061 37.0774 149.357 36.8428 148.504 36.2454C147.522 35.5201 146.968 34.5814 146.84 33.4294C147.693 30.9121 149.89 27.1574 153.432 22.1654C156.973 17.1734 161.837 10.9228 168.024 3.41344C168.194 3.11478 169.154 2.64544 170.904 2.00544C172.525 1.32278 173.634 0.981445 174.232 0.981445C174.829 0.981445 175.128 1.19478 175.128 1.62144C175.128 2.00544 174.786 2.19744 174.104 2.19744C173.378 2.19744 172.034 3.17878 170.072 5.14145C167.682 7.44545 163.928 11.9681 158.808 18.7094C152.92 26.4321 149.976 31.2534 149.976 33.1734C149.976 33.6001 150.082 34.0481 150.296 34.5174C150.509 34.9868 150.85 35.2214 151.32 35.2214C151.576 35.2214 152.066 35.0721 152.792 34.7734C153.56 34.4748 154.392 34.1121 155.288 33.6854C156.184 33.2588 157.037 32.8321 157.848 32.4054C158.658 31.9361 159.256 31.5734 159.64 31.3174C159.64 32.1708 159.533 32.6614 159.32 32.7894C158.978 32.9601 158.637 33.1308 158.296 33.3014C157.997 33.4721 157.677 33.6641 157.336 33.8774C157.037 34.0481 156.717 34.2401 156.376 34.4534C156.034 34.6241 155.693 34.8161 155.352 35.0294C153.602 36.0108 152.024 36.6508 150.616 36.9494Z" fill="white"/>
<path d="M160.993 36.8854C159.457 36.8854 158.689 36.0748 158.689 34.4534C158.689 31.9361 159.905 29.2694 162.337 26.4534C162.807 25.8561 163.361 25.1521 164.001 24.3414C164.684 23.4881 165.452 22.5708 166.305 21.5894C166.391 21.5894 166.007 21.4401 165.153 21.1414C164.599 20.9708 164.321 20.6721 164.321 20.2454C164.321 19.7334 164.684 19.4774 165.409 19.4774C166.092 19.4774 167.223 19.2854 168.801 18.9014C169.057 18.7308 169.313 18.5601 169.569 18.3894C169.868 18.2188 170.167 18.0481 170.465 17.8774C170.935 17.5788 171.404 17.4294 171.873 17.4294C172.129 17.4294 172.385 17.4934 172.641 17.6214C172.94 17.7068 173.26 17.8348 173.601 18.0054C174.071 18.2614 174.476 18.4961 174.817 18.7094C175.201 18.8801 175.5 19.0081 175.713 19.0934L182.497 19.0294C183.223 19.0294 183.585 19.2001 183.585 19.5414C183.585 19.8828 183.223 20.0961 182.497 20.1814C181.601 20.3094 180.791 20.3734 180.065 20.3734C180.108 20.5441 180.129 20.7148 180.129 20.8854C180.172 21.0134 180.193 21.1201 180.193 21.2054C180.193 22.5708 179.383 24.3201 177.761 26.4534C176.439 28.2028 174.945 29.7174 173.281 30.9974C169.527 33.8561 166.156 35.6908 163.169 36.5014C162.359 36.7574 161.633 36.8854 160.993 36.8854ZM161.633 35.3494C161.719 35.3494 161.804 35.3494 161.889 35.3494C162.017 35.3068 162.167 35.2641 162.337 35.2214C165.153 34.4108 168.332 32.6614 171.873 29.9734C172.513 29.5041 173.132 28.9494 173.729 28.3094C174.369 27.6694 174.988 26.9868 175.585 26.2614C176.993 24.4694 177.697 23.0188 177.697 21.9094C177.697 21.3974 177.548 20.9921 177.249 20.6934H174.369C173.431 20.6934 172.62 20.7788 171.937 20.9494C171.297 21.0774 170.743 21.2481 170.273 21.4614C169.036 22.4001 167.201 24.2774 164.769 27.0934C163.916 28.1174 163.084 29.2908 162.273 30.6134C161.207 32.3628 160.673 33.5361 160.673 34.1334V34.2614C160.673 34.9868 160.993 35.3494 161.633 35.3494Z" fill="white"/>
<path d="M178.475 56.7894C176.256 56.7894 174.379 55.9361 172.843 54.2295C171.307 52.4801 170.539 50.4748 170.539 48.2134C170.539 46.5068 170.987 44.9281 171.883 43.4774C174.571 42.1121 178.069 40.4268 182.379 38.4214C186.731 36.4588 191.957 34.1974 198.059 31.6374C198.229 30.9974 198.421 30.2294 198.635 29.3334C198.848 28.3948 199.083 27.3068 199.339 26.0694L191.787 30.8694C189.995 32.0214 188.459 32.8748 187.179 33.4294C185.941 33.9841 184.981 34.2614 184.299 34.2614C182.72 34.2614 181.931 33.4508 181.931 31.8294C181.931 31.1041 182.08 30.4428 182.379 29.8454C183.36 27.4988 186.091 24.8748 190.571 21.9734C195.264 18.9441 199.083 17.4294 202.027 17.4294C203.349 17.4294 204.011 17.6214 204.011 18.0054C204.011 18.3894 203.349 18.9228 202.027 19.6054C201.643 19.4348 201.088 19.3494 200.363 19.3494C198.101 19.3494 195.008 20.7574 191.083 23.5734C187.072 26.5174 185.067 28.9708 185.067 30.9334C185.067 31.5734 185.387 31.8934 186.027 31.8934C186.453 31.8934 186.923 31.7654 187.435 31.5094C188.928 30.7841 190.699 29.8241 192.747 28.6294C194.795 27.3921 197.12 25.8774 199.723 24.0854C199.893 23.0188 200.448 22.2508 201.387 21.7814C201.557 21.6961 201.877 21.5894 202.347 21.4614C202.859 21.3334 203.52 21.1841 204.331 21.0134L203.051 25.1094C202.624 26.5601 202.112 28.2241 201.515 30.1014C201.856 30.0161 202.197 29.9094 202.539 29.7814C202.923 29.6534 203.328 29.5254 203.755 29.3974C204.139 29.2694 204.544 29.1414 204.971 29.0134C205.397 28.8854 205.824 28.7788 206.251 28.6934C206.293 28.6934 206.336 28.6934 206.379 28.6934C206.421 28.6508 206.464 28.6294 206.507 28.6294C206.72 28.6294 206.933 28.7148 207.147 28.8854C207.36 29.0561 207.467 29.1841 207.467 29.2694L207.275 29.4614C203.349 30.3574 201.088 31.7441 200.491 33.6214C199.552 36.7361 198.443 39.5734 197.163 42.1334C195.925 44.7361 194.517 47.0401 192.939 49.0454C188.8 54.2081 183.979 56.7894 178.475 56.7894ZM177.771 55.5734C182.677 55.5734 187.072 52.9281 190.955 47.6374C192.448 45.5894 193.749 43.3708 194.859 40.9814C195.968 38.5921 196.885 36.0321 197.611 33.3014C195.691 34.1548 193.813 34.9868 191.979 35.7974C190.144 36.6081 188.267 37.4188 186.347 38.2294C182.165 40.1921 178.752 42.4961 176.107 45.1414C174.4 46.8481 173.547 48.6188 173.547 50.4534C173.547 51.7761 173.995 52.9494 174.891 53.9734C175.744 55.0401 176.704 55.5734 177.771 55.5734Z" fill="white"/>
<path d="M51.403 99.4116C50.7296 99.4116 50.0563 99.2769 49.383 99.0076C48.7096 98.8056 48.07 98.5699 47.464 98.3006C45.7133 97.2906 43.8953 95.5399 42.01 93.0486C40.192 90.5572 38.4413 87.7292 36.758 84.5646C35.142 81.3999 33.728 78.2689 32.516 75.1716C31.3713 72.0069 30.5633 69.2799 30.092 66.9906L29.991 67.0916C28.3076 68.5729 26.4223 70.2226 24.335 72.0406C22.2476 73.7912 20.6316 75.5082 19.487 77.1916C17.8036 80.2216 16.457 83.0496 15.447 85.6756C14.5043 88.2342 14.033 90.3552 14.033 92.0386C14.033 93.1832 14.2686 94.0249 14.74 94.5636C15.144 95.1696 15.346 95.6746 15.346 96.0786C15.346 96.7519 14.942 96.9539 14.134 96.6846C12.4506 95.9439 11.609 94.3616 11.609 91.9376C11.609 89.7829 12.1813 87.1906 13.326 84.1606C14.538 81.1306 16.1203 77.8312 18.073 74.2626C20.0256 70.6939 22.214 67.0916 24.638 63.4556C27.062 59.7522 29.5196 56.2172 32.011 52.8506C34.5696 49.4839 36.9936 46.4876 39.283 43.8616C38.475 43.1882 37.3303 42.6832 35.849 42.3466C34.3676 42.0099 32.819 41.8079 31.203 41.7406C29.587 41.6059 28.2066 41.5722 27.062 41.6396C25.9173 41.6396 25.244 41.6396 25.042 41.6396C21.4733 41.9089 18.0056 42.3466 14.639 42.9526C11.3396 43.4912 8.81464 44.1309 7.06397 44.8716C5.38064 45.5449 4.03397 46.2856 3.02397 47.0936C2.01397 47.8342 1.50897 48.6422 1.50897 49.5176C1.50897 50.6622 2.51897 51.8069 4.53897 52.9516C4.67364 53.0862 4.74097 53.2209 4.74097 53.3556C4.74097 53.5576 4.67364 53.7259 4.53897 53.8606C4.4043 53.9952 4.23597 54.0289 4.03397 53.9616C2.6873 53.2209 1.6773 52.3792 1.00397 51.4366C0.397971 50.4939 0.0949707 49.5849 0.0949707 48.7096C0.0949707 47.5649 0.566304 46.4876 1.50897 45.4776C2.45164 44.4676 3.76464 43.6259 5.44797 42.9526C6.5253 42.5486 8.27597 42.1446 10.7 41.7406C13.124 41.2692 15.851 40.8989 18.881 40.6296C21.9783 40.3602 25.0083 40.2256 27.971 40.2256C31.4723 40.2256 34.536 40.4949 37.162 41.0336C39.788 41.5049 41.2693 42.4139 41.606 43.7606V43.9626C41.606 44.5686 41.4713 45.2082 41.202 45.8816C41 46.4876 40.798 46.7232 40.596 46.5886L39.687 47.8006C36.9936 51.0326 34.1993 54.6686 31.304 58.7086C28.4086 62.7486 25.749 66.7549 23.325 70.7276C24.4023 69.8522 25.4796 68.9769 26.557 68.1016C27.6343 67.2262 28.7116 66.2836 29.789 65.2736C29.7216 64.4656 29.89 63.8259 30.294 63.3546C30.698 62.8159 31.102 62.5466 31.506 62.5466C31.91 62.5466 32.213 62.7486 32.415 63.1526C35.445 60.3246 39.0473 57.3956 43.222 54.3656C47.3966 51.3356 51.807 48.5076 56.453 45.8816C61.1663 43.1882 65.8123 41.0336 70.391 39.4176C74.9696 37.7342 79.178 36.8926 83.016 36.8926C83.7566 36.8926 84.43 36.9262 85.036 36.9936C85.7093 37.0609 86.349 37.1619 86.955 37.2966C87.6283 37.4986 87.965 37.8352 87.965 38.3066C87.965 38.7106 87.763 39.0472 87.359 39.3166C87.0223 39.5859 86.551 39.6869 85.945 39.6196C84.935 39.4176 83.8576 39.3166 82.713 39.3166C79.3463 39.3166 75.4746 40.0572 71.098 41.5386C66.7213 43.0199 62.21 45.0062 57.564 47.4976C52.918 49.9216 48.4403 52.6149 44.131 55.5776C39.8216 58.5402 36.051 61.4692 32.819 64.3646C33.1556 65.7112 33.728 67.5966 34.536 70.0206C35.4113 72.4446 36.4213 75.1042 37.566 77.9996C38.778 80.8276 40.0236 83.5882 41.303 86.2816C42.6496 88.9749 43.9626 91.3316 45.242 93.3516C46.5886 95.3042 47.868 96.6172 49.08 97.2906C49.8206 97.6946 50.595 97.8966 51.403 97.8966C52.7496 97.8966 53.928 97.4926 54.938 96.6846C55.948 95.8092 56.7896 94.8329 57.463 93.7556C58.2036 92.6109 58.776 91.6682 59.18 90.9276C59.382 90.5909 59.6513 90.4226 59.988 90.4226C60.3246 90.4226 60.493 90.5909 60.493 90.9276C60.493 91.0622 60.4593 91.1296 60.392 91.1296C59.988 92.1396 59.382 93.3179 58.574 94.6646C57.766 95.9439 56.756 97.0549 55.544 97.9976C54.3993 98.9402 53.019 99.4116 51.403 99.4116Z" fill="white"/>
<path d="M74.3371 80.2216C74.2697 80.2216 74.2361 80.2216 74.2361 80.2216C74.2361 80.1542 74.2361 80.1206 74.2361 80.1206C74.2361 79.8512 74.4044 79.4472 74.7411 78.9086C75.1451 78.3026 75.4481 77.9996 75.6501 77.9996C76.6601 77.8649 77.9731 77.7976 79.5891 77.7976C81.2724 77.7302 82.9557 77.6966 84.6391 77.6966C85.9857 77.6966 87.2651 77.7302 88.4771 77.7976C89.6891 77.7976 90.6317 77.8649 91.3051 77.9996C91.5744 78.0669 91.7091 78.3026 91.7091 78.7066C91.7091 79.1106 91.5744 79.3126 91.3051 79.3126C88.4097 79.3126 85.5481 79.4136 82.7201 79.6156C79.9594 79.8176 77.1651 80.0196 74.3371 80.2216ZM70.4991 88.2006C70.4317 88.2006 70.3981 88.2006 70.3981 88.2006C70.3981 88.1332 70.3981 88.0996 70.3981 88.0996C70.3981 87.8302 70.5664 87.4262 70.9031 86.8876C71.3071 86.2816 71.6101 85.9786 71.8121 85.9786C72.8221 85.8439 74.1351 85.7766 75.7511 85.7766C77.4344 85.7092 79.1177 85.6756 80.8011 85.6756C82.1477 85.6756 83.4271 85.7092 84.6391 85.7766C85.8511 85.7766 86.7937 85.8439 87.4671 85.9786C87.7364 86.0459 87.8711 86.2816 87.8711 86.6856C87.8711 87.0896 87.7364 87.2916 87.4671 87.2916C84.5717 87.2916 81.7101 87.3926 78.8821 87.5946C76.1214 87.7966 73.3271 87.9986 70.4991 88.2006Z" fill="white"/>
<path d="M245.325 46.9237C243.619 46.9237 242.765 45.8357 242.765 43.6597C242.765 40.1184 244.792 35.5531 248.845 29.9637C247.949 29.5797 247.395 29.1957 247.181 28.8117C247.011 28.3851 246.925 27.9584 246.925 27.5317C246.925 26.2091 247.245 25.5477 247.885 25.5477C248.525 25.5477 249.165 26.2944 249.805 27.7877L250.253 28.1077C251.107 26.9984 252.003 25.8891 252.941 24.7797C253.923 23.6704 254.968 22.5397 256.077 21.3877L262.285 15.1157C262.072 14.9024 261.965 14.7104 261.965 14.5397C261.965 14.0277 262.541 13.4304 263.693 12.7477C265.187 11.8944 265.933 11.4464 265.933 11.4037C266.403 10.8917 267.277 10.6357 268.557 10.6357C269.283 10.6357 269.752 10.8064 269.965 11.1477C270.008 11.1904 270.029 11.2544 270.029 11.3397C270.029 11.7237 269.667 12.2144 268.941 12.8117C265.613 15.5851 262.563 18.3157 259.789 21.0037C257.059 23.6491 254.584 26.3157 252.365 29.0037C253.432 29.3024 254.797 29.4517 256.461 29.4517C257.571 29.4517 258.765 29.3877 260.045 29.2597C261.325 29.0891 262.712 28.8544 264.205 28.5557C266.381 28.1291 268.6 27.4677 270.861 26.5717C273.165 25.6331 275.299 24.5024 277.261 23.1797C279.224 21.8571 280.803 20.3851 281.997 18.7637C283.235 17.0997 283.853 15.3504 283.853 13.5157C283.853 11.6811 283.363 10.1664 282.381 8.97172C281.443 7.77706 280.163 6.85972 278.541 6.21973C276.92 5.53706 275.085 5.06773 273.037 4.81172C270.989 4.55573 268.877 4.42773 266.701 4.42773C265.037 4.42773 263.203 4.59839 261.197 4.93973C259.192 5.28106 257.187 5.77172 255.181 6.41173C253.219 7.05173 251.405 7.84106 249.741 8.77973C248.12 9.67573 246.797 10.7211 245.773 11.9157C244.792 13.0677 244.301 14.3264 244.301 15.6917C244.301 16.6731 244.579 17.5691 245.133 18.3797C245.731 19.1904 246.392 19.6811 247.117 19.8517C247.885 20.0224 248.269 20.3211 248.269 20.7477C248.269 21.0891 247.971 21.1957 247.373 21.0677C246.52 20.8971 245.688 20.5131 244.877 19.9157C244.109 19.3184 243.469 18.6144 242.957 17.8037C242.488 16.9504 242.253 16.1184 242.253 15.3077C242.253 13.3024 242.936 11.5531 244.301 10.0597C245.709 8.52373 247.523 7.24373 249.741 6.21973C251.96 5.19573 254.328 4.40639 256.845 3.85173C259.405 3.25439 261.859 2.93439 264.205 2.89173C266.893 2.80639 269.539 2.91306 272.141 3.21173C274.744 3.46773 277.091 3.97973 279.181 4.74773C281.315 5.51573 283 6.56106 284.237 7.88373C285.517 9.20639 286.157 10.8704 286.157 12.8757C286.157 15.0091 285.475 17.0144 284.109 18.8917C282.787 20.7264 281.037 22.3904 278.861 23.8837C276.685 25.3344 274.339 26.5717 271.821 27.5957C269.304 28.6197 266.872 29.3664 264.525 29.8357C262.776 30.1771 261.091 30.4331 259.469 30.6037C257.891 30.7744 256.376 30.8597 254.925 30.8597C254.115 30.8597 253.389 30.8384 252.749 30.7957C252.109 30.7531 251.555 30.6891 251.085 30.6037C246.349 36.5344 243.981 40.9291 243.981 43.7877C243.981 44.9397 244.493 45.5157 245.517 45.5157C245.859 45.5157 246.093 45.4944 246.221 45.4517C246.947 45.0677 247.544 44.8757 248.013 44.8757C248.397 44.8757 248.589 45.0037 248.589 45.2597C248.589 45.6437 247.949 46.1344 246.669 46.7317C246.157 46.8597 245.709 46.9237 245.325 46.9237Z" fill="white"/>
<path d="M310.578 34.9286C310.536 34.9286 310.514 34.9286 310.514 34.9286C310.514 34.886 310.514 34.8646 310.514 34.8646C310.514 34.694 310.621 34.3953 310.834 33.9686C311.048 33.4993 311.218 33.2646 311.346 33.2646H322.546C322.717 33.2646 322.802 33.478 322.802 33.9046C322.802 34.2033 322.717 34.3526 322.546 34.3526C322.29 34.3526 321.672 34.374 320.69 34.4166C319.752 34.4593 318.642 34.5233 317.362 34.6086C316.125 34.6513 314.888 34.694 313.65 34.7366C312.456 34.7793 311.432 34.8433 310.578 34.9286Z" fill="white"/>
<path d="M361.166 44.0166C358.948 44.0166 357.156 43.6113 355.79 42.8006C354.468 41.9473 353.508 40.838 352.91 39.4726C352.313 38.0646 352.014 36.5286 352.014 34.8646C352.014 32.2193 352.526 29.6806 353.55 27.2486C354.574 24.8166 355.897 22.5766 357.518 20.5286C359.182 18.4806 360.953 16.71 362.83 15.2166C364.75 13.7233 366.606 12.614 368.398 11.8886C369.806 11.334 371.214 11.0566 372.622 11.0566C374.116 11.0566 375.438 11.3766 376.59 12.0166C377.742 12.6566 378.318 13.702 378.318 15.1526C378.318 15.8353 378.169 16.5606 377.87 17.3286C377.828 17.542 377.636 17.6913 377.294 17.7766C376.953 17.8193 376.825 17.734 376.91 17.5206C377.166 16.7526 377.294 16.0913 377.294 15.5366C377.294 14.3846 376.868 13.5526 376.014 13.0406C375.204 12.5286 374.201 12.2726 373.006 12.2726C371.684 12.2726 370.361 12.5713 369.038 13.1686C367.374 13.9366 365.668 15.0673 363.918 16.5606C362.169 18.0113 360.548 19.7393 359.054 21.7446C357.561 23.75 356.366 25.9473 355.47 28.3366C354.574 30.6833 354.126 33.1153 354.126 35.6326C354.126 37.5953 354.681 39.302 355.79 40.7526C356.9 42.2033 358.798 42.9286 361.486 42.9286C362.98 42.9286 364.345 42.6086 365.582 41.9686C366.862 41.286 367.972 40.4326 368.91 39.4086C369.764 38.4273 370.574 37.1046 371.342 35.4406C372.153 33.7766 372.558 32.1553 372.558 30.5766C372.558 29.4246 372.26 28.4006 371.662 27.5046C371.108 26.566 370.148 25.9473 368.782 25.6486C368.142 25.5206 367.46 25.4566 366.734 25.4566C365.156 25.4566 363.556 25.7766 361.934 26.4166C360.356 27.0566 358.969 27.8673 357.774 28.8486C357.476 29.062 357.262 29.1686 357.134 29.1686C356.836 29.1686 356.814 28.8486 357.07 28.2086C357.326 27.5686 358.052 26.9713 359.246 26.4166C360.313 25.862 361.529 25.414 362.894 25.0726C364.302 24.7313 365.689 24.5606 367.054 24.5606C367.524 24.5606 367.95 24.582 368.334 24.6246C368.761 24.6673 369.188 24.7313 369.614 24.8166C371.534 25.2006 372.878 25.9473 373.646 27.0566C374.457 28.1233 374.862 29.3606 374.862 30.7686C374.862 32.4326 374.393 34.1606 373.454 35.9526C372.558 37.702 371.492 39.1313 370.254 40.2406C368.974 41.3926 367.545 42.31 365.966 42.9926C364.388 43.6753 362.788 44.0166 361.166 44.0166Z" fill="white"/>
<path d="M244.567 125.821C244.823 124.84 245.228 123.539 245.783 121.917C246.38 120.253 247.084 118.419 247.895 116.413C248.705 114.365 249.537 112.317 250.391 110.269C251.244 108.221 252.055 106.323 252.823 104.573C253.591 102.781 254.252 101.288 254.807 100.093C255.361 98.8559 255.703 98.0879 255.831 97.7893C255.617 97.8746 255.041 98.2586 254.103 98.9413C253.207 99.5813 252.161 100.349 250.967 101.245C249.772 102.099 248.641 102.931 247.575 103.741C246.508 104.552 245.719 105.149 245.207 105.533C245.164 105.576 245.1 105.597 245.015 105.597C244.801 105.597 244.695 105.405 244.695 105.021C244.695 104.765 244.78 104.573 244.951 104.445C246.871 103.037 248.684 101.608 250.391 100.157C252.14 98.6639 253.911 97.1279 255.703 95.5493C257.068 94.3973 257.921 93.8639 258.263 93.9493C259.201 94.0773 259.671 94.4613 259.671 95.1013C259.671 95.4426 259.564 95.8266 259.351 96.2533C258.967 97.0213 258.263 98.3866 257.239 100.349C256.257 102.312 255.127 104.659 253.847 107.389C252.567 110.12 251.287 113.021 250.007 116.093C248.769 119.165 247.703 122.152 246.807 125.053C246.764 125.181 246.551 125.352 246.167 125.565C245.783 125.736 245.399 125.864 245.015 125.949C244.673 126.035 244.524 125.992 244.567 125.821Z" fill="white"/>
<path d="M269.982 127.165C267.336 127.165 265.246 126.653 263.71 125.629C262.174 124.563 261.086 123.133 260.446 121.341C259.806 119.549 259.486 117.587 259.486 115.453C259.486 113.235 259.934 110.931 260.83 108.541C261.768 106.152 263.07 103.933 264.734 101.885C266.44 99.8373 268.424 98.1733 270.686 96.8933C272.947 95.6133 275.422 94.9733 278.11 94.9733C280.712 94.9733 282.824 95.4853 284.446 96.5093C286.11 97.5333 287.326 98.8986 288.094 100.605C288.904 102.269 289.31 104.125 289.31 106.173C289.31 108.776 288.755 111.336 287.646 113.853C286.579 116.328 285.107 118.568 283.23 120.573C281.395 122.579 279.326 124.179 277.022 125.373C274.76 126.568 272.414 127.165 269.982 127.165ZM269.022 125.821C271.454 125.821 273.758 125.203 275.934 123.965C278.11 122.728 280.051 121.085 281.758 119.037C283.464 116.989 284.787 114.749 285.726 112.317C286.707 109.843 287.198 107.411 287.198 105.021C287.198 102.632 286.579 100.605 285.342 98.9413C284.147 97.2346 282.12 96.3813 279.262 96.3813C277.171 96.3813 275.038 96.9573 272.862 98.1093C270.728 99.2186 268.766 100.733 266.974 102.653C265.182 104.573 263.731 106.771 262.622 109.245C261.555 111.677 261.022 114.216 261.022 116.861C261.022 119.336 261.768 121.448 263.262 123.197C264.755 124.947 266.675 125.821 269.022 125.821Z" fill="white"/>
<path d="M212.582 47.8215C212.678 47.4535 212.83 46.9655 213.038 46.3575C213.262 45.7335 213.526 45.0455 213.83 44.2935C214.134 43.5255 214.446 42.7575 214.766 41.9895C215.086 41.2215 215.39 40.5095 215.678 39.8535C215.966 39.1815 216.214 38.6215 216.422 38.1735C216.63 37.7095 216.758 37.4215 216.806 37.3095C216.726 37.3415 216.51 37.4855 216.158 37.7415C215.822 37.9815 215.43 38.2695 214.982 38.6055C214.534 38.9255 214.11 39.2375 213.71 39.5415C213.31 39.8455 213.014 40.0695 212.822 40.2135C212.806 40.2295 212.782 40.2375 212.75 40.2375C212.67 40.2375 212.63 40.1655 212.63 40.0215C212.63 39.9255 212.662 39.8535 212.726 39.8055C213.446 39.2775 214.126 38.7415 214.766 38.1975C215.422 37.6375 216.086 37.0615 216.758 36.4695C217.27 36.0375 217.59 35.8375 217.718 35.8695C218.07 35.9175 218.246 36.0615 218.246 36.3015C218.246 36.4295 218.206 36.5735 218.126 36.7335C217.982 37.0215 217.718 37.5335 217.334 38.2695C216.966 39.0055 216.542 39.8855 216.062 40.9095C215.582 41.9335 215.102 43.0215 214.622 44.1735C214.158 45.3255 213.758 46.4455 213.422 47.5335C213.406 47.5815 213.326 47.6455 213.182 47.7255C213.038 47.7895 212.894 47.8375 212.75 47.8695C212.622 47.9015 212.566 47.8855 212.582 47.8215Z" fill="white"/>
<path d="M222.113 48.3255C221.121 48.3255 220.337 48.1335 219.761 47.7495C219.185 47.3495 218.777 46.8135 218.537 46.1415C218.297 45.4695 218.177 44.7335 218.177 43.9335C218.177 43.1015 218.345 42.2375 218.681 41.3415C219.033 40.4455 219.521 39.6135 220.145 38.8455C220.785 38.0775 221.529 37.4535 222.377 36.9735C223.225 36.4935 224.153 36.2535 225.161 36.2535C226.137 36.2535 226.929 36.4455 227.537 36.8295C228.161 37.2135 228.617 37.7255 228.905 38.3655C229.209 38.9895 229.361 39.6855 229.361 40.4535C229.361 41.4295 229.153 42.3895 228.737 43.3335C228.337 44.2615 227.785 45.1015 227.081 45.8535C226.393 46.6055 225.617 47.2055 224.753 47.6535C223.905 48.1015 223.025 48.3255 222.113 48.3255ZM221.753 47.8215C222.665 47.8215 223.529 47.5895 224.345 47.1255C225.161 46.6615 225.889 46.0455 226.529 45.2775C227.169 44.5095 227.665 43.6695 228.017 42.7575C228.385 41.8295 228.569 40.9175 228.569 40.0215C228.569 39.1255 228.337 38.3655 227.873 37.7415C227.425 37.1015 226.665 36.7815 225.593 36.7815C224.809 36.7815 224.009 36.9975 223.193 37.4295C222.393 37.8455 221.657 38.4135 220.985 39.1335C220.313 39.8535 219.769 40.6775 219.353 41.6055C218.953 42.5175 218.753 43.4695 218.753 44.4615C218.753 45.3895 219.033 46.1815 219.593 46.8375C220.153 47.4935 220.873 47.8215 221.753 47.8215Z" fill="white"/>
<path d="M116.262 72.8212C115.788 72.8212 115.552 72.8212 115.552 72.8212C115.552 72.7786 115.552 72.7572 115.552 72.7572C115.552 72.5866 116.735 72.2879 119.103 71.8612C121.945 71.3919 124.076 71.1572 125.497 71.1572H412.486C414.381 71.1572 415.328 71.3706 415.328 71.7972C415.328 72.0959 414.381 72.2452 412.486 72.2452C410.118 72.2452 402.304 72.2666 389.044 72.3092C375.784 72.3092 358.972 72.3306 338.608 72.3732C318.717 72.4159 297.406 72.4586 274.674 72.5012C251.943 72.5012 229.684 72.5226 207.9 72.5652C186.115 72.6079 166.935 72.6506 150.36 72.6932C134.258 72.7359 122.892 72.7786 116.262 72.8212Z" fill="white"/>
</svg>
