<svg width="498" height="274" viewBox="0 0 498 274" fill="none" xmlns="http://www.w3.org/2000/svg">
<g clip-path="url(#clip0_10426_91138)">
<path d="M265.441 155.537C264.044 156.897 262.161 157.005 260.44 157.15C253.456 157.743 247.003 159.981 240.588 162.676C224.323 169.512 209.219 178.343 194.998 188.711C191.212 191.468 187.654 194.552 184.104 197.612C182.636 198.876 181.308 199.473 179.268 199.1C175.067 198.337 170.795 197.977 166.561 197.384C155.982 195.904 146.634 190.979 137.013 186.816C134.74 185.834 132.14 185.233 130.303 183.715C128.466 182.198 128.943 179.392 128.18 177.19C124.107 165.445 120.57 153.51 116.269 141.852C114.291 136.492 114.871 131.447 115.531 126.132C116.468 118.604 118.334 111.208 118.699 103.596C118.853 100.358 118.334 97.303 117.729 94.2228C115.771 84.2151 114.357 74.0748 111.093 64.374C109.907 60.8501 109.07 57.0942 107.237 53.931C105.553 51.029 102.849 48.6536 100.39 46.2615C99.2118 45.1173 97.9013 44.1306 96.9351 42.945C96.989 42.2526 97.3166 41.979 97.7355 41.9998C105.001 42.4143 111.997 40.6566 119.031 39.276C132.578 36.6228 146.113 33.9461 159.636 31.2459C177.348 27.7221 195.085 24.2397 212.644 19.8992C217.33 18.7425 222.129 18.0585 226.819 16.9226C235.528 14.8207 244.295 12.8101 252.884 10.2646C260.763 7.93061 268.369 8.29543 276.659 10.9652C271.243 13.1624 265.823 13.8382 260.237 15.8944C262.223 17.5278 263.666 17.0262 265.06 16.6614C270.007 15.3762 274.955 14.1077 279.882 12.752C285.148 11.3052 289.673 12.1012 294.222 15.5421C300.7 20.4671 307.717 24.6418 314.494 29.1855C316.323 30.4292 318.015 31.847 319.76 33.1985C320.101 33.4376 320.378 33.7565 320.566 34.1272C320.755 34.498 320.85 34.9093 320.843 35.3252L320.88 35.2755C316.969 33.1688 312.51 32.3012 308.095 32.7881C307.137 32.8834 306.108 32.8834 305.295 32.2657C302.471 30.1058 298.9 29.7493 295.782 28.2734C293.244 27.0712 291.937 27.606 290.755 30.1224C289.839 32.0709 288.458 33.8162 288.292 36.1461C288.126 38.4759 288.292 38.8822 290.565 38.534C292.468 38.2479 294.33 37.6675 296.205 37.2074C301.318 35.9637 306.473 35.0309 311.765 35.1926C312.864 35.2257 314.125 35.0516 315.033 35.5159C320.32 38.2313 326.006 39.8482 331.555 41.8588C333.365 42.5713 334.986 43.6921 336.291 45.1339C336.954 45.8221 337.709 46.7217 338.547 46.8875C341.914 47.5384 342.561 50.1128 343.436 52.8241C347.621 65.7876 349.504 79.145 350.399 92.664C350.59 95.5204 350.043 98.4265 349.889 101.312C349.782 103.306 348.359 103.762 346.808 104.04C341.919 104.91 337.008 105.661 332.136 106.618C325.6 107.904 318.865 106.759 312.358 108.306C310.885 108.671 309.386 108.926 307.875 109.068C305.225 109.296 304.636 108.832 304.429 106.22C304.196 103.318 304.151 100.416 304.014 97.5145C306.548 94.654 309.198 91.9261 312.308 89.6667C312.831 89.2895 313.37 88.68 312.802 87.9463C312.428 87.4654 311.852 87.5317 311.304 87.6768C310.91 87.768 310.508 87.8053 310.11 87.8675L309.227 89.1982L309.268 89.1319C308.095 88.9205 307.07 89.4097 306.158 89.9984C302.923 92.0712 299.672 94.144 296.553 96.3993C292.327 99.4339 281.988 107.862 280.947 108.911C276.601 112.812 261.17 129.826 261.132 130.651C259.395 131.256 258.926 132.997 257.989 134.278C254.257 139.39 254.302 141.202 258.163 146.255C259.482 147.984 260.962 149.592 262.397 151.23C263.559 152.586 264.823 153.829 265.441 155.537ZM255.903 146.649C255.903 145.517 255.409 144.991 254.804 144.692C253.824 144.196 252.801 143.789 251.747 143.478C244.61 141.372 237.44 139.39 230.328 137.209C216.377 132.927 202.164 129.515 188.346 124.772C186.273 124.055 184.108 123.562 181.997 122.927C180.919 122.604 179.824 122.185 178.94 123.218C178.152 124.142 178.795 125.033 179.198 125.896C179.372 126.269 179.563 126.638 179.741 127.011C183.643 135.373 187.703 143.668 191.394 152.125C193.65 157.303 196.437 162.245 198.208 167.639C199.402 171.283 200.041 171.511 203.62 170.105C204.259 169.852 204.864 169.533 205.507 169.276C215.001 165.186 224.493 161.094 233.981 157.001C240.561 154.151 247.137 151.303 253.709 148.457C254.742 148 255.795 147.661 255.878 146.649H255.903ZM340.11 62.4048C340.027 60.0625 338.638 58.6737 336.237 58.5078C334.533 58.3876 333.006 59.0592 331.497 59.6396C328.022 60.9828 327.648 63.2007 330.377 65.7628C331.263 66.6274 332.391 67.2018 333.611 67.4091C334.831 67.6165 336.086 67.4471 337.207 66.9235C339.078 66.0156 340.177 64.5729 340.11 62.4048ZM123.551 54.2544C126.919 53.2843 130.867 52.1815 134.798 51C135.491 50.7969 136.009 50.2911 135.686 49.4578C135.589 49.1969 135.396 48.9832 135.145 48.8612C134.895 48.7392 134.607 48.7183 134.342 48.8028C130.382 49.8724 126.425 50.9586 122.481 52.0945C121.814 52.2852 121.258 52.8324 121.573 53.6491C121.789 54.2129 122.365 54.3083 123.551 54.2544ZM293.924 46.6719C293.613 45.2209 292.717 45.2292 291.95 45.4987C288.854 46.5837 285.85 47.916 282.967 49.4827C282.333 49.8351 281.847 50.4818 282.266 51.141C282.685 51.8001 283.469 51.6177 284.112 51.3275C287.103 49.9981 290.085 48.6425 293.057 47.2606C293.364 47.0927 293.654 46.8955 293.924 46.6719ZM281.54 38.9693C282.59 38.7039 283.722 38.4303 283.967 37.17C284.087 36.5731 283.469 36.2373 282.897 36.2207C281.74 36.1834 280.661 36.4238 280.533 37.8375C280.479 38.4013 280.96 38.7827 281.54 38.9693Z" fill="#473B5D"/>
<path d="M116.85 101.03C116.248 105.59 115.8 110.125 115.033 114.607C113.349 124.403 112.512 134.311 111.081 144.141C109.932 152.059 108.684 159.961 107.44 167.862C107.236 168.807 106.975 169.739 106.66 170.652C106.245 172.19 105.242 172.82 103.633 172.899C99.6348 173.094 95.6494 173.567 91.6516 173.683C76.3072 174.131 61.137 175.909 45.9834 178.314C32.0946 180.523 18.0815 181.945 4.20102 184.258C2.12746 184.602 1.86619 184.258 2.26016 182.016C4.14573 171.273 6.39209 160.607 8.99925 150.019C12.4165 136.065 16.6963 122.376 21.4406 108.815C22.3572 106.129 23.6386 103.774 25.7122 101.867C37.3242 91.3663 46.8626 78.9707 57.0479 67.1722C60.8412 62.7722 64.8183 58.5561 68.9792 54.5237C74.6484 49.0431 80.4543 43.7242 85.4309 37.572C86.9487 35.6899 87.4464 35.6153 88.9062 37.572C93.045 43.1397 98.7017 47.2605 103.264 52.426C104.358 53.6342 105.23 55.0265 105.839 56.5385C111.031 69.4357 113.631 82.9838 115.991 96.594C116.252 98.0823 116.563 99.5664 116.85 101.03ZM91.1083 148.705C80.8939 149.037 70.7874 150.413 60.6062 151.213C51.1217 151.955 41.7409 153.634 32.2273 154.024C31.6787 154.09 31.1345 154.188 30.5975 154.318C28.3747 154.679 27.2342 155.906 27.143 158.228C27.06 160.301 26.7697 162.34 26.5416 164.396C25.9237 169.964 27.8397 172.087 33.4383 172.012C33.853 172.012 34.2677 172.012 34.6824 171.971C48.7246 171.171 62.7668 170.424 76.8049 169.537C83.4029 169.123 89.9886 168.451 96.5742 167.829C98.3699 167.663 100.356 167.365 100.937 165.3C102.174 160.919 102.596 156.348 102.181 151.814C101.99 149.713 100.763 148.643 98.5732 148.693C96.0766 148.751 93.5925 148.709 91.1083 148.709V148.705ZM24.3602 166.768C23.9455 163.766 23.6511 161.034 23.17 158.34C22.6723 155.55 21.4531 154.948 18.7782 156.055C16.7452 156.903 14.9097 158.162 13.3869 159.753C11.1267 162.091 11.0811 163.509 13.8016 165.416C16.3687 167.216 19.2178 168.629 21.9964 170.109C23.1078 170.702 23.8377 170.039 24.0699 168.928C24.2043 168.213 24.3012 167.492 24.3602 166.768Z" fill="#50448B"/>
<path d="M241.197 208.701C236.892 207.752 232.526 207.014 228.291 205.799C218.259 202.955 207.97 201.994 197.648 201.073C193.849 200.733 190.067 200.207 185.509 199.68C188.848 196.069 192.145 193.615 195.388 191.24C210.544 180.129 226.948 170.827 244.266 163.526C252.473 160.06 261.079 159.683 269.837 157.564C269.987 159.675 268.925 161.296 269.837 162.829C270.111 163.294 270.322 163.911 271.007 163.692C271.37 163.539 271.665 163.259 271.836 162.904C272.379 161.81 271.977 160.396 273.109 159.314C274.673 159.944 275.569 161.349 276.593 162.581C282.536 169.724 288.781 176.572 297.096 181.021C302.811 184.08 308.708 186.825 314.556 189.615C324.293 194.225 333.973 198.93 343.329 204.286C345.153 205.331 346.057 206.193 345.033 208.407C343.81 211.064 344.204 213.821 345.518 216.408C348.031 221.317 350.37 226.316 353.568 230.852C355.077 232.991 356.4 235.263 357.839 237.452C361.244 242.642 359.95 248.04 358.515 253.417C357.993 255.369 356.72 254.523 355.612 253.985C350.258 251.418 344.987 248.666 339.534 246.336C327.093 241.017 314.51 236.021 301.517 232.166C298.984 231.481 296.523 230.552 294.168 229.392C291.29 227.888 288.085 227.514 284.97 227.096C278.215 226.223 271.812 223.579 266.412 219.43C261.514 215.699 256.376 212.652 250.425 211.035C249.79 210.09 249.18 209.07 247.911 210.306C246.767 210.331 245.637 210.044 244.643 209.477C243.611 208.552 242.711 207.284 241.197 208.701Z" fill="#624795"/>
<path d="M355.774 104.027C352.498 103.248 352.013 102.858 352.232 99.7947C352.826 91.5531 351.677 83.4317 350.789 75.2896C350.507 72.7151 349.96 70.1697 349.545 67.6118C354.294 68.9716 358.972 70.6589 363.799 71.5875C367.859 72.3669 371.579 74.1744 375.68 74.8046C380.533 75.5549 385.115 77.4868 389.93 78.5357C395.321 79.713 400.712 80.7577 405.826 83.0171C410.093 84.9034 414.41 86.7939 418.881 88.0832C423.986 89.4735 428.459 92.5747 431.551 96.8678C435.573 102.448 440.79 106.979 444.589 112.771C449.101 119.657 455.372 125.208 459.888 132.16C460.486 133.107 461.424 133.791 462.509 134.071C464.135 145.235 458.188 151.79 448.944 156.342C448.04 156.362 447.417 155.778 446.746 155.305C440.658 151.006 434.885 146.309 429.112 141.625C428.021 140.737 427.155 139.187 425.309 139.829C425.865 139.245 425.4 138.768 425.147 138.267C424.841 137.73 424.4 137.282 423.868 136.968C423.335 136.654 422.73 136.484 422.112 136.476C418.906 132.185 415.684 127.898 412.888 123.317C411.781 121.501 410.442 120.133 408.327 119.42C396.213 115.333 384.17 111.009 371.832 107.676C366.532 106.237 361.298 104.471 355.774 104.027Z" fill="#624795"/>
<path d="M383.153 59.1587C376.899 53.7693 370.737 48.239 364.188 43.1772C363.238 42.3874 362.168 41.7522 361.02 41.295C352.61 38.2231 344.307 34.8236 335.581 32.7176C333.4 32.187 331.405 31.3247 329.875 29.6084C329.623 29.5883 329.38 29.5068 329.166 29.3709C328.953 29.235 328.776 29.049 328.652 28.829C328.608 28.8408 328.563 28.8438 328.519 28.8378C328.474 28.8318 328.431 28.817 328.393 28.7942C328.354 28.7714 328.32 28.7411 328.293 28.705C328.267 28.669 328.247 28.628 328.237 28.5844C328.037 28.5975 327.839 28.5381 327.68 28.4169C327.521 28.2958 327.411 28.1211 327.37 27.9252C327.153 27.9147 326.944 27.8413 326.768 27.7139C326.592 27.5866 326.457 27.4108 326.379 27.208V27.2785C324.952 26.5489 323.509 25.8399 322.373 24.6667C322.168 24.646 321.973 24.5682 321.81 24.4421C321.647 24.3161 321.523 24.1468 321.452 23.9537C321.125 23.9224 320.811 23.813 320.535 23.6348C320.259 23.4566 320.031 23.2148 319.868 22.9297C314.735 20.5547 309.378 18.698 303.877 17.3869C299.694 16.4264 295.77 14.5723 292.372 11.9519C289.664 9.82935 286.803 9.09557 283.469 10.1444C282.157 10.6068 280.717 10.5444 279.45 9.9703C273.18 7.04282 266.217 5.92155 259.345 6.73253C258.797 6.79886 258.246 6.79472 257.686 6.81959L256.11 6.98127L248.707 9.05411C247.878 9.92885 246.841 9.8252 245.804 9.72571C244.66 10.6378 243.291 10.6046 241.939 10.6419L241.678 10.5756C241.093 11.2182 240.33 11.2969 239.53 11.2389C239.364 11.3726 239.164 11.4581 238.953 11.4858C238.741 11.5136 238.526 11.4827 238.331 11.3964C237.927 11.7482 237.449 12.0052 236.932 12.1486C236.415 12.2921 235.873 12.3184 235.345 12.2255C234.961 12.5532 234.512 12.7964 234.028 12.9392C233.543 13.0821 233.034 13.1214 232.534 13.0547C231.945 13.6973 231.19 13.7885 230.381 13.7056L230.277 13.7263L230.103 13.9128L229.883 13.8051L227.851 14.3647L227.491 14.5471H227.076C226.709 14.8183 226.291 15.0119 225.846 15.116C225.402 15.22 224.941 15.2324 224.492 15.1524L222.92 15.4509C222.706 15.6837 222.434 15.8571 222.133 15.9544C221.831 16.0517 221.51 16.0696 221.199 16.0064L220.839 16.1681L220.449 16.1142C217.894 16.6946 215.402 17.7061 212.694 17.2335C212.403 17.8139 211.893 17.9176 211.317 17.8802C210.07 18.6059 208.635 18.945 207.195 18.8545C206.989 19.094 206.72 19.2699 206.418 19.3617C206.116 19.4535 205.794 19.4573 205.49 19.3727C195.338 22.0176 185.032 23.9744 174.752 26.0306C152.851 30.3877 130.908 34.6246 108.986 38.9693C104.643 39.806 100.204 40.0293 95.7984 39.6326C93.6627 39.4543 92.066 38.7454 91.0749 36.8757C89.275 33.4929 86.2849 32.8627 82.7391 32.6306C75.0628 32.1206 67.6311 30.0602 60.1331 27.8672C57.0269 26.9587 54.516 26.7171 53.6966 27.8672C21.3865 73.2126 17.571 94.2477 7.56407 134.734C3.35473 151.765 -1.92871 207.744 0.704717 190.407C1.21896 187.015 1.38485 186.8 4.79379 186.294C16.1196 184.607 27.4496 182.92 38.8003 181.382C50.6942 179.769 62.497 177.485 74.4905 176.676C84.9537 175.967 95.4335 175.432 105.901 174.773C107.41 174.675 108.916 175.009 110.243 175.735C120.163 180.843 130.025 186.062 140.218 190.61C144.867 192.683 149.562 194.66 154.236 196.679C156.461 197.103 158.635 197.76 160.722 198.64C161.551 198.545 162.347 198.524 162.953 199.245C163.608 198.744 164.222 198.976 164.823 199.365C166.175 199.365 167.573 199.154 168.726 200.141C169.414 199.726 170.045 200.008 170.671 200.315C171.737 200.269 172.836 200.083 173.711 200.957C174.955 200.431 176.128 200.779 177.306 201.161C178.36 201.161 179.496 200.796 180.325 201.824C180.968 201.131 181.632 201.463 182.299 201.791C183.137 201.612 184.01 201.709 184.788 202.068C188.458 202.002 192.078 202.483 195.695 203.03C209.264 203.706 222.539 206.193 235.636 209.663C237.211 210.078 238.953 209.929 240.363 210.994C241.529 211.036 242.677 211.135 243.681 211.823L244.51 212.01C244.939 211.943 245.377 211.962 245.798 212.068C246.219 212.173 246.615 212.362 246.961 212.623C247.358 212.539 247.768 212.545 248.162 212.642C248.556 212.739 248.922 212.924 249.234 213.183C249.403 213.076 249.608 213.039 249.804 213.081C250 213.123 250.172 213.24 250.283 213.407C251.303 213.407 252.319 213.444 253.083 214.277C253.18 214.244 253.285 214.244 253.383 214.278C253.48 214.311 253.562 214.377 253.618 214.464C253.871 214.422 254.132 214.454 254.368 214.556C254.604 214.659 254.806 214.827 254.949 215.04C256.608 214.796 257.097 216.864 258.598 216.96C259.374 216.723 259.842 217.096 260.203 217.739L261.145 218.407C261.363 218.414 261.574 218.489 261.749 218.62C261.924 218.751 262.055 218.933 262.123 219.14C262.324 219.166 262.514 219.245 262.673 219.371C262.832 219.497 262.953 219.664 263.023 219.853C263.346 219.899 263.652 220.027 263.911 220.224C264.17 220.421 264.374 220.682 264.504 220.981C271.458 225.421 278.886 228.551 287.168 229.504C290.038 229.832 292.688 231.022 295.4 232.037C302.637 234.736 310.027 237.012 317.288 239.637C329.9 244.135 342.226 249.396 354.198 255.39C357.93 257.28 361.111 259.95 364.537 262.264C366.133 263.346 367.639 264.577 369.513 265.141L370.496 265.746C370.534 265.845 370.601 265.931 370.688 265.992C370.775 266.052 370.879 266.085 370.986 266.086L372.23 265.012C368.804 262.699 365.403 260.344 361.945 258.085C360.361 257.048 359.656 255.991 360.477 254.001C361.75 250.896 361.642 247.505 361.887 244.213C362.014 242 361.474 239.799 360.336 237.895C356.968 231.868 352.771 226.345 349.719 220.139C348.807 218.282 348.01 216.375 347.135 214.501C346.511 213.102 346.323 211.548 346.596 210.041C347.048 207.101 347.811 206.774 350.669 207.918C357.603 210.696 364.433 213.647 370.326 218.382C370.803 218.763 371.384 219.319 372.151 218.85C372.98 216.927 371.097 216.624 370.227 215.919C365.814 212.341 360.825 209.73 355.521 207.719C344.17 203.42 334.043 196.708 323.198 191.414C322.835 191.398 322.48 191.307 322.154 191.146C321.829 190.986 321.54 190.759 321.307 190.481C319.233 190.141 317.599 188.869 315.849 187.849C315.58 187.875 315.308 187.823 315.067 187.699C314.826 187.576 314.626 187.386 314.489 187.152L313.299 186.8C313.098 186.854 312.884 186.83 312.699 186.733C312.515 186.636 312.374 186.474 312.304 186.278C311.137 186.027 310.043 185.512 309.106 184.773C308.758 184.742 308.421 184.638 308.116 184.468C307.811 184.298 307.545 184.065 307.335 183.786C305.527 183.438 304.018 182.468 302.454 181.543C298.426 179.922 294.714 177.605 291.489 174.699L290.593 173.961C288.603 173.169 287.218 171.606 285.828 170.097C282.656 166.656 279.633 163.074 276.418 159.675C274.668 157.826 273.893 155.898 274.378 153.332C274.726 151.487 274.66 149.563 274.793 147.312C278.318 148.726 280.76 150.944 283.477 152.702C284.252 153.207 284.356 154.041 284.427 154.882C284.634 157.453 286.272 158.481 288.574 159.368C296.146 162.303 304.088 164.094 311.669 166.979C312.818 167.075 313.979 167.104 314.987 167.759C317.272 167.759 319.416 168.505 321.622 168.957L337.381 168.932C338.501 168.658 339.621 168.488 340.749 168.878C341.786 168.642 342.773 168.119 343.888 168.36L352.394 167.116C352.394 166.511 352.373 165.902 352.361 165.296C346.584 166.067 340.823 167.066 334.943 166.859C326.615 167.506 318.441 166.909 310.425 164.334C303.474 162.1 296.412 160.189 289.565 157.631C286.662 156.532 286.114 155.649 286.832 152.631C287.67 148.857 289.231 145.28 291.427 142.097C291.974 141.235 292.812 140.853 293.745 140.509C303.96 136.848 314.51 134.2 325.243 132.603C327.553 132.221 329.92 132.364 332.168 133.021C334.415 133.677 336.486 134.831 338.227 136.397H339.123H342.499C345.539 134.324 349.226 134.224 352.576 133.08C354.368 132.475 356.4 132.454 358.038 130.717C355.019 127.401 351.967 124.105 349.002 120.739C346.721 118.148 346.783 118.106 348.674 115.192C350.698 112.074 353.194 109.276 354.895 105.943C355.155 105.288 355.417 104.633 355.683 103.978C352.406 103.198 351.921 102.804 352.141 99.7407C352.734 91.5033 351.585 83.3778 350.698 75.2398C350.416 72.6653 349.868 70.1157 349.454 67.5579C347.986 62.0068 347.003 56.3355 344.892 51.0747C346.447 49.8517 347.542 50.8798 348.649 51.1576C360.518 54.101 372.134 57.9109 383.833 61.4347L384.157 59.8386H384.099C383.895 59.8182 383.701 59.7446 383.535 59.6252C383.369 59.5059 383.237 59.345 383.153 59.1587ZM324.434 29.1275C317.434 28.6383 311.964 25.558 306.257 20.6496C313.158 21.4663 320.295 24.874 324.434 29.1275ZM107.365 167.9C107.162 168.845 106.901 169.776 106.585 170.69C106.17 172.228 105.167 172.858 103.558 172.937C99.5599 173.132 95.5745 173.604 91.5767 173.72C76.2323 174.172 61.0621 175.947 45.9085 178.355C32.0197 180.544 18.0065 181.966 4.14684 184.283C2.07327 184.628 1.812 184.283 2.20598 182.041C4.09431 171.298 6.34067 160.632 8.94507 150.044C12.3623 136.09 16.6421 122.397 21.3865 108.836C22.3196 106.171 23.5844 103.799 25.6912 101.892C37.3032 91.3872 46.8416 78.9958 57.0269 67.193C60.8202 62.7931 64.7973 58.577 68.9582 54.5446C74.6066 49.0682 80.4167 43.7658 85.3726 37.5929C86.8904 35.7149 87.3881 35.6403 88.8479 37.5929C92.995 43.1647 98.66 47.2731 103.222 52.4552C104.316 53.6634 105.188 55.0557 105.797 56.5677C110.994 69.4607 113.581 83.0088 115.954 96.6149C116.215 98.1073 116.526 99.5915 116.812 101.059C116.211 105.619 115.763 110.151 114.996 114.632C113.312 124.432 112.474 134.341 111.043 144.166C109.857 152.08 108.609 159.982 107.365 167.9ZM276.481 162.618C282.419 169.745 288.669 176.606 296.984 181.042C302.699 184.101 308.596 186.845 314.443 189.636C324.181 194.25 333.86 198.951 343.216 204.311C345.041 205.352 345.945 206.214 344.921 208.432C343.677 211.089 344.091 213.846 345.406 216.429C347.919 221.337 350.258 226.337 353.456 230.873C354.965 233.016 356.288 235.284 357.727 237.477C361.132 242.663 359.838 248.061 358.403 253.437C357.881 255.39 356.607 254.548 355.479 254.01C350.125 251.443 344.854 248.691 339.401 246.357C326.96 241.038 314.377 236.042 301.384 232.187C298.849 231.503 296.386 230.575 294.031 229.413C291.153 227.908 287.947 227.535 284.833 227.117C278.078 226.244 271.675 223.6 266.275 219.451C261.377 215.72 256.239 212.677 250.287 211.056C249.363 211.11 248.483 211.011 247.774 210.327C246.63 210.35 245.501 210.063 244.506 209.497C243.329 209.456 242.13 209.497 241.118 208.718C236.813 207.773 232.446 207.035 228.212 205.816C218.18 202.976 207.891 202.01 197.569 201.09C193.77 200.75 189.988 200.228 185.43 199.697C188.769 196.086 192.066 193.636 195.309 191.261C210.459 180.143 226.857 170.835 244.17 163.526C252.378 160.06 260.983 159.687 269.742 157.565C269.891 159.675 268.829 161.296 269.742 162.83C270.015 163.294 270.227 163.912 270.911 163.696C271.273 163.539 271.567 163.258 271.741 162.904C272.284 161.814 271.882 160.417 273.014 159.314C274.561 159.965 275.456 161.374 276.481 162.602V162.618ZM295.275 137.781C291.103 138.656 288.823 141.052 287.359 144.759C286.865 146.002 286.637 147.449 285.472 148.369C284.97 151.209 284.928 151.271 283.083 150.14C281.761 149.403 280.511 148.544 279.35 147.574C278.156 146.492 275.925 146.197 275.771 144.452C275.578 141.985 276.138 139.517 277.376 137.375C277.966 136.464 278.619 135.596 279.33 134.776V134.85C279.379 134.606 279.45 134.366 279.541 134.133C280.657 131.128 282.917 128.818 284.431 126.053C285.161 124.718 286.231 124.577 287.574 125.249C289.913 126.414 292.323 127.446 294.662 128.615C298.456 130.51 302.409 132.027 307.178 133.797C302.715 135.331 299.083 136.985 295.275 137.781ZM343.731 118.815C341.528 121.796 339.136 124.644 336.738 127.475C334.433 130.203 331.596 131.621 328.992 130.593C323.053 130.315 318.412 131.791 313.672 132.579C312.722 132.736 311.785 132.964 310.836 133.08C310.561 133.118 310.281 133.076 310.029 132.959C309.778 132.842 309.565 132.656 309.417 132.421C308.961 131.729 309.243 131.144 309.716 130.576C313.863 125.601 316.55 119.644 320.245 114.354C322.597 110.988 322.439 110.884 326.503 111.83C331.857 113.073 337.22 114.271 342.557 115.561C345.174 116.199 345.369 116.597 343.731 118.815ZM350.324 92.6972C350.515 95.5577 349.968 98.4597 349.814 101.345C349.707 103.339 348.284 103.795 346.733 104.073C341.844 104.948 336.933 105.698 332.061 106.656C325.525 107.941 318.79 106.797 312.283 108.343C310.809 108.705 309.311 108.959 307.8 109.102C305.15 109.33 304.561 108.869 304.354 106.254C304.121 103.352 304.076 100.45 303.939 97.5477L301.451 97.3362C298.618 100.184 296.395 103.513 294.259 106.871C288.785 115.453 283.626 124.242 278.048 132.757C274.507 138.146 273.374 144.141 272.81 150.322C272.358 155.297 271.371 156.226 266.175 155.765C265.905 155.717 265.639 155.644 265.383 155.546C263.99 156.91 262.107 157.013 260.406 157.158C253.389 157.764 246.928 160.023 240.533 162.701C224.268 169.533 209.164 178.368 194.944 188.732C191.158 191.493 187.599 194.577 184.049 197.637C182.581 198.88 181.254 199.498 179.214 199.125C175.013 198.358 170.741 197.997 166.507 197.405C155.928 195.929 146.58 190.999 136.959 186.837C134.686 185.855 132.086 185.254 130.249 183.736C128.411 182.219 128.888 179.412 128.125 177.211C124.053 165.466 120.515 153.531 116.215 141.877C114.237 136.513 114.817 131.468 115.477 126.157C116.414 118.628 118.28 111.233 118.645 103.617C118.798 100.379 118.28 97.3279 117.675 94.2477C115.717 84.2359 114.303 74.0997 111.039 64.3989C109.853 60.875 109.015 57.1232 107.182 53.9559C105.499 51.0539 102.795 48.6785 100.335 46.2864C99.1576 45.1422 97.8471 44.1555 96.8809 42.9699C96.9348 42.2775 97.2624 42.0039 97.6812 42.0288C104.947 42.4434 111.943 40.6856 118.977 39.3051C132.524 36.6491 146.059 33.9724 159.581 31.2749C177.306 27.7428 195.043 24.2604 212.602 19.9324C217.289 18.7799 222.087 18.0917 226.777 16.9599C235.486 14.8539 244.253 12.8474 252.842 10.2978C260.722 7.9638 268.327 8.33276 276.618 10.9984C271.201 13.1998 265.781 13.8714 260.195 15.9276C262.181 17.5859 263.625 17.0594 265.018 16.6987C269.966 15.4136 274.913 14.145 279.84 12.7894C285.107 11.3384 289.631 12.1343 294.181 15.5794C300.658 20.4837 307.692 24.6584 314.452 29.2021C316.281 30.4458 317.973 31.8678 319.719 33.2151C320.051 33.4497 320.322 33.7602 320.509 34.1208C320.697 34.4814 320.795 34.8815 320.797 35.2879C316.893 33.2061 312.451 32.3521 308.053 32.8378C307.095 32.9373 306.066 32.9373 305.253 32.3155C302.429 30.1597 298.859 29.7991 295.74 28.3232C293.202 27.121 291.896 27.6599 290.714 30.1763C289.797 32.1248 288.416 33.866 288.25 36.2C288.084 38.534 288.25 38.932 290.523 38.5879C292.426 38.2977 294.288 37.7173 296.163 37.2613C301.276 36.0176 306.431 35.0806 311.723 35.2423C312.822 35.2755 314.083 35.1014 314.991 35.5698C320.279 38.2853 325.964 39.9021 331.513 41.9127C333.323 42.6252 334.944 43.746 336.249 45.1878C336.913 45.876 337.667 46.7756 338.505 46.9373C341.873 47.5923 342.52 50.1626 343.395 52.878C347.529 65.825 349.429 79.1823 350.324 92.7014V92.6972ZM374.187 56.3811C365.589 53.8661 356.992 51.3455 348.396 48.8194C343.922 47.5496 339.789 45.2961 336.299 42.2236C334.64 40.7436 332.517 39.9643 330.53 39.0107C327.105 37.3525 324.442 34.8651 321.871 31.7392C322.978 31.0925 323.629 31.4117 324.289 31.5776C336.199 34.5441 347.911 38.2591 359.353 42.7004C363.836 44.4665 366.95 48.0898 370.699 50.8715C372.868 52.4718 374.755 54.4534 376.812 56.3024C375.73 57.1025 374.954 56.6008 374.187 56.3811Z" fill="#2D1D2D"/>
<path d="M335.022 166.867C326.699 167.518 318.525 166.917 310.508 164.347C303.558 162.112 296.495 160.201 289.648 157.639C286.745 156.545 286.198 155.662 286.915 152.644C287.753 148.869 289.313 145.292 291.51 142.11C292.335 142.149 293.156 142.242 293.969 142.387C301.828 144.278 309.571 146.612 317.222 149.186C322.05 150.811 326.267 151.114 329.958 146.931C331.136 145.6 332.749 144.713 334.387 143.979C337.377 142.64 339.364 140.588 339.289 137.089C340.911 137.524 342.271 138.461 343.619 139.402C346.426 141.359 349.47 142.972 351.996 145.335C352.452 145.749 353.112 146.384 353.742 145.633C354.26 145.012 353.904 144.294 353.423 143.797C352.766 143.102 352.045 142.47 351.27 141.911C348.467 139.937 345.655 137.976 342.582 136.434C345.622 134.361 349.309 134.262 352.66 133.118C354.451 132.512 356.483 132.492 358.121 130.75C355.102 127.434 352.05 124.142 349.085 120.776C346.804 118.185 346.866 118.143 348.757 115.229C350.781 112.111 353.278 109.309 354.978 105.98C365.943 108.185 376.634 111.403 387.326 114.686C388.371 115.005 389.457 115.316 390.187 116.249C387.321 122.053 382.722 126.48 378.268 130.945C366.022 143.171 352.22 153.547 338.402 163.891C337.187 164.803 335.768 165.45 335.022 166.867Z" fill="#624795"/>
<path d="M462.517 134.079C461.432 133.799 460.494 133.116 459.896 132.168C455.388 125.228 449.114 119.665 444.597 112.779C440.799 106.975 435.582 102.456 431.559 96.8759C428.468 92.5828 423.995 89.4815 418.889 88.0912C414.419 86.8019 410.102 84.9115 405.834 83.0252C400.733 80.7658 395.309 79.7086 389.938 78.5437C385.123 77.4866 380.541 75.5547 375.689 74.8126C371.587 74.1825 367.867 72.3749 363.807 71.5956C358.98 70.6669 354.302 68.9796 349.553 67.6199C348.085 62.0688 347.102 56.3934 344.992 51.1325C346.547 49.9095 347.642 50.9418 348.749 51.2154C360.618 54.163 372.234 57.9687 383.929 61.4925C384.8 62.2429 385.882 62.4585 386.948 62.7362C395.993 65.2029 404.88 68.1961 413.826 70.9861C421.237 73.2953 426.682 77.9799 430.829 84.0657C441.155 99.2099 451.121 114.603 461.223 129.9C462.036 131.165 463.015 132.392 462.517 134.079Z" fill="#353481"/>
<path d="M462.517 134.079C463.015 132.392 462.036 131.177 461.202 129.905C451.1 114.607 441.135 99.2267 430.808 84.0702C426.661 77.9843 421.22 73.2914 413.805 70.9906C404.86 68.2005 395.972 65.1866 386.927 62.7407C385.862 62.4505 384.779 62.2349 383.908 61.497C384.02 60.9663 384.128 60.4357 384.236 59.9009C392.53 61.924 400.659 64.3741 408.704 67.1019C410.778 67.8067 412.818 68.6648 414.925 69.2742C424.247 71.9897 430.153 78.6725 435.063 86.5037C436.009 88.0085 436.743 89.6378 438.12 90.8276C438.187 91.2016 438.332 91.5571 438.547 91.8708C438.761 92.1845 439.04 92.4492 439.364 92.6476V92.6102C439.634 93.6241 440.229 94.5221 441.056 95.1681C443.681 100.839 447.778 105.532 451.266 110.648C458.358 121.012 464.682 131.857 471.409 142.445C475.701 149.199 480.039 155.931 484.576 162.519C488.3 167.994 491.746 173.653 494.902 179.475C495.73 181.065 496.779 182.53 498.017 183.827C498.017 190.199 492.982 194.764 486.819 193.893C484.24 193.528 481.582 193.412 479.272 191.97L479.446 190.664C481.598 191.078 483.734 191.596 485.899 191.945C489.183 192.471 492.182 191.99 494.359 189.122C496.163 187.326 496.287 185.656 494.927 183.272C488.366 171.751 480.661 160.972 473.532 149.825C470.944 145.779 468.244 141.799 465.553 137.715C465.204 138.13 464.935 138.333 464.885 138.544C464.727 139.213 464.638 139.897 464.62 140.584C464.64 146.027 461.995 150.011 457.814 153.183C455.509 154.936 453.219 156.715 450.926 158.477C448.74 159.235 447.467 161.059 445.949 162.647C444.431 164.235 444.291 165.682 445.568 167.672C450.694 175.549 456.931 182.057 465.889 185.527L465.976 186.688L464.188 186.174C464.134 186.111 464.061 186.069 463.98 186.053C463.898 186.037 463.814 186.049 463.741 186.087C459.815 184.849 456.233 182.711 453.281 179.844C448.811 175.522 444.941 170.619 441.777 165.267C439.53 161.511 436.357 158.398 434.661 154.215C433.939 152.432 431.857 151.238 430.514 149.655C423.775 141.625 416.762 133.798 411.23 124.835C409.931 122.729 408.372 121.381 405.838 120.797C402.902 120.113 400.082 118.894 397.254 117.808C395.317 117.066 393.936 117.335 392.655 119.143C384.775 130.153 376.39 140.75 367.797 151.201C364.114 155.683 360.46 160.181 356.438 164.364C355.281 165.566 354.111 166.702 352.427 167.12C352.427 166.515 352.427 165.91 352.398 165.305C353.593 164.169 354.862 163.107 355.965 161.893C366.08 150.749 375.349 138.913 384.46 126.953C386.799 123.88 389.073 120.759 391.282 117.592C392.319 116.112 391.352 116.004 390.15 116.253C389.42 115.32 388.333 115.009 387.288 114.69C376.613 111.415 365.922 108.198 354.941 105.984C355.202 105.329 355.463 104.67 355.729 104.015C361.252 104.43 366.486 106.225 371.774 107.655C384.124 110.971 396.167 115.312 408.269 119.4C410.392 120.113 411.731 121.472 412.83 123.297C415.626 127.877 418.848 132.164 422.054 136.455C422.394 137.135 422.759 137.794 423.538 138.076C423.932 138.83 424.368 139.556 425.251 139.809C427.2 143.954 430.642 146.931 433.732 150.14C434.868 151.313 436.121 152.345 436.751 153.954C438.103 157.42 440.815 159.965 443.071 163.302C444.506 160.28 447.538 159.07 448.877 156.338C458.196 151.798 464.143 145.244 462.517 134.079Z" fill="#2D1D2D"/>
<path d="M372.313 265.008C368.887 262.691 365.487 260.348 362.045 258.081C360.46 257.044 359.755 256.008 360.577 253.993C361.85 250.888 361.742 247.497 361.987 244.209C362.115 241.994 361.574 239.792 360.436 237.887C357.068 231.863 352.855 226.354 349.802 220.135C348.89 218.278 348.094 216.367 347.219 214.493C346.594 213.094 346.406 211.54 346.68 210.032C347.132 207.097 347.895 206.77 350.752 207.914C357.686 210.687 364.516 213.643 370.409 218.373C370.886 218.759 371.467 219.31 372.234 218.842L372.189 218.63C371.508 219.095 371.89 219.538 372.255 219.911C373.914 221.57 375.573 223.203 377.198 224.849L377.497 225.939C377.427 226.767 377.427 227.599 377.497 228.427C379.297 238.907 378.828 249.437 378.144 259.959C377.99 262.384 377.829 264.9 376.601 267.135L372.313 265.008Z" fill="#E29EFF"/>
<path d="M339.289 137.089C339.343 140.588 337.377 142.64 334.387 143.979C332.749 144.713 331.136 145.6 329.958 146.931C326.267 151.114 322.05 150.811 317.222 149.186C309.571 146.612 301.828 144.278 293.969 142.387C293.156 142.242 292.335 142.149 291.51 142.109C292.058 141.247 292.895 140.866 293.828 140.522C304.05 136.859 314.607 134.211 325.347 132.616C327.652 132.233 330.015 132.374 332.259 133.028C334.503 133.682 336.571 134.832 338.311 136.392L339.231 137.222L339.289 137.089Z" fill="#50448B"/>
<path d="M329.067 130.589C323.128 130.315 318.487 131.791 313.747 132.579C312.797 132.736 311.86 132.964 310.91 133.08C310.636 133.117 310.356 133.075 310.105 132.958C309.854 132.841 309.641 132.655 309.492 132.421C309.036 131.725 309.318 131.144 309.791 130.576C313.938 125.602 316.625 119.644 320.32 114.354C322.672 110.988 322.514 110.88 326.578 111.826C331.932 113.069 337.295 114.267 342.632 115.557C345.249 116.191 345.444 116.585 343.806 118.807C341.603 121.788 339.206 124.632 336.813 127.467C334.508 130.174 331.671 131.588 329.067 130.589Z" fill="#624795"/>
<path d="M321.946 31.706C323.053 31.0635 323.704 31.3785 324.364 31.5485C336.275 34.5104 347.986 38.2226 359.428 42.6631C363.911 44.4291 367.025 48.0524 370.774 50.8383C372.943 52.4386 374.83 54.4202 376.887 56.2692C375.788 57.0983 375.029 56.5759 374.262 56.3521C365.664 53.837 357.067 51.3151 348.471 48.7862C343.997 47.5196 339.863 45.2673 336.374 42.1946C334.715 40.7105 332.592 39.9311 330.605 38.9776C327.18 37.3359 324.517 34.8236 321.946 31.706Z" fill="#353481"/>
<path d="M390.179 116.257C391.381 116.008 392.348 116.116 391.311 117.596C389.099 120.758 386.825 123.878 384.489 126.957C375.365 138.917 366.109 150.753 355.994 161.897C354.891 163.112 353.622 164.173 352.427 165.309C346.65 166.08 340.89 167.075 335.009 166.868C335.756 165.45 337.174 164.795 338.381 163.899C352.199 153.535 366.001 143.171 378.247 130.954C382.726 126.489 387.313 122.053 390.179 116.257Z" fill="#E29EFF"/>
<path d="M279.62 134.112C280.736 131.107 282.996 128.798 284.51 126.032C285.24 124.698 286.31 124.557 287.653 125.224C289.992 126.393 292.402 127.421 294.741 128.594C298.535 130.489 302.488 132.002 307.257 133.777C302.79 135.31 299.157 136.965 295.342 137.761C291.17 138.631 288.889 141.031 287.425 144.738C286.932 145.981 286.704 147.428 285.538 148.344C284.763 148.295 284.41 147.644 283.904 147.209C280.064 143.892 276.734 140.41 279.413 134.772V134.85C279.378 134.72 279.379 134.583 279.415 134.453C279.452 134.323 279.523 134.205 279.62 134.112Z" fill="#624795"/>
<path d="M377.497 225.939L377.198 224.849C377.231 224.156 377.26 223.464 377.294 222.776C381.379 227.336 384.053 232.8 386.455 238.31C389.859 246.104 393.119 253.98 394.84 262.4C395.213 264.233 395.201 265.588 393.907 266.873C391.862 268.909 389.851 270.982 387.74 272.947C386.247 274.34 384.58 274.24 382.764 273.361C378.672 271.256 374.753 268.83 371.044 266.106L372.288 265.033L376.589 267.139C378.575 269.079 381.076 270.269 383.406 271.699C384.385 272.3 385.351 272.661 386.384 271.645C388.346 269.717 390.394 267.885 392.377 265.978C393.683 264.734 394.106 263.308 393.393 261.496C392.335 258.81 391.551 256.02 390.511 253.325C386.894 243.852 383.581 234.23 377.497 225.939Z" fill="#2D1D2D"/>
<path d="M279.413 134.734C276.734 140.393 280.064 143.884 283.904 147.171C284.41 147.607 284.763 148.258 285.538 148.307C285.037 151.151 284.995 151.209 283.15 150.082C281.828 149.345 280.578 148.486 279.417 147.515C278.223 146.433 275.992 146.135 275.838 144.394C275.652 141.938 276.212 139.483 277.443 137.35C278.038 136.433 278.696 135.559 279.413 134.734Z" fill="#E29EFF"/>
<path d="M306.332 20.6245C313.233 21.4536 320.37 24.8655 324.509 29.1066C317.509 28.6049 312.038 25.533 306.332 20.6245Z" fill="#353481"/>
<path d="M342.582 136.434C345.655 137.977 348.467 139.937 351.27 141.911C352.045 142.471 352.766 143.102 353.423 143.797C353.904 144.294 354.252 145.012 353.742 145.634C353.112 146.384 352.452 145.762 351.996 145.335C349.471 142.972 346.427 141.359 343.619 139.403C342.271 138.462 340.911 137.525 339.289 137.089L339.231 137.243C339.287 136.968 339.279 136.684 339.206 136.414L342.582 136.434Z" fill="#2D1D2D"/>
<path d="M301.517 97.3365C303.591 94.1319 306.813 92.0052 309.272 89.1654L309.231 89.2317C309.466 89.0869 309.666 88.893 309.819 88.6632C309.971 88.4335 310.072 88.1734 310.114 87.9009C310.529 87.8388 310.915 87.8015 311.309 87.7102C311.856 87.5817 312.432 87.4988 312.806 87.9797C313.374 88.7135 312.835 89.3229 312.312 89.7002C309.21 91.9596 306.56 94.675 304.018 97.5479L301.517 97.3365Z" fill="#2D1D2D"/>
<path d="M241.197 208.701C242.711 207.296 243.611 208.552 244.585 209.477C243.408 209.435 242.192 209.477 241.197 208.701Z" fill="#50448B"/>
<path d="M247.853 210.306C249.122 209.062 249.732 210.091 250.366 211.036C249.442 211.085 248.562 210.986 247.853 210.306Z" fill="#50448B"/>
<path d="M320.843 35.3251C321.094 35.301 321.348 35.3278 321.589 35.4039C321.863 35.5573 321.768 35.8185 321.444 35.7563C321.233 35.7148 321.067 35.4412 320.88 35.2754L320.843 35.3251Z" fill="#473B5D"/>
<path d="M370.575 265.738C370.368 265.754 370.162 265.704 369.985 265.595C369.808 265.486 369.671 265.324 369.592 265.132L370.575 265.738Z" fill="#2D1D2D"/>
<path d="M339.206 136.426C339.279 136.697 339.287 136.98 339.231 137.255L338.311 136.426H339.206Z" fill="#624795"/>
<path d="M279.62 134.112C279.525 134.203 279.454 134.316 279.417 134.442C279.379 134.568 279.375 134.702 279.405 134.83C279.458 134.585 279.53 134.345 279.62 134.112Z" fill="#E29EFF"/>
<path d="M383.228 59.1338C383.442 59.1565 383.644 59.2396 383.813 59.3732C383.981 59.5068 384.107 59.6854 384.178 59.8883C383.965 59.8627 383.764 59.7787 383.596 59.6454C383.428 59.5122 383.301 59.3351 383.228 59.1338Z" fill="#2D1D2D"/>
<path d="M479.45 190.651C479.388 191.087 479.33 191.522 479.272 191.957C477.911 191.754 476.758 190.606 475.253 191.095C472.765 188.4 469.119 188.098 466.009 186.688L465.922 185.527L479.45 190.651Z" fill="#473B5D"/>
<path d="M377.294 222.772C377.26 223.464 377.231 224.156 377.198 224.845C375.539 223.186 373.88 221.565 372.255 219.907C371.89 219.534 371.508 219.078 372.188 218.626C372.231 218.532 372.297 218.451 372.38 218.39C372.462 218.328 372.56 218.289 372.662 218.276C372.764 218.263 372.868 218.276 372.963 218.314C373.059 218.352 373.143 218.414 373.209 218.493L374.084 219.202L374.913 220.031L375.606 220.927L375.668 220.993L376.448 221.764L377.294 222.772Z" fill="#2D1D2D"/>
<path d="M376.456 221.794L375.676 221.022C375.874 221.046 376.057 221.134 376.199 221.274C376.34 221.414 376.43 221.597 376.456 221.794Z" fill="#2D1D2D"/>
<path d="M375.614 220.964L374.921 220.069C375.121 220.119 375.297 220.235 375.423 220.397C375.548 220.559 375.616 220.759 375.614 220.964Z" fill="#2D1D2D"/>
<path d="M374.921 220.052L374.092 219.223C374.303 219.249 374.499 219.345 374.649 219.495C374.8 219.645 374.895 219.841 374.921 220.052Z" fill="#2D1D2D"/>
<path d="M374.071 219.207L373.196 218.498C373.405 218.484 373.61 218.55 373.773 218.681C373.935 218.812 374.041 219 374.071 219.207Z" fill="#2D1D2D"/>
<path d="M463.761 186.095C463.835 186.057 463.919 186.045 464 186.061C464.082 186.077 464.155 186.12 464.209 186.182L463.96 186.282L463.761 186.095Z" fill="#473B5D"/>
<path d="M255.878 146.649C255.778 147.66 254.725 148.017 253.692 148.456C247.132 151.289 240.559 154.132 233.973 156.984C224.484 161.08 214.993 165.172 205.499 169.259C204.868 169.533 204.255 169.852 203.612 170.089C200.033 171.494 199.394 171.266 198.2 167.622C196.429 162.232 193.638 157.287 191.386 152.109C187.695 143.652 183.635 135.356 179.733 126.994C179.554 126.621 179.363 126.252 179.189 125.879C178.775 125.017 178.144 124.125 178.932 123.201C179.815 122.169 180.91 122.587 181.989 122.911C184.099 123.545 186.256 124.038 188.338 124.756C202.156 129.498 216.368 132.91 230.319 137.193C237.432 139.373 244.602 141.338 251.739 143.461C252.793 143.772 253.816 144.179 254.796 144.676C255.401 144.995 255.907 145.513 255.878 146.649Z" fill="#2D1D2D"/>
<path d="M281.2 113.89C276.531 123.578 271.865 133.271 267.515 143.1C266.756 144.796 266.105 146.624 264.612 148.125C263.227 146.84 264.172 145.886 264.562 145.045C269.211 135.041 273.918 125.062 278.563 115.055C279.484 113.069 280.773 111.216 280.985 108.944C282.005 107.895 282.42 111.32 281.2 113.89Z" fill="#2D1D2D"/>
<path d="M340.115 62.405C340.177 64.5732 339.078 66.0159 337.212 66.9238C336.09 67.4474 334.835 67.6168 333.615 67.4094C332.395 67.202 331.267 66.6277 330.381 65.763C327.652 63.201 328.026 60.983 331.501 59.6398C333.011 59.0594 334.537 58.3961 336.241 58.5081C338.638 58.6822 340.027 60.0627 340.115 62.405Z" fill="#2D1D2D"/>
<path d="M123.551 54.2546C122.365 54.3168 121.789 54.2132 121.573 53.6493C121.258 52.8202 121.814 52.2854 122.481 52.0947C126.425 50.9588 130.382 49.8726 134.342 48.803C134.607 48.7185 134.895 48.7394 135.145 48.8614C135.396 48.9834 135.589 49.1971 135.686 49.4581C136.009 50.2872 135.491 50.7971 134.798 51.0003C130.867 52.1693 126.902 53.2845 123.551 54.2546Z" fill="#2D1D2D"/>
<path d="M293.924 46.6718C293.654 46.8925 293.364 47.0869 293.057 47.2522C290.085 48.6341 287.103 49.9994 284.112 51.3481C283.469 51.6383 282.681 51.8415 282.266 51.1616C281.852 50.4817 282.333 49.8349 282.967 49.5033C285.852 47.9291 288.858 46.5898 291.958 45.4986C292.717 45.2291 293.617 45.2208 293.924 46.6718Z" fill="#2D1D2D"/>
<path d="M281.541 38.9691C280.96 38.7867 280.479 38.4053 280.533 37.8373C280.661 36.4237 281.74 36.1791 282.897 36.2205C283.469 36.2205 284.087 36.5729 283.967 37.1699C283.722 38.426 282.59 38.6996 281.541 38.9691Z" fill="#2D1D2D"/>
<path d="M91.1083 148.71C93.5966 148.71 96.0849 148.751 98.5732 148.71C100.763 148.66 101.99 149.73 102.181 151.831C102.596 156.365 102.174 160.936 100.937 165.317C100.356 167.39 98.3699 167.68 96.5742 167.846C89.9927 168.456 83.3988 169.144 76.8007 169.558C62.7627 170.445 48.7205 171.192 34.6783 171.992C34.2636 172.017 33.8489 172.029 33.4341 172.033C27.8355 172.108 25.9195 169.985 26.5375 164.418C26.7656 162.345 27.0559 160.309 27.1388 158.249C27.23 155.927 28.3829 154.7 30.5934 154.339C31.1304 154.209 31.6746 154.111 32.2232 154.045C41.7367 153.655 51.1175 151.972 60.602 151.234C70.7708 150.418 80.8939 149.041 91.1083 148.71ZM46.3193 169.023C52.54 168.721 58.7275 168.456 64.9316 168.099C71.1357 167.742 77.3315 167.369 83.5232 166.876C87.9233 166.524 92.2985 165.91 96.6945 165.525C98.2041 165.392 98.8303 164.629 99.2325 163.302C100.062 160.508 99.9293 157.598 100.099 154.767C100.381 149.995 99.4731 150.517 96.0849 150.666C84.9125 151.168 73.7816 152.142 62.6548 153.154C52.4861 154.082 42.3339 155.285 32.1859 156.296C30.1994 156.491 29.1336 157.246 29.1585 159.352C29.1585 160.728 28.9884 162.104 28.9179 163.497C28.6152 169.239 29.1377 169.824 34.7239 169.616C38.6098 169.484 42.4707 169.231 46.3317 169.032L46.3193 169.023Z" fill="#2D1D2D"/>
<path d="M24.3602 166.768C24.308 167.492 24.2181 168.213 24.0907 168.928C23.8418 170.039 23.1119 170.702 22.0171 170.109C19.2385 168.629 16.3894 167.207 13.8224 165.416C11.0936 163.509 11.1392 162.1 13.4077 159.753C14.9304 158.162 16.766 156.903 18.7989 156.055C21.4738 154.948 22.6931 155.55 23.1907 158.34C23.6386 161.034 23.9455 163.754 24.3602 166.768ZM20.6693 158C18.2474 158.19 16.9617 159.704 15.4812 160.877C14.0007 162.05 14.3532 163.198 15.7923 164.09C17.6253 165.217 19.4791 166.337 21.8719 166.992C21.6853 163.862 21.5651 161.047 20.6693 158Z" fill="#2D1D2D"/>
<path d="M448.952 156.35C447.604 159.082 444.573 160.293 443.146 163.315C440.89 159.977 438.169 157.432 436.826 153.966C436.195 152.358 434.943 151.325 433.807 150.152C430.696 146.944 427.275 143.983 425.326 139.821C427.171 139.179 428.038 140.729 429.129 141.616C434.901 146.318 440.674 151.015 446.762 155.297C447.426 155.786 448.048 156.371 448.952 156.35Z" fill="#E29EFF"/>
<path d="M423.605 138.088L425.156 138.258C425.409 138.76 425.873 139.237 425.317 139.821C424.417 139.568 423.999 138.843 423.605 138.088Z" fill="#E29EFF"/>
<path d="M450.926 158.485C453.219 156.723 455.488 154.945 457.814 153.191C461.995 150.02 464.64 146.036 464.62 140.592C464.638 139.905 464.727 139.222 464.885 138.553C464.935 138.321 465.204 138.138 465.553 137.724C468.244 141.807 470.944 145.787 473.532 149.833C480.661 160.981 488.366 171.76 494.927 183.28C496.287 185.664 496.171 187.335 494.363 189.126C484.331 182.14 474.245 175.23 464.292 168.14C459.817 164.936 455.065 162.133 450.926 158.485Z" fill="#E29EFF"/>
<path d="M450.926 158.485C455.073 162.133 459.817 164.936 464.292 168.119C474.245 175.209 484.331 182.119 494.363 189.105C492.182 191.978 489.183 192.459 485.899 191.932C483.734 191.584 481.598 191.082 479.446 190.651L465.909 185.535C456.947 182.065 450.71 175.544 445.589 167.68C444.29 165.69 444.436 164.276 445.97 162.655C447.504 161.034 448.74 159.244 450.926 158.485Z" fill="#FFEBBA"/>
<path d="M377.497 225.939C383.581 234.231 386.894 243.853 390.535 253.301C391.576 255.996 392.36 258.786 393.418 261.472C394.131 263.284 393.708 264.702 392.402 265.954C390.419 267.861 388.371 269.685 386.409 271.621C385.376 272.636 384.41 272.276 383.431 271.675C381.101 270.236 378.6 269.046 376.613 267.114C377.858 264.88 378.007 262.363 378.16 259.938C378.845 249.416 379.313 238.886 377.513 228.406C377.439 227.586 377.434 226.761 377.497 225.939Z" fill="#FFEBBA"/>
<path d="M46.3318 169.032C42.4708 169.231 38.6098 169.484 34.7488 169.625C29.1502 169.832 28.6276 169.247 28.9428 163.505C29.0133 162.125 29.1958 160.749 29.1834 159.36C29.1585 157.254 30.2243 156.499 32.2108 156.304C42.3712 155.293 52.5317 154.091 62.6797 153.162C73.8065 152.151 84.9374 151.176 96.1098 150.675C99.498 150.525 100.406 150.003 100.124 154.775C99.9542 157.606 100.103 160.516 99.2575 163.311C98.8427 164.637 98.229 165.383 96.7194 165.533C92.3234 165.918 87.9482 166.532 83.5481 166.884C77.3564 167.378 71.1565 167.755 64.9565 168.107C58.7566 168.46 52.5483 168.729 46.3442 169.032H46.3318Z" fill="#E29EFF"/>
<path d="M20.6693 158C21.5444 161.047 21.6854 163.862 21.872 166.98C19.4791 166.337 17.6253 165.218 15.7923 164.078C14.3532 163.186 13.9385 162.083 15.4813 160.865C17.024 159.646 18.2474 158.191 20.6693 158Z" fill="#E29EFF"/>
<path d="M316.886 92.577C316.886 92.577 300.713 104.944 295.35 113.26C289.988 121.576 278.015 130.842 276.153 137.86C274.291 144.879 273.731 157.395 272.06 157.565C270.389 157.735 265.043 157.009 264.156 156.118C263.268 155.226 253.788 145.82 252.793 139.697C251.797 133.574 271.073 107.912 279.517 102.456C287.96 97.0004 302.683 79.2072 311.715 80.596C320.747 81.9848 316.886 92.577 316.886 92.577Z" fill="#FF9EAF"/>
<path d="M265.441 155.537C264.044 156.897 262.161 157.005 260.44 157.15C253.456 157.743 247.003 159.981 240.588 162.676C224.323 169.512 209.219 178.343 194.998 188.711C191.212 191.468 187.654 194.552 184.104 197.612C182.636 198.876 181.308 199.473 179.268 199.1C175.067 198.337 170.795 197.977 166.561 197.384C155.982 195.904 146.634 190.979 137.013 186.816C134.74 185.834 132.14 185.233 130.303 183.715C128.466 182.198 128.943 179.392 128.18 177.19C124.107 165.445 120.57 153.51 116.269 141.852C114.291 136.492 114.871 131.447 115.531 126.132C116.468 118.604 118.334 111.208 118.699 103.596C118.853 100.358 118.334 97.303 117.729 94.2228C115.771 84.2151 114.357 74.0748 111.093 64.374C109.907 60.8501 109.07 57.0942 107.237 53.931C105.553 51.029 102.849 48.6536 100.39 46.2615C99.2118 45.1173 97.9013 44.1306 96.9351 42.945C96.989 42.2526 97.3166 41.979 97.7355 41.9998C105.001 42.4143 111.997 40.6566 119.031 39.276C132.578 36.6228 146.113 33.9461 159.636 31.2459C177.348 27.7221 195.085 24.2397 212.644 19.8992C217.33 18.7425 222.129 18.0585 226.819 16.9226C235.528 14.8207 244.295 12.8101 252.884 10.2646C260.763 7.93061 268.369 8.29543 276.659 10.9652C271.243 13.1624 265.823 13.8382 260.237 15.8944C262.223 17.5278 263.666 17.0262 265.06 16.6614C270.007 15.3762 274.955 14.1077 279.882 12.752C285.148 11.3052 289.673 12.1012 294.222 15.5421C300.7 20.4671 307.717 24.6418 314.494 29.1855C316.323 30.4292 318.015 31.847 319.76 33.1985C320.101 33.4376 320.378 33.7565 320.566 34.1272C320.755 34.498 320.85 34.9093 320.843 35.3252L320.88 35.2755C316.969 33.1688 312.51 32.3012 308.095 32.7881C307.137 32.8834 306.108 32.8834 305.295 32.2657C302.471 30.1058 298.9 29.7493 295.782 28.2734C293.244 27.0712 291.937 27.606 290.755 30.1224C289.839 32.0709 288.458 33.8162 288.292 36.1461C288.126 38.4759 288.292 38.8822 290.565 38.534C292.468 38.2479 294.33 37.6675 296.205 37.2074C301.318 35.9637 306.473 35.0309 311.765 35.1926C312.864 35.2257 314.125 35.0516 315.033 35.5159C320.32 38.2313 326.006 39.8482 331.555 41.8588C333.365 42.5713 334.986 43.6921 336.291 45.1339C336.954 45.8221 337.709 46.7217 338.547 46.8875C341.914 47.5384 342.561 50.1128 343.436 52.8241C347.621 65.7876 349.504 79.145 350.399 92.664C350.59 95.5204 350.043 98.4265 349.889 101.312C349.782 103.306 348.359 103.762 346.808 104.04C341.919 104.91 337.008 105.661 332.136 106.618C325.6 107.904 318.865 106.759 312.358 108.306C310.885 108.671 309.386 108.926 307.875 109.068C305.225 109.296 304.636 108.832 304.429 106.22C304.196 103.318 304.151 100.416 304.014 97.5145C306.548 94.654 309.198 91.9261 312.308 89.6667C312.831 89.2895 313.37 88.68 312.802 87.9463C312.428 87.4654 311.852 87.5317 311.304 87.6768C310.91 87.768 310.508 87.8053 310.11 87.8675L309.227 89.1982L309.268 89.1319C308.095 88.9205 307.07 89.4097 306.158 89.9984C302.923 92.0712 299.672 94.144 296.553 96.3993C292.327 99.4339 281.988 107.862 280.947 108.911C276.601 112.812 261.17 129.826 261.132 130.651C259.395 131.256 258.926 132.997 257.989 134.278C254.257 139.39 254.302 141.202 258.163 146.255C259.482 147.984 260.962 149.592 262.397 151.23C263.559 152.586 264.823 153.829 265.441 155.537ZM255.903 146.649C255.903 145.517 255.409 144.991 254.804 144.692C253.824 144.196 252.801 143.789 251.747 143.478C244.61 141.372 237.44 139.39 230.328 137.209C216.377 132.927 202.164 129.515 188.346 124.772C186.273 124.055 184.108 123.562 181.997 122.927C180.919 122.604 179.824 122.185 178.94 123.218C178.152 124.142 178.795 125.033 179.198 125.896C179.372 126.269 179.563 126.638 179.741 127.011C183.643 135.373 187.703 143.668 191.394 152.125C193.65 157.303 196.437 162.245 198.208 167.639C199.402 171.283 200.041 171.511 203.62 170.105C204.259 169.852 204.864 169.533 205.507 169.276C215.001 165.186 224.493 161.094 233.981 157.001C240.561 154.151 247.137 151.303 253.709 148.457C254.742 148 255.795 147.661 255.878 146.649H255.903ZM340.11 62.4048C340.027 60.0625 338.638 58.6737 336.237 58.5078C334.533 58.3876 333.006 59.0592 331.497 59.6396C328.022 60.9828 327.648 63.2007 330.377 65.7628C331.263 66.6274 332.391 67.2018 333.611 67.4091C334.831 67.6165 336.086 67.4471 337.207 66.9235C339.078 66.0156 340.177 64.5729 340.11 62.4048ZM123.551 54.2544C126.919 53.2843 130.867 52.1815 134.798 51C135.491 50.7969 136.009 50.2911 135.686 49.4578C135.589 49.1969 135.396 48.9832 135.145 48.8612C134.895 48.7392 134.607 48.7183 134.342 48.8028C130.382 49.8724 126.425 50.9586 122.481 52.0945C121.814 52.2852 121.258 52.8324 121.573 53.6491C121.789 54.2129 122.365 54.3083 123.551 54.2544ZM293.924 46.6719C293.613 45.2209 292.717 45.2292 291.95 45.4987C288.854 46.5837 285.85 47.916 282.967 49.4827C282.333 49.8351 281.847 50.4818 282.266 51.141C282.685 51.8001 283.469 51.6177 284.112 51.3275C287.103 49.9981 290.085 48.6425 293.057 47.2606C293.364 47.0927 293.654 46.8955 293.924 46.6719ZM281.54 38.9693C282.59 38.7039 283.722 38.4303 283.967 37.17C284.087 36.5731 283.469 36.2373 282.897 36.2207C281.74 36.1834 280.661 36.4238 280.533 37.8375C280.479 38.4013 280.96 38.7827 281.54 38.9693Z" fill="#334259"/>
<path d="M116.85 101.03C116.248 105.59 115.8 110.125 115.033 114.607C113.349 124.403 112.512 134.311 111.081 144.141C109.932 152.059 108.684 159.961 107.44 167.862C107.236 168.807 106.975 169.739 106.66 170.652C106.245 172.19 105.242 172.82 103.633 172.899C99.6348 173.094 95.6494 173.567 91.6516 173.683C76.3072 174.131 61.137 175.909 45.9834 178.314C32.0946 180.523 18.0815 181.945 4.20102 184.258C2.12746 184.602 1.86619 184.258 2.26016 182.016C4.14573 171.273 6.39209 160.607 8.99925 150.019C12.4165 136.065 16.6963 122.376 21.4406 108.815C22.3572 106.129 23.6386 103.774 25.7122 101.867C37.3242 91.3663 46.8626 78.9707 57.0479 67.1722C60.8412 62.7722 64.8183 58.5561 68.9792 54.5237C74.6484 49.0431 80.4543 43.7242 85.4309 37.572C86.9487 35.6899 87.4464 35.6153 88.9062 37.572C93.045 43.1397 98.7017 47.2605 103.264 52.426C104.358 53.6342 105.23 55.0265 105.839 56.5385C111.031 69.4357 113.631 82.9838 115.991 96.594C116.252 98.0823 116.563 99.5664 116.85 101.03ZM91.1083 148.705C80.8939 149.037 70.7874 150.413 60.6062 151.213C51.1217 151.955 41.7409 153.634 32.2273 154.024C31.6787 154.09 31.1345 154.188 30.5975 154.318C28.3747 154.679 27.2342 155.906 27.143 158.228C27.06 160.301 26.7697 162.34 26.5416 164.396C25.9237 169.964 27.8397 172.087 33.4383 172.012C33.853 172.012 34.2677 172.012 34.6824 171.971C48.7246 171.171 62.7668 170.424 76.8049 169.537C83.4029 169.123 89.9886 168.451 96.5742 167.829C98.3699 167.663 100.356 167.365 100.937 165.3C102.174 160.919 102.596 156.348 102.181 151.814C101.99 149.713 100.763 148.643 98.5732 148.693C96.0766 148.751 93.5925 148.709 91.1083 148.709V148.705ZM24.3602 166.768C23.9455 163.766 23.6511 161.034 23.17 158.34C22.6723 155.55 21.4531 154.948 18.7782 156.055C16.7452 156.903 14.9097 158.162 13.3869 159.753C11.1267 162.091 11.0811 163.509 13.8016 165.416C16.3687 167.216 19.2178 168.629 21.9964 170.109C23.1078 170.702 23.8377 170.039 24.0699 168.928C24.2043 168.213 24.3012 167.492 24.3602 166.768Z" fill="#E92E01"/>
<path d="M241.197 208.701C236.892 207.752 232.526 207.014 228.291 205.799C218.259 202.955 207.97 201.994 197.648 201.073C193.849 200.733 190.067 200.207 185.509 199.68C188.848 196.069 192.145 193.615 195.388 191.24C210.544 180.129 226.948 170.827 244.266 163.526C252.473 160.06 261.079 159.683 269.837 157.564C269.987 159.675 268.925 161.296 269.837 162.829C270.111 163.294 270.322 163.911 271.007 163.692C271.37 163.539 271.665 163.259 271.836 162.904C272.379 161.81 271.977 160.396 273.109 159.314C274.673 159.944 275.569 161.349 276.593 162.581C282.536 169.724 288.781 176.572 297.096 181.021C302.811 184.08 308.708 186.825 314.556 189.615C324.293 194.225 333.973 198.93 343.329 204.286C345.153 205.331 346.057 206.193 345.033 208.407C343.81 211.064 344.204 213.821 345.518 216.408C348.031 221.317 350.37 226.316 353.568 230.852C355.077 232.991 356.4 235.263 357.839 237.452C361.244 242.642 359.95 248.04 358.515 253.417C357.993 255.369 356.72 254.523 355.612 253.985C350.258 251.418 344.987 248.666 339.534 246.336C327.093 241.017 314.51 236.021 301.517 232.166C298.984 231.481 296.523 230.552 294.168 229.392C291.29 227.888 288.085 227.514 284.97 227.096C278.215 226.223 271.812 223.579 266.412 219.43C261.514 215.699 256.376 212.652 250.425 211.035C249.79 210.09 249.18 209.07 247.911 210.306C246.767 210.331 245.637 210.044 244.643 209.477C243.611 208.552 242.711 207.284 241.197 208.701Z" fill="#E92E01"/>
<path d="M355.774 104.027C352.498 103.248 352.013 102.858 352.232 99.7947C352.826 91.5531 351.677 83.4317 350.789 75.2896C350.507 72.7151 349.96 70.1697 349.545 67.6118C354.294 68.9716 358.972 70.6589 363.799 71.5875C367.859 72.3669 371.579 74.1744 375.68 74.8046C380.533 75.5549 385.115 77.4868 389.93 78.5357C395.321 79.713 400.712 80.7577 405.826 83.0171C410.093 84.9034 414.41 86.7939 418.881 88.0832C423.986 89.4735 428.459 92.5747 431.551 96.8678C435.573 102.448 440.79 106.979 444.589 112.771C449.101 119.657 455.372 125.208 459.888 132.16C460.486 133.107 461.424 133.791 462.509 134.071C464.135 145.235 458.188 151.79 448.944 156.342C448.04 156.362 447.417 155.778 446.746 155.305C440.658 151.006 434.885 146.309 429.112 141.625C428.021 140.737 427.155 139.187 425.309 139.829C425.865 139.245 425.4 138.768 425.147 138.267C424.841 137.73 424.4 137.282 423.868 136.968C423.335 136.654 422.73 136.484 422.112 136.476C418.906 132.185 415.684 127.898 412.888 123.317C411.781 121.501 410.442 120.133 408.327 119.42C396.213 115.333 384.17 111.009 371.832 107.676C366.532 106.237 361.298 104.471 355.774 104.027Z" fill="#E92E01"/>
<path d="M383.22 59.1756C376.966 53.7863 370.799 48.2559 364.251 43.1941C363.299 42.4058 362.23 41.7707 361.082 41.3119C352.676 38.2441 344.374 34.8571 335.644 32.7387C333.463 32.208 331.472 31.3416 329.938 29.6294C329.682 29.6102 329.436 29.5292 329.219 29.3934C329.002 29.2576 328.822 29.0711 328.693 28.85C328.606 28.8716 328.514 28.858 328.436 28.8123C328.359 28.7666 328.302 28.6923 328.279 28.6054C328.079 28.6186 327.881 28.5591 327.722 28.438C327.563 28.3168 327.452 28.1422 327.412 27.9463C327.191 27.9391 326.978 27.8668 326.799 27.7384C326.619 27.61 326.482 27.4313 326.404 27.2249V27.2996C324.978 26.5658 323.538 25.861 322.398 24.6836C322.194 24.6624 322 24.5848 321.837 24.4596C321.675 24.3344 321.55 24.1666 321.477 23.9747C321.151 23.9434 320.836 23.8335 320.561 23.6545C320.286 23.4755 320.058 23.2326 319.897 22.9466C314.772 20.5763 309.424 18.7223 303.931 17.4121C299.754 16.4458 295.834 14.5906 292.439 11.973C289.735 9.85456 286.874 9.12078 283.539 10.1655C282.226 10.629 280.785 10.5666 279.517 9.99137C273.246 7.06185 266.281 5.94051 259.407 6.7536C258.864 6.81993 258.308 6.81164 257.748 6.84066L256.168 7.00234L248.766 9.05445C247.936 9.92919 246.899 9.82969 245.863 9.73019C244.714 10.6381 243.345 10.6049 241.993 10.6422L241.736 10.5801C241.147 11.2226 240.389 11.2973 239.584 11.2434C239.418 11.3759 239.219 11.4606 239.009 11.4884C238.798 11.5162 238.584 11.4859 238.39 11.4009C237.984 11.7517 237.505 12.0081 236.988 12.1515C236.471 12.2949 235.928 12.3217 235.399 12.23C235.017 12.5618 234.569 12.809 234.085 12.9555C233.6 13.1019 233.09 13.1443 232.588 13.0799C232.003 13.7225 231.244 13.8095 230.435 13.7266L230.332 13.7474L230.158 13.9339L229.938 13.8261L227.91 14.3899L227.549 14.5682H227.134C226.768 14.8414 226.35 15.0362 225.906 15.1403C225.461 15.2444 225 15.2557 224.551 15.1735L222.979 15.472C222.763 15.7042 222.492 15.8775 222.191 15.9754C221.89 16.0734 221.569 16.0927 221.258 16.0316L220.897 16.1892L220.507 16.1394C217.948 16.7157 215.456 17.7313 212.748 17.2546C212.462 17.835 211.952 17.9428 211.371 17.9055C210.124 18.6323 208.689 18.9701 207.249 18.8755C207.044 19.1143 206.775 19.2898 206.474 19.3815C206.173 19.4733 205.852 19.4775 205.548 19.3938C195.396 22.0428 185.091 23.9996 174.81 26.0517C152.917 30.4047 130.975 34.6457 109.07 38.9696C104.731 39.8079 100.296 40.034 95.8941 39.6412C93.7542 39.4671 92.1617 38.7541 91.1705 36.8885C89.3707 33.5015 86.3765 32.8755 82.8348 32.6392C75.1294 32.1334 67.7185 30.073 60.2039 27.8799C57.0728 26.1635 54.1717 27.8802 54.1717 27.8802C31.3626 53.9645 17.2396 95.8773 7.62659 134.755C3.41725 151.786 -1.86205 207.765 0.771378 190.424C1.28562 187.036 1.45151 186.821 4.86045 186.311C16.1863 184.624 27.5162 182.936 38.8669 181.398C50.7568 179.79 62.5636 177.501 74.5571 176.693C85.0204 175.988 95.496 175.449 105.963 174.794C107.475 174.696 108.983 175.028 110.314 175.752C120.23 180.859 130.096 186.079 140.289 190.631C144.938 192.704 149.629 194.681 154.302 196.7C156.529 197.123 158.704 197.778 160.793 198.657C161.622 198.566 162.418 198.545 163.02 199.262C163.679 198.76 164.293 198.997 164.894 199.382C166.242 199.382 167.639 199.171 168.797 200.162C169.485 199.747 170.115 200.029 170.737 200.336C171.807 200.29 172.906 200.104 173.781 200.974C175.026 200.452 176.195 200.796 177.377 201.182C178.426 201.182 179.567 200.813 180.392 201.841C181.039 201.153 181.702 201.48 182.366 201.808C183.204 201.634 184.075 201.731 184.854 202.085C188.524 202.023 192.145 202.5 195.761 203.051C209.331 203.723 222.601 206.214 235.702 209.684C237.278 210.099 239.02 209.95 240.426 211.015C241.591 211.052 242.744 211.156 243.743 211.844L244.573 212.027C245.002 211.961 245.439 211.981 245.86 212.086C246.281 212.192 246.677 212.38 247.024 212.64C247.42 212.556 247.83 212.563 248.223 212.661C248.616 212.758 248.982 212.944 249.292 213.204C249.462 213.097 249.668 213.06 249.865 213.102C250.061 213.144 250.234 213.261 250.346 213.428C251.362 213.428 252.382 213.461 253.145 214.294C253.242 214.262 253.346 214.263 253.442 214.297C253.538 214.331 253.621 214.395 253.676 214.481C253.93 214.438 254.19 214.47 254.427 214.573C254.663 214.675 254.864 214.843 255.007 215.057C256.691 214.817 257.155 216.881 258.661 216.981C259.436 216.74 259.905 217.113 260.266 217.76L261.207 218.428C261.425 218.433 261.636 218.506 261.811 218.637C261.986 218.767 262.115 218.949 262.182 219.157C262.384 219.182 262.575 219.262 262.735 219.389C262.894 219.515 263.016 219.683 263.086 219.874C263.409 219.919 263.715 220.046 263.974 220.244C264.233 220.442 264.437 220.703 264.566 221.002C271.517 225.442 278.944 228.568 287.23 229.521C290.096 229.853 292.75 231.043 295.462 232.054C302.695 234.753 310.089 237.029 317.351 239.653C329.962 244.151 342.288 249.412 354.26 255.407C357.993 257.293 361.17 259.967 364.599 262.28C366.196 263.358 367.697 264.594 369.576 265.158L370.555 265.759C370.592 265.858 370.659 265.944 370.747 266.006C370.834 266.067 370.937 266.101 371.044 266.103L372.288 265.029C368.867 262.712 365.466 260.361 362.003 258.097C360.419 257.065 359.718 256.025 360.535 254.014C361.812 250.909 361.7 247.518 361.949 244.23C362.076 242.015 361.534 239.812 360.394 237.908C357.027 231.884 352.83 226.358 349.782 220.152C348.869 218.299 348.069 216.388 347.198 214.514C346.572 213.116 346.383 211.561 346.655 210.053C347.111 207.118 347.87 206.791 350.727 207.935C357.661 210.708 364.491 213.66 370.384 218.394C370.861 218.78 371.446 219.331 372.209 218.863C373.039 216.939 371.156 216.641 370.289 215.932C365.872 212.354 360.883 209.742 355.583 207.736C344.233 203.437 334.105 196.725 323.261 191.427C322.898 191.413 322.542 191.323 322.217 191.163C321.891 191.003 321.602 190.776 321.37 190.498C319.296 190.158 317.662 188.885 315.908 187.866C315.638 187.891 315.366 187.838 315.125 187.714C314.884 187.59 314.684 187.399 314.547 187.165L313.361 186.813C313.16 186.866 312.946 186.842 312.762 186.746C312.577 186.649 312.436 186.486 312.366 186.29C311.199 186.043 310.105 185.529 309.169 184.79C308.821 184.759 308.483 184.655 308.178 184.485C307.873 184.315 307.607 184.082 307.398 183.803C305.586 183.455 304.08 182.48 302.513 181.56C298.485 179.942 294.773 177.631 291.543 174.732L290.652 173.994C288.661 173.207 287.276 171.639 285.887 170.135C282.714 166.69 279.691 163.108 276.477 159.708C274.727 157.859 273.947 155.936 274.432 153.369C274.785 151.525 274.714 149.597 274.847 147.35C278.372 148.759 280.815 150.977 283.527 152.739C284.302 153.241 284.41 154.074 284.477 154.92C284.688 157.49 286.326 158.514 288.624 159.401C296.196 162.341 304.138 164.128 311.719 167.017C312.864 167.112 314.025 167.141 315.037 167.796C317.322 167.796 319.466 168.538 321.672 168.995L337.431 168.966C338.551 168.696 339.671 168.522 340.799 168.916C341.836 168.679 342.823 168.157 343.938 168.393L352.44 167.15C352.44 166.544 352.419 165.939 352.411 165.33C346.63 166.105 340.874 167.1 334.993 166.893C326.665 167.544 318.496 166.942 310.479 164.368C303.524 162.138 296.462 160.222 289.619 157.664C286.716 156.57 286.169 155.687 286.886 152.669C287.722 148.893 289.282 145.316 291.481 142.135C292.024 141.272 292.866 140.891 293.799 140.547C304.021 136.884 314.578 134.235 325.318 132.637C327.628 132.255 329.995 132.397 332.242 133.054C334.49 133.711 336.561 134.865 338.302 136.43L339.194 136.451H342.57C345.614 134.378 349.3 134.279 352.647 133.134C354.443 132.529 356.471 132.508 358.113 130.767C355.094 127.451 352.038 124.159 349.077 120.793C346.796 118.202 346.854 118.16 348.745 115.246C350.769 112.124 353.269 109.326 354.965 105.997L355.749 104.028C352.473 103.248 351.992 102.859 352.212 99.7949C352.801 91.5533 351.652 83.432 350.764 75.2899C350.487 72.7154 349.935 70.17 349.52 67.6121C348.052 62.061 347.069 56.3856 344.958 51.1247C346.514 49.881 347.604 50.934 348.716 51.2077C360.581 54.1552 372.197 57.961 383.896 61.4889L384.219 59.8887H384.161C383.955 59.8657 383.758 59.7874 383.592 59.6618C383.427 59.5363 383.298 59.3683 383.22 59.1756ZM324.501 29.1485C317.5 28.6593 312.03 25.575 306.32 20.6665C313.225 21.4873 320.358 24.9075 324.501 29.1485ZM107.431 167.9C107.225 168.844 106.965 169.776 106.652 170.69C106.237 172.228 105.229 172.858 103.62 172.937C99.6224 173.132 95.637 173.605 91.6392 173.721C76.2948 174.168 61.1287 175.947 45.9751 178.351C32.0864 180.561 18.0732 181.995 4.19276 184.3C2.1192 184.644 1.85793 184.3 2.2519 182.058C4.1347 171.317 6.38106 160.656 8.99099 150.074C12.4041 136.119 16.6881 122.43 21.4324 108.87C22.3613 106.2 23.6262 103.829 25.7371 101.922C37.3491 91.4165 46.8875 79.0251 57.0728 67.2224C60.8661 62.828 64.8432 58.6118 69.0041 54.5739C74.6525 49.0975 80.4627 43.7952 85.4185 37.6264C86.9363 35.7443 87.434 35.6697 88.8896 37.6264C93.0368 43.1982 98.7059 47.3024 103.264 52.4845C104.358 53.6936 105.231 55.0856 105.843 56.597C111.035 69.4942 113.623 83.0423 115.999 96.6484C116.257 98.1408 116.572 99.6208 116.858 101.088C116.257 105.649 115.809 110.184 115.037 114.665C113.354 124.462 112.516 134.37 111.089 144.199C109.92 152.097 108.655 160.023 107.431 167.9ZM276.547 162.618C282.49 169.761 288.732 176.61 297.047 181.058C302.766 184.118 308.659 186.862 314.51 189.652C324.243 194.262 333.927 198.968 343.283 204.324C345.104 205.369 346.012 206.231 344.987 208.445C343.743 211.102 344.158 213.859 345.473 216.442C347.982 221.379 350.325 226.354 353.522 230.914C355.028 233.053 356.355 235.325 357.794 237.514C361.199 242.705 359.905 248.102 358.466 253.479C357.947 255.432 356.67 254.586 355.563 254.047C350.213 251.481 344.942 248.728 339.488 246.398C327.047 241.079 314.465 236.084 301.472 232.228C298.938 231.545 296.477 230.616 294.123 229.455C291.245 227.95 288.039 227.573 284.924 227.158C278.169 226.284 271.765 223.64 266.362 219.493C261.464 215.762 256.326 212.715 250.379 211.094C249.454 211.148 248.575 211.048 247.866 210.368C246.721 210.389 245.591 210.103 244.594 209.539C243.416 209.498 242.222 209.539 241.21 208.764C236.905 207.815 232.538 207.077 228.304 205.862C218.272 203.018 207.983 202.052 197.661 201.136C193.862 200.796 190.075 200.269 185.518 199.739C188.86 196.132 192.153 193.678 195.396 191.302C210.547 180.187 226.945 170.881 244.258 163.572C252.465 160.102 261.074 159.729 269.833 157.611C269.978 159.721 268.921 161.342 269.833 162.871C270.107 163.34 270.314 163.958 270.998 163.738C271.362 163.586 271.658 163.306 271.828 162.95C272.371 161.856 271.973 160.442 273.105 159.36C274.623 159.986 275.523 161.391 276.547 162.623V162.618ZM295.33 137.798C291.158 138.669 288.881 141.065 287.417 144.775C286.923 146.019 286.695 147.466 285.53 148.382C285.028 151.226 284.983 151.284 283.141 150.157C281.819 149.42 280.569 148.559 279.409 147.586C278.214 146.508 275.983 146.21 275.83 144.469C275.642 142.001 276.204 139.534 277.443 137.392C278.036 136.482 278.69 135.614 279.401 134.793V134.871C279.45 134.625 279.522 134.383 279.616 134.15C280.728 131.149 282.992 128.84 284.502 126.074C285.231 124.739 286.301 124.599 287.645 125.266C289.988 126.435 292.398 127.463 294.737 128.632C298.527 130.531 302.483 132.044 307.253 133.818C302.782 135.352 299.145 137.007 295.33 137.802V137.798ZM343.797 118.836C341.595 121.817 339.202 124.661 336.809 127.496C334.503 130.224 331.667 131.642 329.058 130.61C323.12 130.332 318.479 131.812 313.743 132.6C312.793 132.757 311.856 132.985 310.902 133.101C310.628 133.138 310.349 133.095 310.099 132.979C309.848 132.862 309.636 132.676 309.488 132.442C309.028 131.746 309.314 131.165 309.787 130.597C313.934 125.622 316.617 119.665 320.316 114.375C322.668 111.009 322.506 110.901 326.574 111.846C331.924 113.09 337.29 114.288 342.628 115.578C345.24 116.22 345.456 116.614 343.797 118.836ZM350.395 92.7183C350.586 95.5746 350.039 98.4808 349.881 101.366C349.777 103.36 348.355 103.816 346.8 104.094C341.914 104.965 337 105.715 332.131 106.673C325.591 107.958 318.861 106.814 312.354 108.36C310.879 108.726 309.379 108.981 307.866 109.123C305.221 109.347 304.632 108.886 304.42 106.275C304.192 103.373 304.146 100.471 304.005 97.5687L301.492 97.3573C298.664 100.201 296.441 103.53 294.305 106.892C288.827 115.478 283.668 124.263 278.094 132.778C274.553 138.188 273.42 144.162 272.856 150.343C272.4 155.318 271.417 156.251 266.221 155.791C265.95 155.741 265.683 155.668 265.425 155.571C264.031 156.931 262.153 157.038 260.448 157.184C253.469 157.776 247.011 160.015 240.6 162.71C224.335 169.546 209.231 178.376 195.006 188.745C191.224 191.501 187.666 194.586 184.112 197.645C182.648 198.91 181.321 199.507 179.276 199.134C175.075 198.371 170.804 198.006 166.57 197.417C155.994 195.937 146.643 191.012 137.021 186.85C134.749 185.867 132.148 185.266 130.311 183.749C128.474 182.232 128.951 179.421 128.188 177.22C124.115 165.479 120.582 153.544 116.277 141.886C114.299 136.526 114.88 131.48 115.543 126.166C116.48 118.637 118.347 111.241 118.707 103.63C118.861 100.392 118.347 97.3366 117.741 94.2563C115.78 84.2487 114.37 74.1084 111.106 64.4075C109.916 60.8795 109.078 57.1277 107.245 53.9645C105.561 51.0626 102.861 48.6871 100.398 46.2909C99.2201 45.1508 97.9096 44.16 96.9475 42.9992C97.0014 42.3069 97.3249 42.0333 97.7438 42.054C105.014 42.4686 112.006 40.7108 119.043 39.3303C132.591 36.6771 146.126 34.0003 159.648 31.3001C177.34 27.7763 195.077 24.2815 212.632 19.9576C217.31 18.8009 222.12 18.1169 226.811 16.9976C235.52 14.8957 244.283 12.8851 252.876 10.3396C260.755 8.0056 268.357 8.37041 276.647 11.0361C271.222 13.2209 265.831 13.8924 260.228 15.9528C262.215 17.5862 263.658 17.0805 265.051 16.7198C269.978 15.4346 274.955 14.1661 279.873 12.8104C285.136 11.3636 289.665 12.1596 294.21 15.6005C300.692 20.5089 307.717 24.6836 314.481 29.2273C316.31 30.471 318.002 31.8888 319.748 33.2403C320.079 33.4714 320.349 33.7783 320.537 34.1353C320.724 34.4924 320.824 34.8891 320.826 35.2924C316.923 33.2096 312.48 32.3569 308.082 32.8465C307.128 32.9418 306.096 32.9418 305.287 32.3241C302.463 30.1642 298.888 29.8077 295.769 28.3318C293.235 27.1296 291.929 27.6644 290.743 30.1808C289.826 32.1293 288.45 33.8746 288.28 36.2045C288.11 38.5343 288.28 38.9406 290.556 38.5924C292.46 38.3022 294.318 37.7259 296.196 37.2658C301.306 36.0221 306.461 35.0893 311.752 35.251C312.855 35.2841 314.116 35.11 315.024 35.5743C320.308 38.2897 325.998 39.9065 331.542 41.9172C333.354 42.6295 334.976 43.7503 336.283 45.1923C336.942 45.8805 337.697 46.7801 338.539 46.9418C341.906 47.5968 342.549 50.1712 343.428 52.8825C347.608 65.846 349.491 79.2034 350.391 92.7224L350.395 92.7183ZM374.254 56.3815C365.655 53.8664 357.058 51.3445 348.463 48.8156C343.988 47.5481 339.853 45.2959 336.361 42.224C334.703 40.7398 332.579 39.9604 330.597 39.0069C327.171 37.3487 324.509 34.8613 321.934 31.7354C323.045 31.0928 323.696 31.4079 324.351 31.5779C336.262 34.5418 347.974 38.2569 359.415 42.7007C363.902 44.4668 367.013 48.0901 370.762 50.876C372.931 52.4762 374.822 54.4579 376.879 56.3068C375.776 57.1235 375.017 56.6178 374.254 56.3815Z" fill="#2D1D2D"/>
<path d="M335.022 166.867C326.699 167.518 318.525 166.917 310.508 164.347C303.558 162.112 296.495 160.201 289.648 157.639C286.745 156.545 286.198 155.662 286.915 152.644C287.753 148.869 289.313 145.292 291.51 142.11C292.335 142.149 293.156 142.242 293.969 142.387C301.828 144.278 309.571 146.612 317.222 149.186C322.05 150.811 326.267 151.114 329.958 146.931C331.136 145.6 332.749 144.713 334.387 143.979C337.377 142.64 339.364 140.588 339.289 137.089C340.911 137.524 342.271 138.461 343.619 139.402C346.426 141.359 349.47 142.972 351.996 145.335C352.452 145.749 353.112 146.384 353.742 145.633C354.26 145.012 353.904 144.294 353.423 143.797C352.766 143.102 352.045 142.47 351.27 141.911C348.467 139.937 345.655 137.976 342.582 136.434C345.622 134.361 349.309 134.262 352.66 133.118C354.451 132.512 356.483 132.492 358.121 130.75C355.102 127.434 352.05 124.142 349.085 120.776C346.804 118.185 346.866 118.143 348.757 115.229C350.781 112.111 353.278 109.309 354.978 105.98C365.943 108.185 376.634 111.403 387.326 114.686C388.371 115.005 389.457 115.316 390.187 116.249C387.321 122.053 382.722 126.48 378.268 130.945C366.022 143.171 352.22 153.547 338.402 163.891C337.187 164.803 335.768 165.45 335.022 166.867Z" fill="#E92E01"/>
<path d="M462.517 134.079C461.432 133.799 460.494 133.116 459.896 132.168C455.388 125.228 449.114 119.665 444.597 112.779C440.799 106.975 435.582 102.456 431.559 96.8759C428.468 92.5828 423.995 89.4815 418.889 88.0912C414.419 86.8019 410.102 84.9115 405.834 83.0252C400.733 80.7658 395.309 79.7086 389.938 78.5437C385.123 77.4866 380.541 75.5547 375.689 74.8126C371.587 74.1825 367.867 72.3749 363.807 71.5956C358.98 70.6669 354.302 68.9796 349.553 67.6199C348.085 62.0688 347.102 56.3934 344.992 51.1325C346.547 49.9095 347.642 50.9418 348.749 51.2154C360.618 54.163 372.234 57.9687 383.929 61.4925C384.8 62.2429 385.882 62.4585 386.948 62.7362C395.993 65.2029 404.88 68.1961 413.826 70.9861C421.237 73.2953 426.682 77.9799 430.829 84.0657C441.155 99.2099 451.121 114.603 461.223 129.9C462.036 131.165 463.015 132.392 462.517 134.079Z" fill="#4E1932"/>
<path d="M462.517 134.079C463.015 132.392 462.036 131.177 461.202 129.905C451.1 114.607 441.135 99.2267 430.808 84.0702C426.661 77.9843 421.22 73.2914 413.805 70.9906C404.86 68.2005 395.972 65.1866 386.927 62.7407C385.862 62.4505 384.779 62.2349 383.908 61.497C384.02 60.9663 384.128 60.4357 384.236 59.9009C392.53 61.924 400.659 64.3741 408.704 67.1019C410.778 67.8067 412.818 68.6648 414.925 69.2742C424.247 71.9897 430.153 78.6725 435.063 86.5037C436.009 88.0085 436.743 89.6378 438.12 90.8276C438.187 91.2016 438.332 91.5571 438.547 91.8708C438.761 92.1845 439.04 92.4492 439.364 92.6476V92.6102C439.634 93.6241 440.229 94.5221 441.056 95.1681C443.681 100.839 447.778 105.532 451.266 110.648C458.358 121.012 464.682 131.857 471.409 142.445C475.701 149.199 480.039 155.931 484.576 162.519C488.3 167.994 491.746 173.653 494.902 179.475C495.73 181.065 496.779 182.53 498.017 183.827C498.017 190.199 492.982 194.764 486.819 193.893C484.24 193.528 481.582 193.412 479.272 191.97L479.446 190.664C481.598 191.078 483.734 191.596 485.899 191.945C489.183 192.471 492.182 191.99 494.359 189.122C496.163 187.326 496.287 185.656 494.927 183.272C488.366 171.751 480.661 160.972 473.532 149.825C470.944 145.779 468.244 141.799 465.553 137.715C465.204 138.13 464.935 138.333 464.885 138.544C464.727 139.213 464.638 139.897 464.62 140.584C464.64 146.027 461.995 150.011 457.814 153.183C455.509 154.936 453.219 156.715 450.926 158.477C448.74 159.235 447.467 161.059 445.949 162.647C444.431 164.235 444.291 165.682 445.568 167.672C450.694 175.549 456.931 182.057 465.889 185.527L465.976 186.688L464.188 186.174C464.134 186.111 464.061 186.069 463.98 186.053C463.898 186.037 463.814 186.049 463.741 186.087C459.815 184.849 456.233 182.711 453.281 179.844C448.811 175.522 444.941 170.619 441.777 165.267C439.53 161.511 436.357 158.398 434.661 154.215C433.939 152.432 431.857 151.238 430.514 149.655C423.775 141.625 416.762 133.798 411.23 124.835C409.931 122.729 408.372 121.381 405.838 120.797C402.902 120.113 400.082 118.894 397.254 117.808C395.317 117.066 393.936 117.335 392.655 119.143C384.775 130.153 376.39 140.75 367.797 151.201C364.114 155.683 360.46 160.181 356.438 164.364C355.281 165.566 354.111 166.702 352.427 167.12C352.427 166.515 352.427 165.91 352.398 165.305C353.593 164.169 354.862 163.107 355.965 161.893C366.08 150.749 375.349 138.913 384.46 126.953C386.799 123.88 389.073 120.759 391.282 117.592C392.319 116.112 391.352 116.004 390.15 116.253C389.42 115.32 388.333 115.009 387.288 114.69C376.613 111.415 365.922 108.198 354.941 105.984C355.202 105.329 355.463 104.67 355.729 104.015C361.252 104.43 366.486 106.225 371.774 107.655C384.124 110.971 396.167 115.312 408.269 119.4C410.392 120.113 411.731 121.472 412.83 123.297C415.626 127.877 418.848 132.164 422.054 136.455C422.394 137.135 422.759 137.794 423.538 138.076C423.932 138.83 424.368 139.556 425.251 139.809C427.2 143.954 430.642 146.931 433.732 150.14C434.868 151.313 436.121 152.345 436.751 153.954C438.103 157.42 440.815 159.965 443.071 163.302C444.506 160.28 447.538 159.07 448.877 156.338C458.196 151.798 464.143 145.244 462.517 134.079Z" fill="#2D1D2D"/>
<path d="M372.313 265.008C368.887 262.691 365.487 260.348 362.045 258.081C360.46 257.044 359.755 256.008 360.577 253.993C361.85 250.888 361.742 247.497 361.987 244.209C362.115 241.994 361.574 239.792 360.436 237.887C357.068 231.863 352.855 226.354 349.802 220.135C348.89 218.278 348.094 216.367 347.219 214.493C346.594 213.094 346.406 211.54 346.68 210.032C347.132 207.097 347.895 206.77 350.752 207.914C357.686 210.687 364.516 213.643 370.409 218.373C370.886 218.759 371.467 219.31 372.234 218.842L372.189 218.63C371.508 219.095 371.89 219.538 372.255 219.911C373.914 221.57 375.573 223.203 377.198 224.849L377.497 225.939C377.427 226.767 377.427 227.599 377.497 228.427C379.297 238.907 378.828 249.437 378.144 259.959C377.99 262.384 377.829 264.9 376.601 267.135L372.313 265.008Z" fill="#FC5A33"/>
<path d="M339.289 137.089C339.343 140.588 337.377 142.64 334.387 143.979C332.749 144.713 331.136 145.6 329.958 146.931C326.267 151.114 322.05 150.811 317.222 149.186C309.571 146.612 301.828 144.278 293.969 142.387C293.156 142.242 292.335 142.149 291.51 142.109C292.058 141.247 292.895 140.866 293.828 140.522C304.05 136.859 314.607 134.211 325.347 132.616C327.652 132.233 330.015 132.374 332.259 133.028C334.503 133.682 336.571 134.832 338.311 136.392L339.231 137.222L339.289 137.089Z" fill="#4E1932"/>
<path d="M329.067 130.589C323.128 130.315 318.487 131.791 313.747 132.579C312.797 132.736 311.86 132.964 310.91 133.08C310.636 133.117 310.356 133.075 310.105 132.958C309.854 132.841 309.641 132.655 309.492 132.421C309.036 131.725 309.318 131.144 309.791 130.576C313.938 125.602 316.625 119.644 320.32 114.354C322.672 110.988 322.514 110.88 326.578 111.826C331.932 113.069 337.295 114.267 342.632 115.557C345.249 116.191 345.444 116.585 343.806 118.807C341.603 121.788 339.206 124.632 336.813 127.467C334.508 130.174 331.671 131.588 329.067 130.589Z" fill="#E92E01"/>
<path d="M321.946 31.706C323.053 31.0635 323.704 31.3785 324.364 31.5485C336.275 34.5104 347.986 38.2226 359.428 42.6631C363.911 44.4291 367.025 48.0524 370.774 50.8383C372.943 52.4386 374.83 54.4202 376.887 56.2692C375.788 57.0983 375.029 56.5759 374.262 56.3521C365.664 53.837 357.067 51.3151 348.471 48.7862C343.997 47.5196 339.863 45.2673 336.374 42.1946C334.715 40.7105 332.592 39.9311 330.605 38.9776C327.18 37.3359 324.517 34.8236 321.946 31.706Z" fill="#4E1932"/>
<path d="M390.146 116.22C391.348 115.971 392.315 116.079 391.278 117.559C389.066 120.726 386.796 123.85 384.468 126.932C375.373 138.905 366.121 150.749 356.023 161.905C354.92 163.124 353.651 164.185 352.461 165.321C346.684 166.1 340.923 167.108 335.043 166.905C335.789 165.487 337.207 164.832 338.41 163.932C352.216 153.568 366.001 143.179 378.223 130.933C382.71 126.464 387.288 122.019 390.146 116.22Z" fill="#FF9EAF"/>
<path d="M279.62 134.112C280.736 131.107 282.996 128.798 284.51 126.032C285.24 124.698 286.31 124.557 287.653 125.224C289.992 126.393 292.402 127.421 294.741 128.594C298.535 130.489 302.488 132.002 307.257 133.777C302.79 135.31 299.157 136.965 295.342 137.761C291.17 138.631 288.889 141.031 287.425 144.738C286.932 145.981 286.704 147.428 285.538 148.344C284.763 148.295 284.41 147.644 283.904 147.209C280.064 143.892 276.734 140.41 279.413 134.772V134.85C279.378 134.72 279.379 134.583 279.415 134.453C279.452 134.323 279.523 134.205 279.62 134.112Z" fill="#E92E01"/>
<path d="M377.497 225.939L377.198 224.849C377.231 224.156 377.26 223.464 377.294 222.776C381.379 227.336 384.053 232.8 386.455 238.31C389.859 246.104 393.119 253.98 394.84 262.4C395.213 264.233 395.201 265.588 393.907 266.873C391.862 268.909 389.851 270.982 387.74 272.947C386.247 274.34 384.58 274.24 382.764 273.361C378.672 271.256 374.753 268.83 371.044 266.106L372.288 265.033L376.589 267.139C378.575 269.079 381.076 270.269 383.406 271.699C384.385 272.3 385.351 272.661 386.384 271.645C388.346 269.717 390.394 267.885 392.377 265.978C393.683 264.734 394.106 263.308 393.393 261.496C392.335 258.81 391.551 256.02 390.511 253.325C386.894 243.852 383.581 234.23 377.497 225.939Z" fill="#2D1D2D"/>
<path d="M279.413 134.734C276.734 140.393 280.064 143.884 283.904 147.171C284.41 147.607 284.763 148.258 285.538 148.307C285.037 151.151 284.995 151.209 283.15 150.082C281.828 149.345 280.578 148.486 279.417 147.515C278.223 146.433 275.992 146.135 275.838 144.394C275.652 141.938 276.212 139.483 277.443 137.35C278.038 136.433 278.696 135.559 279.413 134.734Z" fill="#FF9EAF"/>
<path d="M306.332 20.6245C313.233 21.4536 320.37 24.8655 324.509 29.1066C317.509 28.6049 312.038 25.533 306.332 20.6245Z" fill="#4E1932"/>
<path d="M342.582 136.434C345.655 137.977 348.467 139.937 351.27 141.911C352.045 142.471 352.766 143.102 353.423 143.797C353.904 144.294 354.252 145.012 353.742 145.634C353.112 146.384 352.452 145.762 351.996 145.335C349.471 142.972 346.427 141.359 343.619 139.403C342.271 138.462 340.911 137.525 339.289 137.089L339.231 137.243C339.287 136.968 339.279 136.684 339.206 136.414L342.582 136.434Z" fill="#2D1D2D"/>
<path d="M301.517 97.3365C303.591 94.1319 306.813 92.0052 309.272 89.1654L309.231 89.2317C309.466 89.0869 309.666 88.893 309.819 88.6632C309.971 88.4335 310.072 88.1734 310.114 87.9009C310.529 87.8388 310.915 87.8015 311.309 87.7102C311.856 87.5817 312.432 87.4988 312.806 87.9797C313.374 88.7135 312.835 89.3229 312.312 89.7002C309.21 91.9596 306.56 94.675 304.018 97.5479L301.517 97.3365Z" fill="#2D1D2D"/>
<path d="M241.197 208.701C242.711 207.296 243.611 208.552 244.585 209.477C243.408 209.435 242.192 209.477 241.197 208.701Z" fill="#50448B"/>
<path d="M247.853 210.306C249.122 209.062 249.732 210.091 250.366 211.036C249.442 211.085 248.562 210.986 247.853 210.306Z" fill="#50448B"/>
<path d="M320.843 35.3251C321.094 35.301 321.348 35.3278 321.589 35.4039C321.863 35.5573 321.768 35.8185 321.444 35.7563C321.233 35.7148 321.067 35.4412 320.88 35.2754L320.843 35.3251Z" fill="#473B5D"/>
<path d="M370.575 265.738C370.368 265.754 370.162 265.704 369.985 265.595C369.808 265.486 369.671 265.324 369.592 265.132L370.575 265.738Z" fill="#2D1D2D"/>
<path d="M339.206 136.426C339.279 136.697 339.287 136.98 339.231 137.255L338.311 136.426H339.206Z" fill="#624795"/>
<path d="M279.62 134.112C279.525 134.203 279.454 134.316 279.417 134.442C279.379 134.568 279.375 134.702 279.405 134.83C279.458 134.585 279.53 134.345 279.62 134.112Z" fill="#E29EFF"/>
<path d="M383.228 59.1338C383.442 59.1565 383.644 59.2396 383.813 59.3732C383.981 59.5068 384.107 59.6854 384.178 59.8883C383.965 59.8627 383.764 59.7787 383.596 59.6454C383.428 59.5122 383.301 59.3351 383.228 59.1338Z" fill="#2D1D2D"/>
<path d="M479.45 190.651C479.388 191.087 479.33 191.522 479.272 191.957C477.911 191.754 476.758 190.606 475.253 191.095C472.765 188.4 469.119 188.098 466.009 186.688L465.922 185.527L479.45 190.651Z" fill="#2D1D2D"/>
<path d="M377.294 222.772C377.26 223.464 377.231 224.156 377.198 224.845C375.539 223.186 373.88 221.565 372.255 219.907C371.89 219.534 371.508 219.078 372.188 218.626C372.231 218.532 372.297 218.451 372.38 218.39C372.462 218.328 372.56 218.289 372.662 218.276C372.764 218.263 372.868 218.276 372.963 218.314C373.059 218.352 373.143 218.414 373.209 218.493L374.084 219.202L374.913 220.031L375.606 220.927L375.668 220.993L376.448 221.764L377.294 222.772Z" fill="#2D1D2D"/>
<path d="M376.456 221.794L375.676 221.022C375.874 221.046 376.057 221.134 376.199 221.274C376.34 221.414 376.43 221.597 376.456 221.794Z" fill="#2D1D2D"/>
<path d="M375.614 220.964L374.921 220.069C375.121 220.119 375.297 220.235 375.423 220.397C375.548 220.559 375.616 220.759 375.614 220.964Z" fill="#2D1D2D"/>
<path d="M374.921 220.052L374.092 219.223C374.303 219.249 374.499 219.345 374.649 219.495C374.8 219.645 374.895 219.841 374.921 220.052Z" fill="#2D1D2D"/>
<path d="M374.071 219.207L373.196 218.498C373.405 218.484 373.61 218.55 373.773 218.681C373.935 218.812 374.041 219 374.071 219.207Z" fill="#2D1D2D"/>
<path d="M463.761 186.095C463.835 186.057 463.919 186.045 464 186.061C464.082 186.077 464.155 186.12 464.209 186.182L463.96 186.282L463.761 186.095Z" fill="#473B5D"/>
<path d="M255.878 146.649C255.778 147.66 254.725 148.017 253.692 148.456C247.132 151.289 240.559 154.132 233.973 156.984C224.484 161.08 214.993 165.172 205.499 169.259C204.868 169.533 204.255 169.852 203.612 170.089C200.033 171.494 199.394 171.266 198.2 167.622C196.429 162.232 193.638 157.287 191.386 152.109C187.695 143.652 183.635 135.356 179.733 126.994C179.554 126.621 179.363 126.252 179.189 125.879C178.775 125.017 178.144 124.125 178.932 123.201C179.815 122.169 180.91 122.587 181.989 122.911C184.099 123.545 186.256 124.038 188.338 124.756C202.156 129.498 216.368 132.91 230.319 137.193C237.432 139.373 244.602 141.338 251.739 143.461C252.793 143.772 253.816 144.179 254.796 144.676C255.401 144.995 255.907 145.513 255.878 146.649Z" fill="#1F2C40"/>
<path d="M281.2 113.89C276.531 123.578 271.865 133.271 267.515 143.1C266.756 144.796 266.105 146.624 264.612 148.125C263.227 146.84 264.172 145.886 264.562 145.045C269.211 135.041 273.918 125.062 278.563 115.055C279.484 113.069 280.773 111.216 280.985 108.944C282.005 107.895 282.42 111.32 281.2 113.89Z" fill="#2D1D2D"/>
<path d="M340.115 62.405C340.177 64.5732 339.078 66.0159 337.212 66.9238C336.09 67.4474 334.835 67.6168 333.615 67.4094C332.395 67.202 331.267 66.6277 330.381 65.763C327.652 63.201 328.026 60.983 331.501 59.6398C333.011 59.0594 334.537 58.3961 336.241 58.5081C338.638 58.6822 340.027 60.0627 340.115 62.405Z" fill="#2D1D2D"/>
<path d="M123.551 54.2546C122.365 54.3168 121.789 54.2132 121.573 53.6493C121.258 52.8202 121.814 52.2854 122.481 52.0947C126.425 50.9588 130.382 49.8726 134.342 48.803C134.607 48.7185 134.895 48.7394 135.145 48.8614C135.396 48.9834 135.589 49.1971 135.686 49.4581C136.009 50.2872 135.491 50.7971 134.798 51.0003C130.867 52.1693 126.902 53.2845 123.551 54.2546Z" fill="#2D1D2D"/>
<path d="M293.924 46.6718C293.654 46.8925 293.364 47.0869 293.057 47.2522C290.085 48.6341 287.103 49.9994 284.112 51.3481C283.469 51.6383 282.681 51.8415 282.266 51.1616C281.852 50.4817 282.333 49.8349 282.967 49.5033C285.852 47.9291 288.858 46.5898 291.958 45.4986C292.717 45.2291 293.617 45.2208 293.924 46.6718Z" fill="#2D1D2D"/>
<path d="M281.541 38.9691C280.96 38.7867 280.479 38.4053 280.533 37.8373C280.661 36.4237 281.74 36.1791 282.897 36.2205C283.469 36.2205 284.087 36.5729 283.967 37.1699C283.722 38.426 282.59 38.6996 281.541 38.9691Z" fill="#2D1D2D"/>
<path d="M91.1083 148.71C93.5966 148.71 96.0849 148.751 98.5732 148.71C100.763 148.66 101.99 149.73 102.181 151.831C102.596 156.365 102.174 160.936 100.937 165.317C100.356 167.39 98.3699 167.68 96.5742 167.846C89.9927 168.456 83.3988 169.144 76.8007 169.558C62.7627 170.445 48.7205 171.192 34.6783 171.992C34.2636 172.017 33.8489 172.029 33.4341 172.033C27.8355 172.108 25.9195 169.985 26.5375 164.418C26.7656 162.345 27.0559 160.309 27.1388 158.249C27.23 155.927 28.3829 154.7 30.5934 154.339C31.1304 154.209 31.6746 154.111 32.2232 154.045C41.7367 153.655 51.1175 151.972 60.602 151.234C70.7708 150.418 80.8939 149.041 91.1083 148.71ZM46.3193 169.023C52.54 168.721 58.7275 168.456 64.9316 168.099C71.1357 167.742 77.3315 167.369 83.5232 166.876C87.9233 166.524 92.2985 165.91 96.6945 165.525C98.2041 165.392 98.8303 164.629 99.2325 163.302C100.062 160.508 99.9293 157.598 100.099 154.767C100.381 149.995 99.4731 150.517 96.0849 150.666C84.9125 151.168 73.7816 152.142 62.6548 153.154C52.4861 154.082 42.3339 155.285 32.1859 156.296C30.1994 156.491 29.1336 157.246 29.1585 159.352C29.1585 160.728 28.9884 162.104 28.9179 163.497C28.6152 169.239 29.1377 169.824 34.7239 169.616C38.6098 169.484 42.4707 169.231 46.3317 169.032L46.3193 169.023Z" fill="#2D1D2D"/>
<path d="M24.3602 166.768C24.308 167.492 24.2181 168.213 24.0907 168.928C23.8418 170.039 23.1119 170.702 22.0171 170.109C19.2385 168.629 16.3894 167.207 13.8224 165.416C11.0936 163.509 11.1392 162.1 13.4077 159.753C14.9304 158.162 16.766 156.903 18.7989 156.055C21.4738 154.948 22.6931 155.55 23.1907 158.34C23.6386 161.034 23.9455 163.754 24.3602 166.768ZM20.6693 158C18.2474 158.19 16.9617 159.704 15.4812 160.877C14.0007 162.05 14.3532 163.198 15.7923 164.09C17.6253 165.217 19.4791 166.337 21.8719 166.992C21.6853 163.862 21.5651 161.047 20.6693 158Z" fill="#2D1D2D"/>
<path d="M448.952 156.35C447.604 159.082 444.573 160.293 443.146 163.315C440.89 159.977 438.169 157.432 436.826 153.966C436.195 152.358 434.943 151.325 433.807 150.152C430.696 146.944 427.275 143.983 425.326 139.821C427.171 139.179 428.038 140.729 429.129 141.616C434.901 146.318 440.674 151.015 446.762 155.297C447.426 155.786 448.048 156.371 448.952 156.35Z" fill="#FF9EAF"/>
<path d="M423.605 138.088L425.156 138.258C425.409 138.76 425.873 139.237 425.317 139.821C424.417 139.568 423.999 138.843 423.605 138.088Z" fill="#E29EFF"/>
<path d="M450.926 158.485C453.219 156.723 455.488 154.945 457.814 153.191C461.995 150.02 464.64 146.036 464.62 140.592C464.638 139.905 464.727 139.222 464.885 138.553C464.935 138.321 465.204 138.138 465.553 137.724C468.244 141.807 470.944 145.787 473.532 149.833C480.661 160.981 488.366 171.76 494.927 183.28C496.287 185.664 496.171 187.335 494.363 189.126C484.331 182.14 474.245 175.23 464.292 168.14C459.817 164.936 455.065 162.133 450.926 158.485Z" fill="#FC5A33"/>
<path d="M450.926 158.485C455.073 162.133 459.817 164.936 464.292 168.119C474.245 175.209 484.331 182.119 494.363 189.105C492.182 191.978 489.183 192.459 485.899 191.932C483.734 191.584 481.598 191.082 479.446 190.651L465.909 185.535C456.947 182.065 450.71 175.544 445.589 167.68C444.29 165.69 444.436 164.276 445.97 162.655C447.504 161.034 448.74 159.244 450.926 158.485Z" fill="#FF9EAF"/>
<path d="M377.497 225.939C383.581 234.231 386.894 243.853 390.535 253.301C391.576 255.996 392.36 258.786 393.418 261.472C394.131 263.284 393.708 264.702 392.402 265.954C390.419 267.861 388.371 269.685 386.409 271.621C385.376 272.636 384.41 272.276 383.431 271.675C381.101 270.236 378.6 269.046 376.613 267.114C377.858 264.88 378.007 262.363 378.16 259.938C378.845 249.416 379.313 238.886 377.513 228.406C377.439 227.586 377.434 226.761 377.497 225.939Z" fill="#FF9EAF"/>
<path d="M46.3318 169.032C42.4708 169.231 38.6098 169.484 34.7488 169.625C29.1502 169.832 28.6276 169.247 28.9428 163.505C29.0133 162.125 29.1958 160.749 29.1834 159.36C29.1585 157.254 30.2243 156.499 32.2108 156.304C42.3712 155.293 52.5317 154.091 62.6797 153.162C73.8065 152.151 84.9374 151.176 96.1098 150.675C99.498 150.525 100.406 150.003 100.124 154.775C99.9542 157.606 100.103 160.516 99.2575 163.311C98.8427 164.637 98.229 165.383 96.7194 165.533C92.3234 165.918 87.9482 166.532 83.5481 166.884C77.3564 167.378 71.1565 167.755 64.9565 168.107C58.7566 168.46 52.5483 168.729 46.3442 169.032H46.3318Z" fill="#FF9EAF"/>
<path d="M20.6693 158C21.5444 161.047 21.6854 163.862 21.872 166.98C19.4791 166.337 17.6253 165.218 15.7923 164.078C14.3532 163.186 13.9385 162.083 15.4813 160.865C17.024 159.646 18.2474 158.191 20.6693 158Z" fill="#FF9EAF"/>
<path d="M169.203 74.3238C196.81 60.0502 197.992 58.9599 200.846 55.3159C202.579 53.1062 213.669 33.2443 222.137 17.9468C218.969 18.5769 215.784 19.1407 212.644 19.8994C195.085 24.2399 177.348 27.7223 159.623 31.2544C146.103 33.9491 132.57 36.6258 119.023 39.2846C111.973 40.6651 104.993 42.4145 97.7272 42.0083C97.3124 42.0083 96.9807 42.2612 96.9268 42.9535C97.8806 44.1184 99.2035 45.1051 100.381 46.27C102.841 48.6621 105.544 51.0293 107.228 53.9395C109.061 57.1027 109.899 60.8586 111.085 64.3825C114.361 74.0958 115.775 84.2361 117.72 94.2313C117.949 95.3797 118.16 96.5239 118.33 97.6764C129.308 94.0448 141.608 88.6056 141.608 88.6056L169.203 74.3238Z" fill="#1F2C40"/>
<g style="mix-blend-mode:soft-light" clip-path="url(#clip1_10426_91138)">
<path d="M184.939 41.4254C186.844 40.3356 189.171 39.456 191.74 38.8548C194.308 38.2537 197.049 37.9472 199.75 37.9592C202.451 37.9712 205.039 38.3012 207.314 38.9238C209.588 39.5464 211.488 40.4447 212.865 41.5491C213.631 42.1578 214.226 42.8239 214.635 43.5307L221.51 44.0155C221.087 42.4112 220.007 40.9059 218.335 39.5928C216.296 37.9763 213.435 36.6894 210.01 35.8475C206.585 35.0056 202.702 34.6351 198.71 34.7692C194.717 34.9032 190.74 35.5376 187.134 36.6155C183.529 37.6934 180.408 39.1811 178.051 40.9453L184.939 41.4254Z" fill="white"/>
<path d="M211.262 51.9581C209.973 52.8235 208.422 53.5856 206.679 54.211C202.618 55.6609 197.767 56.2945 193.19 55.9727C188.612 55.651 184.682 54.4002 182.261 52.4947C181.229 51.6715 180.508 50.7472 180.128 49.7625L173.505 49.3122C173.873 51.8397 175.824 54.1529 179.079 55.9236C182.335 57.6943 186.73 58.8327 191.641 59.1772C196.553 59.5217 201.732 59.0549 206.443 57.843C211.154 56.6311 215.158 54.7356 217.888 52.4253L211.262 51.9581Z" fill="white"/>
<path d="M184.305 41.403C187.385 38.7002 191.982 36.4716 197.427 35.0416C202.873 33.6116 208.882 33.0549 214.582 33.4524C220.281 33.85 225.372 35.1811 229.114 37.2519C232.856 39.3228 235.054 42.0254 235.387 44.9663L241.805 45.4188C241.788 41.6109 239.259 38.0588 234.615 35.3228C229.971 32.5868 223.477 30.8225 216.157 30.3083C208.837 29.794 201.108 30.5589 194.188 32.4825C187.268 34.4061 181.551 37.3788 177.939 40.9318L184.305 41.403Z" fill="white"/>
<path d="M231.305 53.3715C228.988 55.4122 225.783 57.1901 221.969 58.5513C217.891 60.0143 213.252 60.958 208.504 61.291C203.755 61.624 199.056 61.3351 194.861 60.4523C190.667 59.5695 187.118 58.1226 184.559 56.2515C182 54.3804 180.516 52.1484 180.252 49.7713L173.834 49.3187C173.827 53.1356 176.342 56.6994 180.984 59.446C185.626 62.1925 192.128 63.965 199.461 64.4828C206.794 65.0006 214.539 64.2341 221.471 62.3046C228.403 60.3752 234.125 57.393 237.731 53.8302L231.305 53.3715Z" fill="white"/>
<path d="M258.613 49.3071L139.754 40.9253L138.187 44.1268L257.046 52.5087L258.613 49.3071Z" fill="url(#paint0_linear_10426_91138)"/>
</g>
</g>
<defs>
<linearGradient id="paint0_linear_10426_91138" x1="138.971" y1="42.5261" x2="238.17" y2="91.0771" gradientUnits="userSpaceOnUse">
<stop stop-color="white" stop-opacity="0"/>
<stop offset="0.643466" stop-color="white"/>
</linearGradient>
<clipPath id="clip0_10426_91138">
<rect width="498" height="274" fill="white"/>
</clipPath>
<clipPath id="clip1_10426_91138">
<rect width="59.4325" height="83.2484" fill="white" transform="matrix(0.784569 0.620042 -0.941591 0.33676 214.29 14.271)"/>
</clipPath>
</defs>
</svg>
