<svg width="32" height="32" viewBox="0 0 32 32" fill="none" xmlns="http://www.w3.org/2000/svg">
<g clip-path="url(#clip0_10416_90414)">
<path d="M9.95781 17.906C9.71359 16.983 9.68531 16.0161 9.87515 15.0804C10.065 14.1447 10.4679 13.2654 11.0525 12.5106C11.6371 11.7557 12.3878 11.1457 13.2463 10.7279C14.1047 10.3101 15.0479 10.0957 16.0027 10.1013C16.5305 10.1024 17.0559 10.1721 17.5657 10.3087L19.3255 8.54892C18.2761 8.09706 17.1452 7.86545 16.0027 7.86841C14.6003 7.86659 13.2194 8.21282 11.9838 8.87606C10.7481 9.5393 9.6964 10.4988 8.92288 11.6686C8.14937 12.8383 7.67823 14.1818 7.55173 15.5784C7.42523 16.9751 7.6473 18.3813 8.19805 19.671L9.95781 17.906Z" fill="white"/>
<path d="M21.8827 14.2535C22.1243 14.9237 22.2484 15.6305 22.2496 16.3429C22.2481 17.9997 21.5897 19.5884 20.4187 20.7604C19.2476 21.9325 17.6595 22.5923 16.0027 22.5951C15.29 22.5923 14.5831 22.4664 13.9133 22.223L12.228 23.9242C13.8178 24.7195 15.6177 24.9939 17.3723 24.7087C19.1269 24.4235 20.7472 23.593 22.0033 22.3352C23.2594 21.0773 24.0876 19.4558 24.3704 17.7008C24.6531 15.9458 24.3761 14.1463 23.5787 12.5576L21.8827 14.2535Z" fill="white"/>
<path d="M9.80895 18.0761C8.85155 16.2494 8.50213 14.1649 8.81156 12.1259C9.12099 10.0869 10.0731 8.19988 11.5293 6.73951C12.9855 5.27914 14.8698 4.32166 16.908 4.00642C18.9461 3.69119 21.0316 4.03467 22.861 4.98687L24.5037 3.34407C22.2238 1.99444 19.5594 1.44217 16.9309 1.77434C14.3023 2.10651 11.8591 3.30423 9.98652 5.17861C8.11397 7.05298 6.91864 9.49736 6.58903 12.1263C6.25943 14.7551 6.8143 17.419 8.16615 19.6976L9.80895 18.0761Z" fill="white"/>
<path d="M27.0131 9.1231C27.7376 10.5001 28.1153 12.033 28.1137 13.589C28.1162 15.2556 27.6886 16.8947 26.8724 18.3478C26.0561 19.8008 24.8787 21.0187 23.4541 21.8837C22.0295 22.7486 20.4057 23.2313 18.74 23.2852C17.0742 23.339 15.4227 22.9622 13.9452 22.1911L12.3024 23.8339C14.5825 25.1935 17.2509 25.7537 19.8853 25.426C22.5197 25.0982 24.9695 23.9012 26.847 22.0243C28.7245 20.1475 29.9223 17.6981 30.2509 15.0638C30.5795 12.4295 30.0201 9.76086 28.6613 7.4803L27.0131 9.1231Z" fill="white"/>
<path d="M30.4223 0.00294502L-0.00195312 30.4272L1.57697 32.0061L32.0012 1.58186L30.4223 0.00294502Z" fill="url(#paint0_linear_10416_90414)"/>
</g>
<defs>
<linearGradient id="paint0_linear_10416_90414" x1="0.787506" y1="31.2167" x2="31.2118" y2="0.792405" gradientUnits="userSpaceOnUse">
<stop stop-color="white" stop-opacity="0"/>
<stop offset="0.643466" stop-color="white"/>
</linearGradient>
<clipPath id="clip0_10416_90414">
<rect width="32" height="32" fill="white"/>
</clipPath>
</defs>
</svg>
