<svg width="180" height="31" viewBox="0 0 180 31" fill="none" xmlns="http://www.w3.org/2000/svg">
<path d="M49.3221 8.73145H60.2635C60.4737 8.73145 60.5857 8.83413 60.5857 9.05417V10.4918C60.5857 10.7118 60.4737 10.8292 60.2635 10.8292H55.8645V18.6773C55.8645 18.8973 55.7665 19 55.5563 19H54.0293C53.8191 19 53.7211 18.8973 53.7211 18.6773V10.8292H49.3221C49.112 10.8292 48.9999 10.7118 48.9999 10.4918V9.05417C48.9999 8.83413 49.112 8.73145 49.3221 8.73145Z" fill="white"/>
<path d="M72.3749 8.73145H76.7039C79.5478 8.73145 80.6265 9.78764 80.6265 12.6042V15.1273C80.6265 17.9438 79.5478 19 76.7039 19H72.3749C69.545 19 68.4523 17.9438 68.4523 15.1273V12.6042C68.4523 9.78764 69.545 8.73145 72.3749 8.73145ZM70.5957 12.7655V14.9659C70.5957 16.5062 71.016 16.961 72.459 16.961H76.6198C78.0628 16.961 78.4831 16.5062 78.4831 14.9659V12.7655C78.4831 11.2252 78.0628 10.7705 76.6198 10.7705H72.459C71.016 10.7705 70.5957 11.2252 70.5957 12.7655Z" fill="white"/>
<path d="M90.6342 8.73145H91.8671C92.7637 8.73145 92.9598 8.8488 93.4922 9.59694L98.7037 16.7556C98.7457 16.8289 98.8018 16.8583 98.8858 16.8583H99.0119C99.082 16.8583 99.124 16.8143 99.124 16.7116V9.05417C99.124 8.83413 99.2221 8.73145 99.4322 8.73145H100.903C101.113 8.73145 101.211 8.83413 101.211 9.05417V17.4744C101.211 18.6626 100.805 19 99.9506 19H98.7457C97.8912 19 97.681 18.912 97.1206 18.1345L91.8951 10.9759C91.8391 10.9025 91.797 10.8732 91.713 10.8732H91.5869C91.5028 10.8732 91.4748 10.9172 91.4748 11.0199V18.6773C91.4748 18.8973 91.3767 19 91.1666 19H89.6956C89.4855 19 89.3734 18.8973 89.3734 18.6773V10.2571C89.3734 9.06884 89.7797 8.73145 90.6342 8.73145Z" fill="white"/>
<path d="M113.884 8.73145H120.048C120.258 8.73145 120.37 8.83413 120.37 9.05417V10.4478C120.37 10.6678 120.258 10.7705 120.048 10.7705H113.926C112.469 10.7705 112.062 11.2252 112.062 12.7655V12.9122H119.978C120.188 12.9122 120.286 13.0149 120.286 13.2349V14.3938C120.286 14.6139 120.188 14.7165 119.978 14.7165H112.062V14.9659C112.062 16.5062 112.469 16.961 113.926 16.961H120.048C120.258 16.961 120.37 17.0636 120.37 17.2837V18.6773C120.37 18.8973 120.258 19 120.048 19H113.884C111.054 19 109.961 17.9438 109.961 15.1273V12.6042C109.961 9.78764 111.054 8.73145 113.884 8.73145Z" fill="white"/>
<path d="M138.072 8.73145H139.894C140.146 8.73145 140.16 8.98082 140.034 9.11285L135.733 13.675L140.23 18.6186C140.356 18.7506 140.342 19 140.09 19H138.171C137.946 19 137.834 18.9413 137.722 18.7946L134.262 14.9953L130.788 18.7946C130.661 18.9413 130.563 19 130.325 19H128.504C128.266 19 128.252 18.7506 128.378 18.6186L132.987 13.6017L128.826 9.11285C128.714 8.98082 128.714 8.73145 128.966 8.73145H130.886C131.11 8.73145 131.222 8.80479 131.334 8.93682L134.388 12.3401L137.624 8.93682C137.736 8.80479 137.848 8.73145 138.072 8.73145Z" fill="white"/>
<path d="M148.756 8.73145H150.27C150.48 8.73145 150.578 8.83413 150.578 9.05417V14.9072C150.578 16.4622 150.998 16.917 152.441 16.917H156.322C157.765 16.917 158.171 16.4622 158.171 14.9072V9.05417C158.171 8.83413 158.269 8.73145 158.479 8.73145H160.006C160.216 8.73145 160.314 8.83413 160.314 9.05417V15.1273C160.314 17.9438 159.236 19 156.392 19H152.357C149.527 19 148.434 17.9438 148.434 15.1273V9.05417C148.434 8.83413 148.546 8.73145 148.756 8.73145Z" fill="white"/>
<path d="M171.46 8.73145H178.885C179.095 8.73145 179.193 8.83413 179.193 9.05417V10.4478C179.193 10.6678 179.095 10.7705 178.885 10.7705H171.866C171.334 10.7705 171.124 11.0785 171.124 11.592V12.0907C171.124 12.6335 171.362 12.9122 171.852 12.9122H177.106C178.717 12.9122 179.557 13.8217 179.557 15.4353V16.6089C179.557 18.0318 178.773 19 177.078 19H169.316C169.106 19 168.994 18.8973 168.994 18.6773V17.2837C168.994 17.0636 169.106 16.961 169.316 16.961H176.671C177.204 16.961 177.414 16.6529 177.414 16.1395V15.538C177.414 14.9953 177.176 14.7165 176.685 14.7165H171.432C169.821 14.7165 168.98 13.807 168.98 12.1934V11.1226C168.98 9.69962 169.765 8.73145 171.46 8.73145Z" fill="white"/>
<g clip-path="url(#clip0_10481_91074)">
<path d="M9.64651 17.3466C9.40993 16.4525 9.38253 15.5159 9.56644 14.6094C9.75035 13.703 10.1406 12.8511 10.707 12.1198C11.2733 11.3886 12.0006 10.7977 12.8322 10.3929C13.6639 9.98818 14.5776 9.78046 15.5025 9.78592C16.0138 9.78694 16.5228 9.85446 17.0167 9.98678L18.7214 8.28201C17.7049 7.84428 16.6093 7.61989 15.5025 7.62277C14.1439 7.621 12.8062 7.95642 11.6091 8.59893C10.4121 9.24145 9.39327 10.171 8.64393 11.3042C7.89458 12.4374 7.43818 13.7388 7.31562 15.0919C7.19307 16.4449 7.40821 17.8072 7.94175 19.0566L9.64651 17.3466Z" fill="url(#paint0_linear_10481_91074)"/>
<path d="M9.64651 17.3466C9.40993 16.4525 9.38253 15.5159 9.56644 14.6094C9.75035 13.703 10.1406 12.8511 10.707 12.1198C11.2733 11.3886 12.0006 10.7977 12.8322 10.3929C13.6639 9.98818 14.5776 9.78046 15.5025 9.78592C16.0138 9.78694 16.5228 9.85446 17.0167 9.98678L18.7214 8.28201C17.7049 7.84428 16.6093 7.61989 15.5025 7.62277C14.1439 7.621 12.8062 7.95642 11.6091 8.59893C10.4121 9.24145 9.39327 10.171 8.64393 11.3042C7.89458 12.4374 7.43818 13.7388 7.31562 15.0919C7.19307 16.4449 7.40821 17.8072 7.94175 19.0566L9.64651 17.3466Z" fill="white"/>
<path d="M21.1988 13.8083C21.4328 14.4576 21.5531 15.1423 21.5541 15.8324C21.5528 17.4375 20.9149 18.9765 19.7805 20.1119C18.646 21.2474 17.1075 21.8865 15.5025 21.8893C14.812 21.8865 14.1273 21.7646 13.4784 21.5287L11.8457 23.1768C13.3859 23.9472 15.1295 24.2131 16.8293 23.9368C18.5291 23.6605 20.0988 22.856 21.3156 21.6374C22.5325 20.4189 23.3348 18.8481 23.6087 17.1479C23.8826 15.4477 23.6143 13.7045 22.8417 12.1654L21.1988 13.8083Z" fill="url(#paint1_linear_10481_91074)"/>
<path d="M21.1988 13.8083C21.4328 14.4576 21.5531 15.1423 21.5541 15.8324C21.5528 17.4375 20.9149 18.9765 19.7805 20.1119C18.646 21.2474 17.1075 21.8865 15.5025 21.8893C14.812 21.8865 14.1273 21.7646 13.4784 21.5287L11.8457 23.1768C13.3859 23.9472 15.1295 24.2131 16.8293 23.9368C18.5291 23.6605 20.0988 22.856 21.3156 21.6374C22.5325 20.4189 23.3348 18.8481 23.6087 17.1479C23.8826 15.4477 23.6143 13.7045 22.8417 12.1654L21.1988 13.8083Z" fill="white"/>
<path d="M9.50231 17.5114C8.57483 15.7419 8.23633 13.7225 8.53609 11.7472C8.83584 9.77193 9.75821 7.94388 11.1689 6.52915C12.5796 5.11441 14.4051 4.18685 16.3795 3.88147C18.3539 3.57609 20.3742 3.90883 22.1464 4.83127L23.7379 3.23981C21.5292 1.93236 18.9481 1.39735 16.4017 1.71914C13.8552 2.04093 11.4884 3.20122 9.67433 5.01702C7.8603 6.83282 6.70232 9.20081 6.38301 11.7476C6.06371 14.2943 6.60124 16.8749 7.91084 19.0823L9.50231 17.5114Z" fill="url(#paint2_linear_10481_91074)"/>
<path d="M9.50231 17.5114C8.57483 15.7419 8.23633 13.7225 8.53609 11.7472C8.83584 9.77193 9.75821 7.94388 11.1689 6.52915C12.5796 5.11441 14.4051 4.18685 16.3795 3.88147C18.3539 3.57609 20.3742 3.90883 22.1464 4.83127L23.7379 3.23981C21.5292 1.93236 18.9481 1.39735 16.4017 1.71914C13.8552 2.04093 11.4884 3.20122 9.67433 5.01702C7.8603 6.83282 6.70232 9.20081 6.38301 11.7476C6.06371 14.2943 6.60124 16.8749 7.91084 19.0823L9.50231 17.5114Z" fill="white"/>
<path d="M26.1689 8.83825C26.8707 10.1722 27.2366 11.6572 27.235 13.1645C27.2374 14.7791 26.8232 16.367 26.0325 17.7747C25.2417 19.1823 24.1011 20.3621 22.721 21.2C21.3409 22.038 19.768 22.5056 18.1542 22.5578C16.5405 22.6099 14.9406 22.2449 13.5093 21.4978L11.9178 23.0893C14.1267 24.4064 16.7117 24.9492 19.2638 24.6317C21.8159 24.3142 24.1891 23.1545 26.0079 21.3363C27.8267 19.5181 28.9871 17.1452 29.3055 14.5933C29.6238 12.0413 29.0819 9.45608 27.7655 7.24679L26.1689 8.83825Z" fill="url(#paint3_linear_10481_91074)"/>
<path d="M26.1689 8.83825C26.8707 10.1722 27.2366 11.6572 27.235 13.1645C27.2374 14.7791 26.8232 16.367 26.0325 17.7747C25.2417 19.1823 24.1011 20.3621 22.721 21.2C21.3409 22.038 19.768 22.5056 18.1542 22.5578C16.5405 22.6099 14.9406 22.2449 13.5093 21.4978L11.9178 23.0893C14.1267 24.4064 16.7117 24.9492 19.2638 24.6317C21.8159 24.3142 24.1891 23.1545 26.0079 21.3363C27.8267 19.5181 28.9871 17.1452 29.3055 14.5933C29.6238 12.0413 29.0819 9.45608 27.7655 7.24679L26.1689 8.83825Z" fill="white"/>
<path d="M29.4715 0.003052L-0.00201416 29.4766L1.52756 31.0061L31.0011 1.53263L29.4715 0.003052Z" fill="url(#paint4_linear_10481_91074)"/>
</g>
<defs>
<linearGradient id="paint0_linear_10481_91074" x1="25.9493" y1="4.70248" x2="-1.95477" y2="10.6447" gradientUnits="userSpaceOnUse">
<stop stop-color="#CAB7FF"/>
<stop offset="0.162438" stop-color="#FFCEF4"/>
<stop offset="0.298373" stop-color="#F0FFC5"/>
<stop offset="0.601047" stop-color="#59FF9C"/>
<stop offset="1" stop-color="#B659FF"/>
</linearGradient>
<linearGradient id="paint1_linear_10481_91074" x1="25.9493" y1="4.70248" x2="-1.95477" y2="10.6447" gradientUnits="userSpaceOnUse">
<stop stop-color="#CAB7FF"/>
<stop offset="0.162438" stop-color="#FFCEF4"/>
<stop offset="0.298373" stop-color="#F0FFC5"/>
<stop offset="0.601047" stop-color="#59FF9C"/>
<stop offset="1" stop-color="#B659FF"/>
</linearGradient>
<linearGradient id="paint2_linear_10481_91074" x1="25.9493" y1="4.70248" x2="-1.95477" y2="10.6447" gradientUnits="userSpaceOnUse">
<stop stop-color="#CAB7FF"/>
<stop offset="0.162438" stop-color="#FFCEF4"/>
<stop offset="0.298373" stop-color="#F0FFC5"/>
<stop offset="0.601047" stop-color="#59FF9C"/>
<stop offset="1" stop-color="#B659FF"/>
</linearGradient>
<linearGradient id="paint3_linear_10481_91074" x1="25.9493" y1="4.70248" x2="-1.95477" y2="10.6447" gradientUnits="userSpaceOnUse">
<stop stop-color="#CAB7FF"/>
<stop offset="0.162438" stop-color="#FFCEF4"/>
<stop offset="0.298373" stop-color="#F0FFC5"/>
<stop offset="0.601047" stop-color="#59FF9C"/>
<stop offset="1" stop-color="#B659FF"/>
</linearGradient>
<linearGradient id="paint4_linear_10481_91074" x1="0.762775" y1="30.2414" x2="30.2363" y2="0.767841" gradientUnits="userSpaceOnUse">
<stop stop-color="white" stop-opacity="0"/>
<stop offset="0.643466" stop-color="white"/>
</linearGradient>
<clipPath id="clip0_10481_91074">
<rect width="31" height="31" fill="white"/>
</clipPath>
</defs>
</svg>
