<svg width="90" height="90" viewBox="0 0 90 90" fill="none" xmlns="http://www.w3.org/2000/svg">
<circle cx="45" cy="45" r="44.5" fill="#202732" stroke="#686666"/>
<circle cx="45.2038" cy="45.0308" r="22.5" stroke="white" stroke-width="3"/>
<path fill-rule="evenodd" clip-rule="evenodd" d="M37.7681 35.9536H53.3997C53.9528 35.9536 54.5053 36.0349 55.0829 36.3041C55.7751 36.6269 56.1423 37.1353 56.3995 37.5125C56.4193 37.5425 56.4382 37.5724 56.4556 37.6024C56.7577 38.1341 56.9156 38.7356 56.9137 39.3471C56.9137 39.9413 56.7725 40.5882 56.4556 41.1524L56.4463 41.1686L46.5705 58.1326C46.4634 58.3163 46.3099 58.4687 46.1254 58.5743C45.9408 58.68 45.7317 58.7352 45.5191 58.7344C45.3064 58.7337 45.0977 58.677 44.9139 58.57C44.7301 58.463 44.5777 58.3096 44.472 58.1251L34.7775 41.1968L34.7691 41.183C34.5473 40.8173 34.2041 40.2519 34.1441 39.521C34.0885 38.8497 34.2397 38.1776 34.5773 37.5947C34.9149 37.0119 35.4228 36.5463 36.0327 36.2606C36.6865 35.956 37.3499 35.9536 37.7681 35.9536ZM44.3116 38.377H37.7681C37.3382 38.377 37.1734 38.4037 37.0579 38.4577C36.8973 38.5329 36.7635 38.6557 36.6748 38.8093C36.5849 38.9651 36.5447 39.1445 36.5594 39.3237C36.5678 39.4269 36.6101 39.5447 36.8592 39.9533L36.8745 39.9791L44.3131 52.9686L44.3116 38.377ZM46.735 38.377V53.0327L54.3461 39.9584C54.4427 39.769 54.4922 39.5591 54.4903 39.3465C54.4921 39.1671 54.449 38.99 54.365 38.8315C54.3075 38.7441 54.2432 38.6613 54.1725 38.5842C54.1404 38.5495 54.1018 38.5215 54.0589 38.5017C53.879 38.4178 53.695 38.3782 53.3994 38.3782L46.735 38.377Z" fill="#E92E01"/>
</svg>
