<svg width="90" height="90" viewBox="0 0 90 90" fill="none" xmlns="http://www.w3.org/2000/svg">
<circle cx="45" cy="45" r="44.5" transform="rotate(180 45 45)" fill="#202732" stroke="#686666"/>
<path d="M37.3838 28.5513H30.9428C28.7337 28.5513 26.9428 30.3421 26.9428 32.5513V38.5213M61.9428 38.5213V32.5513C61.9428 30.3421 60.1519 28.5513 57.9428 28.5513H51.5018" stroke="white" stroke-width="3"/>
<path d="M51.5018 63.0215H57.9428C60.1519 63.0215 61.9428 61.2306 61.9428 59.0215V53.0515M26.9428 53.0515V59.0215C26.9428 61.2306 28.7337 63.0215 30.9428 63.0215H37.3838" stroke="white" stroke-width="3"/>
<path d="M44.4428 35.5513C45.7353 35.5512 46.9985 35.9365 48.0709 36.6578C49.1434 37.3792 49.9764 38.4039 50.4636 39.6011C50.9508 40.7982 51.0701 42.1134 50.8061 43.3787C50.5422 44.6439 49.907 45.8018 48.9818 46.7043C50.4429 47.4987 51.6698 48.6628 52.5398 50.0803C53.4097 51.4977 53.8921 53.1188 53.9388 54.7813L53.9428 55.0513H50.9428C50.9441 53.3467 50.2758 51.7098 49.0818 50.4932C47.8878 49.2766 46.2636 48.5778 44.5593 48.5473C42.855 48.5167 41.2069 49.1569 39.97 50.3298C38.7332 51.5028 38.0066 53.1147 37.9468 54.8183L37.9428 55.0513H34.9428C34.9421 53.3422 35.4026 51.6646 36.2758 50.1953C37.1489 48.7261 38.4023 47.5197 39.9038 46.7033C38.9789 45.8007 38.3441 44.643 38.0803 43.3779C37.8166 42.1128 37.9359 40.7978 38.4231 39.6009C38.9102 38.4039 39.7431 37.3794 40.8154 36.6581C41.8876 35.9367 43.1505 35.5514 44.4428 35.5513ZM44.4428 38.5513C43.9831 38.5512 43.528 38.6417 43.1033 38.8176C42.6786 38.9934 42.2927 39.2512 41.9677 39.5763C41.6426 39.9013 41.3848 40.2871 41.2089 40.7118C41.0329 41.1365 40.9424 41.5916 40.9424 42.0513C40.9424 42.5109 41.0329 42.9661 41.2089 43.3908C41.3848 43.8154 41.6426 44.2013 41.9677 44.5263C42.2927 44.8513 42.6786 45.1091 43.1033 45.285C43.528 45.4608 43.9831 45.5513 44.4428 45.5513C45.371 45.5512 46.2611 45.1824 46.9174 44.526C47.5737 43.8696 47.9424 42.9795 47.9424 42.0513C47.9424 41.1231 47.5737 40.2329 46.9174 39.5765C46.2611 38.9202 45.371 38.5514 44.4428 38.5513Z" fill="#E92E01"/>
</svg>
