<svg width="1440" height="1156" viewBox="0 0 1440 1156" fill="none" xmlns="http://www.w3.org/2000/svg">
<g clip-path="url(#clip0_10439_90424)">
<path d="M0 0H1440V1284H0V0Z" fill="url(#paint0_linear_10439_90424)"/>
<path d="M0 0H1440V1284H0V0Z" fill="url(#paint1_radial_10439_90424)"/>
<circle cx="477" cy="477" r="477" transform="matrix(-1 0 0 1 1183 735)" fill="url(#paint2_radial_10439_90424)" fill-opacity="0.5"/>
<circle cx="1224" cy="702" r="2" fill="white"/>
<circle opacity="0.6" cx="61" cy="751" r="1" fill="white"/>
<circle opacity="0.6" cx="771" cy="552" r="1" fill="white"/>
<circle opacity="0.6" cx="1288.5" cy="632.5" r="1.5" fill="white"/>
<circle opacity="0.6" cx="1302" cy="827" r="1" fill="white"/>
<circle opacity="0.6" cx="1374" cy="960" r="1" fill="white"/>
<path d="M1365 894C1365 894.552 1364.55 895 1364 895C1363.45 895 1363 894.552 1363 894C1363 893.448 1363.45 893 1364 893C1364.55 893 1365 893.448 1365 894Z" fill="white"/>
<path d="M241 843C241 843.552 240.552 844 240 844C239.448 844 239 843.552 239 843C239 842.448 239.448 842 240 842C240.552 842 241 842.448 241 843Z" fill="white"/>
<circle cx="1240.45" cy="400.45" r="2" transform="rotate(-75 1240.45 400.45)" fill="white"/>
<circle opacity="0.6" cx="40.2247" cy="873.502" r="1" transform="rotate(-75 40.2247 873.502)" fill="white"/>
<circle opacity="0.6" cx="251.921" cy="394.471" r="1.5" transform="rotate(-75 251.921 394.471)" fill="white"/>
<circle opacity="0.6" cx="443.287" cy="431.771" r="1" transform="rotate(-75 443.287 431.771)" fill="white"/>
<circle opacity="0.6" cx="590.39" cy="396.647" r="1" transform="rotate(-75 590.39 396.647)" fill="white"/>
<path d="M524.31 388.259C524.843 388.402 525.16 388.95 525.017 389.483C524.874 390.017 524.326 390.333 523.792 390.19C523.259 390.048 522.942 389.499 523.085 388.966C523.228 388.432 523.776 388.116 524.31 388.259Z" fill="white"/>
</g>
<defs>
<linearGradient id="paint0_linear_10439_90424" x1="720" y1="-66.1357" x2="720" y2="1284" gradientUnits="userSpaceOnUse">
<stop stop-opacity="0"/>
<stop offset="0.328125" stop-color="#25313C"/>
<stop offset="0.645833" stop-color="#C34038"/>
<stop offset="1" stop-color="#FFB098"/>
</linearGradient>
<radialGradient id="paint1_radial_10439_90424" cx="0" cy="0" r="1" gradientUnits="userSpaceOnUse" gradientTransform="translate(1274 1120.02) rotate(-109.15) scale(658.468 775.382)">
<stop stop-color="#FFD2B9" stop-opacity="0.92"/>
<stop offset="1" stop-color="#FD8585" stop-opacity="0"/>
</radialGradient>
<radialGradient id="paint2_radial_10439_90424" cx="0" cy="0" r="1" gradientUnits="userSpaceOnUse" gradientTransform="translate(618.839 543.338) rotate(-143.585) scale(608.409 610.15)">
<stop offset="0.307284"/>
<stop offset="0.584068" stop-color="#141F47"/>
<stop offset="0.833699" stop-color="#E92E01"/>
<stop offset="1" stop-color="white"/>
</radialGradient>
<clipPath id="clip0_10439_90424">
<rect width="1440" height="1156" fill="white"/>
</clipPath>
</defs>
</svg>
