<svg width="90" height="90" viewBox="0 0 90 90" fill="none" xmlns="http://www.w3.org/2000/svg">
<g clip-path="url(#clip0_10479_90971)">
<circle cx="45" cy="45" r="44.5" transform="rotate(180 45 45)" fill="#202732" stroke="#686666"/>
<path d="M57.1561 63.5C62.6762 59.3862 66 52.8444 66 45.9539C66 33.8865 56.3967 24 44.5 24C32.6033 24 23 33.7411 23 45.8085C23 52.7594 26.1489 59.1187 31.5 63.2858" stroke="white" stroke-width="3"/>
<path d="M33.8186 65.0067L40.8737 53.2C41.0238 52.8934 41.0238 52.4334 40.5735 52.1267C38.3219 50.7467 36.9709 48.2934 36.9709 45.5334C36.9709 41.24 40.2733 37.8667 44.4764 37.8667C48.6794 37.8667 51.9818 41.24 51.9818 45.5334C51.9818 48.4467 50.3306 51.0534 47.9289 52.4334L47.4785 52.8934C47.4785 53.0467 47.4785 53.3534 47.6286 53.5067L54.6838 65.3134" stroke="#E92E01" stroke-width="3"/>
</g>
<defs>
<clipPath id="clip0_10479_90971">
<rect width="90" height="90" fill="white"/>
</clipPath>
</defs>
</svg>
