<svg width="24" height="24" viewBox="0 0 24 24" fill="none" xmlns="http://www.w3.org/2000/svg">
<g clip-path="url(#clip0_10612_4857)">
<g clip-path="url(#clip1_10612_4857)">
<path d="M11.9998 11.05C14.0498 11.05 15.6998 9.35 15.6998 7.25C15.6998 5.15 14.0498 3.5 11.9998 3.5C9.9498 3.5 8.2998 5.2 8.2998 7.3C8.2998 9.4 9.9498 11.05 11.9998 11.05ZM11.9998 4.5C13.4998 4.5 14.7498 5.75 14.7498 7.3C14.7498 8.85 13.4998 10.05 11.9998 10.05C10.4998 10.05 9.2498 8.8 9.2498 7.25C9.2498 5.7 10.4998 4.5 11.9998 4.5Z" fill="#F1E9E9"/>
<path d="M17.7 11.2C18.5 9.55 18.9 8.25 18.9 7.25C18.9 3.4 15.8 0.25 12 0.25C8.2 0.25 5.1 3.4 5.1 7.25C5.1 8.2 5.5 9.55 6.3 11.2H4.2L0.25 23.75H23.75L19.8 11.2H17.7ZM12 1.25C15.25 1.25 17.9 3.95 17.9 7.25C17.9 8.15 17.4 9.65 16.45 11.45C15 14.25 12.85 17.2 12 18.4C11.95 18.35 11.9 18.25 11.8 18.15C10.9 16.95 9.2 14.5 7.85 12.05C7.85 12 7.8 12 7.8 11.95C7.8 11.95 7.8 11.95 7.8 11.9C7.7 11.75 7.6 11.55 7.55 11.4C6.6 9.6 6.1 8.1 6.1 7.2C6.1 3.95 8.75 1.25 12 1.25ZM1.6 22.75L4.95 12.2H6.85C6.9 12.25 6.95 12.35 6.95 12.4C7 12.5 7.05 12.6 7.15 12.75C7.2 12.85 7.3 13 7.35 13.1C7.4 13.2 7.5 13.3 7.55 13.45C7.6 13.55 7.7 13.7 7.75 13.8C7.8 13.9 7.9 14 7.95 14.15C8 14.25 8.1 14.35 8.15 14.5C8.2 14.6 8.3 14.7 8.35 14.8C8.4 14.9 8.5 15 8.55 15.15C8.6 15.25 8.7 15.35 8.75 15.45C8.8 15.55 8.9 15.65 8.95 15.8C9 15.9 9.1 16 9.15 16.1C9.2 16.2 9.3 16.3 9.35 16.4C9.4 16.5 9.45 16.6 9.55 16.65C9.6 16.75 9.7 16.85 9.75 16.95C9.8 17.05 9.85 17.1 9.9 17.2C9.95 17.3 10.05 17.4 10.1 17.5C10.15 17.55 10.2 17.65 10.25 17.7C10.3 17.8 10.4 17.9 10.45 18C10.5 18.05 10.55 18.1 10.55 18.15C10.65 18.25 10.7 18.35 10.75 18.45C10.75 18.5 10.8 18.5 10.8 18.55C10.9 18.65 10.95 18.75 11 18.85C11 18.85 11 18.9 11.05 18.9C11.35 19.35 11.55 19.6 11.55 19.6L11.95 20.1L12.35 19.6C12.35 19.6 12.45 19.45 12.65 19.2C12.7 19.15 12.75 19.05 12.8 19L12.85 18.95C12.9 18.9 12.95 18.8 13 18.7C13.05 18.65 13.05 18.6 13.1 18.6C13.15 18.5 13.2 18.45 13.3 18.35C13.35 18.3 13.4 18.25 13.4 18.2C13.45 18.1 13.5 18.05 13.6 17.95C13.65 17.9 13.7 17.8 13.75 17.75C13.8 17.65 13.9 17.55 13.95 17.45C14 17.35 14.05 17.3 14.1 17.2C14.15 17.1 14.25 17 14.3 16.9C14.35 16.8 14.4 16.75 14.5 16.65C14.55 16.55 14.65 16.45 14.7 16.35C14.75 16.25 14.85 16.15 14.9 16.05C14.95 15.95 15.05 15.85 15.1 15.75C15.15 15.65 15.25 15.55 15.3 15.45C15.35 15.35 15.45 15.25 15.5 15.15C15.55 15.05 15.65 14.95 15.7 14.85C15.75 14.75 15.85 14.65 15.9 14.5C15.95 14.4 16.05 14.3 16.1 14.15C16.15 14.05 16.25 13.95 16.3 13.8C16.35 13.7 16.45 13.6 16.5 13.45C16.55 13.35 16.65 13.25 16.7 13.1C16.75 13 16.85 12.85 16.9 12.75C16.95 12.65 17 12.55 17.1 12.4C17.15 12.35 17.2 12.25 17.2 12.2H19.1L22.45 22.75H1.6Z" fill="#F1E9E9"/>
</g>
</g>
<defs>
<clipPath id="clip0_10612_4857">
<rect width="24" height="24" fill="white"/>
</clipPath>
<clipPath id="clip1_10612_4857">
<rect width="24" height="24" fill="white"/>
</clipPath>
</defs>
</svg>
