<svg width="35" height="40" viewBox="0 0 35 40" fill="none" xmlns="http://www.w3.org/2000/svg">
<path fill-rule="evenodd" clip-rule="evenodd" d="M9.21658 0C8.80536 0 8.4513 0.290258 8.37065 0.693497L7.64667 4.31341H1.52994C1.08505 4.31341 0.713124 4.65173 0.671114 5.09463L0.0115849 12.048C-0.0691664 12.8993 0.27585 13.7356 0.933407 14.2823L4.07021 16.8905C6.11702 18.5924 7.78293 20.7059 8.95973 23.0936L17.1362 39.6834L25.3126 23.0936C26.4894 20.7059 28.1553 18.5924 30.2021 16.8905L33.3389 14.2823C33.9965 13.7356 34.3415 12.8993 34.2608 12.048L33.6012 5.09463C33.5592 4.65173 33.1873 4.31341 32.7424 4.31341H26.6257L25.9017 0.693496C25.821 0.290258 25.467 0 25.0558 0H9.21658Z" fill="#EA3206"/>
<path fill-rule="evenodd" clip-rule="evenodd" d="M11.85 7.76367H22.505C22.882 7.76367 23.2586 7.81905 23.6524 8.00255C24.1242 8.22262 24.3745 8.56919 24.5499 8.82625C24.5633 8.84668 24.5762 8.86712 24.5881 8.88755C24.794 9.25001 24.9016 9.65997 24.9003 10.0768C24.9003 10.4818 24.8041 10.9228 24.5881 11.3074L24.5817 11.3184L17.85 22.8817C17.777 23.0069 17.6724 23.1108 17.5466 23.1828C17.4208 23.2548 17.2783 23.2925 17.1333 23.2919C16.9884 23.2914 16.8461 23.2528 16.7208 23.1799C16.5956 23.1069 16.4917 23.0023 16.4196 22.8766L9.81149 11.3376L9.80576 11.3282C9.65455 11.0789 9.42058 10.6935 9.37972 10.1953C9.34182 9.73778 9.44486 9.27959 9.67498 8.88231C9.90511 8.48503 10.2513 8.16769 10.6671 7.97292C11.1127 7.76531 11.5649 7.76367 11.85 7.76367ZM16.3103 9.41557H11.85C11.557 9.41557 11.4446 9.43376 11.3659 9.47054C11.2564 9.52183 11.1652 9.60549 11.1047 9.71023C11.0435 9.81639 11.016 9.93872 11.0261 10.0609C11.0318 10.1312 11.0606 10.2115 11.2304 10.49L11.2408 10.5076L16.3113 19.3617L16.3103 9.41557ZM17.9622 9.41557V19.4054L23.1501 10.4935C23.216 10.3644 23.2497 10.2213 23.2484 10.0764C23.2497 9.9541 23.2203 9.83342 23.163 9.72535C23.1239 9.66574 23.08 9.60936 23.0318 9.55677C23.0099 9.53313 22.9836 9.51404 22.9544 9.50058C22.8318 9.44336 22.7063 9.41639 22.5048 9.41639L17.9622 9.41557Z" fill="black"/>
</svg>
