<svg width="501" height="256" viewBox="0 0 501 256" fill="none" xmlns="http://www.w3.org/2000/svg">
<g clip-path="url(#clip0_10426_91335)">
<path d="M152.05 132.228C155.013 133.253 158.15 133.332 160.019 139.26C161.888 145.187 159.638 162.482 153.803 163.032C147.969 163.582 133.353 158.457 135.375 146.61C137.398 134.763 152.05 132.228 152.05 132.228Z" fill="#E86B7B"/>
<path d="M88.9934 157.576C91.9604 158.606 95.0973 158.685 96.962 164.629C98.8267 170.573 96.5849 187.851 90.7462 188.401C84.9075 188.952 70.3004 183.826 72.3185 171.979C74.3366 160.133 88.9934 157.576 88.9934 157.576Z" fill="#E86B7B"/>
<path d="M214.987 110.594C217.967 111.62 221.087 111.686 222.939 117.646C224.792 123.607 222.558 140.869 216.723 141.419C210.889 141.969 196.274 136.844 198.296 124.997C200.318 113.15 214.987 110.594 214.987 110.594Z" fill="#E86B7B"/>
<path d="M256.451 173.836C259.405 174.862 319.296 184.736 321.149 190.693C323.001 196.649 264.021 204.12 258.199 204.666C252.377 205.212 237.749 200.095 239.767 188.244C241.785 176.393 256.451 173.836 256.451 173.836Z" fill="#FF9EAF"/>
<path d="M406.35 99.0239C428.918 99.0239 490.006 152.178 495.153 157.684C497.022 163.632 472.963 201.456 467.136 202.006C461.31 202.557 387.67 125.274 389.688 113.427C391.706 101.58 406.35 99.0239 406.35 99.0239Z" fill="#E86B7B"/>
<path d="M454.581 192.348C443.334 198.226 432.113 204.153 420.825 209.957C416.929 211.955 412.873 213.642 409.031 215.404C407.743 214.085 408.393 213.022 408.575 211.984C408.758 210.945 409.404 209.713 408.029 209.088C406.823 208.521 405.981 209.502 405.128 210.188C403.528 211.5 401.958 212.844 400.317 214.097C399.384 214.813 398.245 216.199 397.159 215.177C396.003 214.072 397.623 212.964 398.195 212.025C399.923 209.208 401.771 206.461 403.711 203.785C408.423 197.32 412.428 190.37 415.657 183.053C415.974 182.439 416.224 181.792 416.403 181.125C416.718 179.537 418.591 177.307 416.366 176.534C414.708 175.963 414.986 178.743 414.414 180.008C409.371 191.107 403.682 201.766 394.246 209.932C393.832 210.292 393.463 210.891 393.003 210.987C388.399 211.913 386.746 216.075 384.127 219.107C382.361 221.15 380.633 222.577 377.824 223.276C364.7 226.548 351.419 229.067 338.213 231.963C334.169 232.827 330.193 233.983 326.316 235.421C323.867 236.339 323.27 235.835 323.772 233.262C324.227 230.945 324.6 228.645 324.447 226.296C324.424 225.338 324.255 224.39 323.946 223.483C323.531 222.374 322.226 222.333 321.749 223.409C321.368 224.265 321.289 225.262 321.09 226.197C320.396 229.43 319.468 232.61 318.314 235.711C317.564 237.704 316.362 238.879 314.29 239.433C307.615 241.2 300.852 242.515 294.039 243.615C285.47 244.997 276.842 246.015 268.439 248.372C261.672 250.271 254.801 251.81 247.981 253.531C243.766 254.598 239.693 253.531 235.827 252.219C233.085 251.318 230.256 250.709 227.386 250.403C215.741 249.038 204.093 247.748 192.449 246.383C182.164 245.153 171.778 244.998 161.461 245.919C156.498 246.308 151.513 246.356 146.543 246.064C144.662 245.977 143.734 245.237 144.181 243.193C144.886 239.979 143.241 237.952 140.588 236.484C138.79 235.483 136.859 234.705 135.38 233.175C136.341 231.818 137.733 231.338 139.316 231.264C140.282 231.214 141.268 231.264 142.105 230.652C146.684 227.342 151.445 224.273 154.682 219.483C165.605 225.758 176.781 231.562 189.49 233.105C197.28 234.048 205.083 234.9 212.857 236.025C227.87 238.205 242.834 240.616 257.416 244.976C259.824 245.696 262.327 245.717 264.664 244.463C266.524 243.466 268.592 243.222 270.61 242.78C272.491 242.366 274.373 241.952 276.237 241.456C276.917 241.282 277.588 240.873 277.406 240.041C277.224 239.21 276.428 239.123 275.748 239.28C271.862 240.186 267.875 240.86 264.146 242.155C261.822 242.989 259.294 243.074 256.919 242.399C245.83 239.57 234.699 236.96 223.354 235.284C211.359 233.514 199.341 231.902 187.302 230.449C180.34 229.622 180.146 229.382 181.19 222.59C181.675 219.454 180.527 217.626 178.289 215.909C175.89 214.064 173.089 212.786 170.909 210.639C181.194 209.969 191.392 208.31 201.706 208.008C203.111 207.967 204.105 207.5 204.47 206.064C207.205 207.363 209.973 208.6 212.671 209.977C219.061 213.241 225.517 216.43 232.507 218.135C243.667 220.852 254.304 224.856 264.718 229.684C272.951 233.502 281.587 236.451 289.945 240.025C292.709 241.208 295.104 240.943 297.906 240.265C303.483 238.912 307.925 234.42 314.034 234.635C314.759 234.66 315.136 233.808 315.069 233.084C315.016 232.496 314.581 232.174 313.955 232.083C312.239 231.83 310.718 232.294 309.21 233.096C305.105 235.362 300.746 237.134 296.223 238.374C294.715 238.767 293.323 238.954 291.793 238.337C283.626 235.028 275.347 231.959 267.278 228.41C258.825 224.687 250.504 220.678 241.541 218.292C239.61 217.779 238.731 216.968 238.959 214.879C239.428 210.66 237.662 207.562 234.223 205.03C231.14 202.759 228.422 199.992 225.546 197.444C227.435 197.072 229.157 196.108 230.46 194.693C234.144 190.656 238.636 187.524 242.618 183.818C245.183 184.971 247.435 186.717 249.191 188.91C250.177 190.176 250.96 189.986 251.233 188.339C254.014 189.382 256.032 191.429 257.901 193.593C258.991 194.834 259.973 195.404 261.771 195.061C274.53 192.629 287.43 192.451 300.363 192.894C301.735 192.939 303.11 192.894 304.482 192.894C305.655 194.056 305.286 196.314 307.287 197.03C307.673 194.548 307.673 194.548 306.152 191.479C308.752 191.424 311.353 191.601 313.922 192.008C316.333 192.376 319.172 193.32 321.14 190.643C326.498 188.654 332.146 187.471 337.256 184.749C340.156 183.206 343.256 182.035 346.235 180.637C355.957 176.087 366.263 173.038 376.212 169.055C378.334 168.207 380.741 167.773 382.291 165.812C386.849 165.344 390.968 163.462 395.071 161.588C395.68 161.886 396.293 162.345 396.998 162.039C400.003 160.741 402.995 159.414 405.973 158.06C406.802 157.679 407.075 156.902 407.059 156.025C409.682 155.959 412.235 155.739 414.447 154.031C415.052 153.564 415.981 153.485 416.78 153.307C420.51 152.48 424.156 151.471 427.621 149.679C430.521 148.182 433.422 148.273 436.385 150.486C441.196 154.077 446.388 157.154 450.681 161.423C451.096 161.837 451.585 162.043 452.119 161.576C453.52 163.644 453.818 166.126 454.788 168.385C455.339 169.655 455.782 171.057 457.688 170.416C457.767 170.422 457.84 170.459 457.891 170.519C457.942 170.578 457.968 170.656 457.962 170.734L457.9 174.871C455.828 176.335 455.828 176.84 457.958 178.639C458.119 181.274 457.369 183.715 456.375 186.114C455.563 188.141 454.547 190.089 454.581 192.348ZM444.635 190.747C444.54 190.049 444.401 189.359 444.221 188.678C443.923 187.752 443.483 186.846 442.34 186.73C441.196 186.614 440.628 187.462 440.268 188.385C439.344 190.681 438.415 192.976 437.599 195.309C437.276 196.228 437.703 196.922 438.805 196.918C441.735 196.898 444.635 193.973 444.635 190.73V190.747ZM312.488 201.746C311.742 203.351 312.277 204.782 312.538 206.238C313.395 211.102 314.195 215.946 312.998 220.914C312.687 222.192 311.278 224.587 312.894 224.877C315.239 225.291 314.966 222.453 315.173 220.914C315.969 215.016 315.268 209.158 314.125 203.351C314 202.722 313.777 202.015 312.488 201.746Z" fill="url(#paint0_linear_10426_91335)"/>
<path d="M500.283 158.527C482.535 180.471 459.997 215.288 449.268 227.954C448.854 228.467 446.334 232.798 445.82 233.249C445.53 233.534 445.406 234.296 444.859 233.89C444.445 233.572 444.801 233.013 445.153 232.649C448.149 223.764 452.223 215.309 455.617 206.589C456.814 203.512 458.14 200.48 459.404 197.427C459.561 197.046 459.686 196.649 459.818 196.256C460.411 194.498 460.821 192.484 459.383 191.206C458.14 190.093 456.611 191.561 455.239 192.008C454.984 192.106 454.736 192.222 454.498 192.356C443.247 198.233 432.026 204.161 420.738 209.96C416.842 211.963 412.786 213.646 408.944 215.412C407.656 214.093 408.306 213.026 408.488 211.987C408.671 210.949 409.317 209.716 407.941 209.092C406.736 208.529 405.894 209.505 405.041 210.196C403.441 211.508 401.871 212.848 400.23 214.105C399.297 214.817 398.158 216.202 397.072 215.181C395.916 214.08 397.536 212.968 398.108 212.029C399.836 209.216 401.684 206.465 403.624 203.789C408.337 197.324 412.342 190.374 415.57 183.057C415.888 182.444 416.138 181.799 416.316 181.133C416.631 179.545 418.504 177.311 416.279 176.542C414.621 175.967 414.899 178.746 414.327 180.012C409.297 191.106 403.611 201.791 394.171 209.952C393.757 210.312 393.388 210.912 392.928 211.007C388.324 211.934 386.671 216.095 384.052 219.131C382.287 221.175 380.559 222.598 377.749 223.297C364.626 226.569 351.345 229.088 338.138 231.963C334.094 232.828 330.118 233.985 326.241 235.425C323.788 236.343 323.196 235.838 323.697 233.261C324.153 230.949 324.526 228.649 324.372 226.296C324.349 225.338 324.18 224.39 323.871 223.483C323.457 222.378 322.151 222.337 321.675 223.412C321.294 224.269 321.215 225.261 321.016 226.196C320.322 229.431 319.393 232.611 318.235 235.71C317.49 237.708 316.288 238.879 314.216 239.433C307.54 241.199 300.777 242.515 293.965 243.611C285.395 244.997 276.768 246.01 268.364 248.368C261.597 250.267 254.727 251.805 247.906 253.53C243.692 254.593 239.618 253.53 235.752 252.219C233.011 251.316 230.181 250.706 227.311 250.399C215.667 249.038 204.018 247.747 192.374 246.382C182.089 245.149 171.704 244.993 161.386 245.915C156.423 246.303 151.439 246.352 146.469 246.06C144.587 245.977 143.659 245.232 144.107 243.193C144.811 239.979 143.166 237.948 140.514 236.48C138.715 235.483 136.784 234.705 135.301 233.17C131.725 231.421 128.128 229.712 124.577 227.917C122.337 226.861 120.019 225.977 117.644 225.274C114.872 224.368 112.419 224.674 110.736 227.272C109.8 228.715 108.983 228.748 107.835 227.578C106.969 226.701 105.764 226.08 105.101 225.096C101.425 219.772 96.9247 215.106 93.2077 209.791C88.7074 203.371 83.4116 197.563 77.9873 191.901C77.1212 190.995 76.1516 190.324 76.5659 188.893C76.5328 187.652 76.501 186.411 76.4706 185.17C72.9359 186.825 72.5713 186.788 70.0642 184.194C67.8735 181.919 65.6856 179.639 63.5004 177.352L61.4036 177.456C62.5307 181.084 60.695 184.538 60.7903 188.107C60.637 188.55 60.7281 187.553 60.2682 187.644C59.2074 187.404 56.6547 186.3 55.5939 186.06C55.5939 186.647 55.3619 187.942 55.3494 188.542C55.7638 188.637 58.7018 189.46 59.0789 189.559C59.8704 189.319 68.0213 193.154 68.3155 193.241L69.1443 193.348C69.1443 193.348 72.5588 194.664 74.32 194.883C78.9735 195.466 81.5593 199.185 84.4144 202.432C90.4437 209.278 95.2713 217.038 101.089 224.037C103 226.341 105.171 228.426 107.226 230.61C107.84 230.875 108.283 231.259 108.225 232.004C114.026 238.651 122.314 240.823 129.98 244.111C131.493 244.761 133.324 244.045 134.667 245.295C135.014 245.237 135.369 245.264 135.703 245.375C136.036 245.485 136.338 245.675 136.581 245.927C138.74 247.474 141.305 247.47 143.779 247.818L145.25 247.958C152.498 248.496 159.754 247.702 166.989 247.805C167.079 247.721 167.195 247.671 167.318 247.665C167.441 247.658 167.562 247.694 167.66 247.768C177.469 246.668 187.169 247.723 196.841 249.257C198.172 249.083 199.525 249.212 200.799 249.634C202.311 249.596 203.832 249.472 205.266 250.118L205.593 249.981L205.879 250.205H205.929L208.253 250.461C210.004 250.374 211.757 250.586 213.437 251.086C214.205 250.916 215.005 250.978 215.737 251.263C219.943 251.747 224.195 251.847 228.351 252.732C229.121 252.538 229.934 252.603 230.663 252.918C234.298 253.919 237.87 255.073 241.632 255.714C243.919 256.161 246.28 256.066 248.523 255.437C256.732 253.03 265.099 251.189 273.386 249.084C280.705 247.226 288.304 246.469 295.801 245.319C306.881 243.615 317.701 240.972 328.16 236.889C335.921 233.861 344.184 232.811 352.269 231.098C365.488 228.298 378.707 225.563 391.677 221.716C393.513 221.117 395.399 220.679 397.313 220.409C403.429 219.719 409.135 217.7 414.646 215.135C416.644 214.205 417.812 214.519 419.267 216.066C425.694 222.891 432.258 229.588 438.743 236.36C441.051 238.771 440.624 238.54 442.153 239.181C453.777 232.318 507.808 144.14 500.283 158.527ZM142.213 241.671C142.238 244.5 141.455 245.158 138.898 244.418C132.429 242.535 126.027 240.442 119.728 238.027C116.935 236.951 114.797 235.102 112.754 233.063C111.855 232.153 111.03 231.284 111.573 229.841C112.141 228.322 113.065 227.189 114.727 226.904C116.231 226.635 117.783 226.846 119.161 227.508C125.986 230.759 132.897 233.841 139.283 237.944C140.821 238.937 142.424 239.801 142.213 241.663V241.671ZM385.627 220.889C387.935 217.969 388.797 214.271 393.152 214.713C391.884 217.874 390.351 220.744 385.627 220.889ZM399.38 217.58C401.332 215.855 403.023 214.469 405.182 213.34C405.401 217.187 404.941 217.522 399.38 217.58Z" fill="#2D1D2D"/>
<path d="M154.69 219.433C151.454 224.232 146.692 227.321 142.113 230.602C141.285 231.202 140.29 231.164 139.325 231.214C137.742 231.288 136.349 231.768 135.388 233.125C131.808 231.379 128.211 229.667 124.66 227.872C122.419 226.817 120.102 225.934 117.727 225.233C114.955 224.327 112.501 224.629 110.819 227.23C109.883 228.67 109.066 228.703 107.918 227.537C107.052 226.66 105.846 226.039 105.183 225.055C101.508 219.727 97.0076 215.061 93.2906 209.75C88.7903 203.33 83.4945 197.522 78.0702 191.859C77.2041 190.953 76.2345 190.279 76.6488 188.852C80.2416 189.398 83.4075 188.025 86.4988 186.531C92.1634 183.764 97.9027 181.113 103.373 177.998C106.381 176.285 110.073 175.226 111.714 171.64L113.036 170.871C114.996 172.798 116.26 175.421 118.837 176.744C123.64 182.924 128.821 188.801 134.352 194.341C137.986 198.014 141.193 202.292 146.058 204.608C147.302 205.204 147.662 206.42 148.201 207.504C150.177 211.599 151.893 215.81 154.69 219.433Z" fill="#E92E01"/>
<path d="M76.5535 185.141C73.0188 186.796 72.6542 186.759 70.1471 184.161C67.955 181.89 65.7712 179.611 63.5833 177.324C63.3595 176.339 62.6095 175.669 62.0625 174.9C59.6342 171.4 56.6423 168.327 54.6284 164.504C48.856 153.539 43.1955 142.519 37.7505 131.388C36.6938 129.22 36.5695 127.516 38.5005 125.894C39.3293 125.195 39.868 124.153 40.9537 123.731C43.9373 125.609 47.6502 125.179 50.7207 126.788C52.4139 128.756 53.749 131.004 54.6657 133.431C55.4364 135.321 56.087 137.266 56.8992 139.135C57.3716 140.219 57.8813 141.898 59.2529 141.53C61.0887 141.038 60.1356 139.251 59.974 138.031C59.7958 136.695 59.2861 135.4 58.9339 134.085C58.5402 132.641 58.1051 131.189 58.4366 129.667C63.6579 131.086 68.2119 133.878 72.7909 136.604C78.2276 139.843 83.1049 143.867 88.1812 147.611C90.8167 150.023 91.2808 152.918 90.1578 156.207C89.6493 157.629 89.234 159.082 88.9146 160.558C87.0209 169.878 83.511 178.366 76.5535 185.141ZM59.5347 160.91C59.5099 160.132 55.5898 155.264 54.7196 154.986C54.4632 154.924 54.1927 154.959 53.9612 155.086C53.78 155.188 53.6457 155.356 53.5869 155.555C53.5281 155.755 53.5494 155.969 53.6463 156.153C54.6864 158.267 56.2901 159.942 58.0098 161.506C58.2335 161.708 58.7888 161.638 59.1576 161.555C59.3234 161.51 59.4104 161.125 59.5347 160.91Z" fill="#FC5A33"/>
<path d="M76.5535 185.142C83.511 178.366 87.025 169.878 88.9022 160.559C89.2216 159.083 89.6369 157.629 90.1453 156.207C91.2683 152.918 90.8042 150.023 88.1687 147.611C87.3151 143.293 84.663 139.926 81.8286 136.856C76.5494 131.16 69.9565 127.235 62.8374 124.186C60.84 123.33 58.6935 122.788 56.9655 121.386C57.065 121.684 56.0663 121.684 56.7832 122.122C56.8371 121.857 56.8951 121.597 56.949 121.336C55.9461 124.372 57.2763 126.995 58.4283 129.651C58.1092 131.177 58.5278 132.625 58.9214 134.068C59.2737 135.384 59.7834 136.678 59.9615 138.015C60.1231 139.235 61.0762 141.022 59.2405 141.514C57.8689 141.882 57.3592 140.203 56.8868 139.119C56.058 137.249 55.424 135.305 54.6533 133.415C53.7366 130.988 52.4014 128.739 50.7083 126.772C50.7378 126.505 50.7224 126.235 50.6627 125.973C47.5176 118.983 46.6059 118.565 40.9413 123.715C39.8556 124.128 39.321 125.179 38.4881 125.878C36.5571 127.5 36.6814 129.187 37.7381 131.371C43.1831 142.503 48.8436 153.522 54.616 164.488C56.6299 168.31 59.6217 171.384 62.05 174.883C62.597 175.669 63.3471 176.323 63.5708 177.307L61.474 177.407L59.4021 175.752C55.6146 170.412 51.8562 165.055 49.0425 159.098C47.7496 156.372 46.1418 153.721 45.2384 150.892C43.8502 146.594 40.7258 145.1 36.6938 144.302C24.4487 141.928 14.0187 146.569 4.05684 152.894C2.10094 154.135 1.57053 156.112 2.36615 158.341C2.09679 159.785 2.32056 161.063 3.6466 161.928C6.26137 163.632 8.78497 165.56 12.1332 165.572C13.0407 166.9 14.5449 167.417 15.8917 167.93C21.9956 170.259 27.3494 173.866 32.4256 177.804C37.7327 181.941 43.8891 184.857 50.4555 186.345C52.5855 186.842 54.6657 187.549 56.7666 188.157L56.7293 189.911C46.9416 188.385 37.7298 185.518 30.0512 178.867C28.1989 177.258 26.2264 175.723 23.8354 174.896L22.7912 174.184C21.0591 172.294 18.5893 171.533 16.3558 170.875C13.2189 169.961 10.5088 168.199 7.38849 167.247C0.596721 165.179 -1.39647 160.385 0.932373 152.989V152.914L4.73228 149.667C8.09709 148.075 11.4205 146.395 14.835 144.914C22.2483 141.704 29.9103 140.683 37.8624 142.61C38.6124 142.792 39.437 143.256 40.2658 142.337C39.3933 139.633 38.2998 137.004 36.9963 134.478C33.3456 127.557 33.5072 126.97 39.7064 121.882C40.2368 121.444 40.8211 121.055 41.3639 120.641C45.2716 117.56 49.577 116.881 54.2099 118.631C57.6907 119.946 61.0845 121.485 64.5695 122.788C70.0808 124.856 74.7717 128.286 79.3713 131.748C85.844 136.621 89.3166 143.777 92.7228 150.867C93.0531 151.625 93.1441 152.467 92.9839 153.278C92.5446 155.4 93.6842 156.219 95.4163 156.885C98.0684 157.907 100.476 159.516 101.441 162.226C102.593 165.469 104.545 166.424 107.711 165.605C110.326 164.931 112.195 165.907 113.695 168.124C115.183 170.446 116.985 172.552 119.049 174.383L118.837 176.757C116.272 175.425 115.008 172.811 113.036 170.883C112.746 170.14 112.187 169.533 111.47 169.183C109.331 167.264 109.331 167.264 105.751 168.215C107.67 169.336 109.642 168.918 111.49 169.154L111.702 171.682C110.044 175.268 106.364 176.327 103.356 178.039C97.8861 181.154 92.1468 183.806 86.4822 186.573C83.3909 188.079 80.225 189.44 76.6322 188.894C76.6101 187.633 76.5839 186.383 76.5535 185.142ZM89.1343 182.312C92.2629 181.626 94.5627 178.97 97.8363 178.656C100.737 177.415 101.765 174.974 101.674 172.116C101.516 167.065 100.575 162.238 95.6774 159.409C92.7021 157.688 92.2131 157.973 91.2683 161.316C90.9078 162.59 90.1744 163.661 92.1717 164.579C97.8902 167.206 99.0712 170.056 97.5587 176.455C97.3639 177.282 97.1443 178.052 97.8778 178.672C94.9149 178.126 94.9191 178.13 95.4826 175.471C95.8891 173.589 95.7673 171.633 95.1304 169.816C94.5378 168.066 93.2284 167.239 91.5626 166.763C90.6633 166.507 89.8801 166.623 89.5404 167.562C89.2296 168.422 88.7654 169.415 90.0583 169.994C90.4416 170.143 90.8005 170.348 91.1233 170.602C91.9462 171.33 92.509 172.305 92.7266 173.381C92.9442 174.456 92.8047 175.573 92.3292 176.563C91.4714 178.242 90.1371 178.652 87.3565 177.824C86.5278 177.576 85.8813 177.167 85.2846 178.106C84.4558 179.347 84.8702 180.277 86.5278 180.786C87.5347 181.1 89.2461 180.24 89.1964 182.354C88.9975 182.49 88.2516 182.283 88.8525 182.912L89.1343 182.312ZM49.5688 119.603C51.765 122.627 52.0551 125.866 54.819 127.83C54.9806 122.523 54.0151 120.786 49.5688 119.603ZM87.3856 183.599C86.2584 182.478 84.6465 182.49 83.3784 181.729C82.4875 181.196 81.924 182.056 81.406 182.647C80.888 183.239 80.5772 184.004 81.1159 184.832C81.6049 185.572 82.2057 186.023 83.1298 185.787C84.7003 185.394 86.2418 184.923 87.3856 183.599ZM90.6426 174.176C90.5639 173.191 90.2282 172.302 89.068 172.207C87.9077 172.112 87.3565 172.923 87.1908 173.936C86.996 175.123 87.8124 175.715 88.7986 175.876C89.9506 176.058 90.4934 175.293 90.6426 174.176Z" fill="#2D1D2D"/>
<path d="M496.922 157.403C496.873 161.692 496.885 161.701 494.022 166.644C492.24 169.729 490.421 172.79 488.635 175.864C488.22 175.835 487.727 175.955 487.441 175.756C482.698 172.544 477.971 169.303 473.261 166.036C472.635 165.601 471.728 165.295 472.043 164.207C475.416 162.937 476.24 160.323 473.887 158.362C473.586 158.081 473.219 157.881 472.819 157.782C472.419 157.682 472.001 157.687 471.603 157.796C470.725 158.06 470.36 158.751 470.36 159.678C470.36 160.604 470.742 161.564 470.327 162.499C468.131 162.606 468.143 160.782 467.841 159.454C465.616 149.477 462.549 139.806 457.672 130.768C457.328 130.131 456.599 129.386 457.987 128.484C462.831 132.348 467.725 136.323 472.697 140.195C480.185 146.023 487.292 152.34 495.157 157.684C495.791 158.098 496.4 158.379 496.914 157.51L496.922 157.403Z" fill="#E86B7B"/>
<path d="M457.974 170.784C462.458 173.679 466.552 176.939 468.914 181.907C468.085 182.883 468.409 183.458 469.449 184.083C472.552 185.94 475.59 187.901 478.656 189.82C478.893 190.879 478.292 191.652 477.745 192.442C468.305 206.093 458.157 219.206 447.428 231.872C446.952 232.36 446.439 232.812 445.895 233.224L445.228 232.629C448.224 223.743 452.297 215.292 455.691 206.569C456.889 203.487 458.215 200.459 459.479 197.406C459.636 197.022 459.76 196.624 459.893 196.236C460.486 194.473 460.896 192.459 459.479 191.185C458.235 190.072 456.706 191.537 455.335 191.983C455.081 192.085 454.833 192.201 454.593 192.331C454.593 190.089 455.588 188.14 456.412 186.151C457.407 183.752 458.157 181.311 457.995 178.676C459.28 177.402 458.633 176.153 457.937 174.908L457.974 170.784Z" fill="#4E1932"/>
<path d="M56.7708 188.157C54.6698 187.549 52.5896 186.842 50.4597 186.346C43.8932 184.857 37.7368 181.941 32.4298 177.804C27.3494 173.866 21.9956 170.259 15.8917 167.942C14.5449 167.429 13.0407 166.912 12.1332 165.584C16.4428 164.302 20.8601 165.105 25.2236 165.001C31.9118 164.844 38.2809 166.432 44.3806 169.138C49.3975 171.344 54.4115 173.564 59.4228 175.797L61.4948 177.452C62.6219 181.08 60.7862 184.538 60.8815 188.108L59.9615 188.906L56.7708 188.157Z" fill="#4E1932"/>
<path d="M495.153 157.684C487.28 152.339 480.181 146.023 472.693 140.195C467.721 136.323 462.827 132.335 457.983 128.484C456.594 129.386 457.324 130.139 457.668 130.768C462.545 139.806 465.611 149.477 467.837 159.454C468.135 160.782 468.123 162.606 470.323 162.499L470.381 162.569C470.095 163.913 470.601 164.468 471.972 164.157L472.047 164.207C471.732 165.295 472.639 165.601 473.265 166.035C477.981 169.295 482.708 172.535 487.445 175.756C487.731 175.955 488.233 175.835 488.639 175.864C488.621 176.222 488.492 176.566 488.269 176.848C488.046 177.13 487.741 177.335 487.396 177.436C486.726 176.905 485.908 176.594 485.054 176.546L483.969 175.744C483.821 175.499 483.616 175.294 483.371 175.146C483.127 174.999 482.849 174.913 482.564 174.896C479.071 172.492 475.598 170.064 472.084 167.69C470.261 166.449 468.471 165.208 467.157 163.4L466.295 162.135C463.656 148.976 459.35 136.459 452.073 125.072C450.922 123.356 449.433 121.893 447.698 120.77C440.541 115.901 433.298 111.161 426.021 106.474C424.073 105.233 421.877 104.319 419.83 103.235C415.156 100.778 410.299 99.9671 405.07 101.204C402.534 101.804 399.944 102.159 397.499 103.115C397.026 102.671 396.731 102.069 396.67 101.423C403.856 98.4201 411.095 97.2081 418.633 100.319C423.891 102.486 428.578 105.609 433.36 108.592C449.521 118.619 464.128 130.763 478.905 142.66C484.793 147.396 490.715 152.091 496.62 156.803C496.321 156.814 496.03 156.901 495.773 157.055C495.517 157.209 495.303 157.426 495.153 157.684Z" fill="#2D1D2D"/>
<path d="M142.287 241.642C142.312 244.468 141.529 245.125 138.972 244.385C132.504 242.507 126.102 240.414 119.803 237.994C117.01 236.923 114.872 235.069 112.829 233.03C111.93 232.12 111.105 231.247 111.648 229.808C112.216 228.29 113.14 227.156 114.801 226.871C116.31 226.612 117.861 226.835 119.235 227.508C126.06 230.755 132.972 233.837 139.358 237.944C140.891 238.912 142.499 239.781 142.287 241.642ZM138.744 240.939C138.106 239.624 136.673 239.049 135.351 238.627C130.942 237.237 127.109 234.805 123.28 232.335C121.775 231.363 120.234 230.449 118.721 229.51C117.283 228.625 116.003 228.501 114.578 230.71C117.507 230.515 119.364 231.909 121.299 233.105C123.418 234.404 125.506 235.746 127.564 237.134C130.585 239.156 134.253 239.706 137.385 241.473C137.696 241.667 138.152 241.692 138.744 240.939Z" fill="#855988"/>
<path d="M478.656 189.82C475.59 187.901 472.552 185.94 469.449 184.083C468.409 183.458 468.081 182.883 468.914 181.907L470.874 182.399C471.02 182.636 471.22 182.836 471.459 182.98C471.698 183.124 471.968 183.208 472.246 183.226C474.172 184.809 476.274 186.165 478.511 187.268C478.548 187.538 478.602 187.806 478.673 188.07L478.656 189.82Z" fill="#2D1D2D"/>
<path d="M393.252 214.635C391.979 217.824 390.454 220.72 385.71 220.84C388.03 217.907 388.884 214.221 393.301 214.672L393.252 214.635Z" fill="#855988"/>
<path d="M405.24 213.332C405.476 217.167 405.016 217.502 399.438 217.568C401.407 215.847 403.097 214.457 405.24 213.332Z" fill="#855988"/>
<path d="M482.009 185.316C482.009 184.41 481.959 183.5 482.05 182.606C482.17 181.365 482.908 180.79 484.18 181.001C484.002 182.697 483.546 184.269 482.009 185.316Z" fill="#9A1C6A"/>
<path d="M485.034 176.546C485.887 176.594 486.705 176.905 487.375 177.435C486.857 178.527 486.364 179.64 485.257 180.302L485.034 176.546Z" fill="#9A1C6A"/>
<path d="M445.878 233.224C445.588 233.51 445.464 234.275 444.917 233.865C444.503 233.551 444.859 232.993 445.211 232.625L445.878 233.224Z" fill="#9A1C6A"/>
<path d="M478.673 188.074C478.602 187.811 478.548 187.543 478.511 187.272L480.712 187.392C480.293 188.41 479.502 188.298 478.673 188.074Z" fill="#9A1C6A"/>
<path d="M499.119 157.576V157.253L499.405 157.092C499.353 157.275 499.254 157.442 499.119 157.576Z" fill="#2D1D2D"/>
<path d="M59.9532 188.877L60.8732 188.079C60.8096 188.284 60.6897 188.468 60.5272 188.609C60.3646 188.75 60.1659 188.843 59.9532 188.877Z" fill="#2D1D2D"/>
<path d="M394.13 213.837L394.267 213.622L394.093 213.8L394.13 213.837Z" fill="#353481"/>
<path d="M393.293 214.684L394.122 213.857L394.085 213.82L393.256 214.647L393.293 214.684Z" fill="#353481"/>
<path d="M135.736 46.6723C135.322 47.3507 135.003 47.9133 134.34 48.0705C127.353 41.1667 119.757 31.3756 115.075 22.7509C113.55 19.9423 113.695 17.2908 114.938 14.4779C116.571 10.6824 118.91 7.22965 121.829 4.30213C123.271 2.82132 125.019 1.67223 126.951 0.934952C128.884 0.197677 130.954 -0.110039 133.018 0.0332554C136.453 0.27502 139.87 0.718392 143.253 1.36107C145.944 1.89131 148.574 2.6938 151.101 3.75611C160.665 7.6527 173.064 13.5389 182.354 18.0105C181.973 19.4293 181.861 19.5245 180.718 19.6651C180.34 19.2763 175.849 17.2866 175.393 17.0591C166.052 12.4069 156.533 8.15735 146.833 4.3104C145.035 3.59892 143.17 3.13563 141.222 3.7892C138.533 2.16356 135.446 1.82436 132.479 1.72095C130.751 1.63616 129.025 1.92157 127.417 2.558C125.809 3.19443 124.356 4.16712 123.155 5.41071C120.304 8.41795 118.249 12.0291 116.562 15.814C115.572 18.056 115.638 20.0705 117.391 21.8988C117.449 23.6486 118.659 24.844 119.492 26.2215C123.657 33.1253 130.212 40.8233 135.736 46.6723Z" fill="#2D1D2D"/>
<path d="M182.354 18.0104C184.899 20.0166 185.607 22.5606 184.969 25.7167C184.459 28.2566 186.038 29.9567 188.284 29.0673C191.131 27.938 193.079 29.1707 195.117 30.635C204.527 37.3913 213.928 44.1573 223.32 50.9329C230.141 55.8636 236.939 60.8274 243.712 65.8243C245.465 67.1641 247.484 68.1146 249.634 68.6123C253.135 69.3941 256.591 70.3744 260.105 71.0942C272.665 73.6299 284.923 77.6175 297.661 79.421C300.235 79.8279 302.867 79.6769 305.377 78.9784C309.479 77.8326 313.752 77.2907 317.954 76.4965C319.305 76.2359 320.651 75.9463 321.998 75.6692C323.111 75.9073 324.269 75.8197 325.334 75.4169L337.591 75.4872C350.118 77.2286 362.007 81.0714 373.349 86.5565C381.06 90.2793 387.985 95.2431 394.288 101.059C394.288 101.473 394.453 101.675 394.888 101.473L396.633 101.448C396.694 102.094 396.988 102.695 397.462 103.14C397.743 104.513 398.804 104.579 399.948 104.794C404.092 105.622 408.377 105.845 412.168 107.988L411.223 109.171C407.295 108.451 403.35 107.864 399.442 106.983C392.336 105.369 385.175 106.077 378.023 106.254C370.698 106.493 363.447 107.805 356.504 110.147C343.364 114.453 331.019 120.53 319.164 127.611C318.335 128.104 317.506 128.575 316.623 128.985C316.533 129.033 316.433 129.064 316.331 129.074C316.228 129.084 316.125 129.073 316.026 129.043C315.928 129.012 315.837 128.962 315.758 128.896C315.679 128.83 315.614 128.749 315.567 128.658C315.501 128.476 315.478 128.28 315.501 128.088C315.524 127.895 315.592 127.711 315.699 127.549C316.661 126.768 317.679 126.059 318.745 125.427C332.751 117.303 347.126 110.031 363.001 106.168C364.63 105.754 365.658 104.951 366.209 103.334C367.63 99.1645 369.109 95.0115 370.647 90.875C371.339 89.0053 370.974 87.7933 369.043 86.9081C357.146 81.4396 344.839 77.6216 331.616 77.3941C324.675 77.2741 317.879 78.4655 311.083 79.6857C305.257 80.7323 300.409 82.9949 296.546 87.9091C289.742 96.5958 282.652 105.038 276.092 113.907C272.156 119.227 268.157 124.496 263.773 129.469C262.372 131.057 260.793 132.6 259.853 135.111C268.227 134.904 276.146 133.042 284.14 134.283C281.488 136.116 278.479 135.806 275.583 135.938C261.469 136.616 247.574 138.598 234.032 142.734C230.788 143.727 230.601 143.975 231.5 147.442C233.842 156.509 236.179 165.576 237.302 174.896C237.379 175.647 237.612 176.374 237.986 177.031C238.359 177.687 238.866 178.259 239.473 178.71C241.545 180.364 243.654 181.837 246.41 182.114C249.7 182.445 252.978 182.92 256.272 183.235C270.83 184.629 285.342 186.391 299.758 188.889C302.103 189.303 304.316 189.986 306.189 191.508C307.71 194.573 307.71 194.573 307.325 197.059C305.323 196.343 305.692 194.085 304.519 192.923C302.613 191.475 300.375 190.854 298.084 190.482C282.586 187.882 267.006 185.932 251.345 184.633C250.566 184.567 249.709 184.269 248.95 185.282L251.271 188.356C250.997 190.01 250.214 190.192 249.228 188.927C247.473 186.732 245.218 184.988 242.652 183.839C239.622 183.967 236.597 184.087 233.572 184.252C232.503 184.306 231.123 184.927 230.576 183.69C229.934 182.238 231.583 181.659 232.325 180.765C232.603 180.456 232.936 180.201 233.307 180.012C234.99 179.098 235.408 177.733 235.217 175.876C234.057 164.583 231.103 153.7 227.879 142.863C226.984 139.851 224.953 138.234 222.015 137.737C214.73 136.496 207.47 135.715 200.824 140.182C200.279 140.617 199.631 140.902 198.942 141.009C196.369 141.113 195.979 142.304 196.29 144.732C197.67 155.388 199.357 165.994 201.109 176.583C201.909 181.411 202.469 186.3 203.84 191.16C207.756 187.549 207.715 187.702 213.035 189.597C217.851 191.313 221.51 194.701 225.583 197.506C228.459 200.054 231.177 202.821 234.26 205.092C237.7 207.624 239.465 210.722 238.997 214.941C238.769 217.03 239.647 217.837 241.578 218.354C250.541 220.741 258.862 224.757 267.316 228.472C275.384 232.013 283.663 235.09 291.831 238.399C293.343 239.016 294.731 238.813 296.261 238.436C300.783 237.196 305.143 235.424 309.247 233.158C310.756 232.356 312.277 231.893 313.992 232.145C314.618 232.236 315.053 232.559 315.107 233.146C315.173 233.886 314.796 234.722 314.071 234.697C307.963 234.482 303.521 238.974 297.943 240.327C295.142 241.005 292.747 241.27 289.983 240.087C281.624 236.517 272.993 233.568 264.755 229.746C254.341 224.918 243.704 220.914 232.545 218.197C225.546 216.492 219.098 213.303 212.708 210.039C210.01 208.662 207.242 207.425 204.507 206.126C203.671 205.023 203.18 203.698 203.094 202.317C203.024 199.591 201.437 198.312 199.249 197.08C195.441 194.912 191.757 192.53 188.135 190.048C185.893 188.517 183.664 186.879 182.412 184.319C183.299 183.078 185.089 183.64 186.026 182.507L187.153 182.068C187.409 182.091 187.667 182.046 187.901 181.939C188.135 181.831 188.337 181.665 188.487 181.456C190.75 180.099 193.294 179.429 195.731 178.503C199.083 177.225 199.116 177.262 198.607 173.791C197.019 163.036 195.018 152.343 194.119 141.493C193.845 138.226 193.704 134.941 193.452 131.669C193.311 129.919 193.327 128.207 192.113 126.602C190.94 125.059 191.678 123.152 192.308 121.46C194.72 114.983 197.973 108.923 201.532 103.016C203.505 99.7478 203.525 99.7271 200.944 97.1376C193.246 89.425 184.788 82.5068 175.699 76.4882C172.687 74.4861 170.122 71.9794 167.59 69.4561C166.792 68.6881 166.165 67.7605 165.751 66.7341C165.337 65.7076 165.144 64.6054 165.186 63.4996C165.51 61.8739 164.536 61.1707 163.201 60.7281C162.203 58.1014 161.291 60.2607 160.355 60.7778L157.819 60.8233C156.418 59.4706 156.696 57.7498 156.99 56.1573C157.955 50.9618 160.027 46.1676 162.642 41.6051C163.106 40.7778 163.686 39.9505 165.099 39.8222C165.215 41.6671 166.471 42.7178 167.892 43.8098C170.3 45.6423 172.525 47.7147 174.817 49.6961C177.941 52.3972 181.115 55.0487 184.157 57.845C185.848 59.3962 186.751 58.3248 187.841 57.1625C189.084 55.8305 188.84 54.8005 187.46 53.7581C185.698 52.4303 184.016 50.9991 182.284 49.6216C177.668 45.9007 173.33 41.8486 169.305 37.4975C167.407 35.4996 167.573 35.1356 169.682 33.2535C173.283 30.0394 176.884 26.8501 181.057 24.3517C183.544 22.8584 183.544 21.9525 181.364 20.0084C180.917 19.6902 180.434 19.425 179.926 19.2183C180.295 17.9732 181.227 17.7871 182.354 18.0104ZM223.693 125.787C223.395 125.589 223.059 125.452 222.815 125.787C222.728 125.915 222.848 126.201 222.873 126.395C223.482 129.179 223.47 131.826 221.534 134.209C220.519 135.45 221.534 135.843 222.575 136.07C223.714 136.319 224.348 135.715 224.883 134.801C226.474 132.087 226.031 128.587 223.693 125.787ZM204.706 198.73C204.396 202.271 205.635 204.629 209.182 206.077C213.5 207.835 217.54 210.259 221.771 212.244C225.779 214.075 229.939 215.557 234.202 216.674C236.055 217.179 236.751 216.472 236.95 214.776C237.277 211.996 236.573 209.63 234.385 207.744C230.539 204.434 226.663 201.175 222.757 197.965C219.291 195.052 215.448 192.617 211.332 190.726C208.129 189.287 207.45 189.663 205.804 193.175C204.354 194.829 203.811 196.637 204.706 198.73ZM195.764 117.911C194.682 119.682 194.156 121.671 193.729 123.653C193.269 125.799 194.102 126.523 196.216 125.688C199.862 124.248 203.674 123.975 207.495 123.384C211.685 122.73 215.712 124.004 219.844 123.83C223.461 123.682 226.772 122.697 229.163 120.066C233.966 114.784 236.933 108.658 235.793 101.278C234.509 93.1045 230.862 85.8781 226.263 79.1025C225.322 77.725 224.124 76.5047 222.119 77.2617C220.171 76.1118 218.63 77.117 217.362 78.391C216.037 79.7822 215.005 81.4234 214.324 83.2183C212.51 87.6454 210.35 91.9234 207.864 96.0125C203.546 103.152 199.158 110.263 195.764 117.911ZM209.107 89.6506C210.831 86.2173 212.422 82.7136 214.312 79.3755C216.773 75.0073 220.055 73.6712 224.158 74.9784C226.283 75.6568 227.547 77.299 228.683 79.0073C231.445 83.2701 233.769 87.8005 235.619 92.5296C238.595 99.8388 239.274 107.136 235.702 114.453C233.589 117.282 232.238 120.699 229.172 122.805C228.277 123.421 228.596 124.199 229.134 124.931C231.902 128.72 233.788 132.989 235.677 137.237C236.415 138.892 237.277 139.644 239.129 139.102C244.011 137.671 249.017 136.798 254.047 136.062C255.705 135.814 256.364 134.999 256.471 133.361C256.612 131.181 256.964 129.014 257.225 126.842C258.647 118.155 260.126 109.469 261.461 100.749C261.933 97.6506 263.064 95.5989 266.325 94.391C273.175 91.8595 279.838 88.8233 286.564 85.9567C289.651 84.6413 292.697 83.2473 295.763 81.8863C293.393 80.6454 291.346 81.5554 289.332 82.0808C281.736 84.0539 273.842 84.9143 266.578 88.1159C264.56 89.0053 262.575 89.9732 260.57 90.8957C259.907 91.2018 259.165 91.33 258.771 90.5813C258.377 89.8326 259.049 89.3403 259.6 88.9267C260.059 88.6271 260.534 88.351 261.021 88.0994C265.896 85.2265 270.978 82.7198 276.225 80.5999C277.53 80.0539 279.035 79.7726 279.955 78.5068C279.196 77.6795 278.334 77.6795 277.551 77.4231C267.78 74.4406 257.661 72.8729 247.823 70.1345C246.359 69.763 244.976 69.1234 243.746 68.2483C229.714 57.998 215.667 47.7712 201.603 37.5678C198.702 35.4623 195.722 33.4644 192.747 31.4665C191.811 30.8377 190.41 30.2255 189.809 31.3589C189.088 32.7488 190.638 33.3817 191.657 34.0187C191.903 34.1484 192.181 34.2031 192.457 34.1759C194.073 34.0683 194.612 35.1852 194.981 36.4137C196.854 42.6723 196.224 48.6537 192.805 54.2586C190.398 58.2007 186.801 61.026 183.365 63.996C180.432 65.1418 177.564 66.4779 174.539 67.3589C172.795 67.8801 170.694 68.2938 169.886 65.5513C169.641 64.724 168.729 64.029 167.354 64.5544C167.354 66.2752 168.265 67.5492 169.455 68.6909C171.837 70.966 174.249 73.1914 177.021 75.0239C182.632 78.7348 188.001 82.7981 193.095 87.1893C196.327 89.9649 199.506 92.7819 202.489 95.8222C204.192 97.5596 204.491 97.4768 205.858 95.3755C207.027 93.5099 208.021 91.5534 209.107 89.6506ZM204.226 126.424C202.506 125.882 201.325 126.172 200.115 126.482C195.142 127.76 194.43 128.906 195.524 133.886C196.593 138.738 198.196 139.429 202.502 136.889C202.854 136.678 203.219 136.476 203.579 136.29C203.771 136.211 203.944 136.093 204.087 135.943C204.23 135.793 204.339 135.614 204.408 135.419C204.477 135.223 204.504 135.016 204.487 134.809C204.469 134.603 204.409 134.403 204.309 134.221C203.148 131.686 203.583 129.129 204.226 126.424ZM227.017 126.01C227.307 129.44 228.231 132.798 226.312 135.984C225.985 136.53 226.292 137.096 226.685 137.46C227.795 138.474 228.741 139.653 229.491 140.956C230.435 142.61 231.608 141.369 232.694 141.109C233.937 140.786 234.675 140.029 234.14 138.718C232.28 134.209 230.261 129.791 227.004 126.002L227.017 126.01ZM216.537 125.717C214.121 125.609 213.006 126.623 212.899 129.026C212.791 131.429 215.008 133.907 217.407 134.135C219.628 134.35 221.655 132.178 221.659 129.584C221.655 126.825 220.391 125.874 216.525 125.708L216.537 125.717ZM211.751 125.373C209.592 125.584 207.756 124.782 206.575 126.813C205.543 128.587 205.51 132.997 206.82 134.259C208.647 136.017 210.773 134.763 213.359 134.801C211.117 131.723 210.122 128.885 211.751 125.373ZM287.36 79.8346C284.078 78.7095 281.384 80.058 278.131 82.1718C281.915 82.4034 284.65 81.27 287.36 79.8346Z" fill="#2D1D2D"/>
<path d="M495.153 157.684C495.299 157.428 495.505 157.213 495.755 157.057C496.005 156.901 496.289 156.809 496.583 156.79C496.69 157.03 496.798 157.27 496.91 157.51C496.405 158.378 495.787 158.093 495.153 157.684Z" fill="#2D1D2D"/>
<path d="M394.909 101.448C394.474 101.659 394.329 101.448 394.308 101.034C394.439 101.034 394.566 101.073 394.674 101.147C394.781 101.221 394.863 101.326 394.909 101.448Z" fill="#2D1D2D"/>
<path d="M306.177 191.52C304.295 189.998 302.091 189.307 299.745 188.902C285.329 186.42 270.817 184.641 256.26 183.247C252.966 182.933 249.688 182.457 246.398 182.126C243.642 181.849 241.537 180.376 239.461 178.722C238.854 178.271 238.347 177.7 237.973 177.043C237.599 176.386 237.366 175.659 237.289 174.908C236.158 165.588 233.821 156.521 231.488 147.454C230.589 143.988 230.775 143.731 234.02 142.747C247.562 138.61 261.456 136.629 275.57 135.95C278.471 135.81 281.475 136.12 284.127 134.296C276.134 133.055 268.215 134.916 259.84 135.123C260.781 132.612 262.36 131.069 263.76 129.481C268.144 124.517 272.143 119.239 276.08 113.919C282.64 105.051 289.73 96.5957 296.534 87.9214C300.396 82.9949 305.236 80.7446 311.071 79.6981C317.867 78.4571 324.662 77.2865 331.603 77.4064C344.826 77.6298 357.134 81.4478 369.031 86.9204C370.962 87.8056 371.326 89.0176 370.634 90.8873C369.109 95.0238 367.618 99.1603 366.196 103.346C365.645 104.964 364.618 105.783 362.989 106.18C347.126 110.031 332.751 117.303 318.757 125.415C317.692 126.047 316.674 126.756 315.712 127.537C315.604 127.698 315.537 127.883 315.514 128.075C315.491 128.268 315.513 128.463 315.579 128.645C315.626 128.737 315.691 128.818 315.77 128.884C315.849 128.95 315.94 129 316.039 129.03C316.137 129.061 316.241 129.071 316.343 129.061C316.446 129.051 316.545 129.021 316.636 128.972C317.506 128.558 318.351 128.091 319.176 127.599C331.032 120.517 343.376 114.441 356.516 110.134C363.46 107.792 370.71 106.481 378.035 106.242C385.188 106.064 392.348 105.357 399.455 106.97C403.35 107.851 407.307 108.438 411.236 109.154C413.204 110.784 415.678 111.297 417.982 112.165C423.038 114.081 427.952 116.215 431.396 120.637C432.747 122.369 434.033 124.152 435.254 125.986C439.679 132.641 442.849 139.963 446.301 147.127C448.564 151.818 450.814 156.546 452.144 161.626C451.609 162.093 451.129 161.89 450.706 161.473C446.413 157.204 441.221 154.126 436.41 150.536C433.447 148.323 430.546 148.232 427.646 149.741C424.181 151.533 420.547 152.538 416.805 153.369C416.005 153.547 415.077 153.626 414.472 154.093C412.259 155.801 409.707 156.021 407.088 156.087C402.704 156.223 399.165 158.569 395.485 160.542C395.232 160.678 395.22 161.27 395.096 161.65C390.993 163.524 386.891 165.406 382.316 165.874C381.425 164.889 380.364 164.985 379.307 165.489C371.107 169.415 362.318 171.785 353.897 175.14C342.572 179.648 331.898 185.849 319.798 188.376C319.201 188.501 318.811 188.823 318.853 189.477C318.894 190.13 319.396 190.374 319.943 190.507C320.357 190.606 320.771 190.647 321.165 190.714C319.197 193.39 316.358 192.447 313.946 192.079C311.378 191.662 308.778 191.475 306.177 191.52ZM296.919 101.162C297.048 101.133 297.243 101.162 297.301 101.071C299 98.7467 301.304 97.0548 303.45 95.2017C303.498 95.0865 303.517 94.9613 303.505 94.8371C303.493 94.7129 303.45 94.5937 303.38 94.4902C303.061 94.2958 302.551 94.0517 302.29 94.1717C299.542 95.3465 297.698 97.5181 296.211 100C295.929 100.472 296.207 101.063 296.919 101.162Z" fill="#E92E01"/>
<path d="M182.396 184.281C183.639 186.838 185.881 188.476 188.123 190.006C191.744 192.488 195.428 194.875 199.236 197.038C201.408 198.279 203.011 199.549 203.082 202.275C203.167 203.656 203.659 204.981 204.495 206.085C204.13 207.52 203.136 207.988 201.731 208.029C191.417 208.331 181.219 209.99 170.938 210.66C169.695 210.383 168.767 209.501 167.698 208.893C162.265 205.82 156.89 204.811 151.748 209.501C150.144 207.872 149.676 205.803 148.785 203.971C144.857 195.963 141.803 187.537 137.298 179.801C136.639 176.819 135.131 174.23 133.623 171.611C131.315 167.59 128.567 163.797 127.092 159.33L127.544 158.974C129.989 160.161 132.616 160.943 135.003 159.342C138.293 157.15 141.919 156.993 145.627 156.699C151.524 156.236 157.425 155.491 162.94 153.249C165.742 152.112 165.994 151.533 167.631 154.904C171.112 162.06 175.244 168.889 178.281 176.273C179.429 179.036 180.166 182.056 182.396 184.281Z" fill="#E92E01"/>
<path d="M225.571 197.473C221.497 194.668 217.838 191.268 213.023 189.564C207.702 187.669 207.744 187.516 203.828 191.127C202.456 186.267 201.897 181.378 201.097 176.55C199.344 165.953 197.658 155.347 196.278 144.699C195.967 142.288 196.356 141.096 198.93 140.976C199.618 140.869 200.267 140.584 200.811 140.149C207.441 135.682 214.718 136.48 222.003 137.704C224.941 138.201 226.975 139.818 227.866 142.83C231.09 153.667 234.045 164.55 235.205 175.843C235.396 177.717 234.977 179.082 233.295 179.979C232.924 180.168 232.591 180.423 232.313 180.732C231.571 181.626 229.922 182.205 230.564 183.657C231.111 184.898 232.491 184.273 233.56 184.219C236.585 184.07 239.61 183.95 242.639 183.806C238.661 187.529 234.169 190.639 230.485 194.676C229.188 196.109 227.466 197.089 225.571 197.473Z" fill="#E92E01"/>
<path d="M137.298 179.805C141.803 187.541 144.857 195.967 148.785 203.975C149.684 205.807 150.144 207.876 151.748 209.506C156.89 204.815 162.265 205.824 167.698 208.897C168.767 209.506 169.687 210.387 170.938 210.664C173.114 212.811 175.911 214.089 178.314 215.934C180.535 217.646 181.683 219.479 181.215 222.614C180.171 229.394 180.386 229.646 187.327 230.473C199.366 231.918 211.383 233.53 223.378 235.309C234.72 236.964 245.851 239.594 256.944 242.424C259.322 243.076 261.844 242.969 264.158 242.118C267.912 240.823 271.882 240.149 275.761 239.243C276.449 239.086 277.24 239.144 277.418 240.004C277.597 240.864 276.929 241.245 276.25 241.419C274.385 241.898 272.52 242.337 270.623 242.742C268.604 243.181 266.537 243.429 264.676 244.426C262.339 245.667 259.836 245.667 257.428 244.939C242.846 240.579 227.883 238.167 212.87 235.987C205.096 234.862 197.293 234.01 189.502 233.067C176.797 231.524 165.621 225.721 154.694 219.446C151.897 215.822 150.181 211.611 148.192 207.549C147.654 206.453 147.297 205.237 146.05 204.653C141.185 202.337 137.978 198.06 134.344 194.387C128.813 188.847 123.631 182.97 118.829 176.79L119.04 174.416C120.195 174.472 121.306 174.879 122.223 175.582C122.413 175.925 122.712 176.195 123.073 176.35C123.434 176.504 123.836 176.534 124.216 176.434C124.325 176.411 124.437 176.418 124.542 176.456C124.646 176.494 124.737 176.561 124.805 176.649C125.472 177.41 126.338 177.526 127.291 177.394C127.502 177.745 127.747 177.807 128.041 177.485C129.57 177.311 130.892 177.898 132.185 178.593C133.217 181.75 135.438 180.033 137.298 179.805ZM178.944 226.962L179.159 226.672L178.985 226.353C178.919 225.249 178.849 224.145 178.782 223.044V223.09C179.176 222.213 179.561 221.29 179.284 220.339C179.006 219.388 178.666 218.167 177.129 218.717L177.059 218.647C177.51 217.82 176.938 217.34 176.395 216.968C172.881 214.569 169.438 212.045 165.779 209.882C163.278 208.371 160.305 207.838 157.433 208.384C154.039 209.034 152.423 212.107 153.99 215.156C154.673 216.484 155.49 217.882 156.841 218.618C162.994 221.965 169.21 225.191 175.741 227.756C176.942 228.211 178.186 228.434 178.944 226.953V226.962Z" fill="#2D1D2D"/>
<path d="M452.144 161.626C450.814 156.546 448.564 151.818 446.301 147.127C442.849 139.963 439.671 132.649 435.254 125.985C434.035 124.157 432.749 122.374 431.396 120.637C427.952 116.215 423.038 114.081 417.982 112.165C415.678 111.297 413.204 110.784 411.236 109.154C411.551 108.765 411.866 108.372 412.181 107.975C418.811 109.75 425.205 112.045 430.671 116.385C432.043 117.516 433.239 118.846 434.218 120.331C440.732 129.741 445.501 140.074 450.329 150.374C452.401 154.829 454.216 159.421 456.13 163.95L456.342 165.369C456.682 167.098 458.032 168.562 457.684 170.469C455.791 171.106 455.347 169.704 454.784 168.434C453.843 166.196 453.545 163.694 452.144 161.626Z" fill="#2D1D2D"/>
<path d="M321.149 190.693C320.734 190.627 320.32 190.585 319.926 190.486C319.379 190.354 318.874 190.122 318.836 189.456C318.799 188.79 319.184 188.48 319.781 188.356C331.881 185.845 342.572 179.644 353.881 175.119C362.301 171.764 371.09 169.394 379.291 165.469C380.348 164.964 381.408 164.869 382.299 165.853C380.75 167.814 378.342 168.248 376.22 169.096C366.275 173.072 355.965 176.104 346.244 180.679C343.264 182.077 340.165 183.247 337.264 184.79C332.171 187.512 326.536 188.695 321.149 190.693Z" fill="#2D1D2D"/>
<path d="M444.635 190.73C444.635 193.973 441.735 196.89 438.78 196.902C437.678 196.902 437.251 196.211 437.574 195.293C438.403 192.96 439.319 190.664 440.243 188.368C440.612 187.45 441.13 186.598 442.315 186.714C443.5 186.83 443.898 187.735 444.196 188.662C444.385 189.342 444.532 190.033 444.635 190.73Z" fill="#2D1D2D"/>
<path d="M312.488 201.746C313.777 202.014 314 202.722 314.125 203.351C315.268 209.142 315.969 215.016 315.173 220.914C314.966 222.453 315.239 225.303 312.894 224.877C311.278 224.587 312.687 222.192 312.998 220.914C314.208 215.95 313.412 211.102 312.538 206.238C312.277 204.782 311.742 203.351 312.488 201.746Z" fill="#2D1D2D"/>
<path d="M395.096 161.638C395.22 161.257 395.232 160.666 395.485 160.529C399.165 158.564 402.704 156.211 407.088 156.074C407.088 156.951 406.839 157.729 405.998 158.109C403.02 159.461 400.028 160.787 397.022 162.089C396.318 162.395 395.705 161.936 395.096 161.638Z" fill="#2D1D2D"/>
<path d="M457.896 174.908C458.592 176.149 459.238 177.39 457.954 178.677C455.844 176.877 455.824 176.373 457.896 174.908Z" fill="#2D1D2D"/>
<path d="M111.47 169.183C112.186 169.544 112.74 170.161 113.019 170.912L111.714 171.665C111.648 170.838 111.579 169.995 111.507 169.138L111.47 169.183Z" fill="#855988"/>
<path d="M56.978 121.386C58.706 122.805 60.8525 123.346 62.8498 124.203C69.9689 127.251 76.5618 131.177 81.8411 136.873C84.6755 139.926 87.3275 143.293 88.1812 147.628C83.105 143.884 78.2359 139.859 72.7909 136.62C68.2327 133.894 63.6744 131.102 58.4366 129.684C57.2888 127.028 55.9503 124.405 56.9614 121.369L56.978 121.386Z" fill="#FF9EAF"/>
<path d="M40.9537 123.731C46.6183 118.581 47.53 118.999 50.6752 125.989C50.7348 126.251 50.7502 126.521 50.7207 126.788C47.6543 125.179 43.9248 125.609 40.9537 123.731Z" fill="#FF9EAF"/>
<path d="M59.5347 160.91C59.4104 161.134 59.3234 161.518 59.1576 161.556C58.7888 161.638 58.2336 161.709 58.0098 161.506C56.2901 159.942 54.6947 158.267 53.6463 156.153C53.5494 155.969 53.5281 155.755 53.5869 155.556C53.6457 155.357 53.78 155.188 53.9613 155.086C54.1927 154.96 54.4633 154.924 54.7196 154.987C55.5898 155.256 59.5099 160.124 59.5347 160.91Z" fill="#2D1D2D"/>
<path d="M456.358 165.369L456.147 163.95C456.271 164.015 456.377 164.109 456.458 164.223C456.539 164.337 456.592 164.468 456.613 164.606C456.633 164.744 456.621 164.885 456.577 165.018C456.533 165.15 456.458 165.271 456.358 165.369Z" fill="#9A1C6A"/>
<path d="M466.275 162.151L467.136 163.417C466.892 163.303 466.682 163.125 466.531 162.902C466.379 162.68 466.29 162.42 466.275 162.151Z" fill="#9A1C6A"/>
<path d="M482.543 174.896C482.829 174.912 483.106 174.998 483.351 175.146C483.595 175.294 483.8 175.499 483.948 175.743C483.665 175.717 483.392 175.627 483.148 175.48C482.905 175.333 482.698 175.133 482.543 174.896Z" fill="#9A1C6A"/>
<path d="M472.246 183.247C471.968 183.229 471.698 183.145 471.459 183.001C471.22 182.857 471.02 182.657 470.874 182.42C471.152 182.441 471.42 182.527 471.659 182.671C471.897 182.814 472.098 183.012 472.246 183.247Z" fill="#9A1C6A"/>
<path d="M2.37029 158.345C1.58296 156.112 2.10094 154.139 4.05683 152.894C14.0021 146.569 24.4363 141.928 36.7353 144.319C40.7672 145.1 43.8917 146.61 45.2799 150.908C46.1998 153.754 47.791 156.389 49.0839 159.115C47.8597 159.265 46.6187 159.2 45.4166 158.925C35.3388 156.546 25.1117 156.385 14.8308 156.79C13.3432 156.848 11.8017 156.79 10.4467 157.617C9.4024 157.398 8.33743 157.237 7.3139 156.943C5.96715 156.558 5.27513 157.125 4.93119 158.354L2.37029 158.345Z" fill="#FF9EAF"/>
<path d="M10.4466 157.621C11.8017 156.794 13.3473 156.848 14.8308 156.794C25.1034 156.38 35.3388 156.55 45.4166 158.928C46.6187 159.204 47.8597 159.269 49.0839 159.119C51.8769 165.075 55.6353 170.432 59.4435 175.772C54.4295 173.55 49.4154 171.33 44.4014 169.112C38.3016 166.424 31.9325 164.835 25.2443 164.976C20.8809 165.079 16.4635 164.277 12.1539 165.559C8.80568 165.559 6.28207 163.619 3.6673 161.915C2.34127 161.05 2.1175 159.772 2.38685 158.329H4.9519C8.03078 159.487 11.1055 160.657 14.1927 161.795C15.0215 162.101 16.1527 162.933 16.6086 161.559C16.9898 160.409 15.7301 160.054 14.9137 159.607C13.4592 158.842 11.7229 158.755 10.4466 157.621Z" fill="#FC5A33"/>
<path d="M97.9026 178.697C97.1236 178.051 97.3598 177.274 97.5546 176.455C99.0795 170.055 97.8985 167.205 92.1676 164.579C90.1702 163.66 90.9244 162.589 91.2642 161.315C92.209 157.973 92.698 157.687 95.6733 159.408C100.571 162.237 101.512 167.065 101.669 172.115C101.761 174.974 100.716 177.414 97.8322 178.655L97.9026 178.697Z" fill="#E86B7B"/>
<path d="M97.8446 178.656C94.5627 178.97 92.2629 181.626 89.1425 182.312L89.1923 182.354C89.242 180.24 87.5347 181.113 86.5236 180.786C84.8868 180.277 84.4517 179.351 85.2805 178.106C85.8979 177.167 86.5236 177.576 87.3524 177.824C90.1122 178.652 91.4465 178.238 92.325 176.563C92.8006 175.573 92.9401 174.456 92.7225 173.381C92.5049 172.305 91.942 171.329 91.1192 170.602C90.7964 170.348 90.4374 170.143 90.0542 169.994C88.7613 169.415 89.2254 168.422 89.5362 167.562C89.876 166.623 90.6592 166.507 91.5584 166.763C93.216 167.239 94.5337 168.066 95.1263 169.816C95.7631 171.632 95.885 173.589 95.4785 175.471C94.9149 178.13 94.9108 178.126 97.8902 178.685C97.9026 178.697 97.8446 178.656 97.8446 178.656Z" fill="#E86B7B"/>
<path d="M49.5688 119.603C54.0151 120.786 54.9806 122.523 54.819 127.831C52.0385 125.866 51.765 122.627 49.5688 119.603Z" fill="#FF9EAF"/>
<path d="M87.3856 183.599C86.2419 184.922 84.7003 185.394 83.1298 185.787C82.2057 186.023 81.6049 185.572 81.1159 184.831C80.5772 184.004 80.8341 183.297 81.406 182.647C81.9778 181.998 82.4875 181.195 83.3785 181.729C84.6465 182.49 86.2584 182.478 87.3856 183.599Z" fill="#4E1932"/>
<path d="M111.507 169.134C109.659 168.898 107.686 169.316 105.768 168.195C109.348 167.243 109.348 167.243 111.486 169.163L111.507 169.134Z" fill="#855988"/>
<path d="M89.1342 182.312L88.84 182.912C88.2392 182.284 88.9851 182.499 89.184 182.354L89.1342 182.312Z" fill="#9A1C6A"/>
<path d="M56.9614 121.353C56.9075 121.613 56.8495 121.874 56.7956 122.138C56.0788 121.7 57.0774 121.7 56.978 121.402C56.9751 121.385 56.9695 121.368 56.9614 121.353Z" fill="#FF9EAF"/>
<path d="M470.327 162.498C470.742 161.563 470.373 160.616 470.36 159.677C470.348 158.738 470.733 158.06 471.603 157.795C472.001 157.687 472.419 157.682 472.819 157.781C473.219 157.88 473.586 158.08 473.887 158.362C476.24 160.322 475.416 162.937 472.043 164.207L471.968 164.157C471.968 163.119 471.38 162.626 470.377 162.569L470.327 162.498Z" fill="#2D1D2D"/>
<path d="M470.377 162.564C471.38 162.622 471.947 163.115 471.968 164.153C470.597 164.467 470.091 163.913 470.377 162.564Z" fill="#9A1C6A"/>
<path d="M138.744 240.939C138.152 241.692 137.696 241.667 137.352 241.473C134.219 239.706 130.552 239.156 127.531 237.134C125.468 235.755 123.379 234.412 121.266 233.105C119.331 231.909 117.474 230.515 114.544 230.71C115.986 228.501 117.267 228.641 118.688 229.51C120.217 230.449 121.759 231.363 123.246 232.335C127.075 234.817 130.908 237.237 135.317 238.627C136.681 239.049 138.106 239.624 138.744 240.939Z" fill="#2D1D2D"/>
<path d="M137.298 179.805C135.438 180.033 133.217 181.75 132.181 178.565C133.337 178.593 134.621 178.656 133.921 176.885C133.383 175.622 132.767 174.394 132.077 173.208C129.685 168.873 127.281 164.546 124.867 160.227C123.868 158.453 123.396 156.728 124.514 154.788C125.563 152.972 124.962 151.781 122.994 150.949C119.206 149.348 117.578 146.66 117.673 142.263C117.897 132.281 119.853 122.602 121.722 112.893C123.126 105.605 124.705 98.3453 125.037 90.8954C125.128 88.8272 125.803 86.8541 126.47 84.8975L127.946 83.065L128.944 82.4197L129.715 82.1385C130.59 82.1147 131.445 81.8714 132.201 81.4311L133.826 81.2243L139.66 81.2036L140.489 81.4518C151.06 87.1891 155.722 97.2905 159.849 107.735C161.395 111.652 161.473 115.797 160.86 119.934C160.197 124.414 159.75 128.947 157.959 133.171C157.763 133.535 157.702 133.956 157.785 134.362C157.868 134.767 158.091 135.13 158.415 135.388C161.424 138.014 161.619 141.692 161.871 145.216C162.012 147.173 162.634 148.285 164.449 148.856C166.852 149.609 168.178 151.396 169.314 153.576C173.822 162.229 178.476 170.804 182.16 179.851C182.847 181.53 183.531 183.322 185.993 182.453C185.052 183.586 183.262 183.028 182.375 184.265C180.142 182.043 179.408 179.024 178.269 176.265C175.231 168.881 171.1 162.052 167.619 154.895C165.982 151.524 165.729 152.103 162.928 153.241C157.412 155.483 151.512 156.227 145.615 156.691C141.906 156.984 138.28 157.142 134.99 159.334C132.591 160.935 129.964 160.161 127.531 158.97C127.183 158.519 127.531 157.286 126.673 157.621C126.073 157.857 126.632 158.8 127.088 159.322C128.563 163.789 131.31 167.595 133.619 171.603C135.131 174.234 136.639 176.823 137.298 179.805ZM129.185 85.4518C127.73 87.1064 127.39 89.1416 127.225 91.2098C126.396 101.965 124.034 112.447 121.974 122.986C120.706 129.493 119.662 136.012 119.869 142.664C119.994 146.618 121.498 148.368 125.231 149.406C128.965 150.445 132.276 149.439 135.591 147.909C143.137 144.43 148.648 138.287 155.005 133.253C155.861 132.538 156.454 131.558 156.691 130.469C158.204 124.716 159.331 118.916 158.635 112.914C158.958 111.508 158.606 110.184 158.113 108.881C156.153 103.579 153.687 98.4772 150.749 93.6462C148.424 89.8671 145.226 86.6997 141.421 84.4094C137.92 82.2874 132.45 82.73 129.185 85.4518ZM139.834 154.627C138.272 153.224 137.928 151.561 136.934 149.828C134.062 151.619 130.78 151.868 127.61 152.451C128.832 158.656 130.792 159.516 135.873 156.269C137.099 155.517 138.436 154.963 139.834 154.627ZM153.944 144.463C153.824 146.143 153.584 147.81 151.657 148.418C149.908 148.964 148.404 148.397 147.198 147.057C146.846 146.639 146.536 146.187 146.274 145.708C145.942 145.142 145.752 144.335 144.828 144.794C144.518 144.952 144.266 145.202 144.107 145.51C143.948 145.818 143.89 146.168 143.941 146.511C143.997 147.475 144.313 148.407 144.855 149.208C145.396 150.008 146.144 150.649 147.02 151.061C148.374 151.769 149.945 151.942 151.421 151.544C152.897 151.146 154.168 150.207 154.98 148.914C157.052 145.679 156.928 141.369 154.644 139.425C154.232 139.068 153.745 138.808 153.219 138.664C153.025 138.631 152.827 138.637 152.636 138.682C152.446 138.728 152.266 138.812 152.108 138.929C152.032 138.996 151.972 139.08 151.932 139.174C151.892 139.268 151.873 139.369 151.877 139.471C151.88 139.573 151.906 139.673 151.953 139.763C151.999 139.854 152.065 139.933 152.146 139.996C152.749 140.568 153.222 141.263 153.532 142.034C153.842 142.805 153.983 143.633 153.944 144.463ZM153.571 153.324C155.867 153.381 157.769 153.29 158.817 151.669C160.955 148.339 160.085 140.194 157.433 137.117C156.824 136.409 156.12 135.599 155.009 136.422C159.982 142.986 159.733 147.032 153.571 153.324ZM149.523 153.832C145.793 153.336 143.684 151.574 142.383 148.765C142.035 148.012 141.761 147.185 140.617 147.619C139.677 147.979 139.461 148.703 139.507 149.588C139.664 152.55 143.037 155.21 145.984 154.664C146.929 154.49 147.857 154.229 149.523 153.832ZM152.05 144.112C151.914 142.838 151.499 141.679 149.929 141.717C148.797 141.746 147.807 142.089 147.898 143.636C148.01 145.493 149.05 146.817 150.472 146.61C151.893 146.403 151.955 145.253 152.05 144.112Z" fill="#2D1D2D"/>
<path d="M157.798 60.8064L160.334 60.7609C161.324 63.1477 162.244 61.4807 163.181 60.7113C164.515 61.1539 165.489 61.8571 165.166 63.4827C164.654 63.2303 164.073 63.1507 163.512 63.2558C162.951 63.361 162.439 63.6453 162.054 64.066L160.396 64.1487L157.408 63.9419C156.298 63.1436 155.021 63.2552 153.762 63.2925C147.687 60.1529 142.785 55.4745 137.696 51.0443C136.565 50.0598 135.458 49.0505 134.34 48.0536C134.613 47.0774 135.168 46.4983 136.262 46.6803C140.874 51.6441 146.208 55.8219 151.752 59.6565C153.488 60.8726 155.44 62.2542 157.798 60.8064Z" fill="#2D1D2D"/>
<path d="M127.27 177.369C126.334 177.502 125.468 177.369 124.784 176.625C125.675 176.568 126.557 176.832 127.27 177.369Z" fill="#2D1D2D"/>
<path d="M124.212 176.41C123.832 176.509 123.43 176.479 123.069 176.325C122.708 176.171 122.409 175.901 122.219 175.558C122.994 175.587 123.719 175.723 124.212 176.41Z" fill="#2D1D2D"/>
<path d="M128.045 177.456C127.751 177.77 127.506 177.716 127.295 177.365C127.414 177.301 127.55 177.276 127.684 177.292C127.819 177.309 127.944 177.366 128.045 177.456Z" fill="#2D1D2D"/>
<path d="M188.475 181.415C188.325 181.624 188.123 181.79 187.889 181.897C187.655 182.004 187.397 182.049 187.141 182.027C187.296 181.824 187.499 181.662 187.731 181.555C187.964 181.448 188.219 181.4 188.475 181.415Z" fill="#2D1D2D"/>
<path d="M157.798 60.8064C155.44 62.2377 153.488 60.8561 151.752 59.6565C146.191 55.822 136.693 48.0122 132.081 43.036C143.369 35.9254 169.624 17.8447 172.882 15.8013C173.366 16.0577 180.95 19.6524 181.343 20.0081C183.515 21.9523 183.527 22.8581 181.037 24.3514C176.864 26.8333 173.263 30.0391 169.662 33.2532C167.553 35.1353 167.387 35.4993 169.285 37.4972C173.309 41.854 177.647 45.9117 182.263 49.6379C183.995 50.9988 185.678 52.43 187.439 53.7744C188.819 54.8168 189.072 55.8426 187.82 57.1787C186.73 58.3411 185.827 59.4124 184.136 57.8613C181.095 55.065 177.92 52.4135 174.796 49.7123C172.504 47.7309 170.279 45.6586 167.872 43.8261C166.45 42.7465 165.195 41.6834 165.079 39.8385C163.666 39.9709 163.085 40.8147 162.621 41.6213C160.007 46.1715 157.935 50.9781 156.969 56.1736C156.675 57.7496 156.397 59.4704 157.798 60.8064Z" fill="#E92E01"/>
<path d="M134.124 45.2659C128.582 39.4615 123.677 33.0827 119.492 26.238C118.663 24.8605 117.449 23.6651 117.391 21.9112C120.122 23.1521 122.898 24.3435 125.584 25.692C130.49 28.1739 135.334 30.7261 140.22 33.2287C141.707 33.9898 143.162 34.602 144.823 33.3983C148.71 30.5854 152.672 27.8802 156.604 25.1253C158.146 24.0456 158.262 23.0239 157.019 21.4024C153.002 16.0123 148.453 11.0387 143.439 6.55649C142.528 5.75815 141.334 5.19145 141.21 3.77263C143.158 3.11906 145.027 3.58235 146.821 4.28969C156.526 8.12285 166.046 12.3724 175.38 17.0384C175.836 17.2659 176.143 17.7954 176.524 18.1801C174.224 20.997 170.897 22.4489 167.954 24.3393C157.027 31.3714 145.934 38.1594 134.895 45.0218C134.65 45.1375 134.391 45.2196 134.124 45.2659Z" fill="#E92E01"/>
<path d="M141.222 3.78918C141.347 5.208 142.54 5.77471 143.452 6.57305C148.472 11.0542 153.028 16.0279 157.052 21.419C158.274 23.0281 158.167 24.0498 156.638 25.1418C152.705 27.8926 148.744 30.5979 144.857 33.4148C143.199 34.6186 141.74 34.0064 140.253 33.2452C135.367 30.7633 130.523 28.1697 125.617 25.7085C122.932 24.36 120.155 23.1853 117.424 21.9278C115.672 20.1036 115.605 18.0891 116.596 15.8471C118.282 12.0498 120.325 8.45103 123.188 5.44379C124.384 4.20152 125.831 3.22826 127.433 2.5891C129.035 1.94993 130.755 1.65959 132.479 1.73748C135.446 1.82434 138.533 2.16354 141.222 3.78918ZM126.988 8.5048C126.839 8.29384 126.74 7.98774 126.541 7.8926C126.293 7.78039 126.015 7.75613 125.752 7.82387C125.489 7.8916 125.257 8.04724 125.095 8.26488C123.483 9.91948 122.716 12.2359 120.785 13.6423C120.67 13.8003 120.596 13.9841 120.569 14.1775C120.543 14.3708 120.564 14.5678 120.632 14.7509C120.897 15.2804 121.46 15.3631 122.036 15.1646C123.354 14.7551 127.063 9.73748 126.988 8.5048Z" fill="#FF9EAF"/>
<path d="M235.702 114.457C239.274 107.135 238.603 99.8387 235.619 92.5336C233.769 87.8031 231.445 83.2713 228.683 79.0072C227.547 77.2989 226.283 75.6567 224.158 74.9783C220.055 73.6711 216.773 75.0072 214.312 79.3754C212.426 82.7135 210.831 86.2172 209.107 89.6505C205.626 86.5895 202.129 83.5326 199.518 79.6484C197.301 76.3392 193.688 74.0476 192.014 70.5481C190.128 66.6184 187.182 64.9183 183.349 63.9752C186.784 61.0052 190.393 58.1841 192.789 54.2379C196.211 48.6329 196.837 42.6556 194.964 36.393C194.595 35.152 194.057 34.0476 192.44 34.1551C192.164 34.1823 191.886 34.1276 191.641 33.9979C190.638 33.3609 189.072 32.728 189.793 31.3382C190.393 30.1841 191.794 30.817 192.731 31.4457C195.706 33.4436 198.685 35.4416 201.586 37.5471C215.653 47.7504 229.701 57.9773 243.729 68.2275C244.958 69.1022 246.339 69.7417 247.802 70.1138C257.64 72.8397 267.759 74.4199 277.53 77.4023C278.314 77.6422 279.188 77.667 279.934 78.486C279.01 79.727 277.505 80.0331 276.204 80.5791C270.957 82.699 265.875 85.2058 261.001 88.0786C260.513 88.3302 260.039 88.6063 259.579 88.9059C259.045 89.3195 258.361 89.7952 258.75 90.5605C259.14 91.3257 259.886 91.181 260.549 90.8749C262.554 89.9524 264.539 88.9845 266.557 88.0951C273.822 84.8935 281.716 84.0331 289.311 82.06C291.325 81.5346 293.372 80.6329 295.743 81.8656C292.676 83.2265 289.63 84.6205 286.543 85.9359C279.818 88.8025 273.154 91.8387 266.305 94.3702C263.043 95.5781 261.912 97.6298 261.44 100.728C260.105 109.44 258.626 118.126 257.205 126.821C255.249 126.072 253.649 124.753 251.942 123.582C246.787 120.116 242.022 115.913 235.702 114.457Z" fill="#E92E01"/>
<path d="M222.11 77.2615C224.1 76.5045 225.297 77.7248 226.254 79.1022C230.858 85.8778 234.505 93.1043 235.785 101.278C236.945 108.658 233.978 114.784 229.155 120.066C226.764 122.697 223.453 123.681 219.835 123.83C215.692 124.004 211.676 122.73 207.487 123.384C203.679 123.975 199.854 124.248 196.207 125.688C194.098 126.515 193.265 125.799 193.721 123.652C194.135 121.671 194.674 119.681 195.756 117.911C196.124 118.043 196.551 118.374 196.854 118.283C202.987 116.467 208.842 114.205 213.015 108.955C214.378 107.247 216.048 105.779 217.623 104.24C219.769 102.138 221 99.7972 221.062 96.6203C221.211 90.1757 221.742 83.7144 222.11 77.2615ZM223.246 99.1519C223.11 99.171 222.981 99.222 222.868 99.3008C222.756 99.3796 222.664 99.4839 222.6 99.6051C222.536 99.7263 222.502 99.8609 222.501 99.9978C222.499 100.135 222.53 100.27 222.591 100.393C223.508 102.941 224.475 105.471 225.492 107.983C225.595 108.145 225.734 108.281 225.899 108.38C226.064 108.479 226.249 108.539 226.441 108.554C226.578 108.553 226.714 108.523 226.838 108.465C226.963 108.408 227.074 108.324 227.164 108.221C227.254 108.117 227.32 107.995 227.359 107.864C227.398 107.732 227.409 107.594 227.39 107.458C227.09 104.484 225.91 101.666 224 99.3628C223.847 99.1932 223.49 99.2139 223.242 99.1519H223.246ZM223.66 114.192C223.464 114.138 223.254 114.156 223.07 114.243C222.886 114.33 222.739 114.48 222.657 114.667C222.574 114.853 222.562 115.062 222.621 115.257C222.681 115.452 222.808 115.618 222.981 115.727C223.093 115.794 223.221 115.83 223.352 115.83C223.483 115.829 223.611 115.794 223.723 115.726C223.835 115.658 223.926 115.561 223.986 115.445C224.047 115.33 224.075 115.199 224.066 115.069C224.062 114.759 223.768 114.432 223.64 114.192H223.66Z" fill="#FC5A33"/>
<path d="M183.349 63.9751C187.182 64.9182 190.128 66.6183 192.014 70.548C193.671 74.0475 197.301 76.3391 199.518 79.6483C202.129 83.5325 205.626 86.5894 209.107 89.6504C208.026 91.5532 207.035 93.5097 205.842 95.3463C204.474 97.4642 204.184 97.5304 202.473 95.7931C199.489 92.7528 196.311 89.9358 193.079 87.1602C187.984 82.769 182.616 78.7056 177.005 74.9947C174.232 73.1623 171.821 70.9368 169.438 68.6618C168.249 67.5284 167.341 66.2543 167.337 64.5253C168.713 63.9999 169.624 64.699 169.869 65.5221C170.677 68.2646 172.77 67.851 174.522 67.3298C177.531 66.4405 180.415 65.1209 183.349 63.9751Z" fill="#E92E01"/>
<path d="M235.702 114.457C242.022 115.913 246.787 120.116 251.959 123.607C253.666 124.761 255.274 126.089 257.221 126.846C256.96 129.018 256.608 131.185 256.467 133.365C256.359 135.02 255.717 135.818 254.043 136.066C249.017 136.802 244.011 137.675 239.125 139.106C237.273 139.648 236.411 138.895 235.673 137.241C233.784 132.993 231.898 128.724 229.13 124.935C228.591 124.203 228.272 123.425 229.167 122.809C232.238 120.703 233.589 117.286 235.702 114.457Z" fill="#4E1932"/>
<path d="M222.11 77.2617C221.746 83.7146 221.215 90.1634 221.087 96.6205C221.025 99.7973 219.794 102.139 217.648 104.24C216.073 105.779 214.403 107.247 213.04 108.956C208.854 114.205 202.999 116.467 196.879 118.283C196.576 118.374 196.149 118.043 195.78 117.911C199.174 110.263 203.563 103.152 207.868 96.0124C210.354 91.9233 212.514 87.6454 214.328 83.2182C215.009 81.4233 216.041 79.7821 217.366 78.3909C218.617 77.1169 220.159 76.1117 222.11 77.2617Z" fill="#FF9EAF"/>
<path d="M205.78 193.175C207.437 189.663 208.104 189.287 211.307 190.726C215.423 192.617 219.266 195.052 222.732 197.965C226.644 201.183 230.52 204.443 234.36 207.744C236.548 209.622 237.26 211.988 236.925 214.776C236.726 216.472 236.03 217.179 234.177 216.674C229.914 215.557 225.754 214.075 221.746 212.244C217.515 210.259 213.458 207.835 209.157 206.077C205.61 204.629 204.371 202.271 204.681 198.73C205.157 198.725 205.626 198.613 206.052 198.402C206.479 198.19 206.851 197.886 207.143 197.51C209.347 194.908 209.563 194.734 211.999 196.625C217.722 201.076 224.431 204.203 229.404 209.671C229.847 210.159 230.402 210.829 231.061 210.085C231.666 209.411 231.061 208.807 230.614 208.323C229.598 207.21 228.666 205.948 227.452 205.096C222.173 201.402 216.798 197.837 211.469 194.213C210.102 193.282 208.759 193.03 207.263 193.981C206.496 194.465 206.049 193.89 205.78 193.175Z" fill="#855988"/>
<path d="M204.226 126.424C203.583 129.129 203.148 131.685 204.308 134.213C204.409 134.394 204.469 134.594 204.487 134.801C204.504 135.007 204.477 135.215 204.408 135.41C204.339 135.605 204.23 135.784 204.087 135.934C203.944 136.084 203.771 136.202 203.579 136.281C203.219 136.476 202.854 136.67 202.502 136.881C198.196 139.421 196.593 138.73 195.524 133.878C194.43 128.914 195.142 127.752 200.115 126.473C201.312 126.163 202.506 125.882 204.226 126.424Z" fill="#FF9EAF"/>
<path d="M205.78 193.175C206.049 193.882 206.496 194.457 207.28 193.957C208.776 193.005 210.118 193.258 211.486 194.188C216.815 197.812 222.189 201.377 227.468 205.071C228.683 205.924 229.615 207.185 230.63 208.298C231.074 208.782 231.683 209.386 231.078 210.06C230.402 210.821 229.835 210.151 229.42 209.646C224.448 204.178 217.747 201.051 212.016 196.6C209.579 194.709 209.364 194.883 207.159 197.485C206.868 197.861 206.495 198.166 206.069 198.377C205.643 198.588 205.174 198.701 204.698 198.705C203.811 196.637 204.354 194.829 205.78 193.175Z" fill="#2D1D2D"/>
<path d="M211.751 125.374C210.118 128.885 211.113 131.723 213.359 134.796C210.773 134.759 208.647 136.013 206.82 134.255C205.51 133.014 205.543 128.588 206.575 126.809C207.76 124.782 209.596 125.584 211.751 125.374Z" fill="#FF9EAF"/>
<path d="M223.693 125.783C226.031 128.587 226.474 132.087 224.883 134.813C224.348 135.727 223.714 136.331 222.575 136.083C221.518 135.855 220.503 135.47 221.534 134.221C223.47 131.839 223.482 129.191 222.873 126.407L223.693 125.783Z" fill="#E86B7B"/>
<path d="M287.36 79.8345C284.649 81.2698 281.915 82.4032 278.131 82.1716C281.368 80.0578 284.078 78.7093 287.36 79.8345Z" fill="#855988"/>
<path d="M163.181 60.7282C162.244 61.4976 161.324 63.1646 160.334 60.7778C161.27 60.2607 162.182 58.1015 163.181 60.7282Z" fill="#855988"/>
<path d="M222.873 126.407C222.848 126.201 222.728 125.928 222.815 125.799C223.059 125.452 223.395 125.588 223.693 125.799L222.873 126.407Z" fill="#9A1C6A"/>
<path d="M296.919 101.166C296.207 101.063 295.929 100.471 296.211 99.9998C297.698 97.5179 299.526 95.3462 302.29 94.1715C302.567 94.0515 303.061 94.2956 303.38 94.49C303.45 94.5934 303.493 94.7126 303.505 94.8368C303.517 94.961 303.498 95.0863 303.45 95.2015C301.304 97.0546 299 98.7464 297.301 101.071C297.243 101.15 297.048 101.133 296.919 101.166Z" fill="#2D1D2D"/>
<path d="M177.129 218.705C178.666 218.155 178.99 219.322 179.284 220.327C179.578 221.332 179.176 222.201 178.778 223.078C178.269 222.966 177.738 222.714 177.249 222.78C176.491 222.875 176.205 223.512 176.238 224.236C176.238 224.468 176.387 224.836 176.553 224.89C177.419 225.179 177.585 224.368 177.974 223.909C178.231 223.603 178.513 223.322 178.782 223.032C178.849 224.137 178.919 225.241 178.985 226.341C178.936 226.434 178.906 226.536 178.899 226.641C178.892 226.746 178.907 226.851 178.944 226.95C178.177 228.43 176.926 228.19 175.741 227.74C169.21 225.175 162.994 221.948 156.841 218.602C155.49 217.866 154.673 216.468 153.99 215.14C152.423 212.087 154.039 209.018 157.433 208.368C160.305 207.822 163.278 208.355 165.779 209.866C169.438 212.029 172.882 214.552 176.395 216.952C176.938 217.324 177.51 217.808 177.054 218.631C176.793 218.681 176.449 218.859 176.275 218.755C172.62 216.575 168.298 215.644 165 212.765C163.814 211.787 162.353 211.2 160.819 211.086C158.747 210.879 156.919 211.338 155.817 213.857C160.073 211.127 163.036 213.638 166.115 215.793C168.734 217.626 171.858 218.47 174.639 219.996C176.163 220.84 176.499 219.512 177.129 218.705Z" fill="#855988"/>
<path d="M178.782 223.032C178.513 223.321 178.231 223.603 177.974 223.909C177.585 224.368 177.419 225.179 176.553 224.889C176.387 224.835 176.246 224.475 176.238 224.236C176.205 223.512 176.491 222.875 177.249 222.779C177.738 222.713 178.269 222.966 178.778 223.077L178.782 223.032Z" fill="#2D1D2D"/>
<path d="M178.944 226.953C178.907 226.855 178.892 226.75 178.899 226.645C178.906 226.54 178.936 226.438 178.985 226.345L179.159 226.664L178.944 226.953Z" fill="#2D1D2D"/>
<path d="M10.4466 157.621C11.723 158.755 13.4592 158.862 14.893 159.636C15.7218 160.083 16.9649 160.438 16.5878 161.588C16.132 162.962 15.009 162.13 14.172 161.824C11.0848 160.687 8.01006 159.516 4.93118 158.358C5.27512 157.117 5.96715 156.562 7.3139 156.947C8.33743 157.241 9.4024 157.402 10.4466 157.621Z" fill="#2D1D2D"/>
<path d="M158.643 112.927C159.339 118.929 158.229 124.728 156.7 130.482C156.462 131.571 155.869 132.55 155.013 133.266C148.657 138.3 143.145 144.434 135.599 147.921C132.284 149.452 128.936 150.449 125.24 149.419C121.543 148.389 120.002 146.631 119.878 142.676C119.67 136.025 120.706 129.506 121.983 122.999C124.055 112.459 126.388 101.965 127.233 91.2224C127.399 89.1541 127.738 87.1148 129.193 85.4644C131.679 86.4571 133.536 88.2937 135.521 89.9814C141.102 94.7384 144.223 101.274 148.163 107.231C149.444 109.171 149.751 112.194 151.76 113.051C153.691 113.853 156.319 113.022 158.643 112.927Z" fill="#FC5A33"/>
<path d="M158.643 112.926C156.319 113.034 153.691 113.865 151.752 113.051C149.742 112.223 149.436 109.171 148.155 107.231C144.227 101.274 141.111 94.7383 135.512 89.9813C133.527 88.2936 131.663 86.457 129.185 85.4642C132.45 82.7548 137.92 82.2998 141.43 84.4218C145.234 86.7121 148.433 89.8796 150.757 93.6587C153.695 98.4897 156.161 103.591 158.121 108.893C158.614 110.184 158.966 111.508 158.643 112.926ZM141.111 86.6638C141.297 90.0764 142.743 91.8841 144.069 93.7248C144.393 94.1799 145.018 94.1633 145.549 93.8365C145.822 93.6628 145.963 93.4229 145.772 93.1416C144.562 91.0899 143.85 88.699 141.111 86.6514V86.6638ZM153.811 107.549C153.729 106.788 153.372 105.985 152.419 106.043C151.972 106.072 151.81 106.842 151.905 107.413C152.017 108.091 152.171 108.782 153.041 108.778C153.737 108.753 153.832 108.203 153.811 107.549Z" fill="#FF9EAF"/>
<path d="M139.834 154.627C138.432 154.966 137.092 155.525 135.864 156.281C130.784 159.529 128.82 158.656 127.602 152.463C130.772 151.88 134.054 151.636 136.925 149.841C137.928 151.562 138.272 153.224 139.834 154.627Z" fill="#FF9EAF"/>
<path d="M127.092 159.334C126.64 158.813 126.081 157.87 126.678 157.634C127.527 157.299 127.187 158.532 127.535 158.983L127.092 159.334Z" fill="#E92E01"/>
<path d="M126.988 8.50476C127.063 9.74571 123.354 14.755 122.036 15.1893C121.477 15.3714 120.897 15.2886 120.632 14.7757C120.564 14.5926 120.543 14.3956 120.569 14.2022C120.596 14.0089 120.67 13.8251 120.785 13.6671C122.716 12.2524 123.483 9.94426 125.095 8.28966C125.257 8.07202 125.489 7.91638 125.752 7.84865C126.015 7.78091 126.293 7.80517 126.541 7.91737C126.74 7.98769 126.839 8.2938 126.988 8.50476Z" fill="#473B5D"/>
<path d="M223.238 99.1519C223.49 99.2139 223.847 99.1932 223.983 99.3545C225.893 101.657 227.073 104.475 227.373 107.45C227.392 107.586 227.382 107.724 227.343 107.855C227.304 107.987 227.237 108.108 227.147 108.212C227.057 108.316 226.947 108.399 226.822 108.457C226.697 108.515 226.562 108.545 226.424 108.546C226.233 108.53 226.047 108.471 225.883 108.372C225.718 108.273 225.578 108.137 225.475 107.975C224.464 105.466 223.497 102.935 222.575 100.385C222.515 100.262 222.486 100.126 222.489 99.99C222.491 99.8536 222.527 99.7198 222.591 99.5995C222.656 99.4793 222.748 99.376 222.861 99.2982C222.973 99.2204 223.102 99.1703 223.238 99.1519Z" fill="#2D1D2D"/>
<path d="M223.64 114.192C223.76 114.432 224.054 114.759 224.054 115.069C224.062 115.2 224.034 115.33 223.974 115.445C223.913 115.561 223.822 115.658 223.71 115.726C223.599 115.794 223.47 115.83 223.339 115.83C223.209 115.83 223.08 115.794 222.968 115.727C222.796 115.619 222.668 115.452 222.609 115.257C222.549 115.062 222.562 114.853 222.644 114.667C222.727 114.481 222.873 114.33 223.058 114.243C223.242 114.156 223.451 114.138 223.648 114.192H223.64Z" fill="#2D1D2D"/>
<path d="M177.129 218.705C176.499 219.512 176.163 220.84 174.643 220C171.862 218.473 168.738 217.63 166.119 215.797C163.04 213.642 160.077 211.131 155.821 213.861C156.924 211.342 158.759 210.883 160.823 211.09C162.357 211.203 163.818 211.79 165.004 212.769C168.319 215.665 172.625 216.579 176.279 218.759C176.453 218.862 176.797 218.684 177.058 218.635L177.129 218.705Z" fill="#2D1D2D"/>
<path d="M141.111 86.6514C143.85 88.7196 144.562 91.0898 145.772 93.1291C145.946 93.4187 145.822 93.6503 145.549 93.8241C145.018 94.1509 144.393 94.1674 144.069 93.7124C142.743 91.8716 141.305 90.064 141.111 86.6514Z" fill="#2D1D2D"/>
<path d="M153.812 107.549C153.832 108.219 153.737 108.79 153.041 108.79C152.171 108.79 152.017 108.103 151.905 107.425C151.81 106.854 151.972 106.085 152.419 106.056C153.372 105.969 153.737 106.771 153.812 107.549Z" fill="#2D1D2D"/>
</g>
<defs>
<linearGradient id="paint0_linear_10426_91335" x1="296.68" y1="191.195" x2="296.68" y2="253.967" gradientUnits="userSpaceOnUse">
<stop stop-color="#4E1932"/>
<stop offset="1" stop-color="#4E1932"/>
</linearGradient>
<clipPath id="clip0_10426_91335">
<rect width="501" height="256" fill="white"/>
</clipPath>
</defs>
</svg>
