<svg width="484" height="484" viewBox="0 0 484 484" fill="none" xmlns="http://www.w3.org/2000/svg">
<circle cx="242" cy="242" r="241.5" stroke="#333333"/>
<g clip-path="url(#clip0_10481_91083)">
<path fill-rule="evenodd" clip-rule="evenodd" d="M414.423 48.5749L419.727 53.8783C419.927 54.0711 420.082 54.3065 420.179 54.567C420.269 54.8442 420.281 55.141 420.213 55.4244C420.212 55.4417 420.209 55.4588 420.203 55.4751C420.124 55.7572 419.974 56.0142 419.767 56.2211C419.554 56.4344 419.29 56.5911 419.001 56.6769L409.913 59.0669C409.814 59.093 409.71 59.0927 409.611 59.066C409.512 59.0394 409.422 58.9873 409.349 58.915C409.283 58.8426 409.236 58.7542 409.214 58.6584C409.191 58.5626 409.194 58.4626 409.221 58.3681L411.631 49.3412C411.681 49.0546 411.801 48.7846 411.979 48.5547C412.191 48.3096 412.472 48.1342 412.786 48.0517C413.097 47.9655 413.428 47.9797 413.731 48.0922C413.995 48.1995 414.231 48.3644 414.423 48.5749ZM415.824 51.6165L413.603 49.3952C413.53 49.3054 413.438 49.2337 413.333 49.1859C413.253 49.1546 413.166 49.1499 413.083 49.1724C412.999 49.1947 412.925 49.2432 412.87 49.3109C412.811 49.4063 412.773 49.5134 412.759 49.6248L412.766 49.6181L410.885 56.5486L415.824 51.6165ZM416.644 52.4369L411.672 57.4094L418.697 55.5493C418.792 55.5167 418.879 55.4624 418.95 55.3907C419.011 55.33 419.057 55.2561 419.085 55.1746C419.093 55.1243 419.099 55.0736 419.102 55.0227C419.098 55 419.09 54.9783 419.078 54.9586C419.042 54.8563 418.98 54.7647 418.899 54.6919L416.644 52.4369Z" fill="#CD2B05"/>
</g>
<g clip-path="url(#clip1_10481_91083)">
<path fill-rule="evenodd" clip-rule="evenodd" d="M57.2633 427.608L51.9599 422.304C51.7595 422.112 51.6049 421.876 51.5075 421.616C51.4172 421.339 51.4055 421.042 51.4738 420.758C51.4745 420.741 51.4779 420.724 51.4839 420.708C51.5622 420.426 51.7122 420.168 51.9194 419.962C52.1329 419.748 52.3963 419.592 52.6857 419.506L61.7734 417.116C61.8724 417.09 61.9766 417.09 62.0755 417.117C62.1744 417.143 62.2646 417.195 62.3371 417.268C62.4037 417.34 62.4504 417.429 62.4729 417.524C62.4954 417.62 62.4928 417.72 62.4654 417.815L60.0551 426.841C60.005 427.128 59.8856 427.398 59.7074 427.628C59.4953 427.873 59.214 428.048 58.9006 428.131C58.5891 428.217 58.2583 428.203 57.9553 428.091C57.6916 427.983 57.4551 427.818 57.2633 427.608ZM55.8623 424.566L58.0836 426.787C58.1561 426.877 58.2486 426.949 58.3537 426.997C58.4333 427.028 58.521 427.033 58.6035 427.01C58.6874 426.988 58.7619 426.94 58.8162 426.872C58.8754 426.776 58.9134 426.669 58.9276 426.558L58.9208 426.565L60.8011 419.634L55.8623 424.566ZM55.042 423.746L60.0146 418.773L52.9895 420.633C52.894 420.666 52.8074 420.72 52.7363 420.792C52.6753 420.853 52.6291 420.927 52.6013 421.008C52.593 421.058 52.5873 421.109 52.5844 421.16C52.5882 421.183 52.5962 421.204 52.6081 421.224C52.6448 421.326 52.7063 421.418 52.787 421.491L55.042 423.746Z" fill="#CD2B05"/>
</g>
<defs>
<clipPath id="clip0_10481_91083">
<rect width="10.928" height="10.928" fill="white" transform="translate(413.191 47.3429) rotate(45)"/>
</clipPath>
<clipPath id="clip1_10481_91083">
<rect width="10.928" height="10.928" fill="white" transform="translate(58.4954 428.84) rotate(-135)"/>
</clipPath>
</defs>
</svg>
