<svg width="1440" height="618" viewBox="0 0 1440 618" fill="none" xmlns="http://www.w3.org/2000/svg">
<g clip-path="url(#clip0_10613_12671)">
<g filter="url(#filter0_f_10613_12671)">
<ellipse cx="721.731" cy="1240.55" rx="897.438" ry="909.872" fill="url(#paint0_linear_10613_12671)" fill-opacity="0.7"/>
</g>
<g style="mix-blend-mode:screen" filter="url(#filter1_f_10613_12671)">
<path d="M652.248 335.062C603.243 362.855 518.4 381.872 388.209 460.864C375.044 512.063 689.988 496.264 709.298 497.434C733.434 498.897 1075 478.417 1028.19 439.653C981.381 400.888 875.327 357.004 801.455 339.45C742.357 325.407 740.748 260.458 718.805 242.904C702.715 242.904 701.252 307.269 652.248 335.062Z" fill="#FDD1A9"/>
</g>
<g style="mix-blend-mode:screen" filter="url(#filter2_f_10613_12671)">
<path d="M692.354 350.688C676.789 356.725 649.841 360.855 608.491 378.01C604.309 389.13 704.341 385.699 710.474 385.953C718.14 386.27 826.628 381.823 811.76 373.404C796.892 364.985 763.208 355.454 739.744 351.641C720.974 348.592 720.463 334.486 713.494 330.674C708.383 330.674 707.918 344.652 692.354 350.688Z" fill="white"/>
</g>
<g filter="url(#filter3_f_10613_12671)">
<path d="M602.512 359.199L717.343 314.583L832.174 359.199L717.343 403.815L602.512 359.199Z" fill="#FFF0DF"/>
</g>
<g style="mix-blend-mode:overlay" filter="url(#filter4_f_10613_12671)">
<path d="M602.425 303.964C510.815 355.906 273.378 435.996 158.547 607.422C133.936 703.108 672.977 605.235 709.074 607.422C754.195 610.156 1393.63 706.656 1306.13 634.208C1218.62 561.761 1019.45 344.971 881.353 312.165C770.875 285.92 767.868 164.537 726.848 131.73C696.768 131.73 694.034 252.021 602.425 303.964Z" fill="#F97146" fill-opacity="0.4"/>
</g>
<circle cx="720.269" cy="1258.83" r="898.901" fill="url(#paint1_radial_10613_12671)"/>
<g style="mix-blend-mode:lighten" opacity="0.36" filter="url(#filter5_f_10613_12671)">
<ellipse cx="716.612" cy="338.719" rx="146.282" ry="149.939" fill="white"/>
</g>
<g style="mix-blend-mode:overlay" filter="url(#filter6_f_10613_12671)">
<circle cx="863.625" cy="341.644" r="2.19423" fill="white"/>
</g>
<g style="mix-blend-mode:overlay" filter="url(#filter7_f_10613_12671)">
<circle cx="731.971" cy="261.189" r="2.19423" fill="white"/>
</g>
<g style="mix-blend-mode:overlay" filter="url(#filter8_f_10613_12671)">
<circle cx="672.727" cy="311.657" r="1.46282" fill="white"/>
</g>
<g filter="url(#filter9_f_10613_12671)">
<circle cx="738.554" cy="168.301" r="1.46282" fill="white"/>
</g>
<g filter="url(#filter10_f_10613_12671)">
<path d="M567.404 359.198L721.731 299.954L876.059 359.198L721.731 418.442L567.404 359.198Z" fill="#FCE5C9" fill-opacity="0.2"/>
</g>
<g filter="url(#filter11_f_10613_12671)">
<path d="M675.653 359.198L721.731 340.913L767.81 359.198L721.731 377.484L675.653 359.198Z" fill="#FFF0DF" fill-opacity="0.79"/>
</g>
<g style="mix-blend-mode:overlay">
<circle cx="629.574" cy="202.677" r="0.731409" fill="white"/>
</g>
<g style="mix-blend-mode:overlay">
<circle cx="620.797" cy="315.314" r="0.731409" fill="white"/>
</g>
<g style="mix-blend-mode:overlay">
<circle cx="859.236" cy="287.52" r="0.731409" fill="white"/>
</g>
<g style="mix-blend-mode:overlay">
<circle cx="936.766" cy="359.198" r="0.731409" fill="white"/>
</g>
<g style="mix-blend-mode:overlay">
<circle cx="519.863" cy="357.735" r="0.731409" fill="white"/>
</g>
<g style="mix-blend-mode:overlay">
<circle cx="155.621" cy="523.034" r="0.731409" fill="white"/>
</g>
<circle cx="448.185" cy="258.265" r="0.731409" fill="white"/>
<g style="mix-blend-mode:overlay">
<circle cx="832.905" cy="316.777" r="0.731409" fill="white"/>
</g>
<g style="mix-blend-mode:overlay">
<circle cx="557.896" cy="338.719" r="0.731409" fill="white"/>
</g>
<g style="mix-blend-mode:overlay">
<circle cx="563.747" cy="315.314" r="0.731409" fill="white"/>
</g>
<g style="mix-blend-mode:overlay">
<circle cx="437.945" cy="385.529" r="0.731409" fill="white"/>
</g>
<g style="mix-blend-mode:overlay">
<circle cx="506.697" cy="264.115" r="0.731409" fill="white"/>
</g>
<g style="mix-blend-mode:overlay">
<circle cx="249.241" cy="442.579" r="0.731409" fill="white"/>
</g>
<g style="mix-blend-mode:overlay">
<circle cx="332.622" cy="435.265" r="0.731409" fill="white"/>
</g>
<g style="mix-blend-mode:overlay">
<circle cx="1014.29" cy="395.769" r="0.731409" fill="white"/>
</g>
<g style="mix-blend-mode:overlay">
<circle cx="1087.44" cy="344.57" r="0.731409" fill="white"/>
</g>
<g style="mix-blend-mode:overlay">
<circle cx="1216.16" cy="499.629" r="0.731409" fill="white"/>
</g>
<g style="mix-blend-mode:overlay">
<circle cx="1046.48" cy="272.892" r="0.731409" fill="white"/>
</g>
<g style="mix-blend-mode:overlay">
<circle cx="552.045" cy="130.999" r="0.731409" fill="white"/>
</g>
<g style="mix-blend-mode:overlay">
<circle cx="831.443" cy="291.909" r="0.731409" fill="white"/>
</g>
<circle opacity="0.5" cx="450.379" cy="359.93" r="1.46282" fill="white"/>
<g filter="url(#filter12_f_10613_12671)">
<circle cx="948.468" cy="170.495" r="0.731409" fill="white"/>
</g>
<circle opacity="0.5" cx="783.5" cy="315.5" r="2.5" fill="white"/>
<rect x="-332.228" y="538.621" width="2106.46" height="993.026" fill="url(#paint2_linear_10613_12671)"/>
<line x1="720.5" y1="179.87" x2="720.5" y2="507.807" stroke="url(#paint3_linear_10613_12671)" stroke-opacity="0.3"/>
<circle cx="720.258" cy="454.44" r="1.28906" fill="white"/>
<circle cx="720.258" cy="405.656" r="1.28906" fill="white"/>
<circle cx="720.258" cy="294.081" r="1.28906" fill="white"/>
<circle cx="720.258" cy="325.018" r="1.28906" fill="white"/>
<circle cx="720.258" cy="355.44" r="1.28906" fill="white"/>
<circle cx="720.5" cy="357.004" r="16.5" fill="url(#paint4_radial_10613_12671)"/>
<g filter="url(#filter13_d_10613_12671)">
<path d="M716.29 359.016C716.16 358.526 716.145 358.012 716.246 357.515C716.347 357.018 716.561 356.551 716.872 356.15C717.182 355.749 717.581 355.425 718.037 355.203C718.493 354.981 718.994 354.867 719.501 354.87C719.782 354.871 720.061 354.908 720.332 354.98L721.267 354.045C720.709 353.805 720.108 353.682 719.501 353.684C718.756 353.683 718.023 353.867 717.366 354.219C716.71 354.572 716.151 355.081 715.74 355.703C715.329 356.324 715.079 357.038 715.012 357.78C714.945 358.522 715.063 359.269 715.355 359.954L716.29 359.016Z" fill="url(#paint5_linear_10613_12671)"/>
<path d="M716.29 359.016C716.16 358.526 716.145 358.012 716.246 357.515C716.347 357.018 716.561 356.551 716.872 356.15C717.182 355.749 717.581 355.425 718.037 355.203C718.493 354.981 718.994 354.867 719.501 354.87C719.782 354.871 720.061 354.908 720.332 354.98L721.267 354.045C720.709 353.805 720.108 353.682 719.501 353.684C718.756 353.683 718.023 353.867 717.366 354.219C716.71 354.572 716.151 355.081 715.74 355.703C715.329 356.324 715.079 357.038 715.012 357.78C714.945 358.522 715.063 359.269 715.355 359.954L716.29 359.016Z" fill="white"/>
<path d="M722.625 357.076C722.754 357.432 722.819 357.808 722.82 358.186C722.819 359.066 722.47 359.91 721.847 360.533C721.225 361.156 720.382 361.506 719.501 361.508C719.123 361.506 718.747 361.439 718.391 361.31L717.496 362.214C718.341 362.636 719.297 362.782 720.229 362.63C721.161 362.479 722.022 362.038 722.689 361.369C723.357 360.701 723.797 359.84 723.947 358.907C724.097 357.975 723.95 357.019 723.526 356.175L722.625 357.076Z" fill="url(#paint6_linear_10613_12671)"/>
<path d="M722.625 357.076C722.754 357.432 722.819 357.808 722.82 358.186C722.819 359.066 722.47 359.91 721.847 360.533C721.225 361.156 720.382 361.506 719.501 361.508C719.123 361.506 718.747 361.439 718.391 361.31L717.496 362.214C718.341 362.636 719.297 362.782 720.229 362.63C721.161 362.479 722.022 362.038 722.689 361.369C723.357 360.701 723.797 359.84 723.947 358.907C724.097 357.975 723.95 357.019 723.526 356.175L722.625 357.076Z" fill="white"/>
<path d="M716.211 359.107C715.702 358.136 715.517 357.029 715.681 355.946C715.846 354.863 716.351 353.86 717.125 353.084C717.899 352.308 718.9 351.8 719.982 351.632C721.065 351.465 722.173 351.647 723.145 352.153L724.018 351.28C722.806 350.563 721.391 350.27 719.995 350.447C718.598 350.623 717.3 351.259 716.305 352.255C715.311 353.251 714.676 354.549 714.5 355.946C714.325 357.343 714.62 358.758 715.338 359.968L716.211 359.107Z" fill="url(#paint7_linear_10613_12671)"/>
<path d="M716.211 359.107C715.702 358.136 715.517 357.029 715.681 355.946C715.846 354.863 716.351 353.86 717.125 353.084C717.899 352.308 718.9 351.8 719.982 351.632C721.065 351.465 722.173 351.647 723.145 352.153L724.018 351.28C722.806 350.563 721.391 350.27 719.995 350.447C718.598 350.623 717.3 351.259 716.305 352.255C715.311 353.251 714.676 354.549 714.5 355.946C714.325 357.343 714.62 358.758 715.338 359.968L716.211 359.107Z" fill="white"/>
<path d="M725.351 354.351C725.736 355.082 725.936 355.896 725.935 356.723C725.937 357.608 725.71 358.479 725.276 359.251C724.842 360.023 724.217 360.67 723.46 361.13C722.703 361.589 721.841 361.846 720.956 361.874C720.071 361.903 719.193 361.703 718.408 361.293L717.536 362.166C718.747 362.888 720.165 363.186 721.564 363.011C722.964 362.837 724.265 362.201 725.262 361.204C726.26 360.207 726.896 358.906 727.071 357.507C727.245 356.107 726.948 354.689 726.226 353.478L725.351 354.351Z" fill="url(#paint8_linear_10613_12671)"/>
<path d="M725.351 354.351C725.736 355.082 725.936 355.896 725.935 356.723C725.937 357.608 725.71 358.479 725.276 359.251C724.842 360.023 724.217 360.67 723.46 361.13C722.703 361.589 721.841 361.846 720.956 361.874C720.071 361.903 719.193 361.703 718.408 361.293L717.536 362.166C718.747 362.888 720.165 363.186 721.564 363.011C722.964 362.837 724.265 362.201 725.262 361.204C726.26 360.207 726.896 358.906 727.071 357.507C727.245 356.107 726.948 354.689 726.226 353.478L725.351 354.351Z" fill="white"/>
</g>
<path d="M727.162 349.505L710.999 365.668L711.838 366.507L728.001 350.344L727.162 349.505Z" fill="url(#paint9_linear_10613_12671)"/>
</g>
<defs>
<filter id="filter0_f_10613_12671" x="-215.707" y="290.674" width="1874.88" height="1899.74" filterUnits="userSpaceOnUse" color-interpolation-filters="sRGB">
<feFlood flood-opacity="0" result="BackgroundImageFix"/>
<feBlend mode="normal" in="SourceGraphic" in2="BackgroundImageFix" result="shape"/>
<feGaussianBlur stdDeviation="20" result="effect1_foregroundBlur_10613_12671"/>
</filter>
<filter id="filter1_f_10613_12671" x="325.808" y="180.904" width="768.784" height="379.948" filterUnits="userSpaceOnUse" color-interpolation-filters="sRGB">
<feFlood flood-opacity="0" result="BackgroundImageFix"/>
<feBlend mode="normal" in="SourceGraphic" in2="BackgroundImageFix" result="shape"/>
<feGaussianBlur stdDeviation="31" result="effect1_foregroundBlur_10613_12671"/>
</filter>
<filter id="filter2_f_10613_12671" x="591.363" y="313.674" width="238.794" height="89.5872" filterUnits="userSpaceOnUse" color-interpolation-filters="sRGB">
<feFlood flood-opacity="0" result="BackgroundImageFix"/>
<feBlend mode="normal" in="SourceGraphic" in2="BackgroundImageFix" result="shape"/>
<feGaussianBlur stdDeviation="8.5" result="effect1_foregroundBlur_10613_12671"/>
</filter>
<filter id="filter3_f_10613_12671" x="557.512" y="269.583" width="319.662" height="179.232" filterUnits="userSpaceOnUse" color-interpolation-filters="sRGB">
<feFlood flood-opacity="0" result="BackgroundImageFix"/>
<feBlend mode="normal" in="SourceGraphic" in2="BackgroundImageFix" result="shape"/>
<feGaussianBlur stdDeviation="22.5" result="effect1_foregroundBlur_10613_12671"/>
</filter>
<filter id="filter4_f_10613_12671" x="95.7294" y="69.7305" width="1280.61" height="653.383" filterUnits="userSpaceOnUse" color-interpolation-filters="sRGB">
<feFlood flood-opacity="0" result="BackgroundImageFix"/>
<feBlend mode="normal" in="SourceGraphic" in2="BackgroundImageFix" result="shape"/>
<feGaussianBlur stdDeviation="31" result="effect1_foregroundBlur_10613_12671"/>
</filter>
<filter id="filter5_f_10613_12671" x="394.33" y="12.7803" width="644.563" height="651.877" filterUnits="userSpaceOnUse" color-interpolation-filters="sRGB">
<feFlood flood-opacity="0" result="BackgroundImageFix"/>
<feBlend mode="normal" in="SourceGraphic" in2="BackgroundImageFix" result="shape"/>
<feGaussianBlur stdDeviation="88" result="effect1_foregroundBlur_10613_12671"/>
</filter>
<filter id="filter6_f_10613_12671" x="860.43" y="338.45" width="6.38843" height="6.38843" filterUnits="userSpaceOnUse" color-interpolation-filters="sRGB">
<feFlood flood-opacity="0" result="BackgroundImageFix"/>
<feBlend mode="normal" in="SourceGraphic" in2="BackgroundImageFix" result="shape"/>
<feGaussianBlur stdDeviation="0.5" result="effect1_foregroundBlur_10613_12671"/>
</filter>
<filter id="filter7_f_10613_12671" x="728.777" y="257.995" width="6.38843" height="6.38843" filterUnits="userSpaceOnUse" color-interpolation-filters="sRGB">
<feFlood flood-opacity="0" result="BackgroundImageFix"/>
<feBlend mode="normal" in="SourceGraphic" in2="BackgroundImageFix" result="shape"/>
<feGaussianBlur stdDeviation="0.5" result="effect1_foregroundBlur_10613_12671"/>
</filter>
<filter id="filter8_f_10613_12671" x="670.264" y="309.194" width="4.92566" height="4.92554" filterUnits="userSpaceOnUse" color-interpolation-filters="sRGB">
<feFlood flood-opacity="0" result="BackgroundImageFix"/>
<feBlend mode="normal" in="SourceGraphic" in2="BackgroundImageFix" result="shape"/>
<feGaussianBlur stdDeviation="0.5" result="effect1_foregroundBlur_10613_12671"/>
</filter>
<filter id="filter9_f_10613_12671" x="736.091" y="165.838" width="4.92566" height="4.92554" filterUnits="userSpaceOnUse" color-interpolation-filters="sRGB">
<feFlood flood-opacity="0" result="BackgroundImageFix"/>
<feBlend mode="normal" in="SourceGraphic" in2="BackgroundImageFix" result="shape"/>
<feGaussianBlur stdDeviation="0.5" result="effect1_foregroundBlur_10613_12671"/>
</filter>
<filter id="filter10_f_10613_12671" x="527.404" y="259.954" width="388.654" height="198.488" filterUnits="userSpaceOnUse" color-interpolation-filters="sRGB">
<feFlood flood-opacity="0" result="BackgroundImageFix"/>
<feBlend mode="normal" in="SourceGraphic" in2="BackgroundImageFix" result="shape"/>
<feGaussianBlur stdDeviation="20" result="effect1_foregroundBlur_10613_12671"/>
</filter>
<filter id="filter11_f_10613_12671" x="639.653" y="304.913" width="164.157" height="108.57" filterUnits="userSpaceOnUse" color-interpolation-filters="sRGB">
<feFlood flood-opacity="0" result="BackgroundImageFix"/>
<feBlend mode="normal" in="SourceGraphic" in2="BackgroundImageFix" result="shape"/>
<feGaussianBlur stdDeviation="18" result="effect1_foregroundBlur_10613_12671"/>
</filter>
<filter id="filter12_f_10613_12671" x="946.737" y="168.764" width="3.46277" height="3.46289" filterUnits="userSpaceOnUse" color-interpolation-filters="sRGB">
<feFlood flood-opacity="0" result="BackgroundImageFix"/>
<feBlend mode="normal" in="SourceGraphic" in2="BackgroundImageFix" result="shape"/>
<feGaussianBlur stdDeviation="0.5" result="effect1_foregroundBlur_10613_12671"/>
</filter>
<filter id="filter13_d_10613_12671" x="711.451" y="347.396" width="18.6683" height="18.6633" filterUnits="userSpaceOnUse" color-interpolation-filters="sRGB">
<feFlood flood-opacity="0" result="BackgroundImageFix"/>
<feColorMatrix in="SourceAlpha" type="matrix" values="0 0 0 0 0 0 0 0 0 0 0 0 0 0 0 0 0 0 127 0" result="hardAlpha"/>
<feOffset/>
<feGaussianBlur stdDeviation="1.5"/>
<feComposite in2="hardAlpha" operator="out"/>
<feColorMatrix type="matrix" values="0 0 0 0 1 0 0 0 0 1 0 0 0 0 1 0 0 0 0.95 0"/>
<feBlend mode="normal" in2="BackgroundImageFix" result="effect1_dropShadow_10613_12671"/>
<feBlend mode="normal" in="SourceGraphic" in2="effect1_dropShadow_10613_12671" result="shape"/>
</filter>
<linearGradient id="paint0_linear_10613_12671" x1="-114.311" y1="765.991" x2="1619.17" y2="765.991" gradientUnits="userSpaceOnUse">
<stop stop-color="#FF3D00" stop-opacity="0"/>
<stop offset="0.478923" stop-color="#C72600"/>
<stop offset="1" stop-color="#FF440A" stop-opacity="0"/>
</linearGradient>
<radialGradient id="paint1_radial_10613_12671" cx="0" cy="0" r="1" gradientUnits="userSpaceOnUse" gradientTransform="translate(719.537 1259.56) rotate(-90) scale(907.678 1025.54)">
<stop offset="0.718812"/>
<stop offset="0.925955" stop-color="#080807"/>
<stop offset="1" stop-color="#302F2D"/>
</radialGradient>
<linearGradient id="paint2_linear_10613_12671" x1="721" y1="538.621" x2="721" y2="1531.65" gradientUnits="userSpaceOnUse">
<stop stop-opacity="0"/>
<stop offset="0.165638"/>
</linearGradient>
<linearGradient id="paint3_linear_10613_12671" x1="720" y1="188.718" x2="720" y2="512.782" gradientUnits="userSpaceOnUse">
<stop stop-color="white" stop-opacity="0"/>
<stop offset="0.247716" stop-color="white"/>
<stop offset="0.849305" stop-color="white"/>
<stop offset="1" stop-color="white" stop-opacity="0"/>
</linearGradient>
<radialGradient id="paint4_radial_10613_12671" cx="0" cy="0" r="1" gradientUnits="userSpaceOnUse" gradientTransform="translate(720.5 362.263) rotate(-90) scale(21.7593)">
<stop offset="0.307284"/>
<stop offset="0.584068" stop-color="#52242F"/>
<stop offset="0.833699" stop-color="#E92E01"/>
<stop offset="1" stop-color="white"/>
</radialGradient>
<linearGradient id="paint5_linear_10613_12671" x1="725.23" y1="352.083" x2="709.928" y2="355.341" gradientUnits="userSpaceOnUse">
<stop stop-color="#CAB7FF"/>
<stop offset="0.162438" stop-color="#FFCEF4"/>
<stop offset="0.298373" stop-color="#F0FFC5"/>
<stop offset="0.601047" stop-color="#59FF9C"/>
<stop offset="1" stop-color="#B659FF"/>
</linearGradient>
<linearGradient id="paint6_linear_10613_12671" x1="725.23" y1="352.083" x2="709.928" y2="355.341" gradientUnits="userSpaceOnUse">
<stop stop-color="#CAB7FF"/>
<stop offset="0.162438" stop-color="#FFCEF4"/>
<stop offset="0.298373" stop-color="#F0FFC5"/>
<stop offset="0.601047" stop-color="#59FF9C"/>
<stop offset="1" stop-color="#B659FF"/>
</linearGradient>
<linearGradient id="paint7_linear_10613_12671" x1="725.23" y1="352.083" x2="709.928" y2="355.341" gradientUnits="userSpaceOnUse">
<stop stop-color="#CAB7FF"/>
<stop offset="0.162438" stop-color="#FFCEF4"/>
<stop offset="0.298373" stop-color="#F0FFC5"/>
<stop offset="0.601047" stop-color="#59FF9C"/>
<stop offset="1" stop-color="#B659FF"/>
</linearGradient>
<linearGradient id="paint8_linear_10613_12671" x1="725.23" y1="352.083" x2="709.928" y2="355.341" gradientUnits="userSpaceOnUse">
<stop stop-color="#CAB7FF"/>
<stop offset="0.162438" stop-color="#FFCEF4"/>
<stop offset="0.298373" stop-color="#F0FFC5"/>
<stop offset="0.601047" stop-color="#59FF9C"/>
<stop offset="1" stop-color="#B659FF"/>
</linearGradient>
<linearGradient id="paint9_linear_10613_12671" x1="711.418" y1="366.087" x2="727.581" y2="349.924" gradientUnits="userSpaceOnUse">
<stop stop-color="white" stop-opacity="0"/>
<stop offset="0.643466" stop-color="white"/>
</linearGradient>
<clipPath id="clip0_10613_12671">
<rect width="1440" height="661" fill="white"/>
</clipPath>
</defs>
</svg>
