<svg width="85" height="39" viewBox="0 0 85 39" fill="none" xmlns="http://www.w3.org/2000/svg">
<path d="M50.5 9L19.6076 5.07283C17.0598 4.74894 14.4715 5.08465 12.0907 6.0478L3.7705 9.41365C2.23132 10.0363 2.07726 12.1549 3.51018 12.9937L30 28.5L49 31.5789L50.5 9Z" fill="url(#paint0_linear_10421_90440)"/>
<path d="M48.7935 9.71012C50.646 8.29639 53.3327 9.44236 53.5945 11.7579L55.9068 32.2088C56.1499 34.3584 54.107 36.0508 52.0402 35.4122L31.319 29.0098C28.9889 28.2898 28.4459 25.2381 30.3846 23.7586L48.7935 9.71012Z" fill="url(#paint1_linear_10421_90440)"/>
<g clip-path="url(#clip0_10421_90440)">
<path d="M21.3866 12.8567C21.4818 12.5658 21.6636 12.2709 21.9177 11.9947C22.1719 11.7185 22.4916 11.4686 22.8522 11.2642C23.2127 11.0598 23.6043 10.9065 23.9967 10.8162C24.389 10.7258 24.7715 10.7009 25.1145 10.7434C25.3045 10.7662 25.48 10.8098 25.6366 10.873L26.6202 10.4135C26.3317 10.2314 25.9701 10.1128 25.5577 10.065C25.0527 10.0046 24.4863 10.0509 23.9093 10.1997C23.3323 10.3485 22.7628 10.5951 22.2518 10.9175C21.7408 11.2399 21.3043 11.628 20.9815 12.0469C20.6587 12.4658 20.4596 12.9025 20.402 13.3179L21.3866 12.8567Z" fill="url(#paint2_linear_10421_90440)"/>
<path d="M21.3866 12.8567C21.4818 12.5658 21.6636 12.2709 21.9177 11.9947C22.1719 11.7185 22.4916 11.4686 22.8522 11.2642C23.2127 11.0598 23.6043 10.9065 23.9967 10.8162C24.389 10.7258 24.7715 10.7009 25.1145 10.7434C25.3045 10.7662 25.48 10.8098 25.6366 10.873L26.6202 10.4135C26.3317 10.2314 25.9701 10.1128 25.5577 10.065C25.0527 10.0046 24.4863 10.0509 23.9093 10.1997C23.3323 10.3485 22.7628 10.5951 22.2518 10.9175C21.7408 11.2399 21.3043 11.628 20.9815 12.0469C20.6587 12.4658 20.4596 12.9025 20.402 13.3179L21.3866 12.8567Z" fill="white"/>
<path d="M26.4094 12.2557C26.3634 12.4696 26.2679 12.6896 26.1268 12.9061C25.7974 13.4094 25.2448 13.864 24.5901 14.1701C23.9354 14.4763 23.232 14.609 22.6344 14.5391C22.3781 14.5079 22.1483 14.4395 21.9552 14.337L21.0101 14.7819C21.4252 15.0914 22.0194 15.2515 22.7084 15.2397C23.3974 15.2279 24.1462 15.0447 24.8486 14.7161C25.551 14.3876 26.1713 13.9303 26.6216 13.4091C27.0719 12.888 27.3293 12.3295 27.3573 11.8128L26.4094 12.2557Z" fill="url(#paint3_linear_10421_90440)"/>
<path d="M26.4094 12.2557C26.3634 12.4696 26.2679 12.6896 26.1268 12.9061C25.7974 13.4094 25.2448 13.864 24.5901 14.1701C23.9354 14.4763 23.232 14.609 22.6344 14.5391C22.3781 14.5079 22.1483 14.4395 21.9552 14.337L21.0101 14.7819C21.4252 15.0914 22.0194 15.2515 22.7084 15.2397C23.3974 15.2279 24.1462 15.0447 24.8486 14.7161C25.551 14.3876 26.1713 13.9303 26.6216 13.4091C27.0719 12.888 27.3293 12.3295 27.3573 11.8128L26.4094 12.2557Z" fill="white"/>
<path d="M21.2992 12.902C21.3168 12.3062 21.6046 11.658 22.1209 11.0517C22.6372 10.4454 23.3549 9.91276 24.1696 9.53119C24.9843 9.14963 25.8535 8.93911 26.6506 8.93028C27.4477 8.92144 28.1312 9.11476 28.6014 9.48208L29.5196 9.05305C28.9658 8.54576 28.1152 8.26433 27.102 8.25312C26.0887 8.24191 24.9704 8.50158 23.9234 8.99116C22.8765 9.48075 21.9605 10.1724 21.3198 10.957C20.6792 11.7417 20.3504 12.5746 20.3853 13.3246L21.2992 12.902Z" fill="url(#paint4_linear_10421_90440)"/>
<path d="M21.2992 12.902C21.3168 12.3062 21.6046 11.658 22.1209 11.0517C22.6372 10.4454 23.3549 9.91276 24.1696 9.53119C24.9843 9.14963 25.8535 8.93911 26.6506 8.93028C27.4477 8.92144 28.1312 9.11476 28.6014 9.48208L29.5196 9.05305C28.9658 8.54576 28.1152 8.26433 27.102 8.25312C26.0887 8.24191 24.9704 8.50158 23.9234 8.99116C22.8765 9.48075 21.9605 10.1724 21.3198 10.957C20.6792 11.7417 20.3504 12.5746 20.3853 13.3246L21.2992 12.902Z" fill="white"/>
<path d="M29.2768 10.9158C29.2646 11.3651 29.0964 11.8469 28.7869 12.3196C28.457 12.826 27.9776 13.3058 27.3949 13.7124C26.8123 14.1191 26.1462 14.4388 25.4611 14.6409C24.7759 14.8429 24.0949 14.9203 23.4839 14.8656C22.8729 14.8109 22.3525 14.6259 21.9731 14.3286L21.0549 14.7577C21.6067 15.268 22.4572 15.552 23.4717 15.5648C24.4862 15.5776 25.6068 15.3184 26.656 14.8283C27.7052 14.3382 28.6231 13.6451 29.2645 12.8588C29.9058 12.0725 30.2339 11.2379 30.1969 10.487L29.2768 10.9158Z" fill="url(#paint5_linear_10421_90440)"/>
<path d="M29.2768 10.9158C29.2646 11.3651 29.0964 11.8469 28.7869 12.3196C28.457 12.826 27.9776 13.3058 27.3949 13.7124C26.8123 14.1191 26.1462 14.4388 25.4611 14.6409C24.7759 14.8429 24.0949 14.9203 23.4839 14.8656C22.8729 14.8109 22.3525 14.6259 21.9731 14.3286L21.0549 14.7577C21.6067 15.268 22.4572 15.552 23.4717 15.5648C24.4862 15.5776 25.6068 15.3184 26.656 14.8283C27.7052 14.3382 28.6231 13.6451 29.2645 12.8588C29.9058 12.0725 30.2339 11.2379 30.1969 10.487L29.2768 10.9158Z" fill="white"/>
<path d="M32.3159 8.29045L15.3116 16.236L15.5672 16.783L32.5715 8.8375L32.3159 8.29045Z" fill="url(#paint6_linear_10421_90440)"/>
</g>
<ellipse cx="47.9224" cy="22.8706" rx="4" ry="4.5" transform="rotate(19.7443 47.9224 22.8706)" fill="url(#paint7_linear_10421_90440)"/>
<path d="M76.01 30.9091L49.8612 18.8179L45.6085 26.6913L75.3155 38.093L84.3122 38.3363L76.01 30.9091Z" fill="url(#paint8_linear_10421_90440)"/>
<defs>
<linearGradient id="paint0_linear_10421_90440" x1="24.4562" y1="29.818" x2="8.5341" y2="-1.18788" gradientUnits="userSpaceOnUse">
<stop stop-color="#0F1328"/>
<stop offset="1" stop-color="#FC5858"/>
</linearGradient>
<linearGradient id="paint1_linear_10421_90440" x1="49.6942" y1="12.5217" x2="56.0504" y2="41.4137" gradientUnits="userSpaceOnUse">
<stop stop-color="#050810"/>
<stop offset="1" stop-color="#551F23"/>
</linearGradient>
<linearGradient id="paint2_linear_10421_90440" x1="30.0426" y1="9.60914" x2="20.1839" y2="5.77276" gradientUnits="userSpaceOnUse">
<stop stop-color="#CAB7FF"/>
<stop offset="0.162438" stop-color="#FFCEF4"/>
<stop offset="0.298373" stop-color="#F0FFC5"/>
<stop offset="0.601047" stop-color="#59FF9C"/>
<stop offset="1" stop-color="#B659FF"/>
</linearGradient>
<linearGradient id="paint3_linear_10421_90440" x1="30.0426" y1="9.60914" x2="20.1839" y2="5.77276" gradientUnits="userSpaceOnUse">
<stop stop-color="#CAB7FF"/>
<stop offset="0.162438" stop-color="#FFCEF4"/>
<stop offset="0.298373" stop-color="#F0FFC5"/>
<stop offset="0.601047" stop-color="#59FF9C"/>
<stop offset="1" stop-color="#B659FF"/>
</linearGradient>
<linearGradient id="paint4_linear_10421_90440" x1="30.0426" y1="9.60914" x2="20.1839" y2="5.77276" gradientUnits="userSpaceOnUse">
<stop stop-color="#CAB7FF"/>
<stop offset="0.162438" stop-color="#FFCEF4"/>
<stop offset="0.298373" stop-color="#F0FFC5"/>
<stop offset="0.601047" stop-color="#59FF9C"/>
<stop offset="1" stop-color="#B659FF"/>
</linearGradient>
<linearGradient id="paint5_linear_10421_90440" x1="30.0426" y1="9.60914" x2="20.1839" y2="5.77276" gradientUnits="userSpaceOnUse">
<stop stop-color="#CAB7FF"/>
<stop offset="0.162438" stop-color="#FFCEF4"/>
<stop offset="0.298373" stop-color="#F0FFC5"/>
<stop offset="0.601047" stop-color="#59FF9C"/>
<stop offset="1" stop-color="#B659FF"/>
</linearGradient>
<linearGradient id="paint6_linear_10421_90440" x1="15.4394" y1="16.5095" x2="32.4437" y2="8.56397" gradientUnits="userSpaceOnUse">
<stop stop-color="white" stop-opacity="0"/>
<stop offset="0.643466" stop-color="white"/>
</linearGradient>
<linearGradient id="paint7_linear_10421_90440" x1="48.195" y1="22.7557" x2="44.4016" y2="22.4236" gradientUnits="userSpaceOnUse">
<stop stop-color="#68DBFF"/>
<stop offset="1" stop-color="white"/>
</linearGradient>
<linearGradient id="paint8_linear_10421_90440" x1="49.7284" y1="22.481" x2="79.125" y2="34.0466" gradientUnits="userSpaceOnUse">
<stop stop-color="#68DBFF"/>
<stop offset="1" stop-color="#68DBFF" stop-opacity="0"/>
</linearGradient>
<clipPath id="clip0_10421_90440">
<rect width="11.6133" height="11.6133" fill="white" transform="matrix(0.993068 0.117537 -0.546979 0.837146 21.3523 6.99182)"/>
</clipPath>
</defs>
</svg>
