<svg width="213" height="213" viewBox="0 0 213 213" fill="none" xmlns="http://www.w3.org/2000/svg">
<circle cx="106.5" cy="106.5" r="106.5" fill="url(#paint0_linear_10421_90466)"/>
<g clip-path="url(#clip0_10421_90466)">
<path d="M71.9074 123.057C70.8829 119.185 70.7642 115.129 71.5606 111.204C72.357 107.278 74.047 103.59 76.4995 100.423C78.9519 97.2567 82.101 94.6979 85.7022 92.9452C89.3035 91.1925 93.2601 90.293 97.2652 90.3167C99.4793 90.3211 101.683 90.6135 103.822 91.1864L111.204 83.8044C106.802 81.9088 102.058 80.9372 97.2652 80.9497C91.3823 80.942 85.5895 82.3944 80.4061 85.1767C75.2227 87.959 70.8108 91.9841 67.5659 96.8911C64.3211 101.798 62.3447 107.434 61.814 113.293C61.2833 119.152 62.2149 125.051 64.5253 130.461L71.9074 123.057Z" fill="url(#paint1_linear_10421_90466)"/>
<path d="M71.9074 123.057C70.8829 119.185 70.7642 115.129 71.5606 111.204C72.357 107.278 74.047 103.59 76.4995 100.423C78.9519 97.2567 82.101 94.6979 85.7022 92.9452C89.3035 91.1925 93.2601 90.293 97.2652 90.3167C99.4793 90.3211 101.683 90.6135 103.822 91.1864L111.204 83.8044C106.802 81.9088 102.058 80.9372 97.2652 80.9497C91.3823 80.942 85.5895 82.3944 80.4061 85.1767C75.2227 87.959 70.8108 91.9841 67.5659 96.8911C64.3211 101.798 62.3447 107.434 61.814 113.293C61.2833 119.152 62.2149 125.051 64.5253 130.461L71.9074 123.057Z" fill="black"/>
<path d="M121.932 107.735C122.945 110.546 123.466 113.511 123.47 116.5C123.465 123.45 120.702 130.114 115.79 135.031C110.877 139.948 104.215 142.715 97.2652 142.727C94.2755 142.715 91.3103 142.187 88.5003 141.166L81.4305 148.303C88.0998 151.639 95.6503 152.79 103.011 151.594C110.371 150.397 117.168 146.913 122.438 141.637C127.707 136.36 131.181 129.558 132.367 122.196C133.553 114.834 132.391 107.285 129.046 100.62L121.932 107.735Z" fill="url(#paint2_linear_10421_90466)"/>
<path d="M121.932 107.735C122.945 110.546 123.466 113.511 123.47 116.5C123.465 123.45 120.702 130.114 115.79 135.031C110.877 139.948 104.215 142.715 97.2652 142.727C94.2755 142.715 91.3103 142.187 88.5003 141.166L81.4305 148.303C88.0998 151.639 95.6503 152.79 103.011 151.594C110.371 150.397 117.168 146.913 122.438 141.637C127.707 136.36 131.181 129.558 132.367 122.196C133.553 114.834 132.391 107.285 129.046 100.62L121.932 107.735Z" fill="black"/>
<path d="M71.2829 123.77C67.2667 116.108 65.8009 107.363 67.0989 98.8096C68.397 90.2561 72.391 82.3402 78.4998 76.214C84.6085 70.0879 92.5131 66.0713 101.063 64.7489C109.613 63.4265 118.361 64.8674 126.035 68.8618L132.927 61.9703C123.362 56.3088 112.186 53.992 101.159 55.3854C90.1322 56.7789 79.883 61.8032 72.0278 69.6661C64.1726 77.529 59.1583 87.783 57.7756 98.8111C56.3929 109.839 58.7206 121.014 64.3915 130.572L71.2829 123.77Z" fill="url(#paint3_linear_10421_90466)"/>
<path d="M71.2829 123.77C67.2667 116.108 65.8009 107.363 67.0989 98.8096C68.397 90.2561 72.391 82.3402 78.4998 76.214C84.6085 70.0879 92.5131 66.0713 101.063 64.7489C109.613 63.4265 118.361 64.8674 126.035 68.8618L132.927 61.9703C123.362 56.3088 112.186 53.992 101.159 55.3854C90.1322 56.7789 79.883 61.8032 72.0278 69.6661C64.1726 77.529 59.1583 87.783 57.7756 98.8111C56.3929 109.839 58.7206 121.014 64.3915 130.572L71.2829 123.77Z" fill="black"/>
<path d="M143.453 86.213C146.492 91.9895 148.077 98.4199 148.07 104.947C148.081 111.938 146.287 118.814 142.863 124.91C139.439 131.005 134.5 136.114 128.523 139.743C122.547 143.371 115.736 145.396 108.748 145.622C101.76 145.848 94.8323 144.267 88.6341 141.032L81.7427 147.924C91.3076 153.627 102.502 155.977 113.553 154.603C124.604 153.228 134.881 148.206 142.756 140.333C150.632 132.46 155.657 122.184 157.036 111.134C158.414 100.083 156.067 88.8884 150.367 79.3216L143.453 86.213Z" fill="url(#paint4_linear_10421_90466)"/>
<path d="M143.453 86.213C146.492 91.9895 148.077 98.4199 148.07 104.947C148.081 111.938 146.287 118.814 142.863 124.91C139.439 131.005 134.5 136.114 128.523 139.743C122.547 143.371 115.736 145.396 108.748 145.622C101.76 145.848 94.8323 144.267 88.6341 141.032L81.7427 147.924C91.3076 153.627 102.502 155.977 113.553 154.603C124.604 153.228 134.881 148.206 142.756 140.333C150.632 132.46 155.657 122.184 157.036 111.134C158.414 100.083 156.067 88.8884 150.367 79.3216L143.453 86.213Z" fill="black"/>
<path d="M157.755 47.9544L30.1268 175.582L36.7502 182.206L164.378 54.5779L157.755 47.9544Z" fill="url(#paint5_linear_10421_90466)"/>
</g>
<defs>
<linearGradient id="paint0_linear_10421_90466" x1="106.5" y1="0" x2="106.5" y2="213" gradientUnits="userSpaceOnUse">
<stop stop-color="#EA3206"/>
<stop offset="0.802083" stop-color="#EA3206"/>
</linearGradient>
<linearGradient id="paint1_linear_10421_90466" x1="142.503" y1="68.3041" x2="21.6708" y2="94.0355" gradientUnits="userSpaceOnUse">
<stop stop-color="#CAB7FF"/>
<stop offset="0.162438" stop-color="#FFCEF4"/>
<stop offset="0.298373" stop-color="#F0FFC5"/>
<stop offset="0.601047" stop-color="#59FF9C"/>
<stop offset="1" stop-color="#B659FF"/>
</linearGradient>
<linearGradient id="paint2_linear_10421_90466" x1="142.503" y1="68.3041" x2="21.6708" y2="94.0355" gradientUnits="userSpaceOnUse">
<stop stop-color="#CAB7FF"/>
<stop offset="0.162438" stop-color="#FFCEF4"/>
<stop offset="0.298373" stop-color="#F0FFC5"/>
<stop offset="0.601047" stop-color="#59FF9C"/>
<stop offset="1" stop-color="#B659FF"/>
</linearGradient>
<linearGradient id="paint3_linear_10421_90466" x1="142.503" y1="68.3041" x2="21.6708" y2="94.0355" gradientUnits="userSpaceOnUse">
<stop stop-color="#CAB7FF"/>
<stop offset="0.162438" stop-color="#FFCEF4"/>
<stop offset="0.298373" stop-color="#F0FFC5"/>
<stop offset="0.601047" stop-color="#59FF9C"/>
<stop offset="1" stop-color="#B659FF"/>
</linearGradient>
<linearGradient id="paint4_linear_10421_90466" x1="142.503" y1="68.3041" x2="21.6708" y2="94.0355" gradientUnits="userSpaceOnUse">
<stop stop-color="#CAB7FF"/>
<stop offset="0.162438" stop-color="#FFCEF4"/>
<stop offset="0.298373" stop-color="#F0FFC5"/>
<stop offset="0.601047" stop-color="#59FF9C"/>
<stop offset="1" stop-color="#B659FF"/>
</linearGradient>
<linearGradient id="paint5_linear_10421_90466" x1="33.4385" y1="178.894" x2="161.066" y2="51.2661" gradientUnits="userSpaceOnUse">
<stop stop-opacity="0"/>
<stop offset="0.643466"/>
</linearGradient>
<clipPath id="clip0_10421_90466">
<rect width="134.238" height="134.238" fill="white" transform="translate(30.135 47.9421)"/>
</clipPath>
</defs>
</svg>
