<svg width="55" height="17" viewBox="0 0 55 17" fill="none" xmlns="http://www.w3.org/2000/svg">
<g opacity="0.5">
<path d="M24.1797 5.25781V3.625H33.1875V5.25781H29.7344V15H27.6328V5.25781H24.1797Z" fill="white"/>
<path d="M34.0078 9.66406V8.96094C34.0078 7.15885 34.4714 5.78125 35.3984 4.82812C36.3255 3.875 37.5182 3.39844 38.9766 3.39844C40.4349 3.39844 41.6302 3.875 42.5625 4.82812C43.5 5.78125 43.9688 7.15885 43.9688 8.96094V9.66406C43.9688 11.4661 43.5 12.8438 42.5625 13.7969C41.6302 14.75 40.4349 15.2266 38.9766 15.2266C37.5182 15.2266 36.3255 14.75 35.3984 13.7969C34.4714 12.8438 34.0078 11.4661 34.0078 9.66406ZM36.1562 9.82812C36.1562 11.0625 36.4115 11.9974 36.9219 12.6328C37.4375 13.263 38.1224 13.5781 38.9766 13.5781C39.8359 13.5781 40.5234 13.263 41.0391 12.6328C41.5599 11.9974 41.8203 11.0625 41.8203 9.82812V8.79688C41.8203 7.5625 41.5599 6.63021 41.0391 6C40.5234 5.36458 39.8359 5.04688 38.9766 5.04688C38.1224 5.04688 37.4375 5.36458 36.9219 6C36.4115 6.63021 36.1562 7.5625 36.1562 8.79688V9.82812Z" fill="white"/>
<path d="M45.9922 15V3.625H48.2109L52.6094 10.9766C52.7031 11.138 52.7865 11.2917 52.8594 11.4375C52.9375 11.5833 53.0052 11.7318 53.0625 11.8828H53.125C53.1198 11.7109 53.1146 11.5417 53.1094 11.375C53.1094 11.2031 53.1094 11.0312 53.1094 10.8594V3.625H54.9766V15H52.7266L48.3516 7.67969C48.2578 7.52344 48.1745 7.36979 48.1016 7.21875C48.0286 7.06771 47.9609 6.91667 47.8984 6.76562H47.8438C47.849 6.93229 47.8542 7.10938 47.8594 7.29688C47.8646 7.47917 47.8672 7.65365 47.8672 7.82031V15H45.9922Z" fill="white"/>
</g>
<path fill-rule="evenodd" clip-rule="evenodd" d="M14.2872 -2.37159e-07L2.62229 -1.25694e-06C2.20956 -1.29302e-06 1.79727 0.0606237 1.36619 0.261514C0.849649 0.502448 0.575609 0.881858 0.383669 1.16328C0.368904 1.18565 0.354811 1.20802 0.341837 1.2304C0.116424 1.6272 -0.0014078 2.07602 1.50374e-05 2.53238C1.49986e-05 2.97577 0.105379 3.45853 0.341837 3.87955L0.348772 3.89163L7.71854 16.5509C7.7984 16.688 7.91295 16.8017 8.05067 16.8805C8.18839 16.9594 8.34443 17.0006 8.50312 17C8.66181 16.9994 8.81755 16.9571 8.95471 16.8773C9.09186 16.7975 9.20559 16.683 9.28448 16.5453L16.5189 3.91266L16.5252 3.90237C16.6907 3.62945 16.9469 3.20753 16.9916 2.66213C17.0331 2.16121 16.9203 1.65959 16.6683 1.22466C16.4164 0.789724 16.0374 0.442307 15.5822 0.229077C15.0943 0.0017895 14.5993 -2.09877e-07 14.2872 -2.37159e-07ZM9.40416 1.80846L14.2872 1.80846C14.608 1.80846 14.731 1.82837 14.8172 1.86864C14.9371 1.92479 15.0369 2.01638 15.1031 2.13105C15.1702 2.24727 15.2002 2.38119 15.1892 2.51493C15.1829 2.59189 15.1514 2.6798 14.9655 2.98472L14.9541 3.00396L9.40304 12.6973L9.40416 1.80846ZM7.59572 1.80846L7.59572 12.7451L1.91605 2.98852C1.84396 2.84721 1.80704 2.69057 1.80845 2.53193C1.80708 2.39803 1.83923 2.26591 1.90196 2.1476C1.94482 2.08234 1.99285 2.02062 2.04558 1.96304C2.06953 1.93717 2.09834 1.91626 2.13037 1.90152C2.26459 1.83888 2.40194 1.80935 2.62252 1.80935L7.59572 1.80846Z" fill="#808080"/>
</svg>
