<svg width="258" height="11" viewBox="0 0 258 11" fill="none" xmlns="http://www.w3.org/2000/svg">
<path d="M0.330399 0H11.5496C11.7651 0 11.88 0.105186 11.88 0.330582V1.80317C11.88 2.02857 11.7651 2.14878 11.5496 2.14878H7.03894V10.1879C7.03894 10.4133 6.93839 10.5185 6.72291 10.5185H5.1571C4.94162 10.5185 4.84107 10.4133 4.84107 10.1879V2.14878H0.330399C0.114921 2.14878 0 2.02857 0 1.80317V0.330582C0 0.105186 0.114921 0 0.330399 0Z" fill="white"/>
<path d="M23.9685 0H28.4074C31.3235 0 32.4296 1.0819 32.4296 3.96698V6.55154C32.4296 9.43661 31.3235 10.5185 28.4074 10.5185H23.9685C21.0668 10.5185 19.9463 9.43661 19.9463 6.55154V3.96698C19.9463 1.0819 21.0668 0 23.9685 0ZM22.1442 4.13228V6.38624C22.1442 7.96402 22.5751 8.42984 24.0547 8.42984H28.3212C29.8008 8.42984 30.2318 7.96402 30.2318 6.38624V4.13228C30.2318 2.5545 29.8008 2.08868 28.3212 2.08868H24.0547C22.5751 2.08868 22.1442 2.5545 22.1442 4.13228Z" fill="white"/>
<path d="M42.6914 0H43.9556C44.8749 0 45.076 0.120212 45.6219 0.886561L50.9658 8.21947C51.0089 8.2946 51.0663 8.32466 51.1525 8.32466H51.2818C51.3536 8.32466 51.3967 8.27958 51.3967 8.17439V0.330582C51.3967 0.105186 51.4973 0 51.7128 0H53.2211C53.4366 0 53.5371 0.105186 53.5371 0.330582V8.95577C53.5371 10.1729 53.1205 10.5185 52.2443 10.5185H51.0089C50.1326 10.5185 49.9171 10.4284 49.3425 9.63196L43.9843 2.29905C43.9268 2.22392 43.8837 2.19386 43.7975 2.19386H43.6683C43.5821 2.19386 43.5533 2.23894 43.5533 2.34413V10.1879C43.5533 10.4133 43.4528 10.5185 43.2373 10.5185H41.729C41.5135 10.5185 41.3986 10.4133 41.3986 10.1879V1.56275C41.3986 0.345609 41.8151 0 42.6914 0Z" fill="white"/>
<path d="M66.531 0H72.8517C73.0672 0 73.1821 0.105186 73.1821 0.330582V1.7581C73.1821 1.98349 73.0672 2.08868 72.8517 2.08868H66.5741C65.0801 2.08868 64.6635 2.5545 64.6635 4.13228V4.28254H72.7799C72.9953 4.28254 73.0959 4.38773 73.0959 4.61312V5.80021C73.0959 6.02561 72.9953 6.13079 72.7799 6.13079H64.6635V6.38624C64.6635 7.96402 65.0801 8.42984 66.5741 8.42984H72.8517C73.0672 8.42984 73.1821 8.53503 73.1821 8.76042V10.1879C73.1821 10.4133 73.0672 10.5185 72.8517 10.5185H66.531C63.6292 10.5185 62.5088 9.43661 62.5088 6.55154V3.96698C62.5088 1.0819 63.6292 0 66.531 0Z" fill="white"/>
<path d="M91.3341 0H93.2015C93.4601 0 93.4745 0.25545 93.3452 0.390688L88.9351 5.06392L93.5463 10.1278C93.6756 10.2631 93.6612 10.5185 93.4027 10.5185H91.4346C91.2048 10.5185 91.0899 10.4584 90.9749 10.3081L87.4267 6.4163L83.8642 10.3081C83.7349 10.4584 83.6343 10.5185 83.3901 10.5185H81.5227C81.2784 10.5185 81.2641 10.2631 81.3934 10.1278L86.1195 4.98878L81.853 0.390688C81.7381 0.25545 81.7381 0 81.9967 0H83.9647C84.1946 0 84.3095 0.0751323 84.4244 0.21037L87.556 3.69651L90.8744 0.21037C90.9893 0.0751323 91.1042 0 91.3341 0Z" fill="white"/>
<path d="M102.289 0H103.841C104.056 0 104.157 0.105186 104.157 0.330582V6.32614C104.157 7.91894 104.588 8.38476 106.067 8.38476H110.047C111.526 8.38476 111.943 7.91894 111.943 6.32614V0.330582C111.943 0.105186 112.043 0 112.259 0H113.825C114.04 0 114.141 0.105186 114.141 0.330582V6.55154C114.141 9.43661 113.034 10.5185 110.118 10.5185H105.981C103.079 10.5185 101.959 9.43661 101.959 6.55154V0.330582C101.959 0.105186 102.074 0 102.289 0Z" fill="white"/>
<path d="M125.569 0H133.183C133.398 0 133.499 0.105186 133.499 0.330582V1.7581C133.499 1.98349 133.398 2.08868 133.183 2.08868H125.986C125.44 2.08868 125.224 2.40423 125.224 2.93016V3.44106C125.224 3.99704 125.468 4.28254 125.971 4.28254H131.358C133.01 4.28254 133.872 5.21418 133.872 6.86709V8.06921C133.872 9.52677 133.068 10.5185 131.329 10.5185H123.371C123.156 10.5185 123.041 10.4133 123.041 10.1879V8.76042C123.041 8.53503 123.156 8.42984 123.371 8.42984H130.913C131.459 8.42984 131.674 8.11429 131.674 7.58836V6.97228C131.674 6.4163 131.43 6.13079 130.927 6.13079H125.54C123.888 6.13079 123.026 5.19915 123.026 3.54624V2.44931C123.026 0.991747 123.831 0 125.569 0Z" fill="white"/>
<path d="M164.445 0.0185547H172.05C172.275 0.0185547 172.38 0.123555 172.38 0.348555V1.81855C172.38 2.04356 172.275 2.16356 172.05 2.16356H164.535C162.99 2.16356 162.54 2.61356 162.54 4.20356V6.36356C162.54 7.95356 162.99 8.41856 164.535 8.41856H169.485C170.01 8.41856 170.235 8.17856 170.235 7.50356V6.28856C170.235 6.15355 170.19 6.09356 170.055 6.09356H165.66C165.45 6.09356 165.33 5.97356 165.33 5.74856V4.62356C165.33 4.39855 165.45 4.27856 165.66 4.27856H171.915C172.215 4.27856 172.365 4.42856 172.365 4.72856V8.22356C172.365 9.90356 171.705 10.5186 170.505 10.5186H164.445C161.415 10.5186 160.245 9.43856 160.245 6.55856V3.97856C160.245 1.09856 161.415 0.0185547 164.445 0.0185547Z" fill="white"/>
<path d="M182.201 0.0185547H190.256C192.551 0.0185547 193.481 1.08356 193.481 3.10856V3.96356C193.481 5.67356 192.821 6.67856 191.246 6.96356L193.811 10.1436C193.901 10.2486 193.886 10.5186 193.616 10.5186H191.681C191.426 10.5186 191.351 10.4586 191.261 10.3236L188.891 7.20356H184.046V10.1886C184.046 10.4136 183.941 10.5186 183.716 10.5186H182.096C181.871 10.5186 181.751 10.4136 181.751 10.1886V0.468555C181.751 0.168555 181.901 0.0185547 182.201 0.0185547ZM184.046 2.25356V5.37356H189.791C190.811 5.37356 191.186 4.93856 191.186 4.03856V3.40856C191.186 2.50855 190.811 2.07356 189.791 2.07356H184.241C184.106 2.07356 184.046 2.13356 184.046 2.25356Z" fill="white"/>
<path d="M208.605 0.0185547H209.49C210.255 0.0185547 210.72 0.258555 211.215 1.15856L216.18 10.1736C216.285 10.3686 216.24 10.5186 216 10.5186H214.095C213.9 10.5186 213.825 10.4736 213.75 10.3236L212.685 8.38856H205.635L204.6 10.3236C204.525 10.4736 204.435 10.5186 204.255 10.5186H202.305C202.05 10.5186 202.005 10.3686 202.11 10.1736L207.03 1.15856C207.525 0.258555 207.975 0.0185547 208.605 0.0185547ZM208.935 2.25356L206.58 6.64856H211.74L209.355 2.25356C209.31 2.17856 209.265 2.14856 209.19 2.14856H209.1C209.025 2.14856 208.98 2.17856 208.935 2.25356Z" fill="white"/>
<path d="M225.4 0.0185547H233.455C235.75 0.0185547 236.68 1.08356 236.68 3.10856V4.21856C236.68 6.24356 235.75 7.30856 233.455 7.30856H227.245V10.1886C227.245 10.4136 227.14 10.5186 226.915 10.5186H225.295C225.07 10.5186 224.95 10.4136 224.95 10.1886V0.468555C224.95 0.168555 225.1 0.0185547 225.4 0.0185547ZM227.245 2.26856V5.32856H232.99C234.01 5.32856 234.385 4.89356 234.385 3.99356V3.42356C234.385 2.52355 234.01 2.08856 232.99 2.08856H227.44C227.305 2.08856 227.245 2.13356 227.245 2.26856Z" fill="white"/>
<path d="M246.007 0.0185547H247.627C247.852 0.0185547 247.957 0.123555 247.957 0.348555V4.24856H254.977V0.348555C254.977 0.123555 255.082 0.0185547 255.307 0.0185547H256.927C257.152 0.0185547 257.272 0.123555 257.272 0.348555V10.1886C257.272 10.4136 257.152 10.5186 256.927 10.5186H255.307C255.082 10.5186 254.977 10.4136 254.977 10.1886V6.19855H247.957V10.1886C247.957 10.4136 247.852 10.5186 247.627 10.5186H246.007C245.782 10.5186 245.662 10.4136 245.662 10.1886V0.348555C245.662 0.123555 245.782 0.0185547 246.007 0.0185547Z" fill="white"/>
</svg>
