<svg width="90" height="90" viewBox="0 0 90 90" fill="none" xmlns="http://www.w3.org/2000/svg">
<circle cx="45" cy="45" r="44.5" fill="#202732" stroke="#686666"/>
<path d="M28.1623 57.0969L45.3155 27.3867L62.4687 57.0969H28.1623Z" stroke="white" stroke-width="3"/>
<circle cx="45.3155" cy="27.8947" r="7.89466" fill="#202732"/>
<path d="M49.9558 27.8957C49.9558 30.4584 47.8783 32.5359 45.3155 32.5359C42.7527 32.5359 40.6752 30.4584 40.6752 27.8957C40.6752 25.3329 42.7527 23.2554 45.3155 23.2554C47.8783 23.2554 49.9558 25.3329 49.9558 27.8957Z" fill="#272C33" stroke="#E92E01" stroke-width="3"/>
<circle cx="26.8947" cy="57.7194" r="7.89466" fill="#202732"/>
<path d="M31.535 57.7174C31.535 60.2802 29.4575 62.3577 26.8947 62.3577C24.332 62.3577 22.2544 60.2802 22.2544 57.7174C22.2544 55.1547 24.332 53.0771 26.8947 53.0771C29.4575 53.0771 31.535 55.1547 31.535 57.7174Z" fill="#272C33" stroke="#E92E01" stroke-width="3"/>
<circle cx="64.6128" cy="57.7194" r="7.89466" fill="#202732"/>
<path d="M69.2538 57.7174C69.2538 60.2802 67.1763 62.3577 64.6136 62.3577C62.0508 62.3577 59.9733 60.2802 59.9733 57.7174C59.9733 55.1547 62.0508 53.0771 64.6136 53.0771C67.1763 53.0771 69.2538 55.1547 69.2538 57.7174Z" fill="#272C33" stroke="#E92E01" stroke-width="3"/>
</svg>
