<svg width="398" height="399" viewBox="0 0 398 399" fill="none" xmlns="http://www.w3.org/2000/svg">
<circle cx="199" cy="199.702" r="198.5" fill="black" stroke="#4D4D4D"/>
<circle cx="199" cy="199.702" r="174.5" stroke="#4D4D4D"/>
<path d="M74.2923 272.702L199 56.7022L323.708 272.702H74.2923Z" stroke="#4D4D4D"/>
<circle cx="200" cy="27.7021" r="25.5" fill="black" stroke="#4D4D4D"/>
<circle cx="50" cy="285.702" r="25.5" fill="black" stroke="#4D4D4D"/>
<circle cx="348" cy="285.702" r="25.5" fill="black" stroke="#4D4D4D"/>
<g clip-path="url(#clip0_10473_90931)">
<path d="M192.402 31.8106C192.196 31.0318 192.172 30.2161 192.332 29.4266C192.492 28.6371 192.832 27.8951 193.326 27.2582C193.819 26.6214 194.452 26.1067 195.177 25.7542C195.901 25.4016 196.697 25.2207 197.502 25.2255C197.948 25.2264 198.391 25.2852 198.821 25.4004L200.306 23.9156C199.42 23.5344 198.466 23.3389 197.502 23.3414C196.319 23.3399 195.154 23.632 194.111 24.1916C193.069 24.7512 192.181 25.5608 191.529 26.5478C190.876 27.5348 190.478 28.6683 190.372 29.8468C190.265 31.0252 190.452 32.2117 190.917 33.2999L192.402 31.8106Z" fill="url(#paint0_linear_10473_90931)"/>
<path d="M192.402 31.8106C192.196 31.0318 192.172 30.2161 192.332 29.4266C192.492 28.6371 192.832 27.8951 193.326 27.2582C193.819 26.6214 194.452 26.1067 195.177 25.7542C195.901 25.4016 196.697 25.2207 197.502 25.2255C197.948 25.2264 198.391 25.2852 198.821 25.4004L200.306 23.9156C199.42 23.5344 198.466 23.3389 197.502 23.3414C196.319 23.3399 195.154 23.632 194.111 24.1916C193.069 24.7512 192.181 25.5608 191.529 26.5478C190.876 27.5348 190.478 28.6683 190.372 29.8468C190.265 31.0252 190.452 32.2117 190.917 33.2999L192.402 31.8106Z" fill="white"/>
<path d="M202.464 28.7289C202.667 29.2943 202.772 29.8907 202.773 30.4918C202.772 31.8897 202.216 33.2302 201.228 34.2191C200.24 35.208 198.9 35.7647 197.502 35.7671C196.901 35.7647 196.304 35.6585 195.739 35.4531L194.317 36.8885C195.659 37.5595 197.177 37.7911 198.658 37.5504C200.138 37.3098 201.505 36.6091 202.565 35.5477C203.625 34.4864 204.324 33.1183 204.562 31.6375C204.801 30.1567 204.567 28.6384 203.894 27.2979L202.464 28.7289Z" fill="url(#paint1_linear_10473_90931)"/>
<path d="M202.464 28.7289C202.667 29.2943 202.772 29.8907 202.773 30.4918C202.772 31.8897 202.216 33.2302 201.228 34.2191C200.24 35.208 198.9 35.7647 197.502 35.7671C196.901 35.7647 196.304 35.6585 195.739 35.4531L194.317 36.8885C195.659 37.5595 197.177 37.7911 198.658 37.5504C200.138 37.3098 201.505 36.6091 202.565 35.5477C203.625 34.4864 204.324 33.1183 204.562 31.6375C204.801 30.1567 204.567 28.6384 203.894 27.2979L202.464 28.7289Z" fill="white"/>
<path d="M192.276 31.9542C191.468 30.4129 191.174 28.6541 191.435 26.9337C191.696 25.2133 192.499 23.6211 193.728 22.3889C194.957 21.1567 196.546 20.3489 198.266 20.0829C199.986 19.8169 201.745 20.1067 203.289 20.9101L204.675 19.524C202.751 18.3853 200.503 17.9193 198.285 18.1996C196.068 18.4798 194.006 19.4904 192.426 21.0719C190.846 22.6534 189.838 24.7159 189.559 26.934C189.281 29.1521 189.75 31.3997 190.89 33.3223L192.276 31.9542Z" fill="url(#paint2_linear_10473_90931)"/>
<path d="M192.276 31.9542C191.468 30.4129 191.174 28.6541 191.435 26.9337C191.696 25.2133 192.499 23.6211 193.728 22.3889C194.957 21.1567 196.546 20.3489 198.266 20.0829C199.986 19.8169 201.745 20.1067 203.289 20.9101L204.675 19.524C202.751 18.3853 200.503 17.9193 198.285 18.1996C196.068 18.4798 194.006 19.4904 192.426 21.0719C190.846 22.6534 189.838 24.7159 189.559 26.934C189.281 29.1521 189.75 31.3997 190.89 33.3223L192.276 31.9542Z" fill="white"/>
<path d="M206.792 24.4001C207.404 25.5619 207.722 26.8553 207.721 28.1681C207.723 29.5744 207.362 30.9574 206.674 32.1834C205.985 33.4094 204.991 34.437 203.789 35.1668C202.587 35.8966 201.217 36.3039 199.812 36.3493C198.406 36.3948 197.013 36.0768 195.766 35.4262L194.38 36.8123C196.304 37.9594 198.555 38.4322 200.778 38.1556C203.001 37.8791 205.068 36.8691 206.652 35.2855C208.236 33.7019 209.247 31.6352 209.524 29.4125C209.801 27.1898 209.329 24.9382 208.183 23.014L206.792 24.4001Z" fill="url(#paint3_linear_10473_90931)"/>
<path d="M206.792 24.4001C207.404 25.5619 207.722 26.8553 207.721 28.1681C207.723 29.5744 207.362 30.9574 206.674 32.1834C205.985 33.4094 204.991 34.437 203.789 35.1668C202.587 35.8966 201.217 36.3039 199.812 36.3493C198.406 36.3948 197.013 36.0768 195.766 35.4262L194.38 36.8123C196.304 37.9594 198.555 38.4322 200.778 38.1556C203.001 37.8791 205.068 36.8691 206.652 35.2855C208.236 33.7019 209.247 31.6352 209.524 29.4125C209.801 27.1898 209.329 24.9382 208.183 23.014L206.792 24.4001Z" fill="white"/>
<path d="M209.669 16.7045L183.998 42.375L185.331 43.7072L211.001 18.0367L209.669 16.7045Z" fill="url(#paint4_linear_10473_90931)"/>
</g>
<path fill-rule="evenodd" clip-rule="evenodd" d="M360.529 284.517L353.269 297.092C353.012 297.537 352.69 297.944 352.205 298.284C351.624 298.69 351.044 298.75 350.622 298.782C350.588 298.784 350.555 298.785 350.523 298.785C349.955 298.781 349.398 298.629 348.907 298.343C348.429 298.067 347.974 297.653 347.667 297.136L347.659 297.121L338.599 281.297C338.501 281.126 338.449 280.932 338.45 280.734C338.451 280.536 338.503 280.343 338.603 280.172C338.702 280.001 338.845 279.86 339.016 279.761C339.188 279.663 339.382 279.612 339.579 279.613L357.7 279.676L357.715 279.676C358.113 279.667 358.727 279.654 359.343 279.945C359.908 280.212 360.379 280.646 360.691 281.188C361.003 281.73 361.142 282.355 361.088 282.979C361.03 283.646 360.723 284.181 360.529 284.517ZM355.54 288.656L358.58 283.392C358.779 283.046 358.834 282.901 358.845 282.783C358.859 282.619 358.822 282.454 358.74 282.311C358.656 282.167 358.53 282.051 358.379 281.98C358.293 281.938 358.178 281.918 357.734 281.928L357.706 281.929L343.801 281.88L355.54 288.656ZM354.415 290.605L342.625 283.798L349.608 295.994C349.715 296.159 349.861 296.297 350.033 296.394C350.176 296.479 350.339 296.526 350.506 296.532C350.603 296.527 350.699 296.513 350.794 296.492C350.837 296.482 350.877 296.464 350.913 296.439C351.064 296.333 351.181 296.204 351.319 295.966L354.415 290.605Z" fill="white"/>
<path fill-rule="evenodd" clip-rule="evenodd" d="M39.6884 284.517L46.9486 297.092C47.2055 297.537 47.5275 297.944 48.0124 298.284C48.5936 298.69 49.1732 298.75 49.596 298.782C49.6293 298.784 49.6622 298.785 49.6944 298.785C50.2624 298.781 50.8196 298.629 51.3107 298.343C51.7887 298.067 52.2435 297.653 52.5502 297.136L52.5589 297.121L61.6189 281.297C61.7171 281.126 61.7683 280.932 61.7676 280.734C61.7669 280.536 61.7142 280.343 61.6148 280.172C61.5154 280.001 61.3729 279.86 61.2015 279.761C61.03 279.663 60.8358 279.612 60.6383 279.613L42.5174 279.676L42.5024 279.676C42.1051 279.667 41.4909 279.654 40.8751 279.945C40.3092 280.212 39.8387 280.646 39.5266 281.188C39.2146 281.73 39.0759 282.355 39.1294 282.979C39.188 283.646 39.4942 284.181 39.6884 284.517ZM44.6772 288.656L41.638 283.392C41.4383 283.046 41.3832 282.901 41.373 282.783C41.3589 282.619 41.3956 282.454 41.478 282.311C41.5615 282.167 41.6872 282.051 41.8382 281.98C41.925 281.938 42.0395 281.918 42.4839 281.928L42.5117 281.929L56.4162 281.88L44.6772 288.656ZM45.8028 290.605L57.5927 283.798L50.6099 295.994C50.5024 296.159 50.3565 296.297 50.1847 296.394C50.0412 296.479 49.8787 296.526 49.7121 296.532C49.6151 296.527 49.5187 296.513 49.4238 296.492C49.381 296.482 49.3405 296.464 49.3047 296.439C49.1536 296.333 49.0363 296.204 48.899 295.966L45.8028 290.605Z" fill="white"/>
<path d="M296.111 138.601C326.607 193.873 302.754 248.805 270.143 270.474C230.5 296.816 175.652 293.393 149.354 268.88C132.493 253.164 122.133 229.48 123.5 208.702C125.836 173.202 153.27 152.32 170 148.202C202.5 140.202 234.579 152.202 241 182.702C247.421 213.202 221.529 229.921 206.734 229.921C181.068 229.921 176.841 201.383 194.052 193.873" stroke="url(#paint5_linear_10473_90931)"/>
<circle cx="194" cy="194" r="4" fill="#EA3206"/>
<circle cx="241" cy="284" r="10" transform="rotate(-180 241 284)" fill="white"/>
<circle cx="281" cy="261" r="4" transform="rotate(-180 281 261)" fill="black" stroke="#EA3206" stroke-width="2"/>
<circle cx="299" cy="236" r="3" transform="rotate(-180 299 236)" fill="white"/>
<path d="M100.889 266.804C70.3925 211.531 94.2465 156.599 126.857 134.93C166.5 108.588 221.348 112.011 247.646 136.524C264.507 152.241 274.867 175.925 273.5 196.702C271.164 232.202 243.73 253.084 227 257.202C194.5 265.202 162.421 253.202 156 222.702C149.579 192.202 175.471 175.484 190.266 175.484C215.932 175.484 220.159 204.021 202.948 211.531" stroke="url(#paint6_linear_10473_90931)"/>
<circle cx="203" cy="211.404" r="4" transform="rotate(-180 203 211.404)" fill="#EA3206"/>
<circle cx="156" cy="121.404" r="10" fill="white"/>
<circle cx="116" cy="144.404" r="4" fill="black" stroke="#EA3206" stroke-width="2"/>
<circle cx="98" cy="169.404" r="3" fill="white"/>
<defs>
<linearGradient id="paint0_linear_10473_90931" x1="206.601" y1="20.798" x2="182.298" y2="25.9734" gradientUnits="userSpaceOnUse">
<stop stop-color="#CAB7FF"/>
<stop offset="0.162438" stop-color="#FFCEF4"/>
<stop offset="0.298373" stop-color="#F0FFC5"/>
<stop offset="0.601047" stop-color="#59FF9C"/>
<stop offset="1" stop-color="#B659FF"/>
</linearGradient>
<linearGradient id="paint1_linear_10473_90931" x1="206.601" y1="20.798" x2="182.298" y2="25.9734" gradientUnits="userSpaceOnUse">
<stop stop-color="#CAB7FF"/>
<stop offset="0.162438" stop-color="#FFCEF4"/>
<stop offset="0.298373" stop-color="#F0FFC5"/>
<stop offset="0.601047" stop-color="#59FF9C"/>
<stop offset="1" stop-color="#B659FF"/>
</linearGradient>
<linearGradient id="paint2_linear_10473_90931" x1="206.601" y1="20.798" x2="182.298" y2="25.9734" gradientUnits="userSpaceOnUse">
<stop stop-color="#CAB7FF"/>
<stop offset="0.162438" stop-color="#FFCEF4"/>
<stop offset="0.298373" stop-color="#F0FFC5"/>
<stop offset="0.601047" stop-color="#59FF9C"/>
<stop offset="1" stop-color="#B659FF"/>
</linearGradient>
<linearGradient id="paint3_linear_10473_90931" x1="206.601" y1="20.798" x2="182.298" y2="25.9734" gradientUnits="userSpaceOnUse">
<stop stop-color="#CAB7FF"/>
<stop offset="0.162438" stop-color="#FFCEF4"/>
<stop offset="0.298373" stop-color="#F0FFC5"/>
<stop offset="0.601047" stop-color="#59FF9C"/>
<stop offset="1" stop-color="#B659FF"/>
</linearGradient>
<linearGradient id="paint4_linear_10473_90931" x1="184.664" y1="43.0411" x2="210.335" y2="17.3706" gradientUnits="userSpaceOnUse">
<stop stop-opacity="0"/>
<stop offset="0.643466" stop-color="white"/>
</linearGradient>
<linearGradient id="paint5_linear_10473_90931" x1="233" y1="197" x2="303" y2="143.5" gradientUnits="userSpaceOnUse">
<stop stop-color="white"/>
<stop offset="1" stop-color="white" stop-opacity="0"/>
</linearGradient>
<linearGradient id="paint6_linear_10473_90931" x1="164" y1="208.404" x2="93.9999" y2="261.904" gradientUnits="userSpaceOnUse">
<stop stop-color="white"/>
<stop offset="1" stop-color="white" stop-opacity="0"/>
</linearGradient>
<clipPath id="clip0_10473_90931">
<rect width="27" height="27" fill="white" transform="translate(184 16.7021)"/>
</clipPath>
</defs>
</svg>
