<svg width="398" height="399" viewBox="0 0 398 399" fill="none" xmlns="http://www.w3.org/2000/svg">
<circle cx="199" cy="199.702" r="198.5" fill="black" stroke="#4D4D4D"/>
<line x1="1" y1="199.5" x2="109" y2="199.5" stroke="#4D4D4D"/>
<line x1="290" y1="199.5" x2="398" y2="199.5" stroke="#4D4D4D"/>
<path d="M273.5 199.5C273.5 240.924 240.142 274.5 199 274.5C157.858 274.5 124.5 240.924 124.5 199.5C124.5 158.076 157.858 124.5 199 124.5C240.142 124.5 273.5 158.076 273.5 199.5Z" fill="black" stroke="white"/>
<path d="M201.5 274C201.5 262.001 214 225.499 261.5 239.499" stroke="white"/>
<path d="M214.5 272.5C214.5 262.939 224.792 228.354 262 239.51" stroke="white"/>
<path d="M126 185.5C131.5 187.5 141.079 188.183 149.5 181C166.5 166.5 158.5 155 170.5 140.5C182.466 126.041 200 124.5 219 127.5" stroke="white"/>
<path d="M126 210.641C132 217.5 141.5 221.115 153 218C177 211.5 191.097 172.591 208 158.001C224.855 143.452 242 143 257 152.281" stroke="white"/>
<path d="M126 210.641C132 217.5 141.5 221.114 153 218C177 211.5 198.097 184.31 215 169.72C231.855 155.171 249 154.719 264 163.999" stroke="white"/>
<path d="M129.5 227.5C135.5 234.358 145.5 242.446 160 242.446C184.865 242.446 205 219.5 225 213.5C246.327 207.101 255.5 211.219 270.5 220.5" stroke="white"/>
<path d="M268.566 127.321C269.18 127.604 269.745 127.945 270.258 128.345L269.951 128.739C270.195 128.93 270.427 129.135 270.646 129.354C270.865 129.573 271.07 129.805 271.261 130.049L271.655 129.742C272.055 130.255 272.396 130.82 272.679 131.435L272.225 131.644C272.477 132.19 272.682 132.781 272.839 133.415L273.325 133.294C273.477 133.907 273.587 134.557 273.654 135.24L273.157 135.289C273.217 135.899 273.243 136.539 273.234 137.209L273.734 137.216C273.726 137.851 273.688 138.51 273.62 139.191L273.123 139.142C273.061 139.764 272.974 140.407 272.862 141.07L273.355 141.153C273.248 141.785 273.119 142.433 272.969 143.098L272.481 142.987C272.34 143.608 272.18 144.244 272.001 144.894L272.483 145.027C272.312 145.646 272.124 146.278 271.919 146.922L271.443 146.771C271.25 147.377 271.042 147.994 270.819 148.622L271.291 148.789C271.074 149.399 270.844 150.018 270.6 150.647L270.134 150.466C269.899 151.07 269.652 151.683 269.391 152.305L269.853 152.498C269.605 153.091 269.345 153.691 269.075 154.299L268.618 154.096C268.355 154.687 268.081 155.284 267.797 155.889L268.249 156.102C267.971 156.692 267.684 157.289 267.386 157.892L266.938 157.671C266.653 158.249 266.358 158.832 266.055 159.421L266.5 159.65C266.199 160.233 265.89 160.822 265.572 161.415L265.131 161.179C264.827 161.748 264.514 162.322 264.194 162.9L264.631 163.143C264.314 163.715 263.989 164.292 263.656 164.873L263.222 164.625C262.9 165.189 262.57 165.756 262.233 166.328L262.664 166.582C262.332 167.145 261.993 167.712 261.648 168.283L261.22 168.024C260.882 168.581 260.538 169.142 260.187 169.707L260.612 169.971C260.267 170.526 259.916 171.084 259.559 171.646L259.137 171.377C258.786 171.928 258.43 172.482 258.067 173.039L258.486 173.312C258.13 173.86 257.767 174.411 257.399 174.965L256.983 174.688C256.621 175.233 256.254 175.779 255.881 176.329L256.295 176.61C255.927 177.152 255.554 177.697 255.176 178.243L254.765 177.959C254.393 178.497 254.017 179.036 253.635 179.578L254.044 179.866C253.666 180.403 253.283 180.942 252.895 181.483L252.489 181.192C252.109 181.722 251.724 182.255 251.335 182.789L251.739 183.083C251.351 183.616 250.958 184.15 250.561 184.687L250.159 184.389C249.771 184.913 249.379 185.438 248.983 185.964L249.382 186.265C248.985 186.793 248.584 187.322 248.179 187.853L247.781 187.549C247.386 188.067 246.987 188.586 246.583 189.106L246.979 189.413C246.575 189.933 246.168 190.455 245.757 190.978L245.364 190.669C244.959 191.183 244.551 191.699 244.139 192.216L244.53 192.528C244.12 193.041 243.707 193.555 243.291 194.071L242.902 193.757C242.488 194.268 242.071 194.781 241.651 195.294L242.038 195.611C241.623 196.118 241.205 196.625 240.783 197.133L240.398 196.814C239.977 197.322 239.553 197.83 239.126 198.339L239.508 198.661C239.087 199.162 238.663 199.664 238.236 200.166L237.855 199.843C237.429 200.343 237 200.844 236.568 201.346L236.947 201.672C236.518 202.171 236.085 202.671 235.649 203.171L235.272 202.842C234.842 203.336 234.409 203.831 233.973 204.325L234.348 204.656C233.911 205.152 233.471 205.648 233.028 206.144L232.655 205.811C232.22 206.3 231.781 206.788 231.34 207.277L231.712 207.612C231.271 208.101 230.827 208.59 230.38 209.08L230.011 208.743C229.567 209.229 229.121 209.715 228.672 210.202L229.04 210.541C228.595 211.023 228.147 211.506 227.697 211.989L227.331 211.648C226.881 212.13 226.429 212.612 225.974 213.094L226.338 213.437C225.888 213.915 225.435 214.393 224.979 214.871L224.617 214.526C224.164 215.002 223.708 215.477 223.249 215.953L223.609 216.3C223.151 216.775 222.691 217.251 222.228 217.726L221.87 217.377C221.412 217.847 220.953 218.316 220.491 218.785L220.847 219.136C220.385 219.606 219.92 220.076 219.452 220.546L219.098 220.193C218.865 220.428 218.631 220.662 218.396 220.896C218.162 221.131 217.927 221.365 217.693 221.598L218.046 221.953C217.576 222.42 217.106 222.885 216.636 223.347L216.285 222.991C215.816 223.453 215.347 223.912 214.877 224.37L215.226 224.728C214.751 225.191 214.275 225.651 213.8 226.109L213.453 225.749C212.977 226.208 212.501 226.664 212.026 227.117L212.371 227.479C211.893 227.935 211.415 228.388 210.937 228.838L210.594 228.474C210.112 228.929 209.63 229.382 209.147 229.831L209.489 230.197C209.006 230.647 208.523 231.095 208.041 231.54L207.702 231.172C207.215 231.621 206.729 232.068 206.243 232.511L206.58 232.88C206.09 233.327 205.601 233.771 205.112 234.212L204.777 233.84C204.288 234.281 203.8 234.72 203.311 235.155L203.644 235.528C203.148 235.971 202.652 236.411 202.156 236.848L201.825 236.473C201.33 236.909 200.836 237.342 200.342 237.773L200.671 238.149C200.171 238.585 199.671 239.018 199.172 239.447L198.846 239.068C198.344 239.5 197.843 239.929 197.342 240.355L197.666 240.736C197.164 241.163 196.662 241.587 196.161 242.008L195.839 241.626C195.33 242.053 194.822 242.478 194.314 242.898L194.633 243.283C194.125 243.705 193.618 244.123 193.111 244.538L192.794 244.151C192.281 244.571 191.768 244.989 191.256 245.402L191.571 245.791C191.055 246.207 190.541 246.62 190.027 247.03L189.716 246.639C189.199 247.051 188.683 247.459 188.169 247.864L188.478 248.257C187.955 248.668 187.433 249.075 186.912 249.479L186.606 249.083C186.086 249.487 185.567 249.886 185.049 250.282L185.353 250.679C184.822 251.084 184.293 251.486 183.765 251.883L183.464 251.483C182.938 251.879 182.412 252.271 181.889 252.659L182.187 253.061C181.65 253.458 181.116 253.851 180.583 254.239L180.289 253.835C179.755 254.224 179.222 254.609 178.692 254.989L178.983 255.395C178.442 255.783 177.903 256.166 177.366 256.544L177.078 256.136C176.536 256.517 175.996 256.893 175.459 257.265L175.743 257.676C175.196 258.054 174.652 258.427 174.109 258.795L173.829 258.381C173.279 258.754 172.732 259.121 172.188 259.483L172.465 259.899C171.911 260.267 171.36 260.63 170.812 260.986L170.539 260.567C169.982 260.93 169.428 261.286 168.877 261.637L169.146 262.059C168.584 262.416 168.026 262.767 167.471 263.112L167.207 262.687C166.642 263.038 166.081 263.382 165.523 263.72L165.782 264.148C165.212 264.493 164.645 264.832 164.082 265.164L163.828 264.733C163.256 265.07 162.688 265.4 162.125 265.722L162.373 266.156C161.792 266.489 161.215 266.814 160.642 267.131L160.4 266.694C159.822 267.014 159.248 267.327 158.679 267.631L158.915 268.072C158.322 268.39 157.733 268.699 157.15 269L156.921 268.555C156.332 268.858 155.748 269.153 155.171 269.438L155.392 269.886C154.789 270.184 154.192 270.471 153.602 270.749L153.389 270.297C152.784 270.581 152.186 270.855 151.596 271.118L151.799 271.575C151.191 271.845 150.591 272.105 149.998 272.353L149.805 271.892C149.183 272.152 148.57 272.399 147.966 272.634L148.147 273.1C147.518 273.344 146.898 273.574 146.289 273.791L146.121 273.32C145.494 273.542 144.877 273.75 144.271 273.943L144.422 274.419C143.778 274.624 143.146 274.812 142.527 274.983L142.394 274.501C141.744 274.68 141.108 274.84 140.487 274.981L140.598 275.469C139.933 275.619 139.285 275.748 138.653 275.855L138.57 275.362C137.907 275.474 137.264 275.561 136.642 275.623L136.691 276.12C136.009 276.188 135.351 276.226 134.716 276.234L134.709 275.734C134.039 275.743 133.399 275.717 132.789 275.657L132.74 276.155C132.057 276.087 131.407 275.977 130.794 275.825L130.915 275.34C130.28 275.182 129.69 274.977 129.144 274.725L128.934 275.179C128.32 274.896 127.755 274.555 127.242 274.155L127.549 273.761C127.305 273.57 127.073 273.366 126.854 273.146C126.635 272.927 126.43 272.695 126.239 272.451L125.845 272.758C125.445 272.245 125.104 271.68 124.821 271.066L125.275 270.856C125.023 270.31 124.818 269.72 124.661 269.086L124.175 269.206C124.023 268.593 123.913 267.944 123.846 267.26L124.343 267.211C124.283 266.601 124.257 265.961 124.266 265.291L123.766 265.284C123.774 264.649 123.812 263.991 123.88 263.309L124.377 263.358C124.439 262.736 124.526 262.093 124.638 261.431L124.145 261.347C124.252 260.715 124.381 260.067 124.531 259.402L125.019 259.513C125.16 258.892 125.32 258.256 125.499 257.606L125.017 257.473C125.188 256.854 125.376 256.222 125.581 255.578L126.057 255.729C126.25 255.123 126.458 254.506 126.681 253.879L126.209 253.711C126.426 253.102 126.656 252.482 126.9 251.854L127.366 252.034C127.601 251.43 127.848 250.817 128.109 250.195L127.647 250.002C127.895 249.409 128.155 248.809 128.425 248.201L128.882 248.404C129.145 247.814 129.419 247.216 129.703 246.611L129.251 246.398C129.529 245.808 129.816 245.211 130.114 244.608L130.562 244.829C130.848 244.252 131.142 243.668 131.445 243.079L131 242.85C131.301 242.267 131.61 241.679 131.928 241.085L132.369 241.321C132.673 240.752 132.986 240.178 133.306 239.6L132.869 239.358C133.186 238.785 133.511 238.208 133.844 237.627L134.278 237.875C134.6 237.312 134.93 236.744 135.267 236.172L134.836 235.918C135.168 235.355 135.507 234.788 135.852 234.218L136.28 234.477C136.618 233.919 136.962 233.358 137.313 232.793L136.888 232.529C137.233 231.974 137.584 231.416 137.941 230.855L138.363 231.123C138.714 230.572 139.07 230.018 139.433 229.461L139.014 229.188C139.37 228.64 139.733 228.089 140.101 227.535L140.517 227.812C140.879 227.268 141.246 226.721 141.619 226.171L141.205 225.891C141.573 225.348 141.946 224.804 142.324 224.257L142.735 224.541C143.107 224.004 143.483 223.464 143.865 222.922L143.456 222.635C143.834 222.097 144.217 221.558 144.605 221.017L145.011 221.308C145.391 220.778 145.776 220.245 146.165 219.711L145.761 219.417C146.149 218.884 146.542 218.35 146.939 217.814L147.341 218.111C147.729 217.588 148.121 217.062 148.517 216.536L148.118 216.235C148.515 215.707 148.916 215.178 149.321 214.647L149.719 214.951C150.114 214.433 150.513 213.914 150.917 213.394L150.522 213.088C150.925 212.567 151.332 212.045 151.743 211.523L152.136 211.832C152.541 211.317 152.949 210.801 153.361 210.284L152.971 209.973C153.38 209.459 153.793 208.945 154.209 208.429L154.598 208.744C155.012 208.232 155.429 207.719 155.849 207.206L155.462 206.889C155.877 206.382 156.295 205.875 156.717 205.367L157.102 205.686C157.523 205.179 157.947 204.67 158.375 204.161L157.992 203.84C158.413 203.338 158.837 202.836 159.264 202.334L159.645 202.658C160.071 202.157 160.5 201.656 160.932 201.154L160.553 200.828C160.982 200.329 161.415 199.83 161.851 199.33L162.228 199.658C162.658 199.164 163.091 198.67 163.527 198.175L163.152 197.844C163.589 197.349 164.029 196.852 164.472 196.356L164.845 196.689C165.28 196.201 165.719 195.712 166.16 195.223L165.788 194.888C166.229 194.399 166.673 193.91 167.12 193.42L167.489 193.757C167.933 193.271 168.379 192.785 168.828 192.298L168.46 191.959C168.905 191.477 169.353 190.994 169.803 190.512L170.169 190.853C170.619 190.37 171.071 189.888 171.526 189.406L171.162 189.063C171.612 188.585 172.066 188.107 172.521 187.629L172.883 187.974C173.336 187.499 173.792 187.023 174.251 186.547L173.891 186.2C174.349 185.725 174.809 185.249 175.272 184.774L175.63 185.123C176.088 184.653 176.547 184.184 177.009 183.715L176.653 183.364C177.115 182.894 177.58 182.424 178.048 181.955L178.402 182.307C178.635 182.073 178.869 181.838 179.104 181.604C179.338 181.369 179.573 181.135 179.807 180.902L179.454 180.548C179.924 180.08 180.394 179.616 180.864 179.153L181.215 179.509C181.684 179.047 182.153 178.588 182.623 178.13L182.274 177.772C182.749 177.309 183.225 176.849 183.7 176.391L184.047 176.751C184.523 176.292 184.999 175.836 185.474 175.383L185.129 175.021C185.607 174.566 186.085 174.113 186.563 173.662L186.906 174.026C187.388 173.571 187.87 173.119 188.353 172.669L188.011 172.303C188.494 171.853 188.977 171.405 189.459 170.96L189.798 171.328C190.285 170.879 190.771 170.433 191.257 169.989L190.92 169.62C191.41 169.173 191.899 168.73 192.388 168.289L192.723 168.66C193.212 168.219 193.7 167.78 194.189 167.345L193.856 166.972C194.352 166.529 194.848 166.089 195.344 165.652L195.675 166.027C196.17 165.591 196.664 165.158 197.158 164.728L196.829 164.351C197.329 163.915 197.829 163.483 198.328 163.053L198.654 163.432C199.156 163 199.657 162.571 200.158 162.145L199.834 161.765C200.336 161.337 200.838 160.913 201.34 160.492L201.661 160.875C202.17 160.447 202.678 160.023 203.186 159.602L202.867 159.217C203.375 158.795 203.882 158.377 204.389 157.962L204.706 158.349C205.219 157.929 205.732 157.512 206.244 157.098L205.929 156.709C206.445 156.293 206.959 155.88 207.473 155.471L207.784 155.862C208.301 155.449 208.817 155.041 209.331 154.637L209.022 154.243C209.545 153.832 210.067 153.425 210.588 153.022L210.894 153.417C211.414 153.013 211.933 152.614 212.451 152.219L212.147 151.821C212.678 151.416 213.207 151.015 213.735 150.618L214.036 151.017C214.562 150.621 215.088 150.229 215.611 149.841L215.314 149.439C215.85 149.042 216.384 148.649 216.917 148.261L217.211 148.665C217.745 148.276 218.278 147.891 218.808 147.511L218.517 147.105C219.058 146.717 219.597 146.334 220.134 145.956L220.422 146.365C220.964 145.983 221.504 145.607 222.041 145.235L221.757 144.824C222.304 144.446 222.848 144.073 223.391 143.705L223.671 144.119C224.221 143.746 224.768 143.379 225.312 143.017L225.035 142.601C225.589 142.233 226.14 141.87 226.688 141.514L226.961 141.933C227.518 141.57 228.072 141.214 228.623 140.863L228.355 140.441C228.916 140.084 229.474 139.733 230.029 139.388L230.293 139.813C230.858 139.462 231.419 139.118 231.977 138.78L231.718 138.352C232.288 138.007 232.855 137.668 233.418 137.336L233.672 137.767C234.244 137.43 234.812 137.1 235.375 136.778L235.127 136.344C235.708 136.011 236.285 135.686 236.858 135.369L237.1 135.806C237.678 135.486 238.252 135.173 238.821 134.869L238.585 134.428C239.179 134.11 239.767 133.801 240.35 133.501L240.579 133.945C241.168 133.642 241.752 133.348 242.329 133.062L242.108 132.614C242.711 132.317 243.308 132.029 243.898 131.751L244.111 132.203C244.716 131.919 245.314 131.645 245.904 131.382L245.701 130.925C246.309 130.655 246.909 130.395 247.502 130.147L247.695 130.609C248.317 130.349 248.93 130.101 249.534 129.866L249.353 129.4C249.982 129.156 250.602 128.926 251.211 128.709L251.379 129.181C252.006 128.958 252.623 128.75 253.229 128.557L253.078 128.081C253.722 127.876 254.354 127.688 254.973 127.517L255.106 127.999C255.756 127.82 256.392 127.66 257.013 127.519L256.902 127.031C257.567 126.881 258.215 126.752 258.847 126.645L258.93 127.138C259.593 127.026 260.236 126.939 260.858 126.877L260.809 126.38C261.491 126.312 262.149 126.274 262.784 126.266L262.791 126.766C263.461 126.757 264.101 126.783 264.711 126.843L264.76 126.346C265.444 126.413 266.093 126.523 266.706 126.675L266.586 127.161C267.22 127.318 267.81 127.523 268.356 127.775L268.566 127.321Z" stroke="#4D4D4D" stroke-dasharray="2 2"/>
<g clip-path="url(#clip0_10443_91560)">
<path d="M184.758 208.617C184.348 207.064 184.3 205.438 184.619 203.864C184.939 202.29 185.616 200.811 186.6 199.541C187.583 198.272 188.846 197.245 190.29 196.543C191.734 195.84 193.321 195.479 194.927 195.489C195.814 195.49 196.698 195.608 197.556 195.837L200.516 192.877C198.751 192.117 196.848 191.728 194.927 191.733C192.568 191.73 190.245 192.312 188.166 193.428C186.088 194.543 184.319 196.157 183.018 198.125C181.716 200.093 180.924 202.352 180.711 204.702C180.498 207.051 180.872 209.417 181.798 211.586L184.758 208.617Z" fill="url(#paint0_linear_10443_91560)"/>
<path d="M184.758 208.617C184.348 207.064 184.3 205.438 184.619 203.864C184.939 202.29 185.616 200.811 186.6 199.541C187.583 198.272 188.846 197.245 190.29 196.543C191.734 195.84 193.321 195.479 194.927 195.489C195.814 195.49 196.698 195.608 197.556 195.837L200.516 192.877C198.751 192.117 196.848 191.728 194.927 191.733C192.568 191.73 190.245 192.312 188.166 193.428C186.088 194.543 184.319 196.157 183.018 198.125C181.716 200.093 180.924 202.352 180.711 204.702C180.498 207.051 180.872 209.417 181.798 211.586L184.758 208.617Z" fill="white"/>
<path d="M204.818 202.473C205.224 203.6 205.433 204.789 205.435 205.988C205.432 208.775 204.325 211.447 202.355 213.419C200.385 215.39 197.714 216.5 194.927 216.505C193.728 216.5 192.539 216.288 191.412 215.879L188.577 218.74C191.251 220.078 194.279 220.54 197.231 220.06C200.182 219.58 202.907 218.183 205.02 216.067C207.133 213.951 208.526 211.224 209.002 208.272C209.478 205.32 209.012 202.293 207.67 199.62L204.818 202.473Z" fill="url(#paint1_linear_10443_91560)"/>
<path d="M204.818 202.473C205.224 203.6 205.433 204.789 205.435 205.988C205.432 208.775 204.325 211.447 202.355 213.419C200.385 215.39 197.714 216.5 194.927 216.505C193.728 216.5 192.539 216.288 191.412 215.879L188.577 218.74C191.251 220.078 194.279 220.54 197.231 220.06C200.182 219.58 202.907 218.183 205.02 216.067C207.133 213.951 208.526 211.224 209.002 208.272C209.478 205.32 209.012 202.293 207.67 199.62L204.818 202.473Z" fill="white"/>
<path d="M184.508 208.903C182.898 205.83 182.31 202.324 182.83 198.894C183.351 195.464 184.952 192.29 187.402 189.834C189.851 187.377 193.021 185.767 196.449 185.236C199.878 184.706 203.386 185.284 206.463 186.885L209.226 184.122C205.391 181.852 200.909 180.923 196.488 181.482C192.066 182.04 187.957 184.055 184.807 187.208C181.657 190.361 179.646 194.473 179.092 198.895C178.537 203.317 179.471 207.798 181.745 211.631L184.508 208.903Z" fill="url(#paint2_linear_10443_91560)"/>
<path d="M184.508 208.903C182.898 205.83 182.31 202.324 182.83 198.894C183.351 195.464 184.952 192.29 187.402 189.834C189.851 187.377 193.021 185.767 196.449 185.236C199.878 184.706 203.386 185.284 206.463 186.885L209.226 184.122C205.391 181.852 200.909 180.923 196.488 181.482C192.066 182.04 187.957 184.055 184.807 187.208C181.657 190.361 179.646 194.473 179.092 198.895C178.537 203.317 179.471 207.798 181.745 211.631L184.508 208.903Z" fill="white"/>
<path d="M213.448 193.843C214.666 196.159 215.302 198.738 215.299 201.355C215.303 204.159 214.584 206.916 213.211 209.36C211.838 211.804 209.857 213.853 207.461 215.308C205.064 216.763 202.333 217.575 199.531 217.665C196.729 217.756 193.951 217.122 191.466 215.825L188.702 218.588C192.538 220.875 197.026 221.818 201.458 221.267C205.889 220.715 210.01 218.702 213.168 215.545C216.326 212.387 218.341 208.267 218.894 203.836C219.447 199.405 218.506 194.916 216.22 191.08L213.448 193.843Z" fill="url(#paint3_linear_10443_91560)"/>
<path d="M213.448 193.843C214.666 196.159 215.302 198.738 215.299 201.355C215.303 204.159 214.584 206.916 213.211 209.36C211.838 211.804 209.857 213.853 207.461 215.308C205.064 216.763 202.333 217.575 199.531 217.665C196.729 217.756 193.951 217.122 191.466 215.825L188.702 218.588C192.538 220.875 197.026 221.818 201.458 221.267C205.889 220.715 210.01 218.702 213.168 215.545C216.326 212.387 218.341 208.267 218.894 203.836C219.447 199.405 218.506 194.916 216.22 191.08L213.448 193.843Z" fill="white"/>
<path d="M219.182 178.502L168.005 229.68L170.661 232.336L221.838 181.158L219.182 178.502Z" fill="url(#paint4_linear_10443_91560)"/>
</g>
<circle cx="180.5" cy="254.5" r="8.5" fill="#EA3206"/>
<path d="M339.132 338.16C337.583 339.71 335.125 340.384 331.735 340.128C328.35 339.873 324.119 338.692 319.138 336.637C309.181 332.529 296.341 324.972 281.492 314.565C251.801 293.756 214.155 261.607 175.598 223.051C137.042 184.495 104.894 146.849 84.0844 117.157C73.6773 102.308 66.1206 89.4687 62.0122 79.5115C59.9571 74.5307 58.777 70.2995 58.5212 66.9145C58.2651 63.5251 58.9399 61.0667 60.4894 59.5172C62.0389 57.9677 64.4973 57.2929 67.8868 57.549C71.2717 57.8048 75.5029 58.9849 80.4837 61.04C90.4409 65.1484 103.28 72.7051 118.13 83.1122C147.821 103.922 185.467 136.07 224.023 174.626C262.579 213.182 294.728 250.829 315.537 280.52C325.944 295.369 333.501 308.209 337.61 318.166C339.665 323.147 340.845 327.378 341.101 330.763C341.357 334.152 340.682 336.611 339.132 338.16Z" stroke="#4D4D4D"/>
<circle cx="120.787" cy="82.7869" r="9.28689" fill="black" stroke="white"/>
<path fill-rule="evenodd" clip-rule="evenodd" d="M126.672 84.9628C126.451 84.9873 126.227 84.9999 126 84.9999C122.686 84.9999 120 82.3137 120 78.9999C120 78.3125 120.116 77.6521 120.328 77.0371C117.331 77.371 115 79.9133 115 82.9999C115 86.3137 117.686 88.9999 121 88.9999C123.626 88.9999 125.858 87.3126 126.672 84.9628Z" fill="white"/>
<defs>
<linearGradient id="paint0_linear_10443_91560" x1="213.066" y1="186.662" x2="164.614" y2="196.98" gradientUnits="userSpaceOnUse">
<stop stop-color="#CAB7FF"/>
<stop offset="0.162438" stop-color="#FFCEF4"/>
<stop offset="0.298373" stop-color="#F0FFC5"/>
<stop offset="0.601047" stop-color="#59FF9C"/>
<stop offset="1" stop-color="#B659FF"/>
</linearGradient>
<linearGradient id="paint1_linear_10443_91560" x1="213.066" y1="186.662" x2="164.614" y2="196.98" gradientUnits="userSpaceOnUse">
<stop stop-color="#CAB7FF"/>
<stop offset="0.162438" stop-color="#FFCEF4"/>
<stop offset="0.298373" stop-color="#F0FFC5"/>
<stop offset="0.601047" stop-color="#59FF9C"/>
<stop offset="1" stop-color="#B659FF"/>
</linearGradient>
<linearGradient id="paint2_linear_10443_91560" x1="213.066" y1="186.662" x2="164.614" y2="196.98" gradientUnits="userSpaceOnUse">
<stop stop-color="#CAB7FF"/>
<stop offset="0.162438" stop-color="#FFCEF4"/>
<stop offset="0.298373" stop-color="#F0FFC5"/>
<stop offset="0.601047" stop-color="#59FF9C"/>
<stop offset="1" stop-color="#B659FF"/>
</linearGradient>
<linearGradient id="paint3_linear_10443_91560" x1="213.066" y1="186.662" x2="164.614" y2="196.98" gradientUnits="userSpaceOnUse">
<stop stop-color="#CAB7FF"/>
<stop offset="0.162438" stop-color="#FFCEF4"/>
<stop offset="0.298373" stop-color="#F0FFC5"/>
<stop offset="0.601047" stop-color="#59FF9C"/>
<stop offset="1" stop-color="#B659FF"/>
</linearGradient>
<linearGradient id="paint4_linear_10443_91560" x1="169.333" y1="231.008" x2="220.51" y2="179.83" gradientUnits="userSpaceOnUse">
<stop stop-opacity="0"/>
<stop offset="0.643466" stop-color="white"/>
</linearGradient>
<clipPath id="clip0_10443_91560">
<rect width="53.8279" height="53.8279" fill="white" transform="translate(168.008 178.497)"/>
</clipPath>
</defs>
</svg>
