<svg width="398" height="399" viewBox="0 0 398 399" fill="none" xmlns="http://www.w3.org/2000/svg">
<circle cx="199" cy="199.702" r="198.5" fill="black" stroke="#4D4D4D"/>
<circle cx="199" cy="199.701" r="156.09" stroke="#4D4D4D"/>
<circle cx="334.385" cy="274.735" r="27.7295" fill="#EA3206"/>
<path fill-rule="evenodd" clip-rule="evenodd" d="M346.214 274.205L339.471 285.884C339.229 286.322 338.892 286.7 338.485 286.99C338.046 287.276 337.536 287.435 337.012 287.448C336.981 287.455 336.95 287.457 336.919 287.454C336.393 287.449 335.876 287.308 335.421 287.045C334.951 286.773 334.556 286.389 334.272 285.926L325.892 271.254C325.8 271.094 325.752 270.913 325.753 270.729C325.753 270.545 325.801 270.364 325.893 270.204C325.988 270.055 326.12 269.932 326.276 269.849C326.432 269.765 326.606 269.723 326.783 269.727L343.584 269.712C344.105 269.666 344.629 269.747 345.112 269.95C345.636 270.204 346.072 270.611 346.361 271.117C346.656 271.618 346.785 272.199 346.73 272.778C346.667 273.286 346.49 273.773 346.214 274.205ZM341.583 278.053L344.407 273.162C344.53 272.994 344.611 272.8 344.645 272.595C344.663 272.442 344.63 272.288 344.552 272.155C344.475 272.02 344.356 271.913 344.213 271.85C344.02 271.791 343.816 271.775 343.616 271.803L343.631 271.811L330.718 271.771L341.583 278.053ZM340.54 279.86L329.589 273.537L336.089 284.873C336.19 285.024 336.325 285.149 336.483 285.239C336.616 285.317 336.766 285.363 336.921 285.373C337.012 285.364 337.103 285.351 337.192 285.332C337.23 285.315 337.264 285.291 337.293 285.261C337.453 285.15 337.584 285 337.673 284.826L340.54 279.86Z" fill="black"/>
<circle cx="282.189" cy="67.5799" r="8.78689" fill="black" stroke="#EA3206" stroke-width="2"/>
<circle cx="101.131" cy="320.407" r="11.1784" fill="black" stroke="white" stroke-width="2"/>
<circle cx="199" cy="199.703" r="113.68" stroke="#4D4D4D"/>
<circle cx="101.131" cy="145.875" r="9.78689" fill="#EA3206"/>
<circle cx="200.631" cy="43.1125" r="6.52459" fill="white"/>
<line x1="199.5" y1="101" x2="199.5" y2="298" stroke="white"/>
<line x1="296" y1="200.5" x2="102" y2="200.5" stroke="white"/>
<line x1="265.013" y1="134.403" x2="133.694" y2="265.723" stroke="white"/>
<line x1="137.039" y1="137.041" x2="261.668" y2="261.67" stroke="white"/>
<line x1="189.222" y1="115.401" x2="209.77" y2="279.784" stroke="white"/>
<line x1="274.586" y1="191.372" x2="123.53" y2="209.041" stroke="white"/>
<line x1="247.745" y1="138.857" x2="151.04" y2="261.183" stroke="white"/>
<line x1="140.256" y1="152.633" x2="258.364" y2="246.004" stroke="white"/>
<line x1="178.938" y1="115.344" x2="220.034" y2="283.837" stroke="white"/>
<line x1="279.089" y1="180.703" x2="119.147" y2="219.692" stroke="white"/>
<line x1="243.272" y1="127.857" x2="155.582" y2="272.083" stroke="white"/>
<line x1="129.634" y1="156.949" x2="268.886" y2="241.616" stroke="white"/>
<line x1="170.699" y1="125.555" x2="230.287" y2="277.609" stroke="white"/>
<line x1="271.236" y1="173.039" x2="127.117" y2="227.313" stroke="white"/>
<line x1="232.024" y1="127.998" x2="166.886" y2="271.833" stroke="white"/>
<line x1="129.769" y1="167.807" x2="268.643" y2="230.699" stroke="white"/>
<line x1="160.399" y1="125.499" x2="240.535" y2="273.444" stroke="white"/>
<line x1="272.773" y1="160.317" x2="125.703" y2="239.979" stroke="white"/>
<line x1="223.914" y1="117.662" x2="175.044" y2="282.043" stroke="white"/>
<line x1="119.786" y1="175.637" x2="278.498" y2="222.822" stroke="white"/>
<line x1="152.996" y1="137.517" x2="245.805" y2="261.304" stroke="white"/>
<line x1="266.211" y1="149.941" x2="132.388" y2="250.275" stroke="white"/>
<line x1="211.635" y1="114.898" x2="187.355" y2="284.662" stroke="white"/>
<line x1="117.115" y1="187.492" x2="281.025" y2="210.935" stroke="white"/>
<path d="M265.5 199.5C265.5 236.507 235.723 266.5 199 266.5C162.277 266.5 132.5 236.507 132.5 199.5C132.5 162.493 162.277 132.5 199 132.5C235.723 132.5 265.5 162.493 265.5 199.5Z" fill="black" stroke="white"/>
<g clip-path="url(#clip0_10473_90932)">
<path d="M181.604 210.693C181.124 208.905 181.068 207.032 181.442 205.219C181.815 203.406 182.609 201.702 183.76 200.24C184.911 198.777 186.388 197.595 188.079 196.786C189.769 195.976 191.626 195.561 193.505 195.572C194.544 195.574 195.579 195.709 196.582 195.974L200.047 192.564C197.981 191.689 195.755 191.24 193.505 191.246C190.744 191.242 188.026 191.913 185.593 193.198C183.16 194.483 181.09 196.342 179.567 198.608C178.044 200.875 177.117 203.478 176.867 206.184C176.618 208.89 177.056 211.614 178.14 214.113L181.604 210.693Z" fill="url(#paint0_linear_10473_90932)"/>
<path d="M181.604 210.693C181.124 208.905 181.068 207.032 181.442 205.219C181.815 203.406 182.609 201.702 183.76 200.24C184.911 198.777 186.388 197.595 188.079 196.786C189.769 195.976 191.626 195.561 193.505 195.572C194.544 195.574 195.579 195.709 196.582 195.974L200.047 192.564C197.981 191.689 195.755 191.24 193.505 191.246C190.744 191.242 188.026 191.913 185.593 193.198C183.16 194.483 181.09 196.342 179.567 198.608C178.044 200.875 177.117 203.478 176.867 206.184C176.618 208.89 177.056 211.614 178.14 214.113L181.604 210.693Z" fill="white"/>
<path d="M205.082 203.617C205.557 204.915 205.802 206.285 205.804 207.665C205.801 210.875 204.505 213.953 202.199 216.224C199.894 218.495 196.767 219.773 193.505 219.779C192.102 219.773 190.71 219.529 189.392 219.057L186.074 222.354C189.204 223.894 192.747 224.426 196.202 223.874C199.656 223.321 202.846 221.712 205.319 219.275C207.792 216.838 209.422 213.696 209.979 210.296C210.536 206.895 209.991 203.409 208.42 200.331L205.082 203.617Z" fill="url(#paint1_linear_10473_90932)"/>
<path d="M205.082 203.617C205.557 204.915 205.802 206.285 205.804 207.665C205.801 210.875 204.505 213.953 202.199 216.224C199.894 218.495 196.767 219.773 193.505 219.779C192.102 219.773 190.71 219.529 189.392 219.057L186.074 222.354C189.204 223.894 192.747 224.426 196.202 223.874C199.656 223.321 202.846 221.712 205.319 219.275C207.792 216.838 209.422 213.696 209.979 210.296C210.536 206.895 209.991 203.409 208.42 200.331L205.082 203.617Z" fill="white"/>
<path d="M181.311 211.023C179.426 207.484 178.739 203.445 179.348 199.494C179.957 195.544 181.831 191.888 184.698 189.058C187.565 186.229 191.275 184.374 195.288 183.763C199.3 183.152 203.406 183.818 207.007 185.663L210.242 182.48C205.753 179.865 200.508 178.795 195.333 179.438C190.158 180.082 185.348 182.402 181.661 186.034C177.974 189.666 175.621 194.402 174.972 199.495C174.323 204.589 175.416 209.75 178.077 214.165L181.311 211.023Z" fill="url(#paint2_linear_10473_90932)"/>
<path d="M181.311 211.023C179.426 207.484 178.739 203.445 179.348 199.494C179.957 195.544 181.831 191.888 184.698 189.058C187.565 186.229 191.275 184.374 195.288 183.763C199.3 183.152 203.406 183.818 207.007 185.663L210.242 182.48C205.753 179.865 200.508 178.795 195.333 179.438C190.158 180.082 185.348 182.402 181.661 186.034C177.974 189.666 175.621 194.402 174.972 199.495C174.323 204.589 175.416 209.75 178.077 214.165L181.311 211.023Z" fill="white"/>
<path d="M215.182 193.677C216.608 196.344 217.352 199.314 217.349 202.329C217.354 205.558 216.512 208.734 214.905 211.549C213.298 214.365 210.98 216.724 208.175 218.4C205.37 220.076 202.174 221.011 198.894 221.116C195.615 221.22 192.363 220.49 189.455 218.996L186.22 222.179C190.709 224.813 195.963 225.898 201.149 225.263C206.336 224.628 211.159 222.309 214.855 218.673C218.551 215.036 220.91 210.29 221.556 205.187C222.203 200.083 221.102 194.912 218.427 190.494L215.182 193.677Z" fill="url(#paint3_linear_10473_90932)"/>
<path d="M215.182 193.677C216.608 196.344 217.352 199.314 217.349 202.329C217.354 205.558 216.512 208.734 214.905 211.549C213.298 214.365 210.98 216.724 208.175 218.4C205.37 220.076 202.174 221.011 198.894 221.116C195.615 221.22 192.363 220.49 189.455 218.996L186.22 222.179C190.709 224.813 195.963 225.898 201.149 225.263C206.336 224.628 211.159 222.309 214.855 218.673C218.551 215.036 220.91 210.29 221.556 205.187C222.203 200.083 221.102 194.912 218.427 190.494L215.182 193.677Z" fill="white"/>
<path d="M221.894 176.006L161.996 234.953L165.105 238.012L225.002 179.065L221.894 176.006Z" fill="url(#paint4_linear_10473_90932)"/>
</g>
<defs>
<linearGradient id="paint0_linear_10473_90932" x1="214.736" y1="185.405" x2="158.107" y2="197.659" gradientUnits="userSpaceOnUse">
<stop stop-color="#CAB7FF"/>
<stop offset="0.162438" stop-color="#FFCEF4"/>
<stop offset="0.298373" stop-color="#F0FFC5"/>
<stop offset="0.601047" stop-color="#59FF9C"/>
<stop offset="1" stop-color="#B659FF"/>
</linearGradient>
<linearGradient id="paint1_linear_10473_90932" x1="214.736" y1="185.405" x2="158.107" y2="197.659" gradientUnits="userSpaceOnUse">
<stop stop-color="#CAB7FF"/>
<stop offset="0.162438" stop-color="#FFCEF4"/>
<stop offset="0.298373" stop-color="#F0FFC5"/>
<stop offset="0.601047" stop-color="#59FF9C"/>
<stop offset="1" stop-color="#B659FF"/>
</linearGradient>
<linearGradient id="paint2_linear_10473_90932" x1="214.736" y1="185.405" x2="158.107" y2="197.659" gradientUnits="userSpaceOnUse">
<stop stop-color="#CAB7FF"/>
<stop offset="0.162438" stop-color="#FFCEF4"/>
<stop offset="0.298373" stop-color="#F0FFC5"/>
<stop offset="0.601047" stop-color="#59FF9C"/>
<stop offset="1" stop-color="#B659FF"/>
</linearGradient>
<linearGradient id="paint3_linear_10473_90932" x1="214.736" y1="185.405" x2="158.107" y2="197.659" gradientUnits="userSpaceOnUse">
<stop stop-color="#CAB7FF"/>
<stop offset="0.162438" stop-color="#FFCEF4"/>
<stop offset="0.298373" stop-color="#F0FFC5"/>
<stop offset="0.601047" stop-color="#59FF9C"/>
<stop offset="1" stop-color="#B659FF"/>
</linearGradient>
<linearGradient id="paint4_linear_10473_90932" x1="163.55" y1="236.483" x2="222.49" y2="176.593" gradientUnits="userSpaceOnUse">
<stop stop-opacity="0"/>
<stop offset="0.643466" stop-color="white"/>
</linearGradient>
<clipPath id="clip0_10473_90932">
<rect width="63" height="62" fill="white" transform="translate(162 176)"/>
</clipPath>
</defs>
</svg>
