<svg width="238" height="17" viewBox="0 0 238 17" fill="none" xmlns="http://www.w3.org/2000/svg">
<path d="M0.587389 0H20.5331C20.9162 0 21.1205 0.170001 21.1205 0.534286V2.91429C21.1205 3.27857 20.9162 3.47286 20.5331 3.47286H12.5139V16.4657C12.5139 16.83 12.3352 17 11.9521 17H9.16838C8.7853 17 8.60653 16.83 8.60653 16.4657V3.47286H0.587389C0.204309 3.47286 0 3.27857 0 2.91429V0.534286C0 0.170001 0.204309 0 0.587389 0Z" fill="white"/>
<path d="M42.6117 0H50.5031C55.6875 0 57.6539 1.74857 57.6539 6.41143V10.5886C57.6539 15.2514 55.6875 17 50.5031 17H42.6117C37.4529 17 35.4608 15.2514 35.4608 10.5886V6.41143C35.4608 1.74857 37.4529 0 42.6117 0ZM39.3683 6.67857V10.3214C39.3683 12.8714 40.1344 13.6243 42.7649 13.6243H50.3499C52.9804 13.6243 53.7465 12.8714 53.7465 10.3214V6.67857C53.7465 4.12857 52.9804 3.37571 50.3499 3.37571H42.7649C40.1344 3.37571 39.3683 4.12857 39.3683 6.67857Z" fill="white"/>
<path d="M75.8975 0H78.1449C79.7794 0 80.1369 0.194286 81.1074 1.43286L90.6078 13.2843C90.6844 13.4057 90.7866 13.4543 90.9398 13.4543H91.1696C91.2973 13.4543 91.374 13.3814 91.374 13.2114V0.534286C91.374 0.170001 91.5527 0 91.9358 0H94.6174C95.0004 0 95.1792 0.170001 95.1792 0.534286V14.4743C95.1792 16.4414 94.4386 17 92.8807 17H90.6844C89.1265 17 88.7435 16.8543 87.7219 15.5671L78.196 3.71571C78.0938 3.59429 78.0172 3.54571 77.864 3.54571H77.6341C77.4809 3.54571 77.4298 3.61857 77.4298 3.78857V16.4657C77.4298 16.83 77.2511 17 76.868 17H74.1864C73.8033 17 73.599 16.83 73.599 16.4657V2.52572C73.599 0.558572 74.3397 0 75.8975 0Z" fill="white"/>
<path d="M118.28 0H129.517C129.9 0 130.104 0.170001 130.104 0.534286V2.84143C130.104 3.20572 129.9 3.37571 129.517 3.37571H118.357C115.701 3.37571 114.96 4.12857 114.96 6.67857V6.92143H129.389C129.772 6.92143 129.951 7.09143 129.951 7.45571V9.37429C129.951 9.73857 129.772 9.90857 129.389 9.90857H114.96V10.3214C114.96 12.8714 115.701 13.6243 118.357 13.6243H129.517C129.9 13.6243 130.104 13.7943 130.104 14.1586V16.4657C130.104 16.83 129.9 17 129.517 17H118.28C113.121 17 111.129 15.2514 111.129 10.5886V6.41143C111.129 1.74857 113.121 0 118.28 0Z" fill="white"/>
<path d="M162.375 0H165.695C166.155 0 166.18 0.412858 165.951 0.631429L158.11 8.18429L166.308 16.3686C166.538 16.5871 166.512 17 166.053 17H162.554C162.145 17 161.941 16.9029 161.737 16.66L155.429 10.37L149.095 16.66C148.865 16.9029 148.687 17 148.252 17H144.932C144.498 17 144.473 16.5871 144.702 16.3686L153.105 8.06286L145.52 0.631429C145.315 0.412858 145.315 0 145.775 0H149.274C149.683 0 149.887 0.121429 150.091 0.34L155.659 5.97429L161.558 0.34C161.762 0.121429 161.967 0 162.375 0Z" fill="white"/>
<path d="M181.852 0H184.61C184.993 0 185.172 0.170001 185.172 0.534286V10.2243C185.172 12.7986 185.938 13.5514 188.568 13.5514H195.643C198.273 13.5514 199.014 12.7986 199.014 10.2243V0.534286C199.014 0.170001 199.192 0 199.576 0H202.359C202.742 0 202.921 0.170001 202.921 0.534286V10.5886C202.921 15.2514 200.955 17 195.77 17H188.415C183.256 17 181.264 15.2514 181.264 10.5886V0.534286C181.264 0.170001 181.469 0 181.852 0Z" fill="white"/>
<path d="M223.239 0H236.774C237.157 0 237.336 0.170001 237.336 0.534286V2.84143C237.336 3.20572 237.157 3.37571 236.774 3.37571H223.979C223.009 3.37571 222.626 3.88571 222.626 4.73572V5.56143C222.626 6.46 223.06 6.92143 223.954 6.92143H233.531C236.468 6.92143 238 8.42714 238 11.0986V13.0414C238 15.3971 236.57 17 233.48 17H219.331C218.948 17 218.744 16.83 218.744 16.4657V14.1586C218.744 13.7943 218.948 13.6243 219.331 13.6243H232.739C233.71 13.6243 234.093 13.1143 234.093 12.2643V11.2686C234.093 10.37 233.658 9.90857 232.765 9.90857H223.188C220.251 9.90857 218.718 8.40286 218.718 5.73143V3.95857C218.718 1.60286 220.148 0 223.239 0Z" fill="white"/>
</svg>
